<?xml version="1.0" encoding="utf-8"?>
<svg viewBox="-394.165 192.84 423.12 317.72" xmlns="http://www.w3.org/2000/svg">
  <g class="cls-4" transform="matrix(1, 0, 0, 1, -451.504852, -290.860016)" style="opacity: 0.15;">
    <polygon class="cls-5" points="71.09 800.42 413.56 800.42 421.38 789.21 59.77 789.21 71.09 800.42" style="fill: rgb(128, 133, 140);"/>
    <path class="cls-5" d="M414.08,801.42H70.68L57.34,788.21h366Zm-342.57-2H413l6.42-9.21H62.2Z" style="fill: rgb(128, 133, 140);"/>
  </g>
  <polygon class="cls-3" points="479.95 636.86 479.84 636.61 479.69 636.3 479.48 636.09 479.26 635.89 458.65 622.22 458.06 622.03 457.46 622.04 456.87 622.26 456.46 622.72 456.3 623.32 456.31 623.88 458.81 633.7 422.61 633.33 422.61 484.2 59.77 484.2 59.77 788.96 422.61 788.96 422.61 642.38 458.96 641.5 456.85 651.38 456.86 652.01 457.05 652.57 457.48 652.98 458.08 653.25 458.67 653.24 459.26 653.02 479.31 638.51 479.52 638.3 479.73 638.05 479.86 637.8 479.96 637.49 479.95 636.86" style="fill: rgb(255, 255, 255);" transform="matrix(1, 0, 0, 1, -451.504852, -290.860016)"/>
  <path class="cls-10" d="M423.1,789.46H59.27V483.7H423.1V632.84l35.07.35-2.36-9.3v-.63l.21-.78.57-.65.87-.29.68,0,.8.29,20.61,13.66.6.62.31.76v.71l-.12.39-.18.34-.48.57-20.24,14.62-.76.26H458l-.85-.41-.52-.5-.25-.82v-.69l2-9.31-35.24.85Zm-362.83-1H422.1V641.89l37.49-.9-2.24,10.44v.5l.12.36.28.27.42.19h.4l.44-.17,20-14.46.32-.38.12-.3V637l-.17-.37-.36-.35-20.48-13.57-.46-.15h-.42l-.4.14-.25.29-.11.41v.43l2.65,10.4-37.36-.38V484.7H60.27Z" style="fill: rgb(153, 153, 153);" transform="matrix(1, 0, 0, 1, -451.504852, -290.860016)"/>
  <path d="M122,514.81h3v14.4h-3Z" transform="matrix(1, 0, 0, 1, -451.504852, -290.860016)"/>
  <path d="M128,514.81h2.74l5.51,8.39v-8.39h2.91v14.4h-2.54l-5.7-8.7v8.7H128Z" transform="matrix(1, 0, 0, 1, -451.504852, -290.860016)"/>
  <path d="M144.76,517.56h-3.62v-2.75h10.2v2.75h-3.62v11.65h-3Z" transform="matrix(1, 0, 0, 1, -451.504852, -290.860016)"/>
  <path d="M153.35,514.81h9.27v2.69h-6.31v3.11h5.55v2.69h-5.55v3.21h6.39v2.7h-9.35Z" transform="matrix(1, 0, 0, 1, -451.504852, -290.860016)"/>
  <path d="M164.46,522.11v-.19c0-4.25,2.82-7.32,6.73-7.32a6.72,6.72,0,0,1,4.7,1.69l-1.77,2.32a4.07,4.07,0,0,0-3-1.23c-2,0-3.61,1.87-3.61,4.52v.17c0,3,1.62,4.63,3.74,4.63a3.62,3.62,0,0,0,2.13-.6v-2.55h-2.61V521h5.45v6.66a8.31,8.31,0,0,1-5.12,1.79C167.26,529.41,164.46,526.61,164.46,522.11Z" transform="matrix(1, 0, 0, 1, -451.504852, -290.860016)"/>
  <path d="M178.79,514.81h5.4a5.34,5.34,0,0,1,3.91,1.38,4.55,4.55,0,0,1,1.21,3.33v.08a4.35,4.35,0,0,1-2.67,4.26l3.06,5.35h-3.41l-2.65-4.73h-1.87v4.73h-3Zm5.17,7a2.07,2.07,0,0,0,2.35-2.16v0c0-1.44-.89-2.16-2.41-2.16h-2.13v4.34Z" transform="matrix(1, 0, 0, 1, -451.504852, -290.860016)"/>
  <path d="M195.74,514.73h2.83l5.16,14.48h-3.08l-1.07-3.13h-5l-1,3.13h-3Zm2.94,8.72-1.57-4.69-1.58,4.69Z" transform="matrix(1, 0, 0, 1, -451.504852, -290.860016)"/>
  <path d="M206.79,517.56h-3.62v-2.75h10.2v2.75h-3.62v11.65h-3Z" transform="matrix(1, 0, 0, 1, -451.504852, -290.860016)"/>
  <path d="M215.48,514.81h3v14.4h-3Z" transform="matrix(1, 0, 0, 1, -451.504852, -290.860016)"/>
  <path d="M220.92,522.15v-.25c0-4.32,2.72-7.34,6.52-7.34s6.5,3,6.5,7.3v.25c0,4.3-2.72,7.34-6.52,7.34S220.92,526.45,220.92,522.15Zm9.93-.06V522c0-2.84-1.44-4.63-3.43-4.63s-3.43,1.77-3.43,4.6v.15c0,2.84,1.46,4.63,3.45,4.63S230.85,524.93,230.85,522.09Z" transform="matrix(1, 0, 0, 1, -451.504852, -290.860016)"/>
  <path d="M236.29,514.81H239l5.51,8.39v-8.39h2.91v14.4h-2.54l-5.7-8.7v8.7h-2.92Z" transform="matrix(1, 0, 0, 1, -451.504852, -290.860016)"/>
  <path d="M254.93,514.81h9.27v2.69h-6.31v3.11h5.55v2.69h-5.55v3.21h6.39v2.7h-9.35Z" transform="matrix(1, 0, 0, 1, -451.504852, -290.860016)"/>
  <path d="M266.62,514.81h2.73l5.51,8.39v-8.39h2.92v14.4h-2.55l-5.69-8.7v8.7h-2.92Z" transform="matrix(1, 0, 0, 1, -451.504852, -290.860016)"/>
  <path d="M284.72,514.73h2.84l5.16,14.48h-3.08l-1.07-3.13h-5l-1.05,3.13h-3Zm2.94,8.72-1.56-4.69-1.58,4.69Z" transform="matrix(1, 0, 0, 1, -451.504852, -290.860016)"/>
  <path d="M294.5,514.81h5.35a5.28,5.28,0,0,1,3.76,1.25,3.36,3.36,0,0,1,1,2.45v.06a3.37,3.37,0,0,1-1.95,3.15,3.43,3.43,0,0,1,2.57,3.43v.11c0,2.59-2.08,4-5.2,4H294.5Zm7.13,4.23c0-1-.74-1.6-2-1.6H297.4v3.25h2.08c1.31,0,2.15-.53,2.15-1.62ZM300,523.2H297.4v3.37h2.67c1.34,0,2.18-.57,2.18-1.68v0C302.25,523.84,301.49,523.2,300,523.2Z" transform="matrix(1, 0, 0, 1, -451.504852, -290.860016)"/>
  <path d="M307.34,514.81h3v11.66h5.82v2.74h-8.8Z" transform="matrix(1, 0, 0, 1, -451.504852, -290.860016)"/>
  <path d="M318.13,514.81h9.27v2.69h-6.31v3.11h5.55v2.69h-5.55v3.21h6.39v2.7h-9.35Z" transform="matrix(1, 0, 0, 1, -451.504852, -290.860016)"/>
  <path d="M329.82,514.81h5.41a5.31,5.31,0,0,1,3.9,1.38,4.55,4.55,0,0,1,1.21,3.33v.08a4.35,4.35,0,0,1-2.67,4.26l3.06,5.35h-3.41l-2.65-4.73H332.8v4.73h-3Zm5.18,7a2.07,2.07,0,0,0,2.34-2.16v0c0-1.44-.88-2.16-2.4-2.16H332.8v4.34Z" transform="matrix(1, 0, 0, 1, -451.504852, -290.860016)"/>
  <path d="M341.65,527.27l1.77-2.2A5.51,5.51,0,0,0,347,526.7c1.15,0,1.85-.58,1.85-1.42v0c0-.72-.41-1.18-2.47-2-2.55-1-4.13-1.95-4.13-4.42v0c0-2.51,1.93-4.22,4.71-4.22a6.84,6.84,0,0,1,4.64,1.77l-1.66,2.26a5.06,5.06,0,0,0-3.07-1.33c-1,0-1.66.51-1.66,1.25v0c0,.83.49,1.22,2.73,2.14,2.51,1,3.87,2.06,3.87,4.3v0c0,2.68-2,4.32-4.83,4.32A7.75,7.75,0,0,1,341.65,527.27Z" transform="matrix(1, 0, 0, 1, -451.504852, -290.860016)"/>
  <rect class="cls-3" x="101.31" y="568.02" width="271.67" height="79.52" rx="4" style="fill: rgb(255, 255, 255);" transform="matrix(1, 0, 0, 1, -451.504852, -290.860016)"/>
  <path class="cls-11" d="M369,648H105.31a4.51,4.51,0,0,1-4.5-4.5V572a4.51,4.51,0,0,1,4.5-4.5H369a4.51,4.51,0,0,1,4.5,4.5v71.52A4.51,4.51,0,0,1,369,648ZM105.31,568.52a3.5,3.5,0,0,0-3.5,3.5v71.52a3.5,3.5,0,0,0,3.5,3.5H369a3.5,3.5,0,0,0,3.5-3.5V572a3.5,3.5,0,0,0-3.5-3.5Z" style="fill: rgb(79, 87, 97);" transform="matrix(1, 0, 0, 1, -451.504852, -290.860016)"/>
  <rect class="cls-3" x="125.32" y="554.6" width="216.8" height="27.15" style="fill: rgb(255, 255, 255);" transform="matrix(1, 0, 0, 1, -451.504852, -290.860016)"/>
  <path class="cls-11" d="M166.83,568.31v-.14c0-3.52,2.18-5.91,5.25-5.91a4.89,4.89,0,0,1,3.73,1.54l-1.44,1.86A3.26,3.26,0,0,0,172,564.5c-1.56,0-2.7,1.44-2.7,3.7v0c0,2.3,1.19,3.71,2.73,3.71a3.26,3.26,0,0,0,2.39-1.21l1.44,1.71a5,5,0,0,1-3.93,1.74C168.88,574.2,166.83,571.86,166.83,568.31Z" style="fill: rgb(79, 87, 97);" transform="matrix(1, 0, 0, 1, -451.504852, -290.860016)"/>
  <path class="cls-11" d="M176.73,568.35v-.2c0-3.48,2.19-5.92,5.26-5.92s5.23,2.42,5.23,5.89v.19c0,3.47-2.18,5.93-5.25,5.93S176.73,571.81,176.73,568.35Zm8-.05v-.12c0-2.29-1.16-3.73-2.77-3.73s-2.77,1.43-2.77,3.72v.11c0,2.29,1.18,3.73,2.79,3.73S184.74,570.59,184.74,568.3Z" style="fill: rgb(79, 87, 97);" transform="matrix(1, 0, 0, 1, -451.504852, -290.860016)"/>
  <path class="cls-11" d="M189.13,562.43h2.2l4.44,6.76v-6.76h2.36V574h-2.06l-4.59-7v7h-2.35Z" style="fill: rgb(79, 87, 97);" transform="matrix(1, 0, 0, 1, -451.504852, -290.860016)"/>
  <path class="cls-11" d="M202.66,564.65h-2.91v-2.22H208v2.22h-2.92V574h-2.39Z" style="fill: rgb(79, 87, 97);" transform="matrix(1, 0, 0, 1, -451.504852, -290.860016)"/>
  <path class="cls-11" d="M211.68,562.36H214L218.12,574h-2.48l-.86-2.52h-4l-.84,2.52h-2.42Zm2.37,7-1.26-3.78-1.28,3.78Z" style="fill: rgb(79, 87, 97);" transform="matrix(1, 0, 0, 1, -451.504852, -290.860016)"/>
  <path class="cls-11" d="M219.65,562.43h2.4V574h-2.4Z" style="fill: rgb(79, 87, 97);" transform="matrix(1, 0, 0, 1, -451.504852, -290.860016)"/>
  <path class="cls-11" d="M224.45,562.43h2.2l4.45,6.76v-6.76h2.35V574h-2.06l-4.59-7v7h-2.35Z" style="fill: rgb(79, 87, 97);" transform="matrix(1, 0, 0, 1, -451.504852, -290.860016)"/>
  <path class="cls-11" d="M235.77,562.43h7.47v2.17h-5.09v2.5h4.48v2.18h-4.48v2.58h5.16V574h-7.54Z" style="fill: rgb(79, 87, 97);" transform="matrix(1, 0, 0, 1, -451.504852, -290.860016)"/>
  <path class="cls-11" d="M245.19,562.43h4.36a4.32,4.32,0,0,1,3.15,1.11,3.67,3.67,0,0,1,1,2.68v.07a3.49,3.49,0,0,1-2.16,3.43L254,574h-2.75l-2.14-3.82h-1.5V574h-2.41Zm4.18,5.67a1.67,1.67,0,0,0,1.89-1.74v0c0-1.16-.71-1.74-1.94-1.74H247.6v3.5Z" style="fill: rgb(79, 87, 97);" transform="matrix(1, 0, 0, 1, -451.504852, -290.860016)"/>
  <path class="cls-11" d="M258.45,572.48l1.42-1.78a4.47,4.47,0,0,0,2.89,1.31c.93,0,1.49-.46,1.49-1.14v0c0-.58-.33-.94-2-1.57-2.05-.8-3.33-1.58-3.33-3.57v0c0-2,1.56-3.4,3.79-3.4a5.53,5.53,0,0,1,3.75,1.42l-1.34,1.83a4.06,4.06,0,0,0-2.47-1.08c-.83,0-1.34.42-1.34,1v0c0,.66.39,1,2.2,1.72,2,.8,3.11,1.66,3.11,3.47v0c0,2.16-1.64,3.49-3.89,3.49A6.24,6.24,0,0,1,258.45,572.48Z" style="fill: rgb(79, 87, 97);" transform="matrix(1, 0, 0, 1, -451.504852, -290.860016)"/>
  <path class="cls-11" d="M268.41,562.43h7.47v2.17h-5.09v2.5h4.48v2.18h-4.48v2.58H276V574h-7.54Z" style="fill: rgb(79, 87, 97);" transform="matrix(1, 0, 0, 1, -451.504852, -290.860016)"/>
  <path class="cls-11" d="M277.83,562.43h4.36a4.32,4.32,0,0,1,3.15,1.11,3.67,3.67,0,0,1,1,2.68v.07a3.49,3.49,0,0,1-2.16,3.43l2.47,4.32h-2.75l-2.14-3.82h-1.5V574h-2.41ZM282,568.1a1.67,1.67,0,0,0,1.89-1.74v0c0-1.16-.71-1.74-1.94-1.74h-1.72v3.5Z" style="fill: rgb(79, 87, 97);" transform="matrix(1, 0, 0, 1, -451.504852, -290.860016)"/>
  <path class="cls-11" d="M287.11,562.43h2.6l2.46,8,2.45-8h2.53l-3.91,11.67H291Z" style="fill: rgb(79, 87, 97);" transform="matrix(1, 0, 0, 1, -451.504852, -290.860016)"/>
  <path class="cls-11" d="M298.68,562.43h2.4V574h-2.4Z" style="fill: rgb(79, 87, 97);" transform="matrix(1, 0, 0, 1, -451.504852, -290.860016)"/>
  <path class="cls-11" d="M303.07,568.31v-.14c0-3.52,2.18-5.91,5.25-5.91a4.89,4.89,0,0,1,3.73,1.54l-1.44,1.86a3.26,3.26,0,0,0-2.37-1.16c-1.56,0-2.7,1.44-2.7,3.7v0c0,2.3,1.19,3.71,2.73,3.71a3.26,3.26,0,0,0,2.39-1.21l1.44,1.71a5,5,0,0,1-3.93,1.74C305.12,574.2,303.07,571.86,303.07,568.31Z" style="fill: rgb(79, 87, 97);" transform="matrix(1, 0, 0, 1, -451.504852, -290.860016)"/>
  <path class="cls-11" d="M313.74,562.43h7.47v2.17h-5.09v2.5h4.48v2.18h-4.48v2.58h5.16V574h-7.54Z" style="fill: rgb(79, 87, 97);" transform="matrix(1, 0, 0, 1, -451.504852, -290.860016)"/>
  <path class="cls-11" d="M322.32,572.48l1.42-1.78a4.47,4.47,0,0,0,2.89,1.31c.92,0,1.49-.46,1.49-1.14v0c0-.58-.33-.94-2-1.57-2.06-.8-3.33-1.58-3.33-3.57v0c0-2,1.56-3.4,3.79-3.4a5.53,5.53,0,0,1,3.75,1.42L329,565.53a4.06,4.06,0,0,0-2.47-1.08c-.83,0-1.34.42-1.34,1v0c0,.66.39,1,2.2,1.72,2,.8,3.11,1.66,3.11,3.47v0c0,2.16-1.64,3.49-3.89,3.49A6.24,6.24,0,0,1,322.32,572.48Z" style="fill: rgb(79, 87, 97);" transform="matrix(1, 0, 0, 1, -451.504852, -290.860016)"/>
  <path class="cls-11" d="M146.53,553.6a.62.62,0,0,0-.55.6v.61a.63.63,0,0,0,.61.6h1.2v1.06a.72.72,0,0,1-.08.42,1.47,1.47,0,0,1-.64.43h0a3.43,3.43,0,0,0-2,3.1,3.52,3.52,0,0,0,1.21,2.66l-7.11,3.79h2.57l5.84-3.12a3.29,3.29,0,0,0,1.61,0l5.85,3.12h2.56l-7.11-3.79a3.53,3.53,0,0,0,1.22-2.66.63.63,0,0,0-.61-.61.62.62,0,0,0-.6.61,2.23,2.23,0,0,1-1.22,2l-.56-.31a.59.59,0,0,0-.34-.1h-.06a.64.64,0,0,0-.34.14l-.49.27a2.23,2.23,0,0,1-1.22-2,2.18,2.18,0,0,1,1.28-2h0a2.61,2.61,0,0,0,1.15-.88,1.88,1.88,0,0,0,.28-1.08v-1.06h1.21a.63.63,0,0,0,.6-.6v-.61a.63.63,0,0,0-.6-.6Zm-10.21,13.88v12.68h2.42V567.48Zm3.62,0v12.68h1.82V567.48Zm3,0v12.68h1.81V567.48Zm3,0v12.68h1.81V567.48Zm3,0v12.68h1.81V567.48Zm3,0v12.68h1.81V567.48Zm3,0v12.68h1.81V567.48Zm3,0v12.68h2.41V567.48Zm-18.85.61h0Zm18.19,0h0Z" style="fill: rgb(79, 87, 97);" transform="matrix(1, 0, 0, 1, -451.504852, -290.860016)"/>
  <path d="M212.92,603.1h1.67v9l7.36-9H224l-5.66,6.79,6,8.76h-2l-5.1-7.4-2.62,3v4.36h-1.67Z" transform="matrix(1, 0, 0, 1, -451.504852, -290.860016)"/>
  <path d="M225.84,614.67v-7.6h1.6v7.13c0,2.07,1,3.23,2.66,3.23a3,3,0,0,0,2.93-3.29v-7.07h1.59v11.58H233v-1.89a3.76,3.76,0,0,1-3.42,2.11C227.26,618.87,225.84,617.25,225.84,614.67Z" transform="matrix(1, 0, 0, 1, -451.504852, -290.860016)"/>
  <path d="M237.91,607.07h1.6v2.56a4.07,4.07,0,0,1,4-2.71v1.73h-.09c-2.15,0-3.88,1.51-3.88,4.49v5.51h-1.6Z" transform="matrix(1, 0, 0, 1, -451.504852, -290.860016)"/>
  <path d="M253,607.07h1.71l-4.11,11.78c-.82,2.4-1.82,3.22-3.37,3.22a4.38,4.38,0,0,1-2.08-.53l.48-1.34a3,3,0,0,0,1.51.42c.87,0,1.42-.48,2-2l-4.44-11.58h1.73l3.46,9.53Z" transform="matrix(1, 0, 0, 1, -451.504852, -290.860016)"/>
  <path d="M257.08,607.07h1.6v2.56a4.08,4.08,0,0,1,4-2.71v1.73h-.09c-2.15,0-3.88,1.51-3.88,4.49v5.51h-1.6Z" transform="matrix(1, 0, 0, 1, -451.504852, -290.860016)"/>
  <rect class="cls-3" x="101.31" y="680.85" width="271.67" height="79.52" rx="4" style="fill: rgb(255, 255, 255);" transform="matrix(1, 0, 0, 1, -451.504852, -290.860016)"/>
  <path class="cls-11" d="M369,760.87H105.31a4.51,4.51,0,0,1-4.5-4.5V684.85a4.51,4.51,0,0,1,4.5-4.5H369a4.51,4.51,0,0,1,4.5,4.5v71.52A4.51,4.51,0,0,1,369,760.87ZM105.31,681.35a3.5,3.5,0,0,0-3.5,3.5v71.52a3.5,3.5,0,0,0,3.5,3.5H369a3.5,3.5,0,0,0,3.5-3.5V684.85a3.5,3.5,0,0,0-3.5-3.5Z" style="fill: rgb(79, 87, 97);" transform="matrix(1, 0, 0, 1, -451.504852, -290.860016)"/>
  <rect class="cls-3" x="188.29" y="667.43" width="82.23" height="27.15" style="fill: rgb(255, 255, 255);" transform="matrix(1, 0, 0, 1, -451.504852, -290.860016)"/>
  <path class="cls-11" d="M230.34,675.26h2.2L237,682v-6.76h2.35v11.61h-2.06l-4.59-7v7h-2.35Z" style="fill: rgb(79, 87, 97);" transform="matrix(1, 0, 0, 1, -451.504852, -290.860016)"/>
  <path class="cls-11" d="M241.66,675.26h7.47v2.2h-5.07v2.61h4.46v2.2h-4.46v4.6h-2.4Z" style="fill: rgb(79, 87, 97);" transform="matrix(1, 0, 0, 1, -451.504852, -290.860016)"/>
  <path class="cls-11" d="M250,675.26h2.6l2.45,8,2.45-8H260l-3.91,11.67h-2.22Z" style="fill: rgb(79, 87, 97);" transform="matrix(1, 0, 0, 1, -451.504852, -290.860016)"/>
  <path class="cls-11" d="M205.49,677.68a.67.67,0,0,1,.3-.53l.17-.09L204.1,676v.2a.67.67,0,0,1-.3.54l-.18.08,1.9,1.1v-.21Z" style="fill: rgb(79, 87, 97);" transform="matrix(1, 0, 0, 1, -451.504852, -290.860016)"/>
  <path class="cls-11" d="M217.6,684.67a.65.65,0,0,1,.3-.53l.17-.09L216.21,683v.21a.65.65,0,0,1-.3.53l-.18.12,1.87,1.07Z" style="fill: rgb(79, 87, 97);" transform="matrix(1, 0, 0, 1, -451.504852, -290.860016)"/>
  <path class="cls-11" d="M215.35,683.57l.18-.11a.64.64,0,0,0,.29-.54v-5a.67.67,0,0,0-.29-.53l-.18-.09-4-2.34-.18-.09a.52.52,0,0,0-.29-.09.51.51,0,0,0-.3.09l-.17.12-4,2.31-.18.09a.61.61,0,0,0-.3.53v5a.67.67,0,0,0,.3.54l.18.08,4,2.31.17.09a.55.55,0,0,0,.6,0l.17-.09Z" style="fill: rgb(79, 87, 97);" transform="matrix(1, 0, 0, 1, -451.504852, -290.860016)"/>
  <path class="cls-11" d="M206,683.81l-.17-.12a.61.61,0,0,1-.3-.53V683L203.62,684l.18.09a.61.61,0,0,1,.3.53v.24Z" style="fill: rgb(79, 87, 97);" transform="matrix(1, 0, 0, 1, -451.504852, -290.860016)"/>
  <path class="cls-11" d="M217.92,676.71a.64.64,0,0,1-.29-.54V676L215.76,677l.18.09a.63.63,0,0,1,.3.53v.21l1.86-1.07Z" style="fill: rgb(79, 87, 97);" transform="matrix(1, 0, 0, 1, -451.504852, -290.860016)"/>
  <path class="cls-11" d="M223.46,672.8l-.18-.09-1.95-1.13-.15-.09a.67.67,0,0,0-.29-.08.58.58,0,0,0-.3.08l-.15.09-2,1.16-.15.09a.61.61,0,0,0-.3.53V676a.67.67,0,0,0,.3.53l.18.09,1.95,1.12.15.09a.53.53,0,0,0,.59,0l.15-.09,2-1.15.15-.09a.63.63,0,0,0,.3-.53v-2.64A.61.61,0,0,0,223.46,672.8Z" style="fill: rgb(79, 87, 97);" transform="matrix(1, 0, 0, 1, -451.504852, -290.860016)"/>
  <path class="cls-11" d="M210.85,674.31a.46.46,0,0,1,.29.09l.18.09v-2.14l-.18.12a.52.52,0,0,1-.29.09.58.58,0,0,1-.3-.09l-.17-.12v2.16l.17-.11A.58.58,0,0,1,210.85,674.31Z" style="fill: rgb(79, 87, 97);" transform="matrix(1, 0, 0, 1, -451.504852, -290.860016)"/>
  <path class="cls-11" d="M210.85,686.54a.51.51,0,0,1-.3-.09l-.17-.09v2.16l.17-.09a.58.58,0,0,1,.3-.09.52.52,0,0,1,.29.09l.18.09v-2.16l-.18.09A.46.46,0,0,1,210.85,686.54Z" style="fill: rgb(79, 87, 97);" transform="matrix(1, 0, 0, 1, -451.504852, -290.860016)"/>
  <path class="cls-11" d="M200.81,678.33a.52.52,0,0,1-.29-.08l-.15-.09v4.56l.18-.09a.52.52,0,0,1,.29-.09.51.51,0,0,1,.3.09l.12.09v-4.56l-.15.09A.58.58,0,0,1,200.81,678.33Z" style="fill: rgb(79, 87, 97);" transform="matrix(1, 0, 0, 1, -451.504852, -290.860016)"/>
  <path class="cls-11" d="M220.89,682.54a.5.5,0,0,1,.29.09l.15.09v-4.56l-.15.09a.58.58,0,0,1-.59,0l-.15-.09v4.53l.15-.09A.89.89,0,0,1,220.89,682.54Z" style="fill: rgb(79, 87, 97);" transform="matrix(1, 0, 0, 1, -451.504852, -290.860016)"/>
  <path class="cls-11" d="M217.6,687.75v-.18l-3.94,2.28.15.09a.63.63,0,0,1,.3.53v.18l3.93-2.28-.14-.09A.61.61,0,0,1,217.6,687.75Z" style="fill: rgb(79, 87, 97);" transform="matrix(1, 0, 0, 1, -451.504852, -290.860016)"/>
  <path class="cls-11" d="M213.42,690.18l-.14-.09-2-1.13-.18-.12a.6.6,0,0,0-.29-.08.58.58,0,0,0-.3.08l-.17.09-2,1.13-.15.09a.63.63,0,0,0-.29.53v2.64a.68.68,0,0,0,.29.53l.15.09,2,1.12.17.09a.58.58,0,0,0,.3.09.52.52,0,0,0,.29-.09l.18-.09,2-1.12.14-.09a.63.63,0,0,0,.3-.53v-2.64A.47.47,0,0,0,213.42,690.18Z" style="fill: rgb(79, 87, 97);" transform="matrix(1, 0, 0, 1, -451.504852, -290.860016)"/>
  <path class="cls-11" d="M223.46,684.37l-.15-.09-1.95-1.12-.15-.09a.57.57,0,0,0-.29-.09.51.51,0,0,0-.3.09l-.15.09-2,1.12-.18.09a.63.63,0,0,0-.3.54v2.63a.64.64,0,0,0,.3.53l.15.09,2,1.16.15.09a.53.53,0,0,0,.59,0l.15-.09,1.95-1.13.18-.09a.6.6,0,0,0,.3-.53v-2.63A.68.68,0,0,0,223.46,684.37Z" style="fill: rgb(79, 87, 97);" transform="matrix(1, 0, 0, 1, -451.504852, -290.860016)"/>
  <path class="cls-11" d="M204.1,687.6v.18a.65.65,0,0,1-.3.53l-.15.09,3.94,2.25v-.18a.67.67,0,0,1,.3-.53l.15-.09Z" style="fill: rgb(79, 87, 97);" transform="matrix(1, 0, 0, 1, -451.504852, -290.860016)"/>
  <path class="cls-11" d="M203.71,684.91a.66.66,0,0,0-.29-.54l-.18-.09-2-1.12-.12-.09a.58.58,0,0,0-.3-.09.52.52,0,0,0-.29.09l-.18.09-2,1.12-.14.09a.63.63,0,0,0-.3.54v2.63a.64.64,0,0,0,.3.53l.17.09,1.93,1.13.18.09a.52.52,0,0,0,.29.09.51.51,0,0,0,.3-.09l.12-.09,2-1.16.15-.08a.62.62,0,0,0,.29-.54v-2.6Z" style="fill: rgb(79, 87, 97);" transform="matrix(1, 0, 0, 1, -451.504852, -290.860016)"/>
  <path class="cls-11" d="M204.1,673.09v.18L208,671l-.15-.06a.61.61,0,0,1-.3-.53v-.18l-3.94,2.28.15.09A.58.58,0,0,1,204.1,673.09Z" style="fill: rgb(79, 87, 97);" transform="matrix(1, 0, 0, 1, -451.504852, -290.860016)"/>
  <path class="cls-11" d="M208.27,670.7l.15.08,2,1.13.17.12a.58.58,0,0,0,.3.09.52.52,0,0,0,.29-.09l.18-.09,2-1.13.14-.08a.63.63,0,0,0,.3-.54v-2.63a.67.67,0,0,0-.3-.54l-.14-.08-2-1.13-.18-.09a.52.52,0,0,0-.29-.09.51.51,0,0,0-.3.09l-.17.12L208.45,667l-.15.09a.64.64,0,0,0-.29.54v2.63A.49.49,0,0,0,208.27,670.7Z" style="fill: rgb(79, 87, 97);" transform="matrix(1, 0, 0, 1, -451.504852, -290.860016)"/>
  <path class="cls-11" d="M198.24,676.47l.14.09,2,1.15.15.09a.52.52,0,0,0,.29.09.51.51,0,0,0,.3-.09l.15-.09,2-1.12.18-.09a.62.62,0,0,0,.29-.53v-2.64a.64.64,0,0,0-.29-.53l-.15-.09-2-1.16-.15-.08a.58.58,0,0,0-.3-.09.46.46,0,0,0-.29.09l-.15.08-2,1.16-.17.09a.61.61,0,0,0-.3.53V676A.58.58,0,0,0,198.24,676.47Z" style="fill: rgb(79, 87, 97);" transform="matrix(1, 0, 0, 1, -451.504852, -290.860016)"/>
  <path class="cls-11" d="M217.6,673.27v-.18a.67.67,0,0,1,.3-.53l.14-.09-3.93-2.25v.18a.65.65,0,0,1-.3.53l-.15.09Z" style="fill: rgb(79, 87, 97);" transform="matrix(1, 0, 0, 1, -451.504852, -290.860016)"/>
  <path d="M211.69,717.48h-4.35v-1.55h10.39v1.55h-4.37v14h-1.67Z" transform="matrix(1, 0, 0, 1, -451.504852, -290.860016)"/>
  <path d="M217.33,728.12V728c0-2.38,1.71-3.74,4.26-3.74a9.34,9.34,0,0,1,3,.47v-.69a2.63,2.63,0,0,0-2.95-2.87,6.34,6.34,0,0,0-3,.78l-.51-1.31a8,8,0,0,1,3.64-.93A4.43,4.43,0,0,1,225,720.9a4.31,4.31,0,0,1,1.11,3.14v7.44h-1.58v-1.69a4,4,0,0,1-3.52,1.93A3.54,3.54,0,0,1,217.33,728.12Zm7.26-.66V726a8.38,8.38,0,0,0-2.8-.46c-1.84,0-2.86,1-2.86,2.42V728a2.31,2.31,0,0,0,2.46,2.35A3,3,0,0,0,224.59,727.46Z" transform="matrix(1, 0, 0, 1, -451.504852, -290.860016)"/>
  <path d="M228.62,725.81v-.15c0-3.51,2.27-6,5.15-6a4.9,4.9,0,0,1,3.64,1.58l-.95,1.2a3.73,3.73,0,0,0-2.71-1.31c-1.93,0-3.48,1.82-3.48,4.51v.11c0,2.73,1.59,4.49,3.55,4.49a3.69,3.69,0,0,0,2.7-1.34l.93,1.07a4.72,4.72,0,0,1-3.72,1.73C230.82,731.72,228.62,729.32,228.62,725.81Z" transform="matrix(1, 0, 0, 1, -451.504852, -290.860016)"/>
  <path d="M239.83,715.44h1.6v10.77l5.12-6.31h1.93l-4.06,4.87,4.22,6.71h-1.89L243.34,726l-1.91,2.24v3.2h-1.6Z" transform="matrix(1, 0, 0, 1, -451.504852, -290.860016)"/>
  <path d="M249.66,725.79v-.11c0-3.53,2.06-6,4.77-6,2.91,0,4.64,2.49,4.64,6a5.24,5.24,0,0,1,0,.66h-7.76c.18,2.56,1.75,4,3.57,4a4.06,4.06,0,0,0,3-1.33l.91,1a5.22,5.22,0,0,1-4,1.73C252,731.72,249.66,729.46,249.66,725.79Zm7.81-.71c-.11-2.2-1.15-4-3-4-1.71,0-3,1.58-3.15,4Z" transform="matrix(1, 0, 0, 1, -451.504852, -290.860016)"/>
  <path d="M261.64,719.9h1.6v2.56a4.09,4.09,0,0,1,4-2.71v1.73h-.09c-2.15,0-3.88,1.51-3.88,4.49v5.51h-1.6Z" transform="matrix(1, 0, 0, 1, -451.504852, -290.860016)"/>
</svg>