<?xml version="1.0" encoding="utf-8"?>
<svg viewBox="812.521 217.768 417 125.12" xmlns="http://www.w3.org/2000/svg">
  <path class="cls-2" d="M1408.42,687.81h-405a6,6,0,0,1-6-6V580.51a6,6,0,0,1,6-6h405a6,6,0,0,1,6,6v101.3A6,6,0,0,1,1408.42,687.81Zm-405-111.3a4,4,0,0,0-4,4v101.3a4,4,0,0,0,4,4h405a4,4,0,0,0,4-4V580.51a4,4,0,0,0-4-4Z" transform="matrix(1, 0, 0, 1, -184.899368, -344.922089)" style="fill: rgb(236, 25, 68);"/>
  <rect class="cls-3" x="1101.41" y="562.69" width="209" height="27.15" transform="matrix(1, 0, 0, 1, -184.899368, -344.922089)" style="fill: rgb(255, 255, 255);"/>
  <path class="cls-2" d="M1133.25,569.42h2.41v4.66h3.81v-4.66h2.4V581h-2.4V576.3h-3.81V581h-2.41Z" transform="matrix(1, 0, 0, 1, -184.899368, -344.922089)" style="fill: rgb(236, 25, 68);"/>
  <path class="cls-2" d="M1147.47,569.35h2.29l4.16,11.68h-2.49l-.86-2.52h-4l-.85,2.52h-2.42Zm2.37,7-1.26-3.78-1.28,3.78Z" transform="matrix(1, 0, 0, 1, -184.899368, -344.922089)" style="fill: rgb(236, 25, 68);"/>
  <path class="cls-2" d="M1155.36,569.42h4.35a4.3,4.3,0,0,1,3.15,1.11,3.68,3.68,0,0,1,1,2.69v.06a3.52,3.52,0,0,1-2.15,3.44l2.46,4.31h-2.75l-2.13-3.82h-1.51V581h-2.4Zm4.17,5.67a1.67,1.67,0,0,0,1.89-1.74v0c0-1.16-.71-1.74-1.94-1.74h-1.72v3.5Z" transform="matrix(1, 0, 0, 1, -184.899368, -344.922089)" style="fill: rgb(236, 25, 68);"/>
  <path class="cls-2" d="M1165.74,569.42h3.75c3.36,0,5.53,2.32,5.53,5.72v.15c0,3.4-2.17,5.74-5.53,5.74h-3.75Zm2.41,2.17v7.27h1.32c1.82,0,3.07-1.28,3.07-3.59v-.08c0-2.31-1.25-3.6-3.07-3.6Z" transform="matrix(1, 0, 0, 1, -184.899368, -344.922089)" style="fill: rgb(236, 25, 68);"/>
  <path class="cls-2" d="M1175.65,569.42h2.54l2,7.64,2.12-7.68h2.09l2.14,7.68,1.94-7.64h2.48l-3.31,11.67h-2.2l-2.13-7.38-2.12,7.38H1179Z" transform="matrix(1, 0, 0, 1, -184.899368, -344.922089)" style="fill: rgb(236, 25, 68);"/>
  <path class="cls-2" d="M1194.61,569.35h2.28l4.16,11.68h-2.48l-.86-2.52h-4l-.84,2.52h-2.42Zm2.37,7-1.26-3.78-1.28,3.78Z" transform="matrix(1, 0, 0, 1, -184.899368, -344.922089)" style="fill: rgb(236, 25, 68);"/>
  <path class="cls-2" d="M1202.49,569.42h4.36a4.32,4.32,0,0,1,3.15,1.11,3.68,3.68,0,0,1,1,2.69v.06a3.52,3.52,0,0,1-2.16,3.44l2.47,4.31h-2.75l-2.14-3.82h-1.5V581h-2.41Zm4.18,5.67a1.68,1.68,0,0,0,1.89-1.74v0c0-1.16-.72-1.74-1.94-1.74h-1.72v3.5Z" transform="matrix(1, 0, 0, 1, -184.899368, -344.922089)" style="fill: rgb(236, 25, 68);"/>
  <path class="cls-2" d="M1212.88,569.42h7.47v2.17h-5.08v2.51h4.47v2.17h-4.47v2.59h5.15V581h-7.54Z" transform="matrix(1, 0, 0, 1, -184.899368, -344.922089)" style="fill: rgb(236, 25, 68);"/>
  <path class="cls-2" d="M1226,569.42h2.4v9.4h4.69V581H1226Z" transform="matrix(1, 0, 0, 1, -184.899368, -344.922089)" style="fill: rgb(236, 25, 68);"/>
  <path class="cls-2" d="M1234.8,569.42h2.4V581h-2.4Z" transform="matrix(1, 0, 0, 1, -184.899368, -344.922089)" style="fill: rgb(236, 25, 68);"/>
  <path class="cls-2" d="M1239.61,569.42h7.47v2.2H1242v2.61h4.46v2.2H1242V581h-2.4Z" transform="matrix(1, 0, 0, 1, -184.899368, -344.922089)" style="fill: rgb(236, 25, 68);"/>
  <path class="cls-2" d="M1248.78,569.42h7.48v2.17h-5.09v2.51h4.47v2.17h-4.47v2.59h5.15V581h-7.54Z" transform="matrix(1, 0, 0, 1, -184.899368, -344.922089)" style="fill: rgb(236, 25, 68);"/>
  <path class="cls-2" d="M1257.75,575.31v-.15c0-3.52,2.18-5.91,5.25-5.91a4.89,4.89,0,0,1,3.73,1.54l-1.44,1.86a3.26,3.26,0,0,0-2.37-1.16c-1.56,0-2.7,1.44-2.7,3.7v0c0,2.3,1.19,3.72,2.73,3.72a3.28,3.28,0,0,0,2.39-1.22l1.44,1.71a5,5,0,0,1-3.93,1.74C1259.8,581.19,1257.75,578.86,1257.75,575.31Z" transform="matrix(1, 0, 0, 1, -184.899368, -344.922089)" style="fill: rgb(236, 25, 68);"/>
  <path class="cls-2" d="M1271.05,576.45l-3.78-7H1270l2.29,4.56,2.3-4.56h2.65l-3.77,7V581h-2.41Z" transform="matrix(1, 0, 0, 1, -184.899368, -344.922089)" style="fill: rgb(236, 25, 68);"/>
  <path class="cls-2" d="M1277.31,575.31v-.15c0-3.52,2.19-5.91,5.26-5.91a4.89,4.89,0,0,1,3.73,1.54l-1.45,1.86a3.22,3.22,0,0,0-2.36-1.16c-1.56,0-2.71,1.44-2.71,3.7v0c0,2.3,1.2,3.72,2.74,3.72a3.24,3.24,0,0,0,2.38-1.22l1.45,1.71a5,5,0,0,1-3.93,1.74C1279.37,581.19,1277.31,578.86,1277.31,575.31Z" transform="matrix(1, 0, 0, 1, -184.899368, -344.922089)" style="fill: rgb(236, 25, 68);"/>
  <path class="cls-2" d="M1288,569.42h2.4v9.4h4.69V581H1288Z" transform="matrix(1, 0, 0, 1, -184.899368, -344.922089)" style="fill: rgb(236, 25, 68);"/>
  <path class="cls-2" d="M1296.68,569.42h7.48v2.17h-5.09v2.51h4.47v2.17h-4.47v2.59h5.15V581h-7.54Z" transform="matrix(1, 0, 0, 1, -184.899368, -344.922089)" style="fill: rgb(236, 25, 68);"/>
  <path class="cls-2" d="M1114.46,565.39v21.93a.73.73,0,0,0,.3.59,1.06,1.06,0,0,0,.71.25h4a1.06,1.06,0,0,0,.71-.25.73.73,0,0,0,.3-.59V565.39a.75.75,0,0,0-.3-.59,1.06,1.06,0,0,0-.71-.25h-4a1.06,1.06,0,0,0-.71.25.75.75,0,0,0-.3.59Zm4,.85v13.49h-2V566.24Zm0,0" transform="matrix(1, 0, 0, 1, -184.899368, -344.922089)" style="fill: rgb(236, 25, 68);"/>
  <path class="cls-2" d="M1106.68,564.8a.75.75,0,0,0-.3.59v21.93a.73.73,0,0,0,.3.59,1.06,1.06,0,0,0,.71.25h4a1,1,0,0,0,.71-.25.73.73,0,0,0,.3-.59V565.39a.75.75,0,0,0-.3-.59,1,1,0,0,0-.71-.25h-4a1.06,1.06,0,0,0-.71.25Zm3.74,1.44v5.06h-2v-5.06Zm0,0" transform="matrix(1, 0, 0, 1, -184.899368, -344.922089)" style="fill: rgb(236, 25, 68);"/>
  <rect class="cls-9" x="1197.76" y="598.25" width="1" height="73.47" transform="matrix(1, 0, 0, 1, -184.899368, -344.922089)" style="fill: rgb(255, 204, 216);"/>
  <path d="M1071.69,643.17h1.79v16.74h-1.79Z" transform="matrix(1, 0, 0, 1, -184.899368, -344.922089)"/>
  <path d="M1077.4,647.45h1.71v2.75a4.42,4.42,0,0,1,4.28-2.92v1.87h-.1c-2.31,0-4.18,1.62-4.18,4.83v5.93h-1.71Z" transform="matrix(1, 0, 0, 1, -184.899368, -344.922089)"/>
  <path d="M1084.61,653.79v-.17c0-3.63,2.34-6.41,5.54-6.41s5.51,2.75,5.51,6.39v.14c0,3.63-2.34,6.43-5.54,6.43S1084.61,657.42,1084.61,653.79Zm9.31,0v-.12c0-2.79-1.67-4.87-3.8-4.87s-3.75,2.08-3.75,4.85v.12c0,2.8,1.65,4.88,3.78,4.88S1093.92,656.51,1093.92,653.76Z" transform="matrix(1, 0, 0, 1, -184.899368, -344.922089)"/>
  <path d="M1098.53,647.45h1.72v2a4,4,0,0,1,3.67-2.27c2.54,0,4.06,1.75,4.06,4.54v8.16h-1.72v-7.68c0-2.22-1-3.46-2.86-3.46s-3.15,1.43-3.15,3.56v7.58h-1.72Z" transform="matrix(1, 0, 0, 1, -184.899368, -344.922089)"/>
  <path d="M1111.4,642.86h1.91v2h-1.91Zm.09,4.59h1.72v12.46h-1.72Z" transform="matrix(1, 0, 0, 1, -184.899368, -344.922089)"/>
  <path d="M1116.22,653.81v-.17c0-3.77,2.44-6.43,5.54-6.43a5.27,5.27,0,0,1,3.92,1.7l-1,1.29a4,4,0,0,0-2.91-1.41c-2.08,0-3.75,2-3.75,4.85v.12c0,2.94,1.72,4.83,3.82,4.83a4,4,0,0,0,2.91-1.43l1,1.15a5.11,5.11,0,0,1-4,1.86C1118.58,660.17,1116.22,657.59,1116.22,653.81Z" transform="matrix(1, 0, 0, 1, -184.899368, -344.922089)"/>
  <rect class="cls-2" x="1052.28" y="603.98" width="91.47" height="19.75" transform="matrix(1, 0, 0, 1, -184.899368, -344.922089)" style="fill: rgb(236, 25, 68);"/>
  <path class="cls-3" d="M1060.21,609.14l3.52,0a3.47,3.47,0,0,1,2.48.83,2.21,2.21,0,0,1,.63,1.62v0a2.23,2.23,0,0,1-1.3,2.07,2.27,2.27,0,0,1,1.69,2.27v.07c0,1.71-1.38,2.6-3.44,2.59h-3.62Zm3.61,5.55h-1.72v2.23h1.76c.88,0,1.44-.38,1.44-1.11v0C1065.29,615.12,1064.79,614.69,1063.82,614.69Zm1.08-2.74c0-.69-.48-1.06-1.32-1.06h-1.47V613h1.37c.87,0,1.43-.34,1.43-1.06Z" transform="matrix(1, 0, 0, 1, -184.899368, -344.922089)" style="fill: rgb(255, 255, 255);"/>
  <path class="cls-3" d="M1071.35,609.13h1.87l3.36,9.56h-2l-.7-2.07h-3.26l-.7,2.06h-2Zm1.91,5.76-1-3.1-1.06,3.09Z" transform="matrix(1, 0, 0, 1, -184.899368, -344.922089)" style="fill: rgb(255, 255, 255);"/>
  <path class="cls-3" d="M1077.8,609.21l3.57,0a3.49,3.49,0,0,1,2.57.92,3,3,0,0,1,.79,2.2v0a2.87,2.87,0,0,1-1.77,2.8l2,3.54h-2.25L1081,615.6h-1.24v3.12h-2Zm3.4,4.66a1.37,1.37,0,0,0,1.55-1.42h0c0-1-.58-1.43-1.58-1.44h-1.41v2.86Z" transform="matrix(1, 0, 0, 1, -184.899368, -344.922089)" style="fill: rgb(255, 255, 255);"/>
  <path class="cls-3" d="M1086.3,609.25l6.12,0v1.78l-4.16,0v2.05l3.66,0v1.77h-3.66V617l4.22,0v1.78l-6.17,0Z" transform="matrix(1, 0, 0, 1, -184.899368, -344.922089)" style="fill: rgb(255, 255, 255);"/>
  <path class="cls-3" d="M1097.05,609.29h2.06l2.1,3.86,2.1-3.84h2.08l0,9.49h-1.93l0-6.06-2.25,3.91h0l-2.21-3.9,0,6H1097Z" transform="matrix(1, 0, 0, 1, -184.899368, -344.922089)" style="fill: rgb(255, 255, 255);"/>
  <path class="cls-3" d="M1107.29,609.34l6.11,0v1.78l-4.16,0v2h3.66V615h-3.65v2.11l4.21,0v1.78l-6.16,0Z" transform="matrix(1, 0, 0, 1, -184.899368, -344.922089)" style="fill: rgb(255, 255, 255);"/>
  <path class="cls-3" d="M1116.81,611.19h-2.39v-1.81l6.72,0v1.82h-2.38l0,7.68h-2Z" transform="matrix(1, 0, 0, 1, -184.899368, -344.922089)" style="fill: rgb(255, 255, 255);"/>
  <path class="cls-3" d="M1124.19,609.35h1.87l3.36,9.56h-2l-.7-2.06h-3.26l-.7,2h-2Zm1.91,5.76-1-3.1L1124,615.1Z" transform="matrix(1, 0, 0, 1, -184.899368, -344.922089)" style="fill: rgb(255, 255, 255);"/>
  <path class="cls-3" d="M1130.64,609.43h2l0,7.69,3.83,0V619l-5.8,0Z" transform="matrix(1, 0, 0, 1, -184.899368, -344.922089)" style="fill: rgb(255, 255, 255);"/>
  <path d="M1269.89,651.63v-.14c0-5.07,3.15-8.56,7.33-8.56a6.94,6.94,0,0,1,5.08,2.06l-1.09,1.36a5.67,5.67,0,0,0-4-1.74c-3.08,0-5.44,2.82-5.44,6.86v.09c0,4.12,2.36,6.91,5.44,6.91a5.68,5.68,0,0,0,4.14-1.86l1.07,1.24a7.14,7.14,0,0,1-5.3,2.3C1273,660.15,1269.89,656.73,1269.89,651.63Z" transform="matrix(1, 0, 0, 1, -184.899368, -344.922089)"/>
  <path d="M1292.52,647.45h1.84l-4.42,12.67c-.88,2.59-2,3.47-3.63,3.47a4.72,4.72,0,0,1-2.24-.57l.53-1.44a3.3,3.3,0,0,0,1.62.46c.93,0,1.53-.53,2.15-2.13l-4.78-12.46h1.87l3.72,10.26Z" transform="matrix(1, 0, 0, 1, -184.899368, -344.922089)"/>
  <path d="M1298.61,657.59v2.32h-1.72V642.64h1.72v7.2a4.65,4.65,0,0,1,4-2.63c2.53,0,5,2.2,5,6.34v.24c0,4.13-2.44,6.36-5,6.36A4.62,4.62,0,0,1,1298.61,657.59Zm7.24-3.8v-.19c0-3-1.63-4.83-3.54-4.83s-3.77,1.89-3.77,4.8v.24c0,2.92,1.82,4.78,3.77,4.78S1305.85,656.85,1305.85,653.79Z" transform="matrix(1, 0, 0, 1, -184.899368, -344.922089)"/>
  <path d="M1309.86,653.79v-.17c0-3.63,2.34-6.41,5.54-6.41s5.52,2.75,5.52,6.39v.14c0,3.63-2.34,6.43-5.55,6.43S1309.86,657.42,1309.86,653.79Zm9.31,0v-.12c0-2.79-1.67-4.87-3.8-4.87s-3.74,2.08-3.74,4.85v.12c0,2.8,1.64,4.88,3.77,4.88S1319.17,656.51,1319.17,653.76Z" transform="matrix(1, 0, 0, 1, -184.899368, -344.922089)"/>
  <path d="M1323.78,647.45h1.72v2.75a4.4,4.4,0,0,1,4.27-2.92v1.87h-.09c-2.32,0-4.18,1.62-4.18,4.83v5.93h-1.72Z" transform="matrix(1, 0, 0, 1, -184.899368, -344.922089)"/>
  <path d="M1331.56,662.2l.7-1.38a7.45,7.45,0,0,0,4,1.22c2.34,0,3.8-1.25,3.8-3.73v-1.82a4.74,4.74,0,0,1-4.11,2.56c-2.53,0-4.9-2.11-4.9-5.86v-.1c0-3.75,2.39-5.88,4.92-5.88a4.75,4.75,0,0,1,4.09,2.46v-2.22h1.72v10.81a5.19,5.19,0,0,1-1.37,3.85,5.65,5.65,0,0,1-4.13,1.43A8.81,8.81,0,0,1,1331.56,662.2Zm8.55-9v-.08c0-2.67-1.84-4.32-3.75-4.32s-3.53,1.6-3.53,4.32v0c0,2.7,1.6,4.35,3.53,4.35S1340.11,655.82,1340.11,653.17Z" transform="matrix(1, 0, 0, 1, -184.899368, -344.922089)"/>
  <rect class="cls-2" x="1252.54" y="603.98" width="107" height="19.75" transform="matrix(1, 0, 0, 1, -184.899368, -344.922089)" style="fill: rgb(236, 25, 68);"/>
  <path class="cls-3" d="M1261.08,609.05H1263l3.36,9.57h-2l-.69-2.07h-3.27l-.7,2.06h-2Zm1.91,5.77-1-3.1-1,3.09Z" transform="matrix(1, 0, 0, 1, -184.899368, -344.922089)" style="fill: rgb(255, 255, 255);"/>
  <path class="cls-3" d="M1266.7,614v-.12c0-2.88,1.81-4.83,4.31-4.81a4,4,0,0,1,3,1.27l-1.19,1.51a2.65,2.65,0,0,0-1.93-.95c-1.28,0-2.22,1.17-2.22,3v0c0,1.89,1,3.05,2.22,3.05a2.68,2.68,0,0,0,2-1l1.18,1.4a4.11,4.11,0,0,1-3.22,1.41C1268.36,618.77,1266.68,616.85,1266.7,614Z" transform="matrix(1, 0, 0, 1, -184.899368, -344.922089)" style="fill: rgb(255, 255, 255);"/>
  <path class="cls-3" d="M1274.8,614v-.12c0-2.88,1.81-4.82,4.32-4.81a4,4,0,0,1,3,1.27l-1.18,1.52a2.63,2.63,0,0,0-1.94-1c-1.27,0-2.21,1.17-2.22,3v0c0,1.88,1,3,2.22,3a2.63,2.63,0,0,0,2-1l1.17,1.4a4.07,4.07,0,0,1-3.21,1.41C1276.46,618.8,1274.79,616.88,1274.8,614Z" transform="matrix(1, 0, 0, 1, -184.899368, -344.922089)" style="fill: rgb(255, 255, 255);"/>
  <path class="cls-3" d="M1283.55,609.2l6.11,0V611h-4.16v2h3.66v1.78l-3.66,0v2.12l4.22,0v1.77l-6.17,0Z" transform="matrix(1, 0, 0, 1, -184.899368, -344.922089)" style="fill: rgb(255, 255, 255);"/>
  <path class="cls-3" d="M1291.27,609.23h2l0,7.69,3.83,0v1.8l-5.8,0Z" transform="matrix(1, 0, 0, 1, -184.899368, -344.922089)" style="fill: rgb(255, 255, 255);"/>
  <path class="cls-3" d="M1298.38,609.26l6.11,0v1.78l-4.16,0v2.05H1304v1.78l-3.66,0V617l4.22,0v1.78l-6.17,0Z" transform="matrix(1, 0, 0, 1, -184.899368, -344.922089)" style="fill: rgb(255, 255, 255);"/>
  <path class="cls-3" d="M1306.09,609.3h3.57a3.55,3.55,0,0,1,2.57.92,3,3,0,0,1,.79,2.2v.06a2.89,2.89,0,0,1-1.77,2.8l2,3.53H1311l-1.73-3.13H1308v3.12h-2Zm3.4,4.65a1.37,1.37,0,0,0,1.55-1.42h0c0-.95-.58-1.43-1.58-1.43h-1.41v2.86Z" transform="matrix(1, 0, 0, 1, -184.899368, -344.922089)" style="fill: rgb(255, 255, 255);"/>
  <path class="cls-3" d="M1317.28,609.29h1.87l3.36,9.56h-2l-.7-2.06-3.27,0-.69,2.06h-2Zm1.91,5.76-1-3.1-1.05,3.09Z" transform="matrix(1, 0, 0, 1, -184.899368, -344.922089)" style="fill: rgb(255, 255, 255);"/>
  <path class="cls-3" d="M1324.56,611.19h-2.38v-1.82l6.72,0v1.82h-2.39l0,7.68h-2Z" transform="matrix(1, 0, 0, 1, -184.899368, -344.922089)" style="fill: rgb(255, 255, 255);"/>
  <path class="cls-3" d="M1329.51,614.24v-.17c0-2.85,1.81-4.83,4.32-4.82s4.27,2,4.26,4.83v.16c0,2.84-1.81,4.84-4.31,4.83S1329.5,617.07,1329.51,614.24Zm6.55,0v-.09c0-1.88-.94-3.06-2.25-3.06s-2.27,1.15-2.28,3v.1c0,1.87,1,3.06,2.27,3.06S1336.05,616.09,1336.06,614.22Z" transform="matrix(1, 0, 0, 1, -184.899368, -344.922089)" style="fill: rgb(255, 255, 255);"/>
  <path class="cls-3" d="M1339.67,609.44h3.57a3.52,3.52,0,0,1,2.57.92,3,3,0,0,1,.79,2.2v0a2.86,2.86,0,0,1-1.78,2.8l2,3.54h-2.25l-1.74-3.13h-1.23v3.12h-2Zm3.4,4.65a1.37,1.37,0,0,0,1.55-1.42h0c0-.95-.58-1.43-1.58-1.43h-1.41v2.86Z" transform="matrix(1, 0, 0, 1, -184.899368, -344.922089)" style="fill: rgb(255, 255, 255);"/>
  <path class="cls-3" d="M1347.45,617.69l1.17-1.45a3.59,3.59,0,0,0,2.35,1.08c.76,0,1.22-.37,1.23-.93h0c0-.48-.27-.78-1.62-1.3-1.68-.66-2.72-1.3-2.72-2.93v0a2.82,2.82,0,0,1,3.12-2.77,4.47,4.47,0,0,1,3,1.18l-1.1,1.49a3.28,3.28,0,0,0-2-.89c-.68,0-1.1.33-1.1.82h0c0,.55.32.8,1.79,1.42,1.65.66,2.54,1.37,2.54,2.85v0a2.87,2.87,0,0,1-3.2,2.84A5.12,5.12,0,0,1,1347.45,617.69Z" transform="matrix(1, 0, 0, 1, -184.899368, -344.922089)" style="fill: rgb(255, 255, 255);"/>
</svg>