<?xml version="1.0" encoding="utf-8"?>
<svg viewBox="172.905 423.15 673 112.49" xmlns="http://www.w3.org/2000/svg">
  <rect class="cls-3" x="625.41" y="728" width="671" height="97.5" rx="3.89" style="fill: rgb(255, 255, 255);" transform="matrix(1, 0, 0, 1, -451.504852, -290.860016)"/>
  <path class="cls-7" d="M1292.52,826.5H629.3a4.89,4.89,0,0,1-4.89-4.89V731.88A4.89,4.89,0,0,1,629.3,727h663.22a4.89,4.89,0,0,1,4.89,4.88v89.73A4.89,4.89,0,0,1,1292.52,826.5ZM629.3,729a2.89,2.89,0,0,0-2.89,2.88v89.73a2.9,2.9,0,0,0,2.89,2.89h663.22a2.9,2.9,0,0,0,2.89-2.89V731.88a2.89,2.89,0,0,0-2.89-2.88Z" style="fill: rgb(35, 156, 220);" transform="matrix(1, 0, 0, 1, -451.504852, -290.860016)"/>
  <rect class="cls-7" x="656.41" y="750.93" width="87" height="19.75" style="fill: rgb(35, 156, 220);" transform="matrix(1, 0, 0, 1, -451.504852, -290.860016)"/>
  <path class="cls-3" d="M672.25,756h2l0,9.5h-2Z" style="fill: rgb(255, 255, 255);" transform="matrix(1, 0, 0, 1, -451.504852, -290.860016)"/>
  <path class="cls-3" d="M676.18,756h3.06a4.35,4.35,0,0,1,4.51,4.7v.13a4.35,4.35,0,0,1-4.54,4.67h-3.07Zm2,1.79,0,5.94h1.08c1.49,0,2.51-1,2.52-2.92v-.06c0-1.89-1-2.95-2.5-3Z" style="fill: rgb(255, 255, 255);" transform="matrix(1, 0, 0, 1, -451.504852, -290.860016)"/>
  <path class="cls-3" d="M685.32,756.07l6.11,0v1.77l-4.16,0v2l3.66,0v1.78l-3.66,0v2.12h4.21v1.78l-6.17,0Z" style="fill: rgb(255, 255, 255);" transform="matrix(1, 0, 0, 1, -451.504852, -290.860016)"/>
  <path class="cls-3" d="M693,756.1h1.8l3.61,5.55,0-5.54h1.93l0,9.5h-1.68l-3.73-5.75,0,5.74H693Z" style="fill: rgb(255, 255, 255);" transform="matrix(1, 0, 0, 1, -451.504852, -290.860016)"/>
  <path class="cls-3" d="M704.1,758h-2.39v-1.82l6.72,0V758h-2.38l0,7.68h-1.95Z" style="fill: rgb(255, 255, 255);" transform="matrix(1, 0, 0, 1, -451.504852, -290.860016)"/>
  <path class="cls-3" d="M709.84,756.17h2l0,9.49h-2Z" style="fill: rgb(255, 255, 255);" transform="matrix(1, 0, 0, 1, -451.504852, -290.860016)"/>
  <path class="cls-3" d="M715.58,758H713.2v-1.81l6.72,0V758h-2.39l0,7.68h-2Z" style="fill: rgb(255, 255, 255);" transform="matrix(1, 0, 0, 1, -451.504852, -290.860016)"/>
  <path class="cls-3" d="M723.44,762l-3.07-5.77h2.23l1.85,3.74,1.9-3.72h2.17L725.4,762v3.77h-2Z" style="fill: rgb(255, 255, 255);" transform="matrix(1, 0, 0, 1, -451.504852, -290.860016)"/>
  <rect class="cls-7" x="822.41" y="750.93" width="103" height="19.75" style="fill: rgb(35, 156, 220);" transform="matrix(1, 0, 0, 1, -451.504852, -290.860016)"/>
  <path class="cls-3" d="M834.16,764.19l1.17-1.45a3.63,3.63,0,0,0,2.35,1.08c.76,0,1.23-.37,1.23-.93h0c0-.48-.27-.78-1.62-1.3-1.68-.66-2.72-1.3-2.71-2.93v0a2.8,2.8,0,0,1,3.11-2.77,4.51,4.51,0,0,1,3.06,1.18l-1.11,1.49a3.3,3.3,0,0,0-2-.9c-.68,0-1.1.34-1.1.83h0c0,.54.32.8,1.79,1.42,1.65.66,2.55,1.37,2.54,2.85v0c0,1.77-1.35,2.85-3.2,2.84A5.12,5.12,0,0,1,834.16,764.19Z" style="fill: rgb(255, 255, 255);" transform="matrix(1, 0, 0, 1, -451.504852, -290.860016)"/>
  <path class="cls-3" d="M842,760.81v-.12c0-2.87,1.81-4.82,4.31-4.81a4,4,0,0,1,3.05,1.27l-1.19,1.52a2.61,2.61,0,0,0-1.93-1c-1.28,0-2.22,1.17-2.22,3v0c0,1.88,1,3,2.22,3.05a2.68,2.68,0,0,0,2-1l1.17,1.41a4.17,4.17,0,0,1-3.22,1.41C843.63,765.64,842,763.72,842,760.81Z" style="fill: rgb(255, 255, 255);" transform="matrix(1, 0, 0, 1, -451.504852, -290.860016)"/>
  <path class="cls-3" d="M850.72,756h2v3.81l3.11,0,0-3.81h2l0,9.5h-2l0-3.87h-3.12l0,3.87h-2Z" style="fill: rgb(255, 255, 255);" transform="matrix(1, 0, 0, 1, -451.504852, -290.860016)"/>
  <path class="cls-3" d="M859.66,756.07l6.12,0v1.77h-4.16v2h3.66v1.78l-3.66,0v2.12h4.22v1.78l-6.16,0Z" style="fill: rgb(255, 255, 255);" transform="matrix(1, 0, 0, 1, -451.504852, -290.860016)"/>
  <path class="cls-3" d="M867.38,756.1l3.06,0a4.34,4.34,0,0,1,4.51,4.69v.13a4.36,4.36,0,0,1-4.55,4.67h-3.06Zm2,1.79,0,5.94h1.08c1.49,0,2.51-1,2.52-2.91v-.07c0-1.89-1-3-2.49-3Z" style="fill: rgb(255, 255, 255);" transform="matrix(1, 0, 0, 1, -451.504852, -290.860016)"/>
  <path class="cls-3" d="M876.37,762l0-5.81h2l0,5.82c0,1.34.63,2,1.65,2s1.65-.64,1.66-2l0-5.86h2l0,5.77c0,2.61-1.45,3.87-3.65,3.86S876.36,764.51,876.37,762Z" style="fill: rgb(255, 255, 255);" transform="matrix(1, 0, 0, 1, -451.504852, -290.860016)"/>
  <path class="cls-3" d="M885.39,756.18h2l0,7.69h3.83v1.81l-5.8,0Z" style="fill: rgb(255, 255, 255);" transform="matrix(1, 0, 0, 1, -451.504852, -290.860016)"/>
  <path class="cls-3" d="M892.58,756.21h2l0,9.49h-2Z" style="fill: rgb(255, 255, 255);" transform="matrix(1, 0, 0, 1, -451.504852, -290.860016)"/>
  <path class="cls-3" d="M896.51,756.22h1.8l3.61,5.55,0-5.53h1.93l0,9.5h-1.68L898.42,760l0,5.74h-1.92Z" style="fill: rgb(255, 255, 255);" transform="matrix(1, 0, 0, 1, -451.504852, -290.860016)"/>
  <path class="cls-3" d="M905.41,761.08V761c0-2.8,1.87-4.82,4.45-4.81a4.45,4.45,0,0,1,3.1,1.13l-1.17,1.53a2.7,2.7,0,0,0-2-.83c-1.36,0-2.39,1.23-2.4,3v.11c0,2,1.06,3.05,2.45,3.06a2.37,2.37,0,0,0,1.41-.39v-1.68h-1.72v-1.71l3.6,0,0,4.39a5.46,5.46,0,0,1-3.38,1.17C907.23,765.9,905.4,764.05,905.41,761.08Z" style="fill: rgb(255, 255, 255);" transform="matrix(1, 0, 0, 1, -451.504852, -290.860016)"/>
  <rect class="cls-7" x="1014.91" y="750.93" width="70" height="19.75" style="fill: rgb(35, 156, 220);" transform="matrix(1, 0, 0, 1, -451.504852, -290.860016)"/>
  <path class="cls-3" d="M1027.36,756h2l0,9.5h-2Z" style="fill: rgb(255, 255, 255);" transform="matrix(1, 0, 0, 1, -451.504852, -290.860016)"/>
  <path class="cls-3" d="M1031.29,756.05h2.06l2.1,3.86,2.1-3.84h2.08l0,9.49h-1.93l0-6.07-2.25,3.91h0l-2.2-3.9,0,6h-1.91Z" style="fill: rgb(255, 255, 255);" transform="matrix(1, 0, 0, 1, -451.504852, -290.860016)"/>
  <path class="cls-3" d="M1044.21,756.05h1.87l3.36,9.56h-2l-.7-2.07h-3.26l-.7,2.06h-2Zm1.91,5.76-1-3.1-1.06,3.09Z" style="fill: rgb(255, 255, 255);" transform="matrix(1, 0, 0, 1, -451.504852, -290.860016)"/>
  <path class="cls-3" d="M1049.83,761v-.13c0-2.81,1.88-4.82,4.45-4.81a4.44,4.44,0,0,1,3.1,1.13l-1.17,1.53a2.69,2.69,0,0,0-2-.83c-1.36,0-2.39,1.23-2.4,3v.11c0,2,1.06,3.05,2.45,3.06a2.37,2.37,0,0,0,1.41-.39v-1.68H1054V760.2l3.59,0,0,4.39a5.46,5.46,0,0,1-3.38,1.17C1051.65,765.77,1049.82,763.92,1049.83,761Z" style="fill: rgb(255, 255, 255);" transform="matrix(1, 0, 0, 1, -451.504852, -290.860016)"/>
  <path class="cls-3" d="M1059.3,756.17l6.11,0V758l-4.16,0v2l3.66,0v1.77h-3.65v2.12h4.21v1.78l-6.16,0Z" style="fill: rgb(255, 255, 255);" transform="matrix(1, 0, 0, 1, -451.504852, -290.860016)"/>
  <path class="cls-3" d="M1066.29,764.42l1.17-1.45a3.59,3.59,0,0,0,2.35,1.08c.76,0,1.22-.37,1.22-.93h0c0-.48-.26-.78-1.62-1.3-1.67-.65-2.71-1.3-2.71-2.92v0a2.82,2.82,0,0,1,3.12-2.77,4.51,4.51,0,0,1,3,1.18l-1.1,1.49a3.29,3.29,0,0,0-2-.89c-.67,0-1.09.33-1.1.82h0c0,.55.33.81,1.8,1.42,1.65.66,2.54,1.37,2.54,2.85v0a2.87,2.87,0,0,1-3.2,2.83A5.05,5.05,0,0,1,1066.29,764.42Z" style="fill: rgb(255, 255, 255);" transform="matrix(1, 0, 0, 1, -451.504852, -290.860016)"/>
  <rect class="cls-7" x="1185.91" y="750.93" width="70" height="19.75" style="fill: rgb(35, 156, 220);" transform="matrix(1, 0, 0, 1, -451.504852, -290.860016)"/>
  <path class="cls-3" d="M1193.9,764.24l1.17-1.45a3.59,3.59,0,0,0,2.35,1.08c.76,0,1.22-.37,1.22-.93h0c0-.48-.27-.78-1.62-1.3-1.68-.65-2.72-1.3-2.71-2.92v0a2.82,2.82,0,0,1,3.12-2.77,4.51,4.51,0,0,1,3,1.18l-1.1,1.49a3.29,3.29,0,0,0-2-.89c-.67,0-1.1.33-1.1.82h0c0,.55.32.81,1.8,1.42,1.65.66,2.54,1.37,2.53,2.85v0c0,1.76-1.35,2.84-3.19,2.83A5,5,0,0,1,1193.9,764.24Z" style="fill: rgb(255, 255, 255);" transform="matrix(1, 0, 0, 1, -451.504852, -290.860016)"/>
  <path class="cls-3" d="M1202.08,756.05l6.11,0v1.77H1204v2h3.66v1.78l-3.66,0v2.12l4.21,0v1.77l-6.16,0Z" style="fill: rgb(255, 255, 255);" transform="matrix(1, 0, 0, 1, -451.504852, -290.860016)"/>
  <path class="cls-3" d="M1209.39,760.9v-.12c0-2.88,1.81-4.82,4.32-4.82a4,4,0,0,1,3,1.28l-1.19,1.51a2.63,2.63,0,0,0-1.93-1c-1.27,0-2.21,1.17-2.22,3v0c0,1.89,1,3,2.22,3a2.7,2.7,0,0,0,2-1l1.17,1.4a4.11,4.11,0,0,1-3.22,1.41C1211.05,765.72,1209.38,763.8,1209.39,760.9Z" style="fill: rgb(255, 255, 255);" transform="matrix(1, 0, 0, 1, -451.504852, -290.860016)"/>
  <path class="cls-3" d="M1218.14,756.12h3.56a3.53,3.53,0,0,1,2.57.92,3,3,0,0,1,.79,2.2v.06a2.85,2.85,0,0,1-1.77,2.8l2,3.53H1223l-1.73-3.12h-1.23l0,3.12h-2Zm3.39,4.65a1.36,1.36,0,0,0,1.55-1.42h0c0-1-.57-1.43-1.58-1.43h-1.4l0,2.87Z" style="fill: rgb(255, 255, 255);" transform="matrix(1, 0, 0, 1, -451.504852, -290.860016)"/>
  <path class="cls-3" d="M1226.64,756.15l6.11,0V758l-4.16,0v2h3.66v1.78l-3.65,0v2.12l4.21,0v1.77l-6.16,0Z" style="fill: rgb(255, 255, 255);" transform="matrix(1, 0, 0, 1, -451.504852, -290.860016)"/>
  <path class="cls-3" d="M1236.16,758h-2.39v-1.82l6.72,0V758h-2.39l0,7.68h-1.95Z" style="fill: rgb(255, 255, 255);" transform="matrix(1, 0, 0, 1, -451.504852, -290.860016)"/>
  <path class="cls-3" d="M1241,764.43l1.17-1.44a3.68,3.68,0,0,0,2.35,1.08c.76,0,1.23-.38,1.23-.93v0c0-.47-.27-.77-1.62-1.29-1.68-.66-2.72-1.3-2.71-2.93v0a2.8,2.8,0,0,1,3.11-2.76,4.46,4.46,0,0,1,3.06,1.18l-1.11,1.48a3.34,3.34,0,0,0-2-.89c-.68,0-1.1.34-1.1.83h0c0,.54.32.8,1.79,1.42,1.65.65,2.55,1.36,2.54,2.84v0c0,1.76-1.35,2.84-3.2,2.84A5.13,5.13,0,0,1,1241,764.43Z" style="fill: rgb(255, 255, 255);" transform="matrix(1, 0, 0, 1, -451.504852, -290.860016)"/>
  <path d="M1183.73,785.32H1189a5.29,5.29,0,0,1,3.84,1.33,3.52,3.52,0,0,1,1,2.55v0a3.7,3.7,0,0,1-2.55,3.62c1.82.53,3.22,1.62,3.22,3.73v.07c0,2.64-2.16,4.2-5.42,4.2h-5.37Zm8.43,4.11c0-1.6-1.19-2.6-3.26-2.6h-3.5v5.46h3.35c2.06,0,3.41-1,3.41-2.82Zm-3.19,4.33h-3.57v5.6h3.77c2.24,0,3.66-1,3.66-2.8v0C1192.83,794.78,1191.48,793.76,1189,793.76Z" transform="matrix(1, 0, 0, 1, -451.504852, -290.860016)"/>
  <path d="M1196.54,797.51v-.09c0-2.37,1.71-3.73,4.26-3.73a9.39,9.39,0,0,1,3,.47v-.69a2.64,2.64,0,0,0-3-2.87,6.34,6.34,0,0,0-3,.78l-.51-1.31a8,8,0,0,1,3.64-.93,4.44,4.44,0,0,1,3.24,1.15,4.3,4.3,0,0,1,1.1,3.13v7.45h-1.57v-1.69a4,4,0,0,1-3.53,1.93A3.53,3.53,0,0,1,1196.54,797.51Zm7.25-.66V795.4a8,8,0,0,0-2.79-.46c-1.84,0-2.87.95-2.87,2.42v.06a2.32,2.32,0,0,0,2.47,2.36A3,3,0,0,0,1203.79,796.85Z" transform="matrix(1, 0, 0, 1, -451.504852, -290.860016)"/>
  <path d="M1208.45,789.29h1.6v2.56a4.09,4.09,0,0,1,4-2.71v1.73h-.09c-2.15,0-3.88,1.51-3.88,4.49v5.51h-1.6Z" transform="matrix(1, 0, 0, 1, -451.504852, -290.860016)"/>
  <path d="M1217.84,798.71v2.16h-1.6v-16h1.6v6.68a4.32,4.32,0,0,1,3.75-2.44c2.35,0,4.61,2,4.61,5.89v.22c0,3.84-2.26,5.91-4.61,5.91A4.27,4.27,0,0,1,1217.84,798.71Zm6.72-3.53V795c0-2.82-1.51-4.49-3.28-4.49s-3.51,1.76-3.51,4.47v.22c0,2.71,1.69,4.45,3.51,4.45S1224.56,798,1224.56,795.18Z" transform="matrix(1, 0, 0, 1, -451.504852, -290.860016)"/>
  <path d="M1229,785h1.77v1.89H1229Zm.08,4.26h1.6v11.58H1229Z" transform="matrix(1, 0, 0, 1, -451.504852, -290.860016)"/>
  <path d="M1233.44,795.2v-.15c0-3.51,2.26-6,5.15-6a4.86,4.86,0,0,1,3.63,1.58l-1,1.2a3.73,3.73,0,0,0-2.71-1.31c-1.93,0-3.48,1.82-3.48,4.51v.11c0,2.73,1.6,4.49,3.55,4.49a3.73,3.73,0,0,0,2.71-1.34l.93,1.07a4.75,4.75,0,0,1-3.73,1.73C1235.63,801.11,1233.44,798.71,1233.44,795.2Z" transform="matrix(1, 0, 0, 1, -451.504852, -290.860016)"/>
  <path d="M1243.89,797.51v-.09c0-2.37,1.71-3.73,4.26-3.73a9.34,9.34,0,0,1,3,.47v-.69a2.63,2.63,0,0,0-2.95-2.87,6.34,6.34,0,0,0-3,.78l-.51-1.31a8,8,0,0,1,3.64-.93,4.43,4.43,0,0,1,3.24,1.15,4.3,4.3,0,0,1,1.11,3.13v7.45h-1.58v-1.69a4,4,0,0,1-3.53,1.93A3.54,3.54,0,0,1,1243.89,797.51Zm7.25-.66V795.4a8,8,0,0,0-2.79-.46c-1.84,0-2.86.95-2.86,2.42v.06a2.31,2.31,0,0,0,2.46,2.36A3,3,0,0,0,1251.14,796.85Z" transform="matrix(1, 0, 0, 1, -451.504852, -290.860016)"/>
  <path d="M1255.81,789.29h1.59v1.89a3.76,3.76,0,0,1,3.42-2.11c2.35,0,3.77,1.62,3.77,4.22v7.58H1263v-7.13c0-2.07-1-3.23-2.66-3.23a3,3,0,0,0-2.93,3.31v7h-1.59Z" transform="matrix(1, 0, 0, 1, -451.504852, -290.860016)"/>
  <path d="M658.76,785h1.66v9l7.37-9h2.06l-5.65,6.79,6,8.76h-2l-5.1-7.4-2.62,3v4.36h-1.66Z" transform="matrix(1, 0, 0, 1, -451.504852, -290.860016)"/>
  <path d="M671,794.89v-.11c0-3.53,2.06-6,4.77-6,2.91,0,4.64,2.49,4.64,6,0,.15,0,.46,0,.66h-7.77c.18,2.56,1.75,4,3.57,4a4.06,4.06,0,0,0,3-1.33l.91,1a5.22,5.22,0,0,1-4,1.73C673.34,800.82,671,798.56,671,794.89Zm7.81-.71c-.11-2.2-1.15-4-3-4-1.71,0-3,1.58-3.15,4Z" transform="matrix(1, 0, 0, 1, -451.504852, -290.860016)"/>
  <path d="M689.85,789h1.7l-4.1,11.78c-.82,2.4-1.82,3.22-3.37,3.22a4.44,4.44,0,0,1-2.09-.53l.49-1.34a3,3,0,0,0,1.51.43c.86,0,1.42-.49,2-2L681.55,789h1.73l3.46,9.53Z" transform="matrix(1, 0, 0, 1, -451.504852, -290.860016)"/>
  <path d="M692.53,799.16l.85-1.18a5.24,5.24,0,0,0,3.37,1.4c1.26,0,2.15-.71,2.15-1.8v0c0-1-.95-1.56-2.51-2.2-1.84-.8-3.3-1.54-3.3-3.34v0c0-1.89,1.53-3.15,3.59-3.15a6.33,6.33,0,0,1,3.64,1.24l-.78,1.22a5.05,5.05,0,0,0-2.9-1.09c-1.22,0-2,.71-2,1.62v0c0,1,1,1.47,2.57,2.13,1.91.85,3.24,1.65,3.24,3.4v.05c0,2.06-1.66,3.33-3.75,3.33A6.48,6.48,0,0,1,692.53,799.16Z" transform="matrix(1, 0, 0, 1, -451.504852, -290.860016)"/>
  <path d="M703.41,797.89v-7.47H702V789h1.4v-3.37H705V789h3v1.42h-3v7.2a1.47,1.47,0,0,0,1.67,1.67A3.43,3.43,0,0,0,708,799v1.38a3.94,3.94,0,0,1-1.73.4A2.59,2.59,0,0,1,703.41,797.89Z" transform="matrix(1, 0, 0, 1, -451.504852, -290.860016)"/>
  <path d="M709.69,794.89v-.15c0-3.38,2.17-6,5.14-6s5.13,2.56,5.13,5.93v.14c0,3.37-2.18,6-5.15,6S709.69,798.27,709.69,794.89Zm8.65,0v-.11c0-2.6-1.55-4.54-3.53-4.54s-3.48,1.94-3.48,4.52v.11c0,2.6,1.53,4.53,3.5,4.53S718.34,797.42,718.34,794.87Z" transform="matrix(1, 0, 0, 1, -451.504852, -290.860016)"/>
  <path d="M722.62,789h1.6v1.89a3.75,3.75,0,0,1,3.42-2.11c2.35,0,3.77,1.62,3.77,4.22v7.58h-1.6v-7.13c0-2.07-1-3.23-2.66-3.23a3,3,0,0,0-2.93,3.32v7h-1.6Z" transform="matrix(1, 0, 0, 1, -451.504852, -290.860016)"/>
  <path d="M733.92,794.89v-.11c0-3.53,2.06-6,4.77-6,2.9,0,4.63,2.49,4.63,6,0,.15,0,.46,0,.66h-7.76c.17,2.56,1.75,4,3.57,4a4.06,4.06,0,0,0,3-1.33l.91,1a5.2,5.2,0,0,1-4,1.73C736.22,800.82,733.92,798.56,733.92,794.89Zm7.81-.71c-.11-2.2-1.16-4-3-4-1.71,0-3,1.58-3.15,4Z" transform="matrix(1, 0, 0, 1, -451.504852, -290.860016)"/>
  <path d="M1018.43,792.89v-.15c0-4.51,2.84-7.94,6.92-7.94a6.84,6.84,0,0,1,4.71,1.67l-1,1.33a5.3,5.3,0,0,0-3.75-1.44c-2.95,0-5.15,2.67-5.15,6.38v.11c0,3.91,2.11,6.44,5.31,6.44a5.62,5.62,0,0,0,3.35-1.11V793.8h-3.89v-1.49h5.48V799a8,8,0,0,1-5,1.82C1021.16,800.8,1018.43,797.58,1018.43,792.89Z" transform="matrix(1, 0, 0, 1, -451.504852, -290.860016)"/>
  <path d="M1033.74,784.54h1.6v16h-1.6Z" transform="matrix(1, 0, 0, 1, -451.504852, -290.860016)"/>
  <path d="M1038,797.22v-.09c0-2.37,1.71-3.73,4.26-3.73a9.45,9.45,0,0,1,3,.47v-.69a2.64,2.64,0,0,0-3-2.87,6.35,6.35,0,0,0-3,.78l-.5-1.31a7.93,7.93,0,0,1,3.63-.93,4.41,4.41,0,0,1,3.24,1.15,4.31,4.31,0,0,1,1.11,3.14v7.44h-1.57v-1.69a4,4,0,0,1-3.53,1.93A3.54,3.54,0,0,1,1038,797.22Zm7.26-.66v-1.45a8.34,8.34,0,0,0-2.8-.46c-1.84,0-2.86,1-2.86,2.42v.06a2.32,2.32,0,0,0,2.46,2.36A3,3,0,0,0,1045.26,796.56Z" transform="matrix(1, 0, 0, 1, -451.504852, -290.860016)"/>
  <path d="M1049.92,789h1.6v1.89a3.74,3.74,0,0,1,3.41-2.11c2.36,0,3.78,1.62,3.78,4.22v7.58h-1.6v-7.13c0-2.07-1-3.23-2.66-3.23a3,3,0,0,0-2.93,3.32v7h-1.6Z" transform="matrix(1, 0, 0, 1, -451.504852, -290.860016)"/>
  <path d="M1061.21,794.91v-.15c0-3.51,2.27-6,5.15-6a4.9,4.9,0,0,1,3.64,1.58l-1,1.2a3.73,3.73,0,0,0-2.71-1.31c-1.93,0-3.48,1.82-3.48,4.51v.11c0,2.73,1.59,4.49,3.55,4.49a3.69,3.69,0,0,0,2.7-1.34l.93,1.07a4.73,4.73,0,0,1-3.72,1.73C1063.41,800.82,1061.21,798.42,1061.21,794.91Z" transform="matrix(1, 0, 0, 1, -451.504852, -290.860016)"/>
  <path d="M1071.51,794.89v-.11c0-3.53,2.06-6,4.77-6,2.91,0,4.64,2.49,4.64,6a5.24,5.24,0,0,1,0,.66h-7.76c.18,2.56,1.75,4,3.57,4a4.06,4.06,0,0,0,3-1.33l.91,1a5.23,5.23,0,0,1-4,1.73C1073.82,800.82,1071.51,798.56,1071.51,794.89Zm7.81-.71c-.11-2.2-1.15-4-3-4-1.71,0-3,1.58-3.15,4Z" transform="matrix(1, 0, 0, 1, -451.504852, -290.860016)"/>
  <path d="M826.83,785h4.69c3.3,0,5.45,1.86,5.45,4.93v0c0,3.29-2.48,5.07-5.65,5.09H828.5v5.49h-1.67Zm4.53,8.55c2.42,0,3.93-1.4,3.93-3.53v0c0-2.27-1.51-3.47-3.86-3.47H828.5v7Z" transform="matrix(1, 0, 0, 1, -451.504852, -290.860016)"/>
  <path d="M839.55,784.54h1.6v16h-1.6Z" transform="matrix(1, 0, 0, 1, -451.504852, -290.860016)"/>
  <path d="M843.81,797.22v-.09c0-2.37,1.71-3.73,4.26-3.73a9.34,9.34,0,0,1,3,.47v-.69a2.63,2.63,0,0,0-2.95-2.87,6.34,6.34,0,0,0-3,.78l-.51-1.31a8,8,0,0,1,3.64-.93,4.43,4.43,0,0,1,3.24,1.15,4.31,4.31,0,0,1,1.11,3.14v7.44H851v-1.69a4,4,0,0,1-3.52,1.93A3.53,3.53,0,0,1,843.81,797.22Zm7.26-.66v-1.45a8.38,8.38,0,0,0-2.8-.46c-1.84,0-2.86,1-2.86,2.42v.06a2.31,2.31,0,0,0,2.46,2.36A3,3,0,0,0,851.07,796.56Z" transform="matrix(1, 0, 0, 1, -451.504852, -290.860016)"/>
  <path d="M855.1,794.91v-.15c0-3.51,2.27-6,5.15-6a4.9,4.9,0,0,1,3.64,1.58l-.95,1.2a3.73,3.73,0,0,0-2.71-1.31c-1.93,0-3.48,1.82-3.48,4.51v.11c0,2.73,1.59,4.49,3.55,4.49A3.69,3.69,0,0,0,863,798l.93,1.07a4.72,4.72,0,0,1-3.72,1.73C857.3,800.82,855.1,798.42,855.1,794.91Z" transform="matrix(1, 0, 0, 1, -451.504852, -290.860016)"/>
  <path d="M865.4,794.89v-.11c0-3.53,2.06-6,4.77-6,2.91,0,4.64,2.49,4.64,6,0,.15,0,.46,0,.66H867c.18,2.56,1.75,4,3.57,4a4.06,4.06,0,0,0,3-1.33l.91,1a5.22,5.22,0,0,1-4,1.73C867.71,800.82,865.4,798.56,865.4,794.89Zm7.81-.71c-.11-2.2-1.15-4-3-4-1.71,0-3,1.58-3.15,4Z" transform="matrix(1, 0, 0, 1, -451.504852, -290.860016)"/>
  <path d="M877.38,789H879v1.85a3.62,3.62,0,0,1,3.24-2.07,3.33,3.33,0,0,1,3.19,2.11,4,4,0,0,1,3.55-2.11c2.25,0,3.69,1.56,3.69,4.24v7.56h-1.6v-7.13c0-2.11-.93-3.23-2.51-3.23s-2.73,1.2-2.73,3.29v7.07h-1.59v-7.16c0-2.06-.94-3.2-2.51-3.2s-2.73,1.36-2.73,3.32v7h-1.6Z" transform="matrix(1, 0, 0, 1, -451.504852, -290.860016)"/>
  <path d="M895.2,794.89v-.11c0-3.53,2.07-6,4.77-6,2.91,0,4.64,2.49,4.64,6,0,.15,0,.46,0,.66h-7.77c.18,2.56,1.75,4,3.57,4a4.06,4.06,0,0,0,3-1.33l.91,1a5.2,5.2,0,0,1-4,1.73C897.51,800.82,895.2,798.56,895.2,794.89Zm7.81-.71c-.11-2.2-1.15-4-3-4-1.71,0-3,1.58-3.15,4Z" transform="matrix(1, 0, 0, 1, -451.504852, -290.860016)"/>
  <path d="M907.18,789h1.6v1.89a3.76,3.76,0,0,1,3.42-2.11c2.35,0,3.77,1.62,3.77,4.22v7.58h-1.6v-7.13c0-2.07-1-3.23-2.66-3.23a3,3,0,0,0-2.93,3.32v7h-1.6Z" transform="matrix(1, 0, 0, 1, -451.504852, -290.860016)"/>
  <path d="M919.57,797.89v-7.47h-1.4V789h1.4v-3.37h1.59V789h3v1.42h-3v7.2a1.47,1.47,0,0,0,1.67,1.67,3.43,3.43,0,0,0,1.35-.31v1.38a3.94,3.94,0,0,1-1.73.4A2.59,2.59,0,0,1,919.57,797.89Z" transform="matrix(1, 0, 0, 1, -451.504852, -290.860016)"/>
  <rect class="cls-3" x="861.47" y="714.01" width="197.04" height="27.15" style="fill: rgb(255, 255, 255);" transform="matrix(1, 0, 0, 1, -451.504852, -290.860016)"/>
  <path class="cls-7" d="M911.82,732.43l1.43-1.77a4.44,4.44,0,0,0,2.88,1.31c.93,0,1.49-.47,1.49-1.15v0c0-.58-.33-.94-2-1.57-2-.8-3.33-1.58-3.33-3.57v0c0-2,1.56-3.4,3.8-3.4a5.46,5.46,0,0,1,3.74,1.43l-1.34,1.82A4,4,0,0,0,916,724.4c-.83,0-1.34.42-1.34,1v0c0,.66.4,1,2.2,1.73,2,.79,3.12,1.65,3.12,3.46v0c0,2.15-1.64,3.48-3.9,3.48A6.26,6.26,0,0,1,911.82,732.43Z" style="fill: rgb(35, 156, 220);" transform="matrix(1, 0, 0, 1, -451.504852, -290.860016)"/>
  <path class="cls-7" d="M921.78,722.38h2.4V727H928v-4.66h2.41V734H928v-4.73h-3.81V734h-2.4Z" style="fill: rgb(35, 156, 220);" transform="matrix(1, 0, 0, 1, -451.504852, -290.860016)"/>
  <path class="cls-7" d="M936,722.31h2.29L942.44,734H940l-.87-2.52h-4l-.85,2.52h-2.41Zm2.37,7-1.26-3.78-1.27,3.78Z" style="fill: rgb(35, 156, 220);" transform="matrix(1, 0, 0, 1, -451.504852, -290.860016)"/>
  <path class="cls-7" d="M943.88,722.38h4.36a4.32,4.32,0,0,1,3.15,1.11,3.68,3.68,0,0,1,1,2.69v.06a3.52,3.52,0,0,1-2.16,3.44l2.47,4.31h-2.75l-2.14-3.82h-1.51V734h-2.4Zm4.18,5.67a1.68,1.68,0,0,0,1.89-1.74v0c0-1.16-.72-1.74-1.94-1.74h-1.73v3.5Z" style="fill: rgb(35, 156, 220);" transform="matrix(1, 0, 0, 1, -451.504852, -290.860016)"/>
  <path class="cls-7" d="M954.27,722.38h7.47v2.17h-5.08v2.51h4.47v2.17h-4.47v2.59h5.15V734h-7.54Z" style="fill: rgb(35, 156, 220);" transform="matrix(1, 0, 0, 1, -451.504852, -290.860016)"/>
  <path class="cls-7" d="M963.7,722.38h3.74c3.36,0,5.54,2.32,5.54,5.72v.15c0,3.4-2.18,5.74-5.54,5.74H963.7Zm2.4,2.17v7.27h1.32c1.83,0,3.07-1.28,3.07-3.59v-.08c0-2.3-1.24-3.6-3.07-3.6Z" style="fill: rgb(35, 156, 220);" transform="matrix(1, 0, 0, 1, -451.504852, -290.860016)"/>
  <path class="cls-7" d="M977.73,732.43l1.42-1.77A4.47,4.47,0,0,0,982,732c.93,0,1.49-.47,1.49-1.15v0c0-.58-.33-.94-2-1.57-2-.8-3.33-1.58-3.33-3.57v0c0-2,1.56-3.4,3.79-3.4a5.49,5.49,0,0,1,3.75,1.43l-1.34,1.82a4.06,4.06,0,0,0-2.47-1.08c-.83,0-1.34.42-1.34,1v0c0,.66.39,1,2.2,1.73,2,.79,3.12,1.65,3.12,3.46v0c0,2.15-1.65,3.48-3.9,3.48A6.24,6.24,0,0,1,977.73,732.43Z" style="fill: rgb(35, 156, 220);" transform="matrix(1, 0, 0, 1, -451.504852, -290.860016)"/>
  <path class="cls-7" d="M987.69,722.38h7.47v2.17h-5.09v2.51h4.48v2.17h-4.48v2.59h5.16V734h-7.54Z" style="fill: rgb(35, 156, 220);" transform="matrix(1, 0, 0, 1, -451.504852, -290.860016)"/>
  <path class="cls-7" d="M997.11,722.38h4.36a4.32,4.32,0,0,1,3.15,1.11,3.68,3.68,0,0,1,1,2.69v.06a3.52,3.52,0,0,1-2.16,3.44l2.47,4.31h-2.75l-2.14-3.82h-1.5V734h-2.41Zm4.18,5.67a1.67,1.67,0,0,0,1.89-1.74v0c0-1.16-.71-1.74-1.94-1.74h-1.72v3.5Z" style="fill: rgb(35, 156, 220);" transform="matrix(1, 0, 0, 1, -451.504852, -290.860016)"/>
  <path class="cls-7" d="M1006.39,722.38h2.6l2.46,8,2.45-8h2.53l-3.91,11.68h-2.22Z" style="fill: rgb(35, 156, 220);" transform="matrix(1, 0, 0, 1, -451.504852, -290.860016)"/>
  <path class="cls-7" d="M1018,722.38h2.4V734H1018Z" style="fill: rgb(35, 156, 220);" transform="matrix(1, 0, 0, 1, -451.504852, -290.860016)"/>
  <path class="cls-7" d="M1022.35,728.27v-.15c0-3.52,2.18-5.91,5.25-5.91a4.87,4.87,0,0,1,3.73,1.55l-1.44,1.85a3.26,3.26,0,0,0-2.37-1.16c-1.56,0-2.7,1.45-2.7,3.7v.05c0,2.31,1.19,3.72,2.73,3.72a3.3,3.3,0,0,0,2.39-1.21l1.44,1.7a5.06,5.06,0,0,1-3.93,1.75C1024.4,734.16,1022.35,731.82,1022.35,728.27Z" style="fill: rgb(35, 156, 220);" transform="matrix(1, 0, 0, 1, -451.504852, -290.860016)"/>
  <path class="cls-7" d="M1033,722.38h7.47v2.17h-5.09v2.51h4.48v2.17h-4.48v2.59h5.16V734H1033Z" style="fill: rgb(35, 156, 220);" transform="matrix(1, 0, 0, 1, -451.504852, -290.860016)"/>
  <path class="cls-7" d="M1041.6,732.43l1.42-1.77a4.47,4.47,0,0,0,2.89,1.31c.93,0,1.49-.47,1.49-1.15v0c0-.58-.33-.94-2-1.57-2.05-.8-3.33-1.58-3.33-3.57v0c0-2,1.56-3.4,3.79-3.4a5.49,5.49,0,0,1,3.75,1.43l-1.34,1.82a4.06,4.06,0,0,0-2.47-1.08c-.83,0-1.34.42-1.34,1v0c0,.66.39,1,2.2,1.73,2,.79,3.12,1.65,3.12,3.46v0c0,2.15-1.65,3.48-3.9,3.48A6.24,6.24,0,0,1,1041.6,732.43Z" style="fill: rgb(35, 156, 220);" transform="matrix(1, 0, 0, 1, -451.504852, -290.860016)"/>
  <path class="cls-7" d="M911.82,732.43l1.43-1.77a4.44,4.44,0,0,0,2.88,1.31c.93,0,1.49-.47,1.49-1.15v0c0-.58-.33-.94-2-1.57-2-.8-3.33-1.58-3.33-3.57v0c0-2,1.56-3.4,3.8-3.4a5.46,5.46,0,0,1,3.74,1.43l-1.34,1.82A4,4,0,0,0,916,724.4c-.83,0-1.34.42-1.34,1v0c0,.66.4,1,2.2,1.73,2,.79,3.12,1.65,3.12,3.46v0c0,2.15-1.64,3.48-3.9,3.48A6.26,6.26,0,0,1,911.82,732.43Z" style="fill: rgb(35, 156, 220);" transform="matrix(1, 0, 0, 1, -451.504852, -290.860016)"/>
  <path class="cls-7" d="M921.78,722.38h2.4V727H928v-4.66h2.41V734H928v-4.73h-3.81V734h-2.4Z" style="fill: rgb(35, 156, 220);" transform="matrix(1, 0, 0, 1, -451.504852, -290.860016)"/>
  <path class="cls-7" d="M936,722.31h2.29L942.44,734H940l-.87-2.52h-4l-.85,2.52h-2.41Zm2.37,7-1.26-3.78-1.27,3.78Z" style="fill: rgb(35, 156, 220);" transform="matrix(1, 0, 0, 1, -451.504852, -290.860016)"/>
  <path class="cls-7" d="M943.88,722.38h4.36a4.32,4.32,0,0,1,3.15,1.11,3.68,3.68,0,0,1,1,2.69v.06a3.52,3.52,0,0,1-2.16,3.44l2.47,4.31h-2.75l-2.14-3.82h-1.51V734h-2.4Zm4.18,5.67a1.68,1.68,0,0,0,1.89-1.74v0c0-1.16-.72-1.74-1.94-1.74h-1.73v3.5Z" style="fill: rgb(35, 156, 220);" transform="matrix(1, 0, 0, 1, -451.504852, -290.860016)"/>
  <path class="cls-7" d="M954.27,722.38h7.47v2.17h-5.08v2.51h4.47v2.17h-4.47v2.59h5.15V734h-7.54Z" style="fill: rgb(35, 156, 220);" transform="matrix(1, 0, 0, 1, -451.504852, -290.860016)"/>
  <path class="cls-7" d="M963.7,722.38h3.74c3.36,0,5.54,2.32,5.54,5.72v.15c0,3.4-2.18,5.74-5.54,5.74H963.7Zm2.4,2.17v7.27h1.32c1.83,0,3.07-1.28,3.07-3.59v-.08c0-2.3-1.24-3.6-3.07-3.6Z" style="fill: rgb(35, 156, 220);" transform="matrix(1, 0, 0, 1, -451.504852, -290.860016)"/>
  <path class="cls-7" d="M977.73,732.43l1.42-1.77A4.47,4.47,0,0,0,982,732c.93,0,1.49-.47,1.49-1.15v0c0-.58-.33-.94-2-1.57-2-.8-3.33-1.58-3.33-3.57v0c0-2,1.56-3.4,3.79-3.4a5.49,5.49,0,0,1,3.75,1.43l-1.34,1.82a4.06,4.06,0,0,0-2.47-1.08c-.83,0-1.34.42-1.34,1v0c0,.66.39,1,2.2,1.73,2,.79,3.12,1.65,3.12,3.46v0c0,2.15-1.65,3.48-3.9,3.48A6.24,6.24,0,0,1,977.73,732.43Z" style="fill: rgb(35, 156, 220);" transform="matrix(1, 0, 0, 1, -451.504852, -290.860016)"/>
  <path class="cls-7" d="M987.69,722.38h7.47v2.17h-5.09v2.51h4.48v2.17h-4.48v2.59h5.16V734h-7.54Z" style="fill: rgb(35, 156, 220);" transform="matrix(1, 0, 0, 1, -451.504852, -290.860016)"/>
  <path class="cls-7" d="M997.11,722.38h4.36a4.32,4.32,0,0,1,3.15,1.11,3.68,3.68,0,0,1,1,2.69v.06a3.52,3.52,0,0,1-2.16,3.44l2.47,4.31h-2.75l-2.14-3.82h-1.5V734h-2.41Zm4.18,5.67a1.67,1.67,0,0,0,1.89-1.74v0c0-1.16-.71-1.74-1.94-1.74h-1.72v3.5Z" style="fill: rgb(35, 156, 220);" transform="matrix(1, 0, 0, 1, -451.504852, -290.860016)"/>
  <path class="cls-7" d="M1006.39,722.38h2.6l2.46,8,2.45-8h2.53l-3.91,11.68h-2.22Z" style="fill: rgb(35, 156, 220);" transform="matrix(1, 0, 0, 1, -451.504852, -290.860016)"/>
  <path class="cls-7" d="M1018,722.38h2.4V734H1018Z" style="fill: rgb(35, 156, 220);" transform="matrix(1, 0, 0, 1, -451.504852, -290.860016)"/>
  <path class="cls-7" d="M1022.35,728.27v-.15c0-3.52,2.18-5.91,5.25-5.91a4.87,4.87,0,0,1,3.73,1.55l-1.44,1.85a3.26,3.26,0,0,0-2.37-1.16c-1.56,0-2.7,1.45-2.7,3.7v.05c0,2.31,1.19,3.72,2.73,3.72a3.3,3.3,0,0,0,2.39-1.21l1.44,1.7a5.06,5.06,0,0,1-3.93,1.75C1024.4,734.16,1022.35,731.82,1022.35,728.27Z" style="fill: rgb(35, 156, 220);" transform="matrix(1, 0, 0, 1, -451.504852, -290.860016)"/>
  <path class="cls-7" d="M1033,722.38h7.47v2.17h-5.09v2.51h4.48v2.17h-4.48v2.59h5.16V734H1033Z" style="fill: rgb(35, 156, 220);" transform="matrix(1, 0, 0, 1, -451.504852, -290.860016)"/>
  <path class="cls-7" d="M1041.6,732.43l1.42-1.77a4.47,4.47,0,0,0,2.89,1.31c.93,0,1.49-.47,1.49-1.15v0c0-.58-.33-.94-2-1.57-2.05-.8-3.33-1.58-3.33-3.57v0c0-2,1.56-3.4,3.79-3.4a5.49,5.49,0,0,1,3.75,1.43l-1.34,1.82a4.06,4.06,0,0,0-2.47-1.08c-.83,0-1.34.42-1.34,1v0c0,.66.39,1,2.2,1.73,2,.79,3.12,1.65,3.12,3.46v0c0,2.15-1.65,3.48-3.9,3.48A6.24,6.24,0,0,1,1041.6,732.43Z" style="fill: rgb(35, 156, 220);" transform="matrix(1, 0, 0, 1, -451.504852, -290.860016)"/>
  <path class="cls-7" d="M902.48,728.45a5.94,5.94,0,0,0-3.37-2.14,4,4,0,0,0-6-5.24,8.13,8.13,0,0,0-7.48-5,8.09,8.09,0,0,0-8.08,8.08c0,.14,0,.36,0,.68a7.07,7.07,0,0,0-4.07,6.39,7.1,7.1,0,0,0,7.07,7.07h17.17a6.06,6.06,0,0,0,6-6.06A5.9,5.9,0,0,0,902.48,728.45Z" style="fill: rgb(35, 156, 220);" transform="matrix(1, 0, 0, 1, -451.504852, -290.860016)"/>
</svg>