<?xml version="1.0" encoding="utf-8"?>
<svg viewBox="26.855 546.64 961.77 224.5" xmlns="http://www.w3.org/2000/svg">
  <g class="cls-4" transform="matrix(1, 0, 0, 1, -451.504852, -290.860016)" style="opacity: 0.15;">
    <polygon class="cls-5" points="1429.74 1060.99 488.57 1060.99 480.34 1049.78 1437.97 1049.78 1429.74 1060.99" style="fill: rgb(128, 133, 140);"/>
    <path class="cls-5" d="M1430.25,1062H488.06l-9.7-13.21h961.58Zm-941.18-2h940.16l6.76-9.21H482.31Z" style="fill: rgb(128, 133, 140);"/>
  </g>
  <polygon class="cls-3" points="964.79 878.52 963.95 859.01 973.82 861.13 974.45 861.12 975.01 860.93 975.42 860.5 975.69 859.9 975.68 859.31 975.46 858.72 960.95 838.66 960.74 838.46 960.49 838.25 960.24 838.12 959.93 838.02 959.3 838.03 959.05 838.14 958.74 838.29 958.53 838.5 958.33 838.72 944.66 859.32 944.47 859.92 944.48 860.51 944.7 861.11 945.16 861.52 945.76 861.68 946.32 861.67 956.14 859.17 955.78 878.52 480.52 878.52 480.52 1049.47 1439.63 1049.47 1439.63 878.52 964.79 878.52" style="fill: rgb(255, 255, 255);" transform="matrix(1, 0, 0, 1, -451.504852, -290.860016)"/>
  <path class="cls-10" d="M1440.13,1050H480V878H955.29l.34-18.21-9.3,2.36h-.63l-.78-.21-.64-.57-.3-.88,0-.67.29-.8,13.66-20.61.62-.61.76-.3H960l.48.16.25.13.57.49,14.62,20.24.26.76v.7l-.41.85-.49.51-.83.26h-.74l-9.25-2,.8,18.38h474.86ZM481,1049h958.11V879H964.31l-.89-20.63,10.45,2.24h.5l.36-.13.27-.27.19-.42v-.4L975,859l-14.46-20-.49-.38-.21-.06h-.44l-.37.17-.35.36-13.57,20.48L945,860v.42l.14.4.29.25.41.11h.43l10.4-2.65-.37,20.5H481Z" style="fill: rgb(153, 153, 153);" transform="matrix(1, 0, 0, 1, -451.504852, -290.860016)"/>
  <path class="cls-3" d="M1112.36,1036.62H508.15c-2.79,0-5-1.79-5-4V951.68c0-2.21,2.26-4,5-4h604.21c2.79,0,5.05,1.79,5.05,4v80.94C1117.41,1034.83,1115.15,1036.62,1112.36,1036.62Z" style="fill: rgb(255, 255, 255);" transform="matrix(1, 0, 0, 1, -451.504852, -290.860016)"/>
  <path class="cls-11" d="M1112.36,1037.12H508.15c-3.06,0-5.55-2-5.55-4.5V951.68c0-2.49,2.49-4.5,5.55-4.5h604.21c3.06,0,5.55,2,5.55,4.5v80.94C1117.91,1035.1,1115.42,1037.12,1112.36,1037.12ZM508.15,948.18c-2.51,0-4.55,1.57-4.55,3.5v80.94c0,1.93,2,3.5,4.55,3.5h604.21c2.51,0,4.55-1.57,4.55-3.5V951.68c0-1.93-2-3.5-4.55-3.5Z" style="fill: rgb(79, 87, 97);" transform="matrix(1, 0, 0, 1, -451.504852, -290.860016)"/>
  <path d="M521.54,972.52h1.67v9l7.36-9h2.07L527,979.31l6,8.76h-2l-5.1-7.4-2.62,3v4.36h-1.67Z" transform="matrix(1, 0, 0, 1, -451.504852, -290.860016)"/>
  <path d="M533.82,982.38v-.15c0-3.38,2.17-6,5.14-6s5.13,2.56,5.13,5.93v.14c0,3.37-2.18,6-5.15,6S533.82,985.76,533.82,982.38Zm8.65,0v-.11c0-2.6-1.55-4.54-3.53-4.54s-3.48,1.94-3.48,4.52v.11c0,2.6,1.53,4.53,3.5,4.53S542.47,984.91,542.47,982.36Z" transform="matrix(1, 0, 0, 1, -451.504852, -290.860016)"/>
  <path d="M546.89,972h1.59v16h-1.59Z" transform="matrix(1, 0, 0, 1, -451.504852, -290.860016)"/>
  <path d="M552,972h1.6v16H552Z" transform="matrix(1, 0, 0, 1, -451.504852, -290.860016)"/>
  <path d="M556.29,984.71v-.09c0-2.37,1.71-3.73,4.26-3.73a9.45,9.45,0,0,1,3,.47v-.69a2.64,2.64,0,0,0-2.95-2.87,6.27,6.27,0,0,0-3,.78l-.51-1.31a7.93,7.93,0,0,1,3.63-.93,4.41,4.41,0,0,1,3.24,1.15,4.31,4.31,0,0,1,1.11,3.14v7.44h-1.57v-1.69a4,4,0,0,1-3.53,1.93A3.54,3.54,0,0,1,556.29,984.71Zm7.26-.66V982.6a8.29,8.29,0,0,0-2.8-.46c-1.84,0-2.86,1-2.86,2.42v.06a2.32,2.32,0,0,0,2.46,2.36A3,3,0,0,0,563.55,984.05Z" transform="matrix(1, 0, 0, 1, -451.504852, -290.860016)"/>
  <path d="M567.83,980.56h5.7v1.67h-5.7Z" transform="matrix(1, 0, 0, 1, -451.504852, -290.860016)"/>
  <path d="M580.7,972.43h1.64l5.93,15.64h-1.78L585,984h-7l-1.51,4.09h-1.71Zm3.73,10-2.93-7.89-3,7.89Z" transform="matrix(1, 0, 0, 1, -451.504852, -290.860016)"/>
  <path d="M590.64,976.49h1.6v1.89a3.75,3.75,0,0,1,3.42-2.11c2.35,0,3.77,1.62,3.77,4.22v7.58h-1.6v-7.13c0-2.07-1-3.23-2.66-3.23a3,3,0,0,0-2.93,3.32v7h-1.6Z" transform="matrix(1, 0, 0, 1, -451.504852, -290.860016)"/>
  <path d="M601.52,986.65l.84-1.18a5.29,5.29,0,0,0,3.37,1.4c1.27,0,2.15-.71,2.15-1.8v0c0-1-1-1.56-2.5-2.2-1.84-.8-3.31-1.54-3.31-3.34v0c0-1.89,1.53-3.15,3.6-3.15a6.3,6.3,0,0,1,3.63,1.24l-.77,1.22a5.11,5.11,0,0,0-2.91-1.09c-1.22,0-2,.71-2,1.62v.05c0,1,1,1.47,2.58,2.13,1.91.85,3.24,1.65,3.24,3.4v.05c0,2.06-1.67,3.33-3.75,3.33A6.48,6.48,0,0,1,601.52,986.65Z" transform="matrix(1, 0, 0, 1, -451.504852, -290.860016)"/>
  <path d="M612.1,972.23h1.78v1.89H612.1Zm.09,4.26h1.6v11.58h-1.6Z" transform="matrix(1, 0, 0, 1, -451.504852, -290.860016)"/>
  <path d="M618.8,985.91v2.16h-1.6V972h1.6v6.68a4.32,4.32,0,0,1,3.75-2.44c2.35,0,4.62,2.05,4.62,5.89v.22c0,3.84-2.27,5.91-4.62,5.91A4.29,4.29,0,0,1,618.8,985.91Zm6.72-3.53v-.18c0-2.82-1.5-4.49-3.28-4.49s-3.5,1.76-3.5,4.47v.22c0,2.71,1.68,4.45,3.5,4.45S625.52,985.22,625.52,982.38Z" transform="matrix(1, 0, 0, 1, -451.504852, -290.860016)"/>
  <path d="M630,972h1.59v16H630Z" transform="matrix(1, 0, 0, 1, -451.504852, -290.860016)"/>
  <path d="M634.4,982.38v-.11c0-3.53,2.06-6,4.77-6,2.91,0,4.64,2.49,4.64,6,0,.15,0,.46,0,.66H636c.18,2.56,1.75,4,3.57,4a4.06,4.06,0,0,0,3-1.33l.91,1a5.2,5.2,0,0,1-4,1.73C636.71,988.31,634.4,986.05,634.4,982.38Zm7.81-.71c-.11-2.2-1.15-4-3-4-1.71,0-3,1.58-3.15,4Z" transform="matrix(1, 0, 0, 1, -451.504852, -290.860016)"/>
  <path d="M663.25,980.4v-.17c0-4.58,2.75-8,6.7-8s6.65,3.36,6.65,7.91v.18c0,4.58-2.72,7.95-6.67,7.95S663.25,985,663.25,980.4Zm11.65,0v-.15c0-3.76-2.11-6.43-5-6.43s-4.95,2.65-4.95,6.4v.16c0,3.75,2.11,6.42,5,6.42S674.9,984.14,674.9,980.38Z" transform="matrix(1, 0, 0, 1, -451.504852, -290.860016)"/>
  <path d="M679.51,976.49h1.6v2.22a4.32,4.32,0,0,1,3.75-2.44c2.35,0,4.61,2.05,4.61,5.89v.22c0,3.84-2.26,5.91-4.61,5.91a4.27,4.27,0,0,1-3.75-2.38v5.49h-1.6Zm8.32,5.89v-.18c0-2.82-1.51-4.49-3.28-4.49s-3.51,1.76-3.51,4.47v.22c0,2.71,1.69,4.45,3.51,4.45S687.83,985.22,687.83,982.38Z" transform="matrix(1, 0, 0, 1, -451.504852, -290.860016)"/>
  <path d="M691.56,982.38v-.11c0-3.53,2.07-6,4.77-6,2.91,0,4.64,2.49,4.64,6,0,.15,0,.46,0,.66h-7.77c.18,2.56,1.75,4,3.57,4a4.06,4.06,0,0,0,3-1.33l.91,1a5.2,5.2,0,0,1-4,1.73C693.87,988.31,691.56,986.05,691.56,982.38Zm7.81-.71c-.11-2.2-1.15-4-3-4-1.71,0-3,1.58-3.15,4Z" transform="matrix(1, 0, 0, 1, -451.504852, -290.860016)"/>
  <path d="M703.54,976.49h1.6v1.89a3.76,3.76,0,0,1,3.42-2.11c2.35,0,3.77,1.62,3.77,4.22v7.58h-1.6v-7.13c0-2.07-1-3.23-2.66-3.23a3,3,0,0,0-2.93,3.32v7h-1.6Z" transform="matrix(1, 0, 0, 1, -451.504852, -290.860016)"/>
  <path d="M714.64,986.09l1-1.27a6.18,6.18,0,0,0,4.37,1.94c1.87,0,3.11-1.14,3.11-2.62v0c0-1.28-.62-2.11-3.44-3.11-3.22-1.2-4.48-2.35-4.48-4.55v-.05c0-2.33,2-4.11,4.68-4.11a6.75,6.75,0,0,1,4.66,1.76l-1,1.29a5.55,5.55,0,0,0-3.73-1.51c-1.77,0-2.93,1.09-2.93,2.42v0c0,1.36.69,2.14,3.62,3.2,3.15,1.18,4.3,2.45,4.3,4.51v0c0,2.49-2,4.24-4.81,4.24A7.61,7.61,0,0,1,714.64,986.09Z" transform="matrix(1, 0, 0, 1, -451.504852, -290.860016)"/>
  <path d="M728,985.38v-7.46h-1.4v-1.43H728v-3.37h1.6v3.37h3v1.43h-3v7.19a1.47,1.47,0,0,0,1.66,1.67,3.44,3.44,0,0,0,1.36-.31v1.38a4,4,0,0,1-1.73.4A2.59,2.59,0,0,1,728,985.38Z" transform="matrix(1, 0, 0, 1, -451.504852, -290.860016)"/>
  <path d="M734.48,984.71v-.09c0-2.37,1.71-3.73,4.26-3.73a9.39,9.39,0,0,1,3,.47v-.69a2.64,2.64,0,0,0-3-2.87,6.3,6.3,0,0,0-3,.78l-.51-1.31a8,8,0,0,1,3.64-.93,4.44,4.44,0,0,1,3.24,1.15,4.31,4.31,0,0,1,1.1,3.14v7.44h-1.57v-1.69a4,4,0,0,1-3.53,1.93A3.53,3.53,0,0,1,734.48,984.71Zm7.25-.66V982.6a8.28,8.28,0,0,0-2.79-.46c-1.85,0-2.87,1-2.87,2.42v.06a2.32,2.32,0,0,0,2.47,2.36A3,3,0,0,0,741.73,984.05Z" transform="matrix(1, 0, 0, 1, -451.504852, -290.860016)"/>
  <path d="M745.77,982.4v-.15c0-3.51,2.26-6,5.15-6a4.9,4.9,0,0,1,3.64,1.58l-1,1.2a3.71,3.71,0,0,0-2.7-1.31c-1.93,0-3.49,1.82-3.49,4.51v.11c0,2.73,1.6,4.49,3.55,4.49a3.71,3.71,0,0,0,2.71-1.34l.93,1.07a4.74,4.74,0,0,1-3.73,1.73C748,988.31,745.77,985.91,745.77,982.4Z" transform="matrix(1, 0, 0, 1, -451.504852, -290.860016)"/>
  <path d="M757,972h1.59V982.8l5.13-6.31h1.93l-4.06,4.87,4.21,6.71H763.9l-3.42-5.45-1.91,2.25v3.2H757Z" transform="matrix(1, 0, 0, 1, -451.504852, -290.860016)"/>
  <path d="M767.1,980.56h5.7v1.67h-5.7Z" transform="matrix(1, 0, 0, 1, -451.504852, -290.860016)"/>
  <path d="M775.33,980.38v-.13c0-4.71,2.93-8,6.81-8a6.43,6.43,0,0,1,4.72,1.92l-1,1.26a5.22,5.22,0,0,0-3.72-1.62c-2.87,0-5.06,2.62-5.06,6.38v.08c0,3.83,2.19,6.43,5.06,6.43A5.27,5.27,0,0,0,786,985l1,1.16a6.62,6.62,0,0,1-4.92,2.13C778.19,988.29,775.33,985.11,775.33,980.38Z" transform="matrix(1, 0, 0, 1, -451.504852, -290.860016)"/>
  <path d="M789.35,972H791v6.35a3.75,3.75,0,0,1,3.42-2.11c2.35,0,3.77,1.62,3.77,4.22v7.58h-1.6v-7.13c0-2.07-1-3.23-2.66-3.23A3,3,0,0,0,791,981v7h-1.6Z" transform="matrix(1, 0, 0, 1, -451.504852, -290.860016)"/>
  <path d="M800.51,984.71v-.09c0-2.37,1.71-3.73,4.26-3.73a9.45,9.45,0,0,1,3,.47v-.69a2.64,2.64,0,0,0-3-2.87,6.34,6.34,0,0,0-2.95.78l-.51-1.31a8,8,0,0,1,3.64-.93,4.41,4.41,0,0,1,3.24,1.15,4.31,4.31,0,0,1,1.11,3.14v7.44h-1.57v-1.69a4,4,0,0,1-3.53,1.93A3.54,3.54,0,0,1,800.51,984.71Zm7.26-.66V982.6a8.34,8.34,0,0,0-2.8-.46c-1.84,0-2.86,1-2.86,2.42v.06a2.32,2.32,0,0,0,2.46,2.36A3,3,0,0,0,807.77,984.05Z" transform="matrix(1, 0, 0, 1, -451.504852, -290.860016)"/>
  <path d="M812.43,976.49H814v2.56a4.07,4.07,0,0,1,4-2.71v1.73h-.09c-2.15,0-3.88,1.51-3.88,4.49v5.51h-1.6Z" transform="matrix(1, 0, 0, 1, -451.504852, -290.860016)"/>
  <path d="M820.22,976.49h1.59v1.85a3.64,3.64,0,0,1,3.24-2.07,3.35,3.35,0,0,1,3.2,2.11,4,4,0,0,1,3.55-2.11c2.24,0,3.68,1.56,3.68,4.24v7.56h-1.6v-7.13c0-2.11-.93-3.23-2.5-3.23s-2.73,1.21-2.73,3.29v7.07h-1.6v-7.16c0-2.06-.93-3.2-2.51-3.2s-2.73,1.36-2.73,3.32v7h-1.59Z" transform="matrix(1, 0, 0, 1, -451.504852, -290.860016)"/>
  <path d="M837.61,986.65l.85-1.18a5.26,5.26,0,0,0,3.37,1.4c1.26,0,2.15-.71,2.15-1.8v0c0-1-1-1.56-2.51-2.2-1.84-.8-3.3-1.54-3.3-3.34v0c0-1.89,1.53-3.15,3.59-3.15a6.3,6.3,0,0,1,3.64,1.24l-.78,1.22a5.05,5.05,0,0,0-2.9-1.09c-1.22,0-2,.71-2,1.62v.05c0,1,1,1.47,2.58,2.13,1.9.85,3.23,1.65,3.23,3.4v.05c0,2.06-1.66,3.33-3.74,3.33A6.51,6.51,0,0,1,837.61,986.65Z" transform="matrix(1, 0, 0, 1, -451.504852, -290.860016)"/>
  <path d="M868.94,974.07H864.6v-1.55H875v1.55h-4.37v14h-1.67Z" transform="matrix(1, 0, 0, 1, -451.504852, -290.860016)"/>
  <path d="M876,976.49h1.6v2.56a4.08,4.08,0,0,1,4-2.71v1.73h-.09c-2.15,0-3.88,1.51-3.88,4.49v5.51H876Z" transform="matrix(1, 0, 0, 1, -451.504852, -290.860016)"/>
  <path d="M883.81,972.23h1.78v1.89h-1.78Zm.09,4.26h1.6v11.58h-1.6Z" transform="matrix(1, 0, 0, 1, -451.504852, -290.860016)"/>
  <path d="M888.92,976.49h1.59v2.22a4.32,4.32,0,0,1,3.75-2.44c2.36,0,4.62,2.05,4.62,5.89v.22c0,3.84-2.26,5.91-4.62,5.91a4.29,4.29,0,0,1-3.75-2.38v5.49h-1.59Zm8.32,5.89v-.18c0-2.82-1.51-4.49-3.29-4.49s-3.5,1.76-3.5,4.47v.22c0,2.71,1.68,4.45,3.5,4.45S897.24,985.22,897.24,982.38Z" transform="matrix(1, 0, 0, 1, -451.504852, -290.860016)"/>
  <path d="M901.72,972h1.6v16h-1.6Z" transform="matrix(1, 0, 0, 1, -451.504852, -290.860016)"/>
  <path d="M906.11,982.38v-.11c0-3.53,2.07-6,4.77-6,2.91,0,4.64,2.49,4.64,6,0,.15,0,.46,0,.66h-7.77c.18,2.56,1.76,4,3.58,4a4.06,4.06,0,0,0,3-1.33l.91,1a5.2,5.2,0,0,1-4,1.73C908.42,988.31,906.11,986.05,906.11,982.38Zm7.81-.71c-.11-2.2-1.15-4-3-4-1.7,0-3,1.58-3.15,4Z" transform="matrix(1, 0, 0, 1, -451.504852, -290.860016)"/>
  <path d="M917.72,980.4v-.17c0-4.58,2.75-8,6.7-8s6.66,3.36,6.66,7.91v.18c0,4.58-2.73,7.95-6.68,7.95S917.72,985,917.72,980.4Zm11.65,0v-.15c0-3.76-2.11-6.43-5-6.43s-4.95,2.65-4.95,6.4v.16c0,3.75,2.11,6.42,5,6.42S929.37,984.14,929.37,980.38Z" transform="matrix(1, 0, 0, 1, -451.504852, -290.860016)"/>
  <path d="M951.45,972.52h5.26a5.25,5.25,0,0,1,3.83,1.33,3.48,3.48,0,0,1,1,2.55v.05a3.69,3.69,0,0,1-2.55,3.62c1.82.53,3.22,1.62,3.22,3.73v.07c0,2.64-2.15,4.2-5.41,4.2h-5.37Zm8.43,4.11c0-1.6-1.2-2.6-3.26-2.6h-3.51v5.46h3.35c2.06,0,3.42-1,3.42-2.82Zm-3.2,4.33h-3.57v5.6h3.77c2.24,0,3.66-1,3.66-2.8v0C960.54,982,959.19,981,956.68,981Z" transform="matrix(1, 0, 0, 1, -451.504852, -290.860016)"/>
  <path d="M965,972.23h1.78v1.89H965Zm.09,4.26h1.6v11.58h-1.6Z" transform="matrix(1, 0, 0, 1, -451.504852, -290.860016)"/>
  <path d="M970.64,977.92h-1.42v-1.4h1.42v-1.07a3.78,3.78,0,0,1,.89-2.69,3.06,3.06,0,0,1,2.24-.82,5.16,5.16,0,0,1,1.53.22v1.42a4.79,4.79,0,0,0-1.31-.22c-1.15,0-1.75.71-1.75,2.18v1h3v1.4h-3v10.15h-1.62Z" transform="matrix(1, 0, 0, 1, -451.504852, -290.860016)"/>
  <path d="M977.17,976.49h1.59v2.56a4.09,4.09,0,0,1,4-2.71v1.73h-.09c-2.15,0-3.88,1.51-3.88,4.49v5.51h-1.59Z" transform="matrix(1, 0, 0, 1, -451.504852, -290.860016)"/>
  <path d="M983.87,982.38v-.15c0-3.38,2.17-6,5.14-6s5.13,2.56,5.13,5.93v.14c0,3.37-2.18,6-5.15,6S983.87,985.76,983.87,982.38Zm8.65,0v-.11c0-2.6-1.55-4.54-3.53-4.54s-3.48,1.94-3.48,4.52v.11c0,2.6,1.53,4.53,3.5,4.53S992.52,984.91,992.52,982.36Z" transform="matrix(1, 0, 0, 1, -451.504852, -290.860016)"/>
  <path d="M995.76,986.65l.84-1.18a5.29,5.29,0,0,0,3.38,1.4c1.26,0,2.15-.71,2.15-1.8v0c0-1-1-1.56-2.51-2.2-1.84-.8-3.3-1.54-3.3-3.34v0c0-1.89,1.53-3.15,3.59-3.15a6.33,6.33,0,0,1,3.64,1.24l-.78,1.22a5.08,5.08,0,0,0-2.91-1.09c-1.22,0-2,.71-2,1.62v.05c0,1,1,1.47,2.57,2.13,1.91.85,3.24,1.65,3.24,3.4v.05c0,2.06-1.66,3.33-3.75,3.33A6.48,6.48,0,0,1,995.76,986.65Z" transform="matrix(1, 0, 0, 1, -451.504852, -290.860016)"/>
  <path d="M1006.63,985.38v-7.46h-1.39v-1.43h1.39v-3.37h1.6v3.37h3v1.43h-3v7.19a1.47,1.47,0,0,0,1.66,1.67,3.44,3.44,0,0,0,1.36-.31v1.38a4,4,0,0,1-1.73.4A2.59,2.59,0,0,1,1006.63,985.38Z" transform="matrix(1, 0, 0, 1, -451.504852, -290.860016)"/>
  <path d="M1031.29,972.52H1033v9l7.37-9h2.06l-5.66,6.79,6,8.76h-2l-5.1-7.4-2.62,3v4.36h-1.66Z" transform="matrix(1, 0, 0, 1, -451.504852, -290.860016)"/>
  <path d="M1043.82,984.71v-.09c0-2.37,1.71-3.73,4.26-3.73a9.45,9.45,0,0,1,3,.47v-.69a2.64,2.64,0,0,0-3-2.87,6.34,6.34,0,0,0-2.95.78l-.51-1.31a8,8,0,0,1,3.64-.93,4.41,4.41,0,0,1,3.24,1.15,4.31,4.31,0,0,1,1.11,3.14v7.44h-1.57v-1.69a4,4,0,0,1-3.53,1.93A3.54,3.54,0,0,1,1043.82,984.71Zm7.26-.66V982.6a8.34,8.34,0,0,0-2.8-.46c-1.84,0-2.86,1-2.86,2.42v.06a2.32,2.32,0,0,0,2.46,2.36A3,3,0,0,0,1051.08,984.05Z" transform="matrix(1, 0, 0, 1, -451.504852, -290.860016)"/>
  <path d="M1062.66,976.49h1.71l-4.11,11.78c-.82,2.4-1.81,3.22-3.37,3.22a4.38,4.38,0,0,1-2.08-.53l.48-1.34a3.06,3.06,0,0,0,1.51.43c.87,0,1.42-.49,2-2l-4.44-11.58h1.73l3.46,9.53Z" transform="matrix(1, 0, 0, 1, -451.504852, -290.860016)"/>
  <path d="M1065.5,982.38v-.15c0-3.38,2.18-6,5.15-6s5.12,2.56,5.12,5.93v.14c0,3.37-2.17,6-5.14,6S1065.5,985.76,1065.5,982.38Zm8.66,0v-.11c0-2.6-1.56-4.54-3.53-4.54s-3.49,1.94-3.49,4.52v.11c0,2.6,1.53,4.53,3.51,4.53S1074.16,984.91,1074.16,982.36Z" transform="matrix(1, 0, 0, 1, -451.504852, -290.860016)"/>
  <path d="M1080,985.91v2.16h-1.6V972h1.6v6.68a4.3,4.3,0,0,1,3.75-2.44c2.35,0,4.61,2.05,4.61,5.89v.22c0,3.84-2.26,5.91-4.61,5.91A4.26,4.26,0,0,1,1080,985.91Zm6.72-3.53v-.18c0-2.82-1.51-4.49-3.28-4.49s-3.51,1.76-3.51,4.47v.22c0,2.71,1.69,4.45,3.51,4.45S1086.76,985.22,1086.76,982.38Z" transform="matrix(1, 0, 0, 1, -451.504852, -290.860016)"/>
  <path d="M1090.49,982.38v-.11c0-3.53,2.06-6,4.77-6,2.91,0,4.64,2.49,4.64,6a5.24,5.24,0,0,1,0,.66h-7.76c.18,2.56,1.75,4,3.57,4a4,4,0,0,0,3-1.33l.91,1a5.2,5.2,0,0,1-4,1.73C1092.8,988.31,1090.49,986.05,1090.49,982.38Zm7.81-.71c-.11-2.2-1.16-4-3-4-1.71,0-3,1.58-3.15,4Z" transform="matrix(1, 0, 0, 1, -451.504852, -290.860016)"/>
  <path d="M544.43,1009.33v-.18c0-4.57,2.75-7.95,6.7-7.95s6.66,3.35,6.66,7.91v.18c0,4.57-2.73,8-6.68,8S544.43,1013.89,544.43,1009.33Zm11.65,0v-.16c0-3.75-2.11-6.42-5-6.42s-5,2.65-5,6.4v.16c0,3.75,2.11,6.42,5,6.42S556.08,1013.06,556.08,1009.31Z" transform="matrix(1, 0, 0, 1, -451.504852, -290.860016)"/>
  <path d="M560.7,1005.42h1.6v2.22a4.3,4.3,0,0,1,3.75-2.44c2.35,0,4.61,2,4.61,5.89v.22c0,3.84-2.26,5.91-4.61,5.91a4.26,4.26,0,0,1-3.75-2.38v5.49h-1.6Zm8.32,5.89v-.18c0-2.82-1.51-4.49-3.29-4.49s-3.5,1.76-3.5,4.47v.22c0,2.71,1.69,4.44,3.5,4.44S569,1014.15,569,1011.31Z" transform="matrix(1, 0, 0, 1, -451.504852, -290.860016)"/>
  <path d="M572.75,1011.31v-.11c0-3.53,2.06-6,4.77-6,2.9,0,4.63,2.49,4.63,6,0,.15,0,.46,0,.66h-7.76c.17,2.56,1.75,4,3.57,4a4,4,0,0,0,3-1.33l.91,1a5.24,5.24,0,0,1-4,1.73C575.06,1017.24,572.75,1015,572.75,1011.31Zm7.81-.71c-.11-2.2-1.16-4-3-4-1.71,0-3,1.58-3.15,4Z" transform="matrix(1, 0, 0, 1, -451.504852, -290.860016)"/>
  <path d="M584.73,1005.42h1.6v1.89a3.72,3.72,0,0,1,3.41-2.11c2.36,0,3.78,1.62,3.78,4.22V1017h-1.6v-7.14c0-2.06-1-3.22-2.66-3.22a3,3,0,0,0-2.93,3.31v7h-1.6Z" transform="matrix(1, 0, 0, 1, -451.504852, -290.860016)"/>
  <path d="M595.82,1015l1-1.27a6.16,6.16,0,0,0,4.37,1.94c1.86,0,3.1-1.14,3.1-2.63v0c0-1.29-.62-2.11-3.43-3.11-3.22-1.2-4.49-2.35-4.49-4.55v0c0-2.33,2-4.11,4.68-4.11a6.73,6.73,0,0,1,4.66,1.76l-1,1.29a5.6,5.6,0,0,0-3.73-1.52c-1.78,0-2.93,1.09-2.93,2.43v0c0,1.36.69,2.13,3.62,3.2,3.15,1.18,4.3,2.44,4.3,4.51v0c0,2.49-2,4.25-4.81,4.25A7.63,7.63,0,0,1,595.82,1015Z" transform="matrix(1, 0, 0, 1, -451.504852, -290.860016)"/>
  <path d="M609.23,1014.31v-7.47h-1.4v-1.42h1.4V1002h1.59v3.38h3v1.42h-3v7.2a1.48,1.48,0,0,0,1.67,1.67,3.39,3.39,0,0,0,1.35-.31v1.37a3.8,3.8,0,0,1-1.73.4A2.59,2.59,0,0,1,609.23,1014.31Z" transform="matrix(1, 0, 0, 1, -451.504852, -290.860016)"/>
  <path d="M615.66,1013.64v-.09c0-2.37,1.71-3.73,4.26-3.73a9.45,9.45,0,0,1,3,.47v-.69a2.64,2.64,0,0,0-3-2.87,6.34,6.34,0,0,0-3,.78l-.51-1.31a8,8,0,0,1,3.64-.93,4.41,4.41,0,0,1,3.24,1.15,4.3,4.3,0,0,1,1.11,3.13V1017H622.9v-1.69a4,4,0,0,1-3.53,1.93A3.54,3.54,0,0,1,615.66,1013.64Zm7.26-.67v-1.44a8.08,8.08,0,0,0-2.8-.47c-1.84,0-2.86,1-2.86,2.43v.06a2.32,2.32,0,0,0,2.46,2.36A3,3,0,0,0,622.92,1013Z" transform="matrix(1, 0, 0, 1, -451.504852, -290.860016)"/>
  <path d="M627,1011.33v-.15c0-3.51,2.26-6,5.14-6a4.88,4.88,0,0,1,3.64,1.58l-1,1.2a3.73,3.73,0,0,0-2.71-1.31c-1.93,0-3.48,1.82-3.48,4.51v.11c0,2.73,1.6,4.48,3.55,4.48a3.68,3.68,0,0,0,2.7-1.33l.94,1.07a4.75,4.75,0,0,1-3.73,1.73C629.15,1017.24,627,1014.84,627,1011.33Z" transform="matrix(1, 0, 0, 1, -451.504852, -290.860016)"/>
  <path d="M638.16,1001h1.6v10.77l5.12-6.31h1.93l-4.06,4.87L647,1017h-1.89l-3.41-5.45-1.91,2.25v3.2h-1.6Z" transform="matrix(1, 0, 0, 1, -451.504852, -290.860016)"/>
  <path d="M648.28,1009.49H654v1.66h-5.7Z" transform="matrix(1, 0, 0, 1, -451.504852, -290.860016)"/>
  <path d="M657.11,1001.44h1.67v7h7.5v-7h1.66V1017h-1.66v-7h-7.5v7h-1.67Z" transform="matrix(1, 0, 0, 1, -451.504852, -290.860016)"/>
  <path d="M670.83,1011.31v-.11c0-3.53,2.06-6,4.77-6,2.9,0,4.63,2.49,4.63,6,0,.15,0,.46,0,.66h-7.76c.17,2.56,1.75,4,3.57,4a4.06,4.06,0,0,0,3-1.33l.91,1a5.24,5.24,0,0,1-4,1.73C673.13,1017.24,670.83,1015,670.83,1011.31Zm7.81-.71c-.12-2.2-1.16-4-3-4-1.71,0-3,1.58-3.15,4Z" transform="matrix(1, 0, 0, 1, -451.504852, -290.860016)"/>
  <path d="M682.94,1001h1.6v16h-1.6Z" transform="matrix(1, 0, 0, 1, -451.504852, -290.860016)"/>
  <path d="M688,1005.42h1.59v1.85a3.64,3.64,0,0,1,3.24-2.07,3.34,3.34,0,0,1,3.2,2.11,4,4,0,0,1,3.55-2.11c2.24,0,3.68,1.55,3.68,4.24V1017h-1.6v-7.14c0-2.11-.93-3.22-2.5-3.22s-2.73,1.2-2.73,3.29V1017h-1.6v-7.16c0-2.06-.93-3.2-2.51-3.2s-2.73,1.36-2.73,3.31v7H688Z" transform="matrix(1, 0, 0, 1, -451.504852, -290.860016)"/>
  <path d="M723.26,1009.33v-.18c0-4.57,2.75-7.95,6.7-7.95s6.66,3.35,6.66,7.91v.18c0,4.57-2.73,8-6.68,8S723.26,1013.89,723.26,1009.33Zm11.65,0v-.16c0-3.75-2.11-6.42-5-6.42s-5,2.65-5,6.4v.16c0,3.75,2.11,6.42,5,6.42S734.91,1013.06,734.91,1009.31Z" transform="matrix(1, 0, 0, 1, -451.504852, -290.860016)"/>
  <path d="M739.53,1005.42h1.59v2.22a4.32,4.32,0,0,1,3.75-2.44c2.35,0,4.62,2,4.62,5.89v.22c0,3.84-2.27,5.91-4.62,5.91a4.29,4.29,0,0,1-3.75-2.38v5.49h-1.59Zm8.32,5.89v-.18c0-2.82-1.51-4.49-3.29-4.49s-3.5,1.76-3.5,4.47v.22c0,2.71,1.68,4.44,3.5,4.44S747.85,1014.15,747.85,1011.31Z" transform="matrix(1, 0, 0, 1, -451.504852, -290.860016)"/>
  <path d="M751.57,1011.31v-.11c0-3.53,2.07-6,4.77-6,2.91,0,4.64,2.49,4.64,6,0,.15,0,.46,0,.66h-7.77c.18,2.56,1.76,4,3.58,4a4.06,4.06,0,0,0,3-1.33l.91,1a5.24,5.24,0,0,1-4,1.73C753.88,1017.24,751.57,1015,751.57,1011.31Zm7.81-.71c-.11-2.2-1.15-4-3-4-1.7,0-3,1.58-3.15,4Z" transform="matrix(1, 0, 0, 1, -451.504852, -290.860016)"/>
  <path d="M763.56,1005.42h1.59v1.89a3.74,3.74,0,0,1,3.42-2.11c2.35,0,3.77,1.62,3.77,4.22V1017h-1.59v-7.14c0-2.06-1-3.22-2.67-3.22a3,3,0,0,0-2.93,3.31v7h-1.59Z" transform="matrix(1, 0, 0, 1, -451.504852, -290.860016)"/>
  <path d="M774.65,1015l1-1.27a6.18,6.18,0,0,0,4.38,1.94c1.86,0,3.1-1.14,3.1-2.63v0c0-1.29-.62-2.11-3.44-3.11-3.21-1.2-4.48-2.35-4.48-4.55v0c0-2.33,2-4.11,4.68-4.11a6.73,6.73,0,0,1,4.66,1.76l-1,1.29a5.56,5.56,0,0,0-3.72-1.52c-1.78,0-2.93,1.09-2.93,2.43v0c0,1.36.68,2.13,3.61,3.2,3.15,1.18,4.31,2.44,4.31,4.51v0c0,2.49-2,4.25-4.82,4.25A7.63,7.63,0,0,1,774.65,1015Z" transform="matrix(1, 0, 0, 1, -451.504852, -290.860016)"/>
  <path d="M788.05,1014.31v-7.47h-1.39v-1.42h1.39V1002h1.6v3.38h3v1.42h-3v7.2a1.48,1.48,0,0,0,1.67,1.67,3.43,3.43,0,0,0,1.35-.31v1.37a3.84,3.84,0,0,1-1.73.4A2.59,2.59,0,0,1,788.05,1014.31Z" transform="matrix(1, 0, 0, 1, -451.504852, -290.860016)"/>
  <path d="M794.49,1013.64v-.09c0-2.37,1.71-3.73,4.26-3.73a9.34,9.34,0,0,1,3,.47v-.69a2.63,2.63,0,0,0-3-2.87,6.34,6.34,0,0,0-2.95.78l-.51-1.31a8,8,0,0,1,3.64-.93,4.43,4.43,0,0,1,3.24,1.15,4.3,4.3,0,0,1,1.11,3.13V1017h-1.58v-1.69a4,4,0,0,1-3.53,1.93A3.53,3.53,0,0,1,794.49,1013.64Zm7.25-.67v-1.44a8,8,0,0,0-2.79-.47c-1.84,0-2.86,1-2.86,2.43v.06a2.31,2.31,0,0,0,2.46,2.36A3,3,0,0,0,801.74,1013Z" transform="matrix(1, 0, 0, 1, -451.504852, -290.860016)"/>
  <path d="M805.78,1011.33v-.15c0-3.51,2.27-6,5.15-6a4.9,4.9,0,0,1,3.64,1.58l-1,1.2a3.73,3.73,0,0,0-2.71-1.31c-1.93,0-3.48,1.82-3.48,4.51v.11c0,2.73,1.59,4.48,3.55,4.48a3.68,3.68,0,0,0,2.7-1.33l.93,1.07a4.73,4.73,0,0,1-3.72,1.73C808,1017.24,805.78,1014.84,805.78,1011.33Z" transform="matrix(1, 0, 0, 1, -451.504852, -290.860016)"/>
  <path d="M817,1001h1.6v10.77l5.12-6.31h1.93l-4.06,4.87,4.22,6.71h-1.89l-3.42-5.45-1.9,2.25v3.2H817Z" transform="matrix(1, 0, 0, 1, -451.504852, -290.860016)"/>
  <path d="M827.11,1009.49h5.7v1.66h-5.7Z" transform="matrix(1, 0, 0, 1, -451.504852, -290.860016)"/>
  <path d="M840,1001.36h1.64l5.92,15.64h-1.77l-1.51-4.09h-7l-1.51,4.09h-1.71Zm3.72,10-2.92-7.89-2.95,7.89Z" transform="matrix(1, 0, 0, 1, -451.504852, -290.860016)"/>
  <path d="M849.92,1005.42h1.6v1.89a3.72,3.72,0,0,1,3.41-2.11c2.36,0,3.78,1.62,3.78,4.22V1017h-1.6v-7.14c0-2.06-1-3.22-2.66-3.22a3,3,0,0,0-2.93,3.31v7h-1.6Z" transform="matrix(1, 0, 0, 1, -451.504852, -290.860016)"/>
  <path d="M860.79,1015.57l.84-1.17a5.29,5.29,0,0,0,3.38,1.4c1.26,0,2.15-.71,2.15-1.8v0c0-1-.95-1.55-2.51-2.19-1.84-.8-3.3-1.54-3.3-3.34v0c0-1.89,1.53-3.16,3.59-3.16a6.27,6.27,0,0,1,3.64,1.25l-.78,1.22a5.05,5.05,0,0,0-2.9-1.09c-1.22,0-2,.71-2,1.62v0c0,1,1,1.46,2.57,2.13,1.91.84,3.24,1.64,3.24,3.4v0c0,2.07-1.66,3.34-3.75,3.34A6.44,6.44,0,0,1,860.79,1015.57Z" transform="matrix(1, 0, 0, 1, -451.504852, -290.860016)"/>
  <path d="M871.38,1001.16h1.77V1003h-1.77Zm.08,4.26h1.6V1017h-1.6Z" transform="matrix(1, 0, 0, 1, -451.504852, -290.860016)"/>
  <path d="M878.08,1014.84V1017h-1.6v-16h1.6v6.68a4.3,4.3,0,0,1,3.75-2.44c2.35,0,4.61,2,4.61,5.89v.22c0,3.84-2.26,5.91-4.61,5.91A4.26,4.26,0,0,1,878.08,1014.84Zm6.72-3.53v-.18c0-2.82-1.51-4.49-3.28-4.49s-3.51,1.76-3.51,4.47v.22c0,2.71,1.69,4.44,3.51,4.44S884.8,1014.15,884.8,1011.31Z" transform="matrix(1, 0, 0, 1, -451.504852, -290.860016)"/>
  <path d="M889.28,1001h1.6v16h-1.6Z" transform="matrix(1, 0, 0, 1, -451.504852, -290.860016)"/>
  <path d="M893.68,1011.31v-.11c0-3.53,2.06-6,4.77-6,2.9,0,4.63,2.49,4.63,6,0,.15,0,.46,0,.66H895.3c.17,2.56,1.75,4,3.57,4a4.06,4.06,0,0,0,3-1.33l.91,1a5.24,5.24,0,0,1-4,1.73C896,1017.24,893.68,1015,893.68,1011.31Zm7.81-.71c-.11-2.2-1.16-4-3-4-1.71,0-3,1.58-3.15,4Z" transform="matrix(1, 0, 0, 1, -451.504852, -290.860016)"/>
  <path d="M922.52,1009.33v-.18c0-4.57,2.75-7.95,6.7-7.95s6.66,3.35,6.66,7.91v.18c0,4.57-2.73,8-6.68,8S922.52,1013.89,922.52,1009.33Zm11.65,0v-.16c0-3.75-2.11-6.42-5-6.42s-5,2.65-5,6.4v.16c0,3.75,2.11,6.42,5,6.42S934.17,1013.06,934.17,1009.31Z" transform="matrix(1, 0, 0, 1, -451.504852, -290.860016)"/>
  <path d="M938.79,1005.42h1.6v2.22a4.3,4.3,0,0,1,3.75-2.44c2.35,0,4.61,2,4.61,5.89v.22c0,3.84-2.26,5.91-4.61,5.91a4.26,4.26,0,0,1-3.75-2.38v5.49h-1.6Zm8.32,5.89v-.18c0-2.82-1.51-4.49-3.29-4.49s-3.5,1.76-3.5,4.47v.22c0,2.71,1.69,4.44,3.5,4.44S947.11,1014.15,947.11,1011.31Z" transform="matrix(1, 0, 0, 1, -451.504852, -290.860016)"/>
  <path d="M950.84,1011.31v-.11c0-3.53,2.06-6,4.77-6,2.9,0,4.63,2.49,4.63,6,0,.15,0,.46,0,.66h-7.76c.17,2.56,1.75,4,3.57,4a4,4,0,0,0,3-1.33l.91,1a5.24,5.24,0,0,1-4,1.73C953.15,1017.24,950.84,1015,950.84,1011.31Zm7.81-.71c-.11-2.2-1.16-4-3-4-1.71,0-3,1.58-3.15,4Z" transform="matrix(1, 0, 0, 1, -451.504852, -290.860016)"/>
  <path d="M962.82,1005.42h1.6v1.89a3.72,3.72,0,0,1,3.41-2.11c2.36,0,3.78,1.62,3.78,4.22V1017H970v-7.14c0-2.06-1-3.22-2.66-3.22a3,3,0,0,0-2.93,3.31v7h-1.6Z" transform="matrix(1, 0, 0, 1, -451.504852, -290.860016)"/>
  <path d="M973.92,1015l1-1.27a6.16,6.16,0,0,0,4.37,1.94c1.86,0,3.1-1.14,3.1-2.63v0c0-1.29-.62-2.11-3.43-3.11-3.22-1.2-4.49-2.35-4.49-4.55v0c0-2.33,2-4.11,4.68-4.11a6.73,6.73,0,0,1,4.66,1.76l-1,1.29a5.6,5.6,0,0,0-3.73-1.52c-1.78,0-2.93,1.09-2.93,2.43v0c0,1.36.69,2.13,3.62,3.2,3.15,1.18,4.3,2.44,4.3,4.51v0c0,2.49-2,4.25-4.81,4.25A7.6,7.6,0,0,1,973.92,1015Z" transform="matrix(1, 0, 0, 1, -451.504852, -290.860016)"/>
  <path d="M987.32,1014.31v-7.47h-1.4v-1.42h1.4V1002h1.6v3.38h3v1.42h-3v7.2a1.47,1.47,0,0,0,1.66,1.67,3.39,3.39,0,0,0,1.35-.31v1.37a3.8,3.8,0,0,1-1.73.4A2.59,2.59,0,0,1,987.32,1014.31Z" transform="matrix(1, 0, 0, 1, -451.504852, -290.860016)"/>
  <path d="M993.75,1013.64v-.09c0-2.37,1.71-3.73,4.26-3.73a9.45,9.45,0,0,1,3,.47v-.69a2.64,2.64,0,0,0-3-2.87,6.34,6.34,0,0,0-2.95.78l-.51-1.31a8,8,0,0,1,3.64-.93,4.41,4.41,0,0,1,3.24,1.15,4.3,4.3,0,0,1,1.11,3.13V1017H1001v-1.69a4,4,0,0,1-3.53,1.93A3.54,3.54,0,0,1,993.75,1013.64Zm7.26-.67v-1.44a8.08,8.08,0,0,0-2.8-.47c-1.84,0-2.86,1-2.86,2.43v.06a2.32,2.32,0,0,0,2.46,2.36A3,3,0,0,0,1001,1013Z" transform="matrix(1, 0, 0, 1, -451.504852, -290.860016)"/>
  <path d="M1005.05,1011.33v-.15c0-3.51,2.26-6,5.14-6a4.87,4.87,0,0,1,3.64,1.58l-1,1.2a3.73,3.73,0,0,0-2.71-1.31c-1.93,0-3.48,1.82-3.48,4.51v.11c0,2.73,1.6,4.48,3.55,4.48a3.72,3.72,0,0,0,2.71-1.33l.93,1.07a4.75,4.75,0,0,1-3.73,1.73C1007.24,1017.24,1005.05,1014.84,1005.05,1011.33Z" transform="matrix(1, 0, 0, 1, -451.504852, -290.860016)"/>
  <path d="M1016.25,1001h1.6v10.77l5.13-6.31h1.93l-4.07,4.87,4.22,6.71h-1.89l-3.41-5.45-1.91,2.25v3.2h-1.6Z" transform="matrix(1, 0, 0, 1, -451.504852, -290.860016)"/>
  <path d="M1026.37,1009.49h5.7v1.66h-5.7Z" transform="matrix(1, 0, 0, 1, -451.504852, -290.860016)"/>
  <path d="M1034.6,1009.31v-.13c0-4.71,2.93-8,6.82-8a6.48,6.48,0,0,1,4.72,1.91l-1,1.27a5.25,5.25,0,0,0-3.73-1.62c-2.86,0-5.06,2.62-5.06,6.37v.09c0,3.82,2.2,6.42,5.06,6.42a5.24,5.24,0,0,0,3.84-1.73l1,1.16a6.68,6.68,0,0,1-4.93,2.13C1037.47,1017.22,1034.6,1014,1034.6,1009.31Z" transform="matrix(1, 0, 0, 1, -451.504852, -290.860016)"/>
  <path d="M1048.63,1001h1.59v6.35a3.74,3.74,0,0,1,3.42-2.11c2.35,0,3.77,1.62,3.77,4.22V1017h-1.59v-7.14c0-2.06-1-3.22-2.67-3.22a3,3,0,0,0-2.93,3.31v7h-1.59Z" transform="matrix(1, 0, 0, 1, -451.504852, -290.860016)"/>
  <path d="M1059.92,1011.31v-.11c0-3.53,2.07-6,4.77-6,2.91,0,4.64,2.49,4.64,6,0,.15,0,.46,0,.66h-7.77c.18,2.56,1.75,4,3.57,4a4.06,4.06,0,0,0,3-1.33l.91,1a5.24,5.24,0,0,1-4,1.73C1062.23,1017.24,1059.92,1015,1059.92,1011.31Zm7.81-.71c-.11-2.2-1.15-4-3-4-1.71,0-3,1.58-3.15,4Z" transform="matrix(1, 0, 0, 1, -451.504852, -290.860016)"/>
  <path d="M1072.46,1006.84H1071v-1.4h1.42v-1.06a3.78,3.78,0,0,1,.89-2.69,3,3,0,0,1,2.24-.82,5.21,5.21,0,0,1,1.53.22v1.42a4.79,4.79,0,0,0-1.31-.22c-1.15,0-1.75.71-1.75,2.18v1h3v1.4h-3V1017h-1.62Z" transform="matrix(1, 0, 0, 1, -451.504852, -290.860016)"/>
  <path d="M842.26,901h3v11.66h5.81v2.73h-8.79Z" transform="matrix(1, 0, 0, 1, -451.504852, -290.860016)"/>
  <path d="M853.15,901h3v14.39h-3Z" transform="matrix(1, 0, 0, 1, -451.504852, -290.860016)"/>
  <path d="M859.1,901h9.27v2.73h-6.29V907h5.53v2.74h-5.53v5.69h-3Z" transform="matrix(1, 0, 0, 1, -451.504852, -290.860016)"/>
  <path d="M870.49,901h9.27v2.69h-6.31v3.11H879v2.69h-5.55v3.21h6.39v2.69h-9.35Z" transform="matrix(1, 0, 0, 1, -451.504852, -290.860016)"/>
  <path d="M881.6,908.33v-.19c0-4.36,2.71-7.32,6.52-7.32a6,6,0,0,1,4.62,1.91L891,905A4,4,0,0,0,888,903.6c-1.93,0-3.35,1.79-3.35,4.58v.07c0,2.86,1.48,4.6,3.4,4.6a4,4,0,0,0,3-1.5l1.79,2.12a6.23,6.23,0,0,1-4.87,2.16C884.15,915.63,881.6,912.73,881.6,908.33Z" transform="matrix(1, 0, 0, 1, -451.504852, -290.860016)"/>
  <path d="M898.1,909.75,893.42,901h3.37l2.83,5.65,2.86-5.65h3.29l-4.69,8.68v5.71h-3Z" transform="matrix(1, 0, 0, 1, -451.504852, -290.860016)"/>
  <path d="M905.87,908.33v-.19c0-4.36,2.71-7.32,6.51-7.32a6.05,6.05,0,0,1,4.63,1.91L915.22,905a4,4,0,0,0-2.94-1.44c-1.93,0-3.35,1.79-3.35,4.58v.07c0,2.86,1.48,4.6,3.39,4.6a4,4,0,0,0,3-1.5l1.79,2.12a6.24,6.24,0,0,1-4.87,2.16C908.42,915.63,905.87,912.73,905.87,908.33Z" transform="matrix(1, 0, 0, 1, -451.504852, -290.860016)"/>
  <path d="M919.1,901h3v11.66h5.82v2.73h-8.8Z" transform="matrix(1, 0, 0, 1, -451.504852, -290.860016)"/>
  <path d="M929.88,901h9.27v2.69h-6.31v3.11h5.55v2.69h-5.55v3.21h6.4v2.69h-9.36Z" transform="matrix(1, 0, 0, 1, -451.504852, -290.860016)"/>
  <path d="M946.18,901h3.12l3.21,5.84,3.16-5.84h3.15v14.39H955.9v-9.19l-3.39,5.94h-.06l-3.37-5.9v9.15h-2.9Z" transform="matrix(1, 0, 0, 1, -451.504852, -290.860016)"/>
  <path d="M965.76,900.94h2.84l5.15,14.48h-3.08l-1.07-3.12h-5l-1,3.12h-3Zm2.94,8.73L967.14,905l-1.59,4.69Z" transform="matrix(1, 0, 0, 1, -451.504852, -290.860016)"/>
  <path d="M975.54,901h2.73l5.51,8.39V901h2.92v14.39h-2.55l-5.69-8.7v8.7h-2.92Z" transform="matrix(1, 0, 0, 1, -451.504852, -290.860016)"/>
  <path d="M993.64,900.94h2.84l5.16,14.48h-3.09l-1.07-3.12h-5l-1,3.12h-3Zm2.94,8.73L995,905l-1.58,4.69Z" transform="matrix(1, 0, 0, 1, -451.504852, -290.860016)"/>
  <path d="M1002.19,908.33v-.19c0-4.25,2.81-7.32,6.72-7.32a6.72,6.72,0,0,1,4.7,1.69l-1.76,2.32a4.09,4.09,0,0,0-3-1.23c-2.06,0-3.62,1.87-3.62,4.52v.17c0,3,1.62,4.63,3.74,4.63a3.68,3.68,0,0,0,2.14-.6v-2.55h-2.61v-2.59H1014v6.66a8.3,8.3,0,0,1-5.11,1.79C1005,915.63,1002.19,912.83,1002.19,908.33Z" transform="matrix(1, 0, 0, 1, -451.504852, -290.860016)"/>
  <path d="M1016.51,901h9.27v2.69h-6.31v3.11H1025v2.69h-5.55v3.21h6.39v2.69h-9.35Z" transform="matrix(1, 0, 0, 1, -451.504852, -290.860016)"/>
  <path d="M1028.2,901h3.12l3.21,5.84,3.16-5.84h3.15v14.39h-2.92v-9.19l-3.39,5.94h-.06l-3.37-5.9v9.15h-2.9Z" transform="matrix(1, 0, 0, 1, -451.504852, -290.860016)"/>
  <path d="M1043.71,901H1053v2.69h-6.31v3.11h5.55v2.69h-5.55v3.21h6.39v2.69h-9.35Z" transform="matrix(1, 0, 0, 1, -451.504852, -290.860016)"/>
  <path d="M1055.4,901h2.73l5.51,8.39V901h2.92v14.39H1064l-5.69-8.7v8.7h-2.92Z" transform="matrix(1, 0, 0, 1, -451.504852, -290.860016)"/>
  <path d="M1072.19,903.78h-3.62V901h10.2v2.75h-3.62v11.64h-3Z" transform="matrix(1, 0, 0, 1, -451.504852, -290.860016)"/>
  <rect class="cls-3" x="659.18" y="933.86" width="302.16" height="27.15" style="fill: rgb(255, 255, 255);" transform="matrix(1, 0, 0, 1, -451.504852, -290.860016)"/>
  <path class="cls-11" d="M701,941.69h3.75c3.36,0,5.53,2.32,5.53,5.72v.15c0,3.4-2.17,5.74-5.53,5.74H701Zm2.41,2.17v7.26h1.32c1.83,0,3.07-1.27,3.07-3.58v-.08c0-2.31-1.24-3.6-3.07-3.6Z" style="fill: rgb(79, 87, 97);" transform="matrix(1, 0, 0, 1, -451.504852, -290.860016)"/>
  <path class="cls-11" d="M712.13,941.69h7.47v2.17h-5.08v2.5H719v2.18h-4.47v2.58h5.15v2.18h-7.54Z" style="fill: rgb(79, 87, 97);" transform="matrix(1, 0, 0, 1, -451.504852, -290.860016)"/>
  <path class="cls-11" d="M721.56,941.69h3.86c2.6,0,4.24,1.51,4.24,4v0c0,2.67-1.9,4-4.34,4.06H724v3.54h-2.4Zm3.74,5.92a1.77,1.77,0,0,0,1.94-1.86v0a1.73,1.73,0,0,0-2-1.87H724v3.75Z" style="fill: rgb(79, 87, 97);" transform="matrix(1, 0, 0, 1, -451.504852, -290.860016)"/>
  <path class="cls-11" d="M731.23,941.69h2.41v9.4h4.69v2.21h-7.1Z" style="fill: rgb(79, 87, 97);" transform="matrix(1, 0, 0, 1, -451.504852, -290.860016)"/>
  <path class="cls-11" d="M738.92,947.61v-.2c0-3.49,2.19-5.92,5.26-5.92s5.23,2.42,5.23,5.89v.19c0,3.47-2.19,5.93-5.25,5.93S738.92,951.07,738.92,947.61Zm8-.05v-.12c0-2.29-1.16-3.73-2.77-3.73s-2.77,1.43-2.77,3.71v.12c0,2.29,1.18,3.73,2.79,3.73S746.93,949.85,746.93,947.56Z" style="fill: rgb(79, 87, 97);" transform="matrix(1, 0, 0, 1, -451.504852, -290.860016)"/>
  <path class="cls-11" d="M753.27,948.72l-3.78-7h2.72l2.29,4.56,2.3-4.56h2.65l-3.78,7v4.62h-2.4Z" style="fill: rgb(79, 87, 97);" transform="matrix(1, 0, 0, 1, -451.504852, -290.860016)"/>
  <path class="cls-11" d="M760.74,941.69h2.52l2.59,4.71,2.55-4.71h2.53V953.3h-2.35v-7.42l-2.73,4.79h-.05l-2.72-4.75v7.38h-2.34Z" style="fill: rgb(79, 87, 97);" transform="matrix(1, 0, 0, 1, -451.504852, -290.860016)"/>
  <path class="cls-11" d="M773.25,941.69h7.48v2.17h-5.09v2.5h4.47v2.18h-4.47v2.58h5.15v2.18h-7.54Z" style="fill: rgb(79, 87, 97);" transform="matrix(1, 0, 0, 1, -451.504852, -290.860016)"/>
  <path class="cls-11" d="M782.68,941.69h2.2l4.44,6.76v-6.76h2.36V953.3h-2.06l-4.59-7v7h-2.35Z" style="fill: rgb(79, 87, 97);" transform="matrix(1, 0, 0, 1, -451.504852, -290.860016)"/>
  <path class="cls-11" d="M796.22,943.91H793.3v-2.22h8.22v2.22H798.6v9.39h-2.38Z" style="fill: rgb(79, 87, 97);" transform="matrix(1, 0, 0, 1, -451.504852, -290.860016)"/>
  <path class="cls-11" d="M811.56,940.21h2l-6.23,15.06h-2Z" style="fill: rgb(79, 87, 97);" transform="matrix(1, 0, 0, 1, -451.504852, -290.860016)"/>
  <path class="cls-11" d="M818.25,941.69h2.4v9.4h4.69v2.21h-7.09Z" style="fill: rgb(79, 87, 97);" transform="matrix(1, 0, 0, 1, -451.504852, -290.860016)"/>
  <path class="cls-11" d="M827,941.69h2.41V953.3H827Z" style="fill: rgb(79, 87, 97);" transform="matrix(1, 0, 0, 1, -451.504852, -290.860016)"/>
  <path class="cls-11" d="M831.84,941.69h7.47v2.2h-5.07v2.61h4.46v2.2h-4.46v4.6h-2.4Z" style="fill: rgb(79, 87, 97);" transform="matrix(1, 0, 0, 1, -451.504852, -290.860016)"/>
  <path class="cls-11" d="M841,941.69h7.47v2.17H843.4v2.5h4.48v2.18H843.4v2.58h5.16v2.18H841Z" style="fill: rgb(79, 87, 97);" transform="matrix(1, 0, 0, 1, -451.504852, -290.860016)"/>
  <path class="cls-11" d="M850,947.57v-.15c0-3.51,2.19-5.9,5.25-5.9a4.86,4.86,0,0,1,3.73,1.54l-1.44,1.86a3.26,3.26,0,0,0-2.37-1.16c-1.56,0-2.7,1.44-2.7,3.7v0c0,2.3,1.19,3.71,2.73,3.71a3.26,3.26,0,0,0,2.39-1.21l1.44,1.71a5,5,0,0,1-3.93,1.74C852,953.46,850,951.12,850,947.57Z" style="fill: rgb(79, 87, 97);" transform="matrix(1, 0, 0, 1, -451.504852, -290.860016)"/>
  <path class="cls-11" d="M863.28,948.72l-3.77-7h2.71l2.29,4.56,2.3-4.56h2.66l-3.78,7v4.62h-2.41Z" style="fill: rgb(79, 87, 97);" transform="matrix(1, 0, 0, 1, -451.504852, -290.860016)"/>
  <path class="cls-11" d="M869.55,947.57v-.15c0-3.51,2.18-5.9,5.25-5.9a4.89,4.89,0,0,1,3.73,1.54l-1.44,1.86a3.26,3.26,0,0,0-2.37-1.16c-1.56,0-2.7,1.44-2.7,3.7v0c0,2.3,1.19,3.71,2.73,3.71a3.26,3.26,0,0,0,2.39-1.21l1.44,1.71a5,5,0,0,1-3.93,1.74C871.6,953.46,869.55,951.12,869.55,947.57Z" style="fill: rgb(79, 87, 97);" transform="matrix(1, 0, 0, 1, -451.504852, -290.860016)"/>
  <path class="cls-11" d="M880.22,941.69h2.4v9.4h4.69v2.21h-7.09Z" style="fill: rgb(79, 87, 97);" transform="matrix(1, 0, 0, 1, -451.504852, -290.860016)"/>
  <path class="cls-11" d="M888.92,941.69h7.47v2.17H891.3v2.5h4.48v2.18H891.3v2.58h5.15v2.18h-7.53Z" style="fill: rgb(79, 87, 97);" transform="matrix(1, 0, 0, 1, -451.504852, -290.860016)"/>
  <path class="cls-11" d="M904.27,943.91h-2.91v-2.22h8.22v2.22h-2.92v9.39h-2.39Z" style="fill: rgb(79, 87, 97);" transform="matrix(1, 0, 0, 1, -451.504852, -290.860016)"/>
  <path class="cls-11" d="M910.34,947.61v-.2c0-3.49,2.18-5.92,5.25-5.92s5.24,2.42,5.24,5.89v.19c0,3.47-2.19,5.93-5.26,5.93S910.34,951.07,910.34,947.61Zm8-.05v-.12c0-2.29-1.16-3.73-2.77-3.73s-2.76,1.43-2.76,3.71v.12c0,2.29,1.17,3.73,2.78,3.73S918.34,949.85,918.34,947.56Z" style="fill: rgb(79, 87, 97);" transform="matrix(1, 0, 0, 1, -451.504852, -290.860016)"/>
  <path class="cls-11" d="M922.32,947.61v-.2c0-3.49,2.18-5.92,5.25-5.92s5.24,2.42,5.24,5.89v.19c0,3.47-2.19,5.93-5.26,5.93S922.32,951.07,922.32,947.61Zm8-.05v-.12c0-2.29-1.16-3.73-2.77-3.73s-2.76,1.43-2.76,3.71v.12c0,2.29,1.17,3.73,2.78,3.73S930.32,949.85,930.32,947.56Z" style="fill: rgb(79, 87, 97);" transform="matrix(1, 0, 0, 1, -451.504852, -290.860016)"/>
  <path class="cls-11" d="M934.71,941.69h2.4v9.4h4.69v2.21h-7.09Z" style="fill: rgb(79, 87, 97);" transform="matrix(1, 0, 0, 1, -451.504852, -290.860016)"/>
  <path class="cls-11" d="M942.56,951.74,944,950a4.44,4.44,0,0,0,2.88,1.31c.93,0,1.49-.46,1.49-1.14v0c0-.58-.33-.94-2-1.57-2-.8-3.33-1.58-3.33-3.57v0c0-2,1.56-3.4,3.8-3.4a5.5,5.5,0,0,1,3.74,1.42l-1.34,1.83a4,4,0,0,0-2.47-1.08c-.83,0-1.34.41-1.34,1v0c0,.66.4,1,2.2,1.72,2,.8,3.12,1.66,3.12,3.47v0c0,2.16-1.64,3.49-3.9,3.49A6.26,6.26,0,0,1,942.56,951.74Z" style="fill: rgb(79, 87, 97);" transform="matrix(1, 0, 0, 1, -451.504852, -290.860016)"/>
  <path class="cls-11" d="M687,938.17a3.14,3.14,0,0,0-4.93,3.8,3,3,0,0,0,1.14,1.14,7.36,7.36,0,0,1-.14,1.5,3.09,3.09,0,0,1-.46,1.13,4.91,4.91,0,0,1-.66.84,3.55,3.55,0,0,1-1,.64c-.42.21-.8.37-1.16.51s-.83.3-1.43.48a18.53,18.53,0,0,0-2.52.94V941a3,3,0,0,0,1.15-1.14,3.09,3.09,0,0,0,.42-1.58,3.14,3.14,0,1,0-6.27,0,3.09,3.09,0,0,0,.42,1.58,3,3,0,0,0,1.15,1.14v13.41a3,3,0,0,0-1.15,1.13,3.11,3.11,0,0,0-.42,1.58,3.14,3.14,0,1,0,6.27,0,3.11,3.11,0,0,0-.42-1.58,3,3,0,0,0-1.15-1.13V954a1.9,1.9,0,0,1,.68-1.63,10.4,10.4,0,0,1,2.77-1.16,19,19,0,0,0,3.32-1.33,7.23,7.23,0,0,0,3.7-6.77,3.16,3.16,0,0,0,1.57-2.71,3,3,0,0,0-.92-2.23Zm-11.57,20.08a1.57,1.57,0,1,1,0-2.22,1.53,1.53,0,0,1,.46,1.11,1.52,1.52,0,0,1-.46,1.11Zm0-18.83a1.58,1.58,0,0,1-2.23-2.23,1.58,1.58,0,0,1,2.23,2.23Zm10.46,2.09a1.57,1.57,0,0,1-2.68-1.11,1.57,1.57,0,0,1,3.14,0,1.51,1.51,0,0,1-.46,1.11Zm0,0" style="fill: rgb(79, 87, 97);" transform="matrix(1, 0, 0, 1, -451.504852, -290.860016)"/>
  <path class="cls-3" d="M1410.13,1036.62H1132.2c-1.54,0-2.79-1.79-2.79-4V951.68c0-2.21,1.25-4,2.79-4h277.93c1.54,0,2.79,1.79,2.79,4v80.94C1412.92,1034.83,1411.67,1036.62,1410.13,1036.62Z" style="fill: rgb(255, 255, 255);" transform="matrix(1, 0, 0, 1, -451.504852, -290.860016)"/>
  <path class="cls-11" d="M1410.13,1037.12H1132.2c-1.82,0-3.29-2-3.29-4.5V951.68c0-2.49,1.47-4.5,3.29-4.5h277.93c1.81,0,3.29,2,3.29,4.5v80.94C1413.42,1035.1,1411.94,1037.12,1410.13,1037.12ZM1132.2,948.18c-1.24,0-2.29,1.6-2.29,3.5v80.94c0,1.89,1,3.5,2.29,3.5h277.93c1.24,0,2.29-1.61,2.29-3.5V951.68c0-1.9-1.05-3.5-2.29-3.5Z" style="fill: rgb(79, 87, 97);" transform="matrix(1, 0, 0, 1, -451.504852, -290.860016)"/>
  <path d="M1199.75,972.52h5.3a5.6,5.6,0,0,1,4.08,1.44,4.42,4.42,0,0,1,1.22,3.2v0a4.43,4.43,0,0,1-3.68,4.49l4.17,6.38h-2l-3.9-6h-3.53v6h-1.66Zm5,8c2.53,0,3.93-1.26,3.93-3.24v0c0-2.05-1.42-3.18-3.75-3.18h-3.53v6.46Z" transform="matrix(1, 0, 0, 1, -451.504852, -290.860016)"/>
  <path d="M1213.52,972.52h4.69c3.3,0,5.45,1.86,5.45,4.93v0c0,3.29-2.48,5.07-5.65,5.09h-2.82v5.49h-1.67Zm4.53,8.55c2.42,0,3.93-1.4,3.93-3.53v0c0-2.27-1.51-3.47-3.86-3.47h-2.93v7Z" transform="matrix(1, 0, 0, 1, -451.504852, -290.860016)"/>
  <path d="M1226.33,972.52h1.73l4.73,8.33,4.74-8.33h1.73v15.55h-1.66V975.54l-4.79,8.31h-.07l-4.79-8.31v12.53h-1.62Z" transform="matrix(1, 0, 0, 1, -451.504852, -290.860016)"/>
  <path d="M1260.23,972.52h4.69c3.3,0,5.45,1.86,5.45,4.93v0c0,3.29-2.48,5.07-5.65,5.09h-2.82v5.49h-1.67Zm4.53,8.55c2.42,0,3.93-1.4,3.93-3.53v0c0-2.27-1.51-3.47-3.86-3.47h-2.93v7Z" transform="matrix(1, 0, 0, 1, -451.504852, -290.860016)"/>
  <path d="M1272.66,984.09v-7.6h1.6v7.13c0,2.07,1,3.23,2.66,3.23a3,3,0,0,0,2.93-3.29v-7.07h1.6v11.58h-1.6v-1.89a3.75,3.75,0,0,1-3.42,2.11C1274.08,988.29,1272.66,986.67,1272.66,984.09Z" transform="matrix(1, 0, 0, 1, -451.504852, -290.860016)"/>
  <path d="M1284.73,976.49h1.6v2.22a4.32,4.32,0,0,1,3.75-2.44c2.35,0,4.61,2.05,4.61,5.89v.22c0,3.84-2.26,5.91-4.61,5.91a4.27,4.27,0,0,1-3.75-2.38v5.49h-1.6Zm8.32,5.89v-.18c0-2.82-1.51-4.49-3.28-4.49s-3.51,1.76-3.51,4.47v.22c0,2.71,1.69,4.45,3.51,4.45S1293.05,985.22,1293.05,982.38Z" transform="matrix(1, 0, 0, 1, -451.504852, -290.860016)"/>
  <path d="M1297.4,976.49h1.6v2.22a4.32,4.32,0,0,1,3.75-2.44c2.35,0,4.61,2.05,4.61,5.89v.22c0,3.84-2.26,5.91-4.61,5.91a4.27,4.27,0,0,1-3.75-2.38v5.49h-1.6Zm8.32,5.89v-.18c0-2.82-1.51-4.49-3.28-4.49s-3.51,1.76-3.51,4.47v.22c0,2.71,1.69,4.45,3.51,4.45S1305.72,985.22,1305.72,982.38Z" transform="matrix(1, 0, 0, 1, -451.504852, -290.860016)"/>
  <path d="M1309.45,982.38v-.11c0-3.53,2.07-6,4.77-6,2.91,0,4.64,2.49,4.64,6,0,.15,0,.46,0,.66h-7.77c.18,2.56,1.75,4,3.57,4a4.06,4.06,0,0,0,3-1.33l.91,1a5.2,5.2,0,0,1-4,1.73C1311.76,988.31,1309.45,986.05,1309.45,982.38Zm7.81-.71c-.11-2.2-1.15-4-3-4-1.71,0-3,1.58-3.15,4Z" transform="matrix(1, 0, 0, 1, -451.504852, -290.860016)"/>
  <path d="M1321.9,985.38v-7.46h-1.4v-1.43h1.4v-3.37h1.6v3.37h3v1.43h-3v7.19a1.47,1.47,0,0,0,1.66,1.67,3.44,3.44,0,0,0,1.36-.31v1.38a4,4,0,0,1-1.73.4A2.59,2.59,0,0,1,1321.9,985.38Z" transform="matrix(1, 0, 0, 1, -451.504852, -290.860016)"/>
  <path d="M1149.83,1009.31v-.13c0-4.71,2.93-8,6.81-8a6.49,6.49,0,0,1,4.73,1.91l-1,1.27a5.27,5.27,0,0,0-3.73-1.62c-2.86,0-5.06,2.62-5.06,6.37v.09c0,3.82,2.2,6.42,5.06,6.42a5.24,5.24,0,0,0,3.84-1.73l1,1.16a6.68,6.68,0,0,1-4.93,2.13C1152.69,1017.22,1149.83,1014,1149.83,1009.31Z" transform="matrix(1, 0, 0, 1, -451.504852, -290.860016)"/>
  <path d="M1163,1011.31v-.16c0-3.37,2.17-5.95,5.14-5.95s5.13,2.55,5.13,5.93v.13c0,3.38-2.18,6-5.15,6S1163,1014.69,1163,1011.31Zm8.65,0v-.11c0-2.6-1.55-4.54-3.53-4.54s-3.48,1.94-3.48,4.51v.11c0,2.6,1.53,4.54,3.5,4.54S1171.64,1013.84,1171.64,1011.29Z" transform="matrix(1, 0, 0, 1, -451.504852, -290.860016)"/>
  <path d="M1175.92,1005.42h1.6v1.89a3.74,3.74,0,0,1,3.42-2.11c2.35,0,3.77,1.62,3.77,4.22V1017h-1.6v-7.14c0-2.06-1-3.22-2.66-3.22a3,3,0,0,0-2.93,3.31v7h-1.6Z" transform="matrix(1, 0, 0, 1, -451.504852, -290.860016)"/>
  <path d="M1188.31,1014.31v-7.47h-1.4v-1.42h1.4V1002h1.59v3.38h3v1.42h-3v7.2a1.48,1.48,0,0,0,1.67,1.67,3.39,3.39,0,0,0,1.35-.31v1.37a3.8,3.8,0,0,1-1.73.4A2.59,2.59,0,0,1,1188.31,1014.31Z" transform="matrix(1, 0, 0, 1, -451.504852, -290.860016)"/>
  <path d="M1194.74,1013.64v-.09c0-2.37,1.71-3.73,4.26-3.73a9.34,9.34,0,0,1,3,.47v-.69a2.63,2.63,0,0,0-3-2.87,6.34,6.34,0,0,0-3,.78l-.51-1.31a8,8,0,0,1,3.64-.93,4.41,4.41,0,0,1,3.24,1.15,4.3,4.3,0,0,1,1.11,3.13V1017H1202v-1.69a4,4,0,0,1-3.52,1.93A3.54,3.54,0,0,1,1194.74,1013.64Zm7.26-.67v-1.44a8.12,8.12,0,0,0-2.8-.47c-1.84,0-2.86,1-2.86,2.43v.06a2.32,2.32,0,0,0,2.46,2.36A3,3,0,0,0,1202,1013Z" transform="matrix(1, 0, 0, 1, -451.504852, -290.860016)"/>
  <path d="M1206.7,1001.16h1.78V1003h-1.78Zm.09,4.26h1.6V1017h-1.6Z" transform="matrix(1, 0, 0, 1, -451.504852, -290.860016)"/>
  <path d="M1211.8,1005.42h1.6v1.89a3.74,3.74,0,0,1,3.42-2.11c2.35,0,3.77,1.62,3.77,4.22V1017H1219v-7.14c0-2.06-1-3.22-2.66-3.22a3,3,0,0,0-2.93,3.31v7h-1.6Z" transform="matrix(1, 0, 0, 1, -451.504852, -290.860016)"/>
  <path d="M1223.1,1011.31v-.11c0-3.53,2.06-6,4.77-6,2.91,0,4.64,2.49,4.64,6a5.24,5.24,0,0,1,0,.66h-7.76c.18,2.56,1.75,4,3.57,4a4.06,4.06,0,0,0,3-1.33l.91,1a5.26,5.26,0,0,1-4,1.73C1225.41,1017.24,1223.1,1015,1223.1,1011.31Zm7.81-.71c-.11-2.2-1.15-4-3-4-1.71,0-3,1.58-3.15,4Z" transform="matrix(1, 0, 0, 1, -451.504852, -290.860016)"/>
  <path d="M1235.08,1005.42h1.6V1008a4.07,4.07,0,0,1,4-2.71V1007h-.09c-2.15,0-3.88,1.51-3.88,4.49V1017h-1.6Z" transform="matrix(1, 0, 0, 1, -451.504852, -290.860016)"/>
  <path d="M1241.78,1015.57l.85-1.17a5.26,5.26,0,0,0,3.37,1.4c1.26,0,2.15-.71,2.15-1.8v0c0-1-1-1.55-2.51-2.19-1.84-.8-3.3-1.54-3.3-3.34v0c0-1.89,1.53-3.16,3.59-3.16a6.24,6.24,0,0,1,3.64,1.25l-.77,1.22a5.11,5.11,0,0,0-2.91-1.09c-1.22,0-2,.71-2,1.62v0c0,1,1,1.46,2.58,2.13,1.9.84,3.24,1.64,3.24,3.4v0c0,2.07-1.67,3.34-3.75,3.34A6.47,6.47,0,0,1,1241.78,1015.57Z" transform="matrix(1, 0, 0, 1, -451.504852, -290.860016)"/>
  <path d="M1257.72,1010.6a10.43,10.43,0,0,1,5.54-9.47l.65,1a10.07,10.07,0,0,0,0,16.84l-.65,1A10.43,10.43,0,0,1,1257.72,1010.6Z" transform="matrix(1, 0, 0, 1, -451.504852, -290.860016)"/>
  <path d="M1266.7,1001.44h1.67v14h7.21V1017h-8.88Z" transform="matrix(1, 0, 0, 1, -451.504852, -290.860016)"/>
  <path d="M1276.84,1009.33v-.18c0-4.57,2.76-7.95,6.7-7.95s6.66,3.35,6.66,7.91v.18c0,4.57-2.73,8-6.68,8S1276.84,1013.89,1276.84,1009.33Zm11.65,0v-.16c0-3.75-2.11-6.42-5-6.42s-4.94,2.65-4.94,6.4v.16c0,3.75,2.1,6.42,5,6.42S1288.49,1013.06,1288.49,1009.31Z" transform="matrix(1, 0, 0, 1, -451.504852, -290.860016)"/>
  <path d="M1292.73,1009.31v-.13c0-4.71,2.93-8,6.81-8a6.49,6.49,0,0,1,4.73,1.91l-1,1.27a5.25,5.25,0,0,0-3.73-1.62c-2.86,0-5.06,2.62-5.06,6.37v.09c0,3.82,2.2,6.42,5.06,6.42a5.24,5.24,0,0,0,3.84-1.73l1,1.16a6.68,6.68,0,0,1-4.93,2.13C1295.59,1017.22,1292.73,1014,1292.73,1009.31Z" transform="matrix(1, 0, 0, 1, -451.504852, -290.860016)"/>
  <path d="M1307.13,1001.44h1.67V1017h-1.67Z" transform="matrix(1, 0, 0, 1, -451.504852, -290.860016)"/>
  <path d="M1311.64,1018.93c1.09-.4,1.51-1,1.44-1.93h-.82v-2.29h2v1.95a2.72,2.72,0,0,1-2.36,3Z" transform="matrix(1, 0, 0, 1, -451.504852, -290.860016)"/>
  <path d="M1323.33,1001.44H1325v9l7.36-9h2.06l-5.65,6.8,6,8.76h-2l-5.11-7.4-2.61,3V1017h-1.67Z" transform="matrix(1, 0, 0, 1, -451.504852, -290.860016)"/>
  <path d="M1335.6,1011.31v-.16c0-3.37,2.18-5.95,5.15-5.95s5.12,2.55,5.12,5.93v.13c0,3.38-2.17,6-5.14,6S1335.6,1014.69,1335.6,1011.31Zm8.65,0v-.11c0-2.6-1.55-4.54-3.52-4.54s-3.49,1.94-3.49,4.51v.11c0,2.6,1.54,4.54,3.51,4.54S1344.25,1013.84,1344.25,1011.29Z" transform="matrix(1, 0, 0, 1, -451.504852, -290.860016)"/>
  <path d="M1348.67,1001h1.6v16h-1.6Z" transform="matrix(1, 0, 0, 1, -451.504852, -290.860016)"/>
  <path d="M1353.82,1001h1.6v16h-1.6Z" transform="matrix(1, 0, 0, 1, -451.504852, -290.860016)"/>
  <path d="M1358.08,1013.64v-.09c0-2.37,1.71-3.73,4.26-3.73a9.34,9.34,0,0,1,3,.47v-.69a2.63,2.63,0,0,0-3-2.87,6.34,6.34,0,0,0-2.95.78l-.51-1.31a8,8,0,0,1,3.64-.93,4.41,4.41,0,0,1,3.24,1.15,4.3,4.3,0,0,1,1.11,3.13V1017h-1.58v-1.69a4,4,0,0,1-3.52,1.93A3.54,3.54,0,0,1,1358.08,1013.64Zm7.26-.67v-1.44a8.12,8.12,0,0,0-2.8-.47c-1.84,0-2.86,1-2.86,2.43v.06a2.32,2.32,0,0,0,2.46,2.36A3,3,0,0,0,1365.34,1013Z" transform="matrix(1, 0, 0, 1, -451.504852, -290.860016)"/>
  <path d="M1369.29,1019a10.07,10.07,0,0,0,0-16.84l.64-1a10.87,10.87,0,0,1,0,18.93Z" transform="matrix(1, 0, 0, 1, -451.504852, -290.860016)"/>
  <rect class="cls-3" x="1143.84" y="936.1" width="254.65" height="27.15" style="fill: rgb(255, 255, 255);" transform="matrix(1, 0, 0, 1, -451.504852, -290.860016)"/>
  <path class="cls-11" d="M1183.68,938.16h3.86c2.6,0,4.25,1.51,4.25,4v0c0,2.67-1.91,4-4.35,4.06h-1.36v3.53h-2.4Zm3.75,5.92a1.77,1.77,0,0,0,1.94-1.85v0a1.74,1.74,0,0,0-2-1.87h-1.31v3.74Z" style="fill: rgb(79, 87, 97);" transform="matrix(1, 0, 0, 1, -451.504852, -290.860016)"/>
  <path class="cls-11" d="M1195.64,938.1h2.29l4.16,11.67h-2.49l-.86-2.52h-4l-.85,2.52h-2.42Zm2.37,7-1.26-3.78-1.27,3.78Z" style="fill: rgb(79, 87, 97);" transform="matrix(1, 0, 0, 1, -451.504852, -290.860016)"/>
  <path class="cls-11" d="M1202.54,944.05v-.15c0-3.51,2.18-5.9,5.25-5.9a4.89,4.89,0,0,1,3.73,1.54l-1.44,1.86a3.26,3.26,0,0,0-2.37-1.16c-1.56,0-2.71,1.44-2.71,3.7v0c0,2.3,1.2,3.71,2.74,3.71a3.23,3.23,0,0,0,2.38-1.21l1.45,1.71a5,5,0,0,1-3.93,1.74C1204.59,949.94,1202.54,947.6,1202.54,944.05Z" style="fill: rgb(79, 87, 97);" transform="matrix(1, 0, 0, 1, -451.504852, -290.860016)"/>
  <path class="cls-11" d="M1213.21,938.16h2.4v5l3.79-5h2.84l-3.9,4.93,4.06,6.68h-2.81l-2.9-4.77-1.08,1.36v3.41h-2.4Z" style="fill: rgb(79, 87, 97);" transform="matrix(1, 0, 0, 1, -451.504852, -290.860016)"/>
  <path class="cls-11" d="M1226.66,938.1H1229l4.16,11.67h-2.49l-.86-2.52h-4l-.84,2.52h-2.42Zm2.37,7-1.26-3.78-1.28,3.78Z" style="fill: rgb(79, 87, 97);" transform="matrix(1, 0, 0, 1, -451.504852, -290.860016)"/>
  <path class="cls-11" d="M1233.55,944.05v-.15c0-3.43,2.27-5.9,5.42-5.9a5.43,5.43,0,0,1,3.8,1.36l-1.43,1.87a3.29,3.29,0,0,0-2.4-1c-1.66,0-2.92,1.51-2.92,3.65V944c0,2.39,1.31,3.73,3,3.73a3,3,0,0,0,1.72-.48v-2.06h-2.1v-2.09h4.39v5.38a6.78,6.78,0,0,1-4.13,1.44C1235.81,949.94,1233.55,947.68,1233.55,944.05Z" style="fill: rgb(79, 87, 97);" transform="matrix(1, 0, 0, 1, -451.504852, -290.860016)"/>
  <path class="cls-11" d="M1245.18,938.16h2.41v11.61h-2.41Z" style="fill: rgb(79, 87, 97);" transform="matrix(1, 0, 0, 1, -451.504852, -290.860016)"/>
  <path class="cls-11" d="M1250,938.16h2.2l4.44,6.77v-6.77H1259v11.61h-2.06l-4.59-7v7H1250Z" style="fill: rgb(79, 87, 97);" transform="matrix(1, 0, 0, 1, -451.504852, -290.860016)"/>
  <path class="cls-11" d="M1260.89,944.05v-.15c0-3.43,2.27-5.9,5.42-5.9a5.4,5.4,0,0,1,3.79,1.36l-1.42,1.87a3.29,3.29,0,0,0-2.4-1c-1.66,0-2.92,1.51-2.92,3.65V944c0,2.39,1.31,3.73,3,3.73a3,3,0,0,0,1.73-.48v-2.06H1266v-2.09h4.4v5.38a6.78,6.78,0,0,1-4.13,1.44C1263.14,949.94,1260.89,947.68,1260.89,944.05Z" style="fill: rgb(79, 87, 97);" transform="matrix(1, 0, 0, 1, -451.504852, -290.860016)"/>
  <path class="cls-11" d="M1276.15,938.16h4.36a4.32,4.32,0,0,1,3.15,1.12,3.66,3.66,0,0,1,1,2.68V942a3.5,3.5,0,0,1-2.15,3.43l2.47,4.31h-2.75l-2.14-3.81h-1.51v3.81h-2.4Zm4.18,5.68a1.67,1.67,0,0,0,1.88-1.75h0c0-1.16-.71-1.74-1.93-1.74h-1.73v3.5Z" style="fill: rgb(79, 87, 97);" transform="matrix(1, 0, 0, 1, -451.504852, -290.860016)"/>
  <path class="cls-11" d="M1286.54,938.16H1294v2.18h-5.09v2.5h4.48V945h-4.48v2.59h5.16v2.17h-7.54Z" style="fill: rgb(79, 87, 97);" transform="matrix(1, 0, 0, 1, -451.504852, -290.860016)"/>
  <path class="cls-11" d="M1295.5,944.05v-.15c0-3.51,2.19-5.9,5.25-5.9a4.86,4.86,0,0,1,3.73,1.54L1303,941.4a3.24,3.24,0,0,0-2.37-1.16c-1.56,0-2.7,1.44-2.7,3.7v0c0,2.3,1.19,3.71,2.73,3.71a3.26,3.26,0,0,0,2.39-1.21l1.44,1.71a5,5,0,0,1-3.93,1.74C1297.56,949.94,1295.5,947.6,1295.5,944.05Z" style="fill: rgb(79, 87, 97);" transform="matrix(1, 0, 0, 1, -451.504852, -290.860016)"/>
  <path class="cls-11" d="M1306.25,938.16h2.41v11.61h-2.41Z" style="fill: rgb(79, 87, 97);" transform="matrix(1, 0, 0, 1, -451.504852, -290.860016)"/>
  <path class="cls-11" d="M1311.06,938.16h3.86c2.6,0,4.24,1.51,4.24,4v0c0,2.67-1.9,4-4.34,4.06h-1.36v3.53h-2.4Zm3.74,5.92a1.76,1.76,0,0,0,1.94-1.85v0a1.73,1.73,0,0,0-2-1.87h-1.31v3.74Z" style="fill: rgb(79, 87, 97);" transform="matrix(1, 0, 0, 1, -451.504852, -290.860016)"/>
  <path class="cls-11" d="M1320.73,938.16h7.48v2.18h-5.09v2.5h4.47V945h-4.47v2.59h5.15v2.17h-7.54Z" style="fill: rgb(79, 87, 97);" transform="matrix(1, 0, 0, 1, -451.504852, -290.860016)"/>
  <path class="cls-11" d="M1329.32,948.21l1.42-1.77a4.44,4.44,0,0,0,2.88,1.31c.93,0,1.5-.46,1.5-1.14v0c0-.58-.34-1-2-1.58-2.06-.79-3.33-1.57-3.33-3.56v0c0-2,1.55-3.41,3.79-3.41a5.54,5.54,0,0,1,3.75,1.43l-1.35,1.83a4,4,0,0,0-2.47-1.08c-.82,0-1.34.41-1.34,1v0c0,.66.4,1,2.21,1.72,2,.8,3.11,1.66,3.11,3.47v0c0,2.16-1.64,3.48-3.89,3.48A6.18,6.18,0,0,1,1329.32,948.21Z" style="fill: rgb(79, 87, 97);" transform="matrix(1, 0, 0, 1, -451.504852, -290.860016)"/>
  <path class="cls-11" d="M1343,938.16h7.48v2.21h-5.07V943h4.45v2.21h-4.45v4.59H1343Z" style="fill: rgb(79, 87, 97);" transform="matrix(1, 0, 0, 1, -451.504852, -290.860016)"/>
  <path class="cls-11" d="M1351.7,944.08v-.19c0-3.49,2.19-5.93,5.25-5.93s5.24,2.43,5.24,5.89v.2c0,3.47-2.19,5.92-5.25,5.92S1351.7,947.55,1351.7,944.08Zm8,0v-.12c0-2.29-1.16-3.73-2.76-3.73s-2.77,1.42-2.77,3.71V944c0,2.29,1.17,3.73,2.78,3.73S1359.7,946.32,1359.7,944Z" style="fill: rgb(79, 87, 97);" transform="matrix(1, 0, 0, 1, -451.504852, -290.860016)"/>
  <path class="cls-11" d="M1364.09,938.16h4.36a4.32,4.32,0,0,1,3.15,1.12,3.67,3.67,0,0,1,1,2.68V942a3.49,3.49,0,0,1-2.16,3.43l2.47,4.31h-2.75L1368,946h-1.51v3.81h-2.4Zm4.18,5.68a1.68,1.68,0,0,0,1.89-1.75h0c0-1.16-.72-1.74-1.94-1.74h-1.73v3.5Z" style="fill: rgb(79, 87, 97);" transform="matrix(1, 0, 0, 1, -451.504852, -290.860016)"/>
  <path class="cls-11" d="M1374.23,947.22h2.57v2.55h-2.57Z" style="fill: rgb(79, 87, 97);" transform="matrix(1, 0, 0, 1, -451.504852, -290.860016)"/>
  <path class="cls-11" d="M1378.64,947.22h2.57v2.55h-2.57Z" style="fill: rgb(79, 87, 97);" transform="matrix(1, 0, 0, 1, -451.504852, -290.860016)"/>
  <path class="cls-11" d="M1383.05,947.22h2.56v2.55h-2.56Z" style="fill: rgb(79, 87, 97);" transform="matrix(1, 0, 0, 1, -451.504852, -290.860016)"/>
  <path class="cls-11" d="M1164.19,931.87a.83.83,0,0,0-.62.27.82.82,0,0,0-.26.62v5.73a.91.91,0,0,1-.89.88.87.87,0,0,1-.62-.26.89.89,0,0,1-.26-.62v-5.73a.85.85,0,0,0-.26-.62.85.85,0,0,0-1.24,0,.85.85,0,0,0-.26.62v5.73a.89.89,0,0,1-.26.62.87.87,0,0,1-.62.26.89.89,0,0,1-.88-.88v-5.73a.92.92,0,0,0-.89-.89.91.91,0,0,0-.88.89v8.81a2.63,2.63,0,0,0,.49,1.53,2.55,2.55,0,0,0,1.28,1v10.73a1.79,1.79,0,0,0,1.76,1.77h1.76a1.79,1.79,0,0,0,1.76-1.77V944.06a2.55,2.55,0,0,0,1.28-1,2.63,2.63,0,0,0,.49-1.53v-8.81a.85.85,0,0,0-.26-.62.84.84,0,0,0-.62-.27Zm0,0" style="fill: rgb(79, 87, 97);" transform="matrix(1, 0, 0, 1, -451.504852, -290.860016)"/>
  <path class="cls-11" d="M1175.38,932.14a.83.83,0,0,0-.62-.27h-3.52a4.44,4.44,0,0,0-4.41,4.41v11a.44.44,0,0,0,.44.44h3.09v7a1.79,1.79,0,0,0,1.76,1.77h1.76a1.81,1.81,0,0,0,1.77-1.77v-22a.83.83,0,0,0-.27-.62Zm0,0" style="fill: rgb(79, 87, 97);" transform="matrix(1, 0, 0, 1, -451.504852, -290.860016)"/>
</svg>