<?xml version="1.0" encoding="utf-8"?>
<svg viewBox="1006.265 -84.37 406.17 613.09" xmlns="http://www.w3.org/2000/svg">
  <g class="cls-4" transform="matrix(1, 0, 0, 1, -451.504852, -290.860016)" style="opacity: 0.15;">
    <polygon class="cls-5" points="1850.19 818.58 1508.55 818.58 1499.9 807.37 1861.51 807.37 1850.19 818.58" style="fill: rgb(128, 133, 140);"/>
    <path class="cls-5" d="M1850.6,819.58H1508.06l-10.19-13.21h366.07Zm-341.56-2h340.74l9.3-9.21H1501.94Z" style="fill: rgb(128, 133, 140);"/>
  </g>
  <polygon class="cls-3" points="1499.57 206.99 1499.57 445.27 1479.22 446.09 1481.33 436.21 1481.32 435.58 1481.13 435.03 1480.7 434.62 1480.1 434.35 1479.51 434.36 1478.92 434.58 1458.87 449.08 1458.66 449.3 1458.46 449.55 1458.32 449.8 1458.22 450.11 1458.24 450.74 1458.34 450.98 1458.49 451.3 1458.7 451.5 1458.92 451.71 1479.53 465.38 1480.13 465.57 1480.72 465.56 1481.31 465.34 1481.72 464.88 1481.88 464.28 1481.87 463.72 1479.37 453.9 1499.57 454.24 1499.57 807.07 1862.41 807.07 1862.41 206.99 1499.57 206.99" style="fill: rgb(255, 255, 255);" transform="matrix(1, 0, 0, 1, -451.504852, -290.860016)"/>
  <path class="cls-10" d="M1862.91,807.57H1499.07V454.74l-19-.33,2.35,9.3,0,.63-.22.78-.57.64-.87.3h-.68l-.8-.28-20.61-13.66-.6-.62-.3-.76,0-.71.16-.48.14-.25.48-.57,20.24-14.63.76-.25h.71l.84.41.52.49.25.83v.74l-2,9.25,19.23-.78V206.49h363.84Zm-362.84-1h361.84V207.49H1500.07V445.75l-21.48.87,2.24-10.45v-.5l-.12-.37-.28-.26-.42-.19h-.39l-.45.17-20,14.46-.37.49-.07.2v.45l.17.37.37.35,20.48,13.57.45.15h.42l.4-.15.25-.28.11-.41v-.43l-2.65-10.4,21.35.36Z" style="fill: rgb(153, 153, 153);" transform="matrix(1, 0, 0, 1, -451.504852, -290.860016)"/>
  <path d="M1576.33,236.73v-.25c0-4.31,2.71-7.34,6.52-7.34s6.49,3,6.49,7.3v.25c0,4.3-2.71,7.34-6.51,7.34S1576.33,241,1576.33,236.73Zm9.93-.06v-.14c0-2.84-1.44-4.63-3.43-4.63s-3.44,1.77-3.44,4.61v.14c0,2.84,1.46,4.63,3.46,4.63S1586.26,239.51,1586.26,236.67Z" transform="matrix(1, 0, 0, 1, -451.504852, -290.860016)"/>
  <path d="M1591.7,229.39h4.79c3.23,0,5.26,1.87,5.26,4.94v0c0,3.31-2.36,5-5.38,5h-1.69v4.38h-3Zm4.64,7.34a2.2,2.2,0,0,0,2.41-2.3v0a2.15,2.15,0,0,0-2.45-2.33h-1.62v4.65Z" transform="matrix(1, 0, 0, 1, -451.504852, -290.860016)"/>
  <path d="M1603.7,229.39H1613v2.69h-6.31v3.11h5.55v2.69h-5.55v3.21h6.39v2.7h-9.35Z" transform="matrix(1, 0, 0, 1, -451.504852, -290.860016)"/>
  <path d="M1615.39,229.39h5.4a5.34,5.34,0,0,1,3.91,1.38,4.55,4.55,0,0,1,1.21,3.33v.08a4.35,4.35,0,0,1-2.67,4.26l3.06,5.35h-3.41l-2.65-4.73h-1.87v4.73h-3Zm5.18,7a2.07,2.07,0,0,0,2.34-2.16v0c0-1.44-.88-2.16-2.4-2.16h-2.14v4.34Z" transform="matrix(1, 0, 0, 1, -451.504852, -290.860016)"/>
  <path d="M1632.34,229.31h2.84l5.16,14.48h-3.09l-1.07-3.13h-5l-1,3.13h-3Zm2.94,8.72-1.56-4.69-1.58,4.69Z" transform="matrix(1, 0, 0, 1, -451.504852, -290.860016)"/>
  <path d="M1643.39,232.14h-3.61v-2.75H1650v2.75h-3.62v11.65h-3Z" transform="matrix(1, 0, 0, 1, -451.504852, -290.860016)"/>
  <path d="M1652.08,229.39h3v14.4h-3Z" transform="matrix(1, 0, 0, 1, -451.504852, -290.860016)"/>
  <path d="M1657.53,236.73v-.25c0-4.31,2.71-7.34,6.51-7.34s6.5,3,6.5,7.3v.25c0,4.3-2.71,7.34-6.52,7.34S1657.53,241,1657.53,236.73Zm9.93-.06v-.14c0-2.84-1.44-4.63-3.44-4.63s-3.43,1.77-3.43,4.61v.14c0,2.84,1.46,4.63,3.45,4.63S1667.46,239.51,1667.46,236.67Z" transform="matrix(1, 0, 0, 1, -451.504852, -290.860016)"/>
  <path d="M1672.9,229.39h2.73l5.51,8.39v-8.39h2.92v14.4h-2.55l-5.69-8.7v8.7h-2.92Z" transform="matrix(1, 0, 0, 1, -451.504852, -290.860016)"/>
  <path d="M1685.88,241.85l1.77-2.2a5.51,5.51,0,0,0,3.58,1.63c1.15,0,1.85-.58,1.85-1.42v0c0-.72-.42-1.17-2.47-2-2.55-1-4.13-1.95-4.13-4.42v0c0-2.51,1.93-4.22,4.7-4.22a6.87,6.87,0,0,1,4.65,1.77l-1.66,2.26a5.06,5.06,0,0,0-3.07-1.33c-1,0-1.66.51-1.66,1.25v0c0,.83.49,1.22,2.73,2.14,2.51,1,3.87,2.06,3.87,4.3v0c0,2.68-2,4.32-4.83,4.32A7.74,7.74,0,0,1,1685.88,241.85Z" transform="matrix(1, 0, 0, 1, -451.504852, -290.860016)"/>
  <path d="M1705.59,232.14H1702v-2.75h10.19v2.75h-3.61v11.65h-3Z" transform="matrix(1, 0, 0, 1, -451.504852, -290.860016)"/>
  <path d="M1713.1,236.73v-.25c0-4.31,2.72-7.34,6.52-7.34s6.5,3,6.5,7.3v.25c0,4.3-2.72,7.34-6.52,7.34S1713.1,241,1713.1,236.73Zm9.93-.06v-.14c0-2.84-1.44-4.63-3.43-4.63s-3.43,1.77-3.43,4.61v.14c0,2.84,1.46,4.63,3.45,4.63S1723,239.51,1723,236.67Z" transform="matrix(1, 0, 0, 1, -451.504852, -290.860016)"/>
  <path d="M1728,236.73v-.25c0-4.31,2.71-7.34,6.51-7.34s6.5,3,6.5,7.3v.25c0,4.3-2.71,7.34-6.52,7.34S1728,241,1728,236.73Zm9.93-.06v-.14c0-2.84-1.44-4.63-3.44-4.63s-3.43,1.77-3.43,4.61v.14c0,2.84,1.46,4.63,3.45,4.63S1737.89,239.51,1737.89,236.67Z" transform="matrix(1, 0, 0, 1, -451.504852, -290.860016)"/>
  <path d="M1743.33,229.39h3v11.66h5.81v2.74h-8.79Z" transform="matrix(1, 0, 0, 1, -451.504852, -290.860016)"/>
  <path d="M1754.22,229.39h3v14.4h-3Z" transform="matrix(1, 0, 0, 1, -451.504852, -290.860016)"/>
  <path d="M1760.18,229.39h2.73l5.51,8.39v-8.39h2.92v14.4h-2.55l-5.7-8.7v8.7h-2.91Z" transform="matrix(1, 0, 0, 1, -451.504852, -290.860016)"/>
  <path d="M1773.7,236.69v-.18c0-4.26,2.81-7.33,6.72-7.33a6.72,6.72,0,0,1,4.7,1.69l-1.76,2.32a4.11,4.11,0,0,0-3-1.23c-2,0-3.61,1.87-3.61,4.52v.17c0,3,1.62,4.63,3.74,4.63a3.68,3.68,0,0,0,2.14-.6v-2.55H1780v-2.59h5.44v6.66a8.31,8.31,0,0,1-5.12,1.79C1776.49,244,1773.7,241.19,1773.7,236.69Z" transform="matrix(1, 0, 0, 1, -451.504852, -290.860016)"/>
  <rect class="cls-3" x="1545.15" y="285.9" width="271.67" height="118.57" rx="4" style="fill: rgb(255, 255, 255);" transform="matrix(1, 0, 0, 1, -451.504852, -290.860016)"/>
  <path class="cls-11" d="M1812.83,405H1549.15a4.5,4.5,0,0,1-4.5-4.5V289.9a4.51,4.51,0,0,1,4.5-4.5h263.68a4.51,4.51,0,0,1,4.5,4.5V400.47A4.5,4.5,0,0,1,1812.83,405ZM1549.15,286.4a3.5,3.5,0,0,0-3.5,3.5V400.47a3.5,3.5,0,0,0,3.5,3.5h263.68a3.5,3.5,0,0,0,3.5-3.5V289.9a3.5,3.5,0,0,0-3.5-3.5Z" style="fill: rgb(79, 87, 97);" transform="matrix(1, 0, 0, 1, -451.504852, -290.860016)"/>
  <path d="M1631.15,327.81v-.13c0-4.71,2.93-8,6.81-8a6.49,6.49,0,0,1,4.73,1.91l-1,1.27a5.25,5.25,0,0,0-3.73-1.62c-2.86,0-5.06,2.62-5.06,6.37v.09c0,3.82,2.2,6.42,5.06,6.42a5.24,5.24,0,0,0,3.84-1.73l1,1.15a6.65,6.65,0,0,1-4.93,2.14C1634,335.72,1631.15,332.54,1631.15,327.81Z" transform="matrix(1, 0, 0, 1, -451.504852, -290.860016)"/>
  <path d="M1644.31,329.81v-.11c0-3.54,2.06-6,4.77-6,2.91,0,4.64,2.49,4.64,6,0,.16,0,.47,0,.67h-7.77c.18,2.56,1.75,4,3.57,4a4.06,4.06,0,0,0,3-1.33l.91,1a5.26,5.26,0,0,1-4,1.73C1646.62,335.74,1644.31,333.47,1644.31,329.81Zm7.81-.71c-.11-2.2-1.15-4-3-4-1.71,0-3,1.58-3.15,4Z" transform="matrix(1, 0, 0, 1, -451.504852, -290.860016)"/>
  <path d="M1656.34,319.66h1.77v1.88h-1.77Zm.09,4.26H1658V335.5h-1.59Z" transform="matrix(1, 0, 0, 1, -451.504852, -290.860016)"/>
  <path d="M1661.58,319.46h1.59v16h-1.59Z" transform="matrix(1, 0, 0, 1, -451.504852, -290.860016)"/>
  <path d="M1666,329.81v-.16c0-3.37,2.17-5.95,5.15-5.95s5.12,2.55,5.12,5.93v.13c0,3.38-2.17,6-5.15,6S1666,333.19,1666,329.81Zm8.65,0v-.12c0-2.59-1.55-4.53-3.53-4.53s-3.48,1.94-3.48,4.51v.11c0,2.6,1.53,4.54,3.51,4.54S1674.62,332.34,1674.62,329.79Z" transform="matrix(1, 0, 0, 1, -451.504852, -290.860016)"/>
  <path d="M1678.91,323.92h1.59v1.84a3.65,3.65,0,0,1,3.24-2.06,3.35,3.35,0,0,1,3.2,2.11,4,4,0,0,1,3.55-2.11c2.24,0,3.68,1.55,3.68,4.24v7.56h-1.6v-7.14c0-2.11-.93-3.22-2.5-3.22s-2.73,1.2-2.73,3.29v7.07h-1.6v-7.16c0-2.06-.93-3.2-2.51-3.2s-2.73,1.36-2.73,3.31v7.05h-1.59Z" transform="matrix(1, 0, 0, 1, -451.504852, -290.860016)"/>
  <path d="M1696.72,329.81v-.11c0-3.54,2.07-6,4.77-6,2.91,0,4.64,2.49,4.64,6,0,.16,0,.47,0,.67h-7.77c.18,2.56,1.76,4,3.58,4a4.06,4.06,0,0,0,3-1.33l.91,1a5.24,5.24,0,0,1-4,1.73C1699,335.74,1696.72,333.47,1696.72,329.81Zm7.81-.71c-.11-2.2-1.15-4-3-4-1.7,0-3,1.58-3.15,4Z" transform="matrix(1, 0, 0, 1, -451.504852, -290.860016)"/>
  <path d="M1709.17,332.81v-7.47h-1.4v-1.42h1.4v-3.38h1.6v3.38h3v1.42h-3v7.2a1.47,1.47,0,0,0,1.66,1.67,3.44,3.44,0,0,0,1.36-.31v1.37a3.84,3.84,0,0,1-1.73.4A2.59,2.59,0,0,1,1709.17,332.81Z" transform="matrix(1, 0, 0, 1, -451.504852, -290.860016)"/>
  <path d="M1715.45,329.81v-.11c0-3.54,2.07-6,4.77-6,2.91,0,4.64,2.49,4.64,6,0,.16,0,.47,0,.67h-7.77c.18,2.56,1.75,4,3.57,4a4.06,4.06,0,0,0,3-1.33l.91,1a5.24,5.24,0,0,1-4,1.73C1717.76,335.74,1715.45,333.47,1715.45,329.81Zm7.81-.71c-.11-2.2-1.15-4-3-4-1.71,0-3,1.58-3.15,4Z" transform="matrix(1, 0, 0, 1, -451.504852, -290.860016)"/>
  <path d="M1727.43,323.92h1.6v2.56a4.07,4.07,0,0,1,4-2.71v1.73h-.08c-2.16,0-3.89,1.51-3.89,4.49v5.51h-1.6Z" transform="matrix(1, 0, 0, 1, -451.504852, -290.860016)"/>
  <path d="M1604.09,360h1.73l4.73,8.33,4.75-8.33H1617v15.55h-1.67V363l-4.79,8.31h-.07l-4.79-8.31v12.53h-1.62Z" transform="matrix(1, 0, 0, 1, -451.504852, -290.860016)"/>
  <path d="M1619.91,369.84v-.15c0-3.38,2.18-6,5.15-6s5.13,2.56,5.13,5.93v.14c0,3.37-2.18,6-5.15,6S1619.91,373.22,1619.91,369.84Zm8.66,0v-.11c0-2.6-1.56-4.53-3.53-4.53s-3.49,1.93-3.49,4.51v.11c0,2.6,1.54,4.53,3.51,4.53S1628.57,372.37,1628.57,369.82Z" transform="matrix(1, 0, 0, 1, -451.504852, -290.860016)"/>
  <path d="M1632.85,364h1.6v1.89a3.74,3.74,0,0,1,3.41-2.11c2.36,0,3.78,1.62,3.78,4.22v7.58H1640V368.4c0-2.07-1-3.22-2.66-3.22a3,3,0,0,0-2.93,3.31v7h-1.6Z" transform="matrix(1, 0, 0, 1, -451.504852, -290.860016)"/>
  <path d="M1644,372.17v-.09c0-2.37,1.71-3.73,4.26-3.73a9.34,9.34,0,0,1,3,.47v-.69a2.63,2.63,0,0,0-3-2.87,6.34,6.34,0,0,0-3,.78l-.51-1.31a8,8,0,0,1,3.64-.93,4.41,4.41,0,0,1,3.24,1.15,4.31,4.31,0,0,1,1.11,3.14v7.44h-1.58v-1.69a4,4,0,0,1-3.52,1.93A3.54,3.54,0,0,1,1644,372.17Zm7.26-.66v-1.45a8.38,8.38,0,0,0-2.8-.46c-1.84,0-2.86.95-2.86,2.42v.06a2.32,2.32,0,0,0,2.46,2.36A3,3,0,0,0,1651.27,371.51Z" transform="matrix(1, 0, 0, 1, -451.504852, -290.860016)"/>
  <path d="M1654.88,374.11l.85-1.18a5.26,5.26,0,0,0,3.37,1.4c1.26,0,2.15-.71,2.15-1.8v0c0-1-1-1.56-2.51-2.2-1.84-.8-3.3-1.54-3.3-3.34v0c0-1.89,1.53-3.15,3.59-3.15a6.3,6.3,0,0,1,3.64,1.24l-.77,1.22a5.11,5.11,0,0,0-2.91-1.09c-1.22,0-2,.71-2,1.62v.05c0,1,1,1.47,2.58,2.13,1.9.85,3.23,1.65,3.23,3.4v0c0,2.06-1.66,3.33-3.74,3.33A6.51,6.51,0,0,1,1654.88,374.11Z" transform="matrix(1, 0, 0, 1, -451.504852, -290.860016)"/>
  <path d="M1664.8,369.86v-.15c0-3.51,2.27-6,5.15-6a4.9,4.9,0,0,1,3.64,1.58l-1,1.2a3.69,3.69,0,0,0-2.7-1.31c-1.93,0-3.49,1.82-3.49,4.51v.11c0,2.73,1.6,4.49,3.55,4.49a3.69,3.69,0,0,0,2.71-1.34l.93,1.07a4.73,4.73,0,0,1-3.72,1.73C1667,375.77,1664.8,373.37,1664.8,369.86Z" transform="matrix(1, 0, 0, 1, -451.504852, -290.860016)"/>
  <path d="M1675.25,372.17v-.09c0-2.37,1.71-3.73,4.26-3.73a9.45,9.45,0,0,1,3,.47v-.69a2.64,2.64,0,0,0-3-2.87,6.35,6.35,0,0,0-3,.78l-.51-1.31a8,8,0,0,1,3.64-.93A4.41,4.41,0,0,1,1683,365a4.31,4.31,0,0,1,1.11,3.14v7.44h-1.57v-1.69a4,4,0,0,1-3.53,1.93A3.54,3.54,0,0,1,1675.25,372.17Zm7.26-.66v-1.45a8.34,8.34,0,0,0-2.8-.46c-1.84,0-2.86.95-2.86,2.42v.06a2.32,2.32,0,0,0,2.46,2.36A3,3,0,0,0,1682.51,371.51Z" transform="matrix(1, 0, 0, 1, -451.504852, -290.860016)"/>
  <path d="M1704.63,360h4.68c3.31,0,5.46,1.86,5.46,4.93v0c0,3.29-2.48,5.07-5.66,5.09h-2.81v5.49h-1.67Zm4.53,8.55c2.42,0,3.92-1.4,3.92-3.53v0c0-2.27-1.5-3.47-3.86-3.47h-2.92v7Z" transform="matrix(1, 0, 0, 1, -451.504852, -290.860016)"/>
  <path d="M1716.28,372.17v-.09c0-2.37,1.71-3.73,4.26-3.73a9.34,9.34,0,0,1,3,.47v-.69a2.63,2.63,0,0,0-3-2.87,6.34,6.34,0,0,0-3,.78l-.51-1.31a8,8,0,0,1,3.64-.93A4.41,4.41,0,0,1,1724,365a4.31,4.31,0,0,1,1.11,3.14v7.44h-1.58v-1.69a4,4,0,0,1-3.52,1.93A3.54,3.54,0,0,1,1716.28,372.17Zm7.26-.66v-1.45a8.38,8.38,0,0,0-2.8-.46c-1.84,0-2.86.95-2.86,2.42v.06a2.32,2.32,0,0,0,2.46,2.36A3,3,0,0,0,1723.54,371.51Z" transform="matrix(1, 0, 0, 1, -451.504852, -290.860016)"/>
  <path d="M1728.2,364h1.59v1.89a3.76,3.76,0,0,1,3.42-2.11c2.35,0,3.77,1.62,3.77,4.22v7.58h-1.59V368.4c0-2.07-1-3.22-2.67-3.22a3,3,0,0,0-2.93,3.31v7h-1.59Z" transform="matrix(1, 0, 0, 1, -451.504852, -290.860016)"/>
  <path d="M1740.11,359.49h1.6v10.77l5.13-6.31h1.93l-4.06,4.87,4.21,6.71H1747l-3.42-5.45-1.91,2.25v3.2h-1.6Z" transform="matrix(1, 0, 0, 1, -451.504852, -290.860016)"/>
  <path d="M1749.94,369.84v-.15c0-3.38,2.18-6,5.15-6s5.13,2.56,5.13,5.93v.14c0,3.37-2.18,6-5.15,6S1749.94,373.22,1749.94,369.84Zm8.66,0v-.11c0-2.6-1.56-4.53-3.53-4.53s-3.48,1.93-3.48,4.51v.11c0,2.6,1.53,4.53,3.5,4.53S1758.6,372.37,1758.6,369.82Z" transform="matrix(1, 0, 0, 1, -451.504852, -290.860016)"/>
  <rect class="cls-3" x="1545.49" y="434.15" width="271" height="79.52" rx="3.22" style="fill: rgb(255, 255, 255);" transform="matrix(1, 0, 0, 1, -451.504852, -290.860016)"/>
  <path class="cls-11" d="M1813.27,514.17H1548.71a3.73,3.73,0,0,1-3.72-3.72V437.37a3.73,3.73,0,0,1,3.72-3.72h264.56a3.73,3.73,0,0,1,3.72,3.72v73.08A3.73,3.73,0,0,1,1813.27,514.17Zm-264.56-79.52a2.72,2.72,0,0,0-2.72,2.72v73.08a2.72,2.72,0,0,0,2.72,2.72h264.56a2.72,2.72,0,0,0,2.72-2.72V437.37a2.72,2.72,0,0,0-2.72-2.72Z" style="fill: rgb(79, 87, 97);" transform="matrix(1, 0, 0, 1, -451.504852, -290.860016)"/>
  <path d="M1598.54,473.13h1.79l3.66,12.8,3.62-12.84H1609l3.64,12.84,3.66-12.8H1618l-4.64,15.66h-1.46l-3.64-12.55-3.64,12.55h-1.47Z" transform="matrix(1, 0, 0, 1, -451.504852, -290.860016)"/>
  <path d="M1618.6,485.33v-.09c0-2.38,1.7-3.73,4.26-3.73a9.7,9.7,0,0,1,3,.46v-.68a2.64,2.64,0,0,0-2.95-2.87,6.3,6.3,0,0,0-3,.78l-.51-1.31a7.81,7.81,0,0,1,3.63-.94,4.38,4.38,0,0,1,3.24,1.16,4.3,4.3,0,0,1,1.11,3.13v7.44h-1.57V487a4,4,0,0,1-3.53,1.93A3.53,3.53,0,0,1,1618.6,485.33Zm7.25-.67v-1.44a8,8,0,0,0-2.8-.47c-1.84,0-2.86,1-2.86,2.42v.07a2.32,2.32,0,0,0,2.47,2.35A3,3,0,0,0,1625.85,484.66Z" transform="matrix(1, 0, 0, 1, -451.504852, -290.860016)"/>
  <path d="M1630.91,486v-7.47h-1.4v-1.42h1.4v-3.38h1.6v3.38h3v1.42h-3v7.2a1.46,1.46,0,0,0,1.66,1.66,3.44,3.44,0,0,0,1.36-.31v1.38a3.85,3.85,0,0,1-1.74.4A2.59,2.59,0,0,1,1630.91,486Z" transform="matrix(1, 0, 0, 1, -451.504852, -290.860016)"/>
  <path d="M1637.19,483v-.16c0-3.51,2.26-6,5.15-6a4.93,4.93,0,0,1,3.64,1.57l-1,1.2a3.73,3.73,0,0,0-2.7-1.31c-1.93,0-3.49,1.82-3.49,4.51V483c0,2.74,1.6,4.49,3.55,4.49a3.73,3.73,0,0,0,2.71-1.33l.93,1.07a4.77,4.77,0,0,1-3.73,1.73C1639.39,488.93,1637.19,486.53,1637.19,483Z" transform="matrix(1, 0, 0, 1, -451.504852, -290.860016)"/>
  <path d="M1648.4,472.64H1650V479a3.74,3.74,0,0,1,3.42-2.11c2.35,0,3.77,1.62,3.77,4.22v7.57h-1.6v-7.13c0-2.06-1-3.22-2.66-3.22a3,3,0,0,0-2.93,3.31v7h-1.59Z" transform="matrix(1, 0, 0, 1, -451.504852, -290.860016)"/>
  <path d="M1659.69,483v-.12c0-3.53,2.06-6,4.77-6,2.91,0,4.64,2.49,4.64,6,0,.16,0,.47,0,.67h-7.77c.18,2.55,1.75,4,3.57,4a4.07,4.07,0,0,0,3-1.34l.91,1a5.26,5.26,0,0,1-4,1.73C1662,488.93,1659.69,486.66,1659.69,483Zm7.81-.71c-.11-2.2-1.15-4-3-4-1.71,0-3,1.57-3.15,4Z" transform="matrix(1, 0, 0, 1, -451.504852, -290.860016)"/>
  <path d="M1671.67,477.11h1.6v2.55a4.09,4.09,0,0,1,4-2.71v1.74h-.09c-2.15,0-3.88,1.51-3.88,4.48v5.51h-1.6Z" transform="matrix(1, 0, 0, 1, -451.504852, -290.860016)"/>
  <path d="M1695.79,473.13h1.82l4.57,13.24,4.6-13.24h1.75l-5.59,15.66h-1.53Z" transform="matrix(1, 0, 0, 1, -451.504852, -290.860016)"/>
  <path d="M1710.64,472.84h1.77v1.89h-1.77Zm.09,4.27h1.59v11.57h-1.59Z" transform="matrix(1, 0, 0, 1, -451.504852, -290.860016)"/>
  <path d="M1716.25,486v-7.47h-1.4v-1.42h1.4v-3.38h1.6v3.38h3v1.42h-3v7.2a1.46,1.46,0,0,0,1.66,1.66,3.44,3.44,0,0,0,1.36-.31v1.38a3.84,3.84,0,0,1-1.73.4A2.59,2.59,0,0,1,1716.25,486Z" transform="matrix(1, 0, 0, 1, -451.504852, -290.860016)"/>
  <path d="M1723.44,477.11h1.6v2.55a4.08,4.08,0,0,1,4-2.71v1.74h-.09c-2.15,0-3.88,1.51-3.88,4.48v5.51h-1.6Z" transform="matrix(1, 0, 0, 1, -451.504852, -290.860016)"/>
  <path d="M1730,485.33v-.09c0-2.38,1.71-3.73,4.26-3.73a9.7,9.7,0,0,1,3,.46v-.68a2.64,2.64,0,0,0-3-2.87,6.34,6.34,0,0,0-3,.78l-.51-1.31a7.89,7.89,0,0,1,3.64-.94,4.41,4.41,0,0,1,3.24,1.16,4.3,4.3,0,0,1,1.1,3.13v7.44h-1.57V487a4,4,0,0,1-3.53,1.93A3.53,3.53,0,0,1,1730,485.33Zm7.25-.67v-1.44a8,8,0,0,0-2.79-.47c-1.84,0-2.87,1-2.87,2.42v.07a2.32,2.32,0,0,0,2.47,2.35A3,3,0,0,0,1737.24,484.66Z" transform="matrix(1, 0, 0, 1, -451.504852, -290.860016)"/>
  <path d="M1741.79,490.82l.64-1.29a6.9,6.9,0,0,0,3.73,1.13c2.18,0,3.53-1.15,3.53-3.46v-1.69a4.41,4.41,0,0,1-3.82,2.37c-2.35,0-4.54-1.95-4.54-5.44v-.09c0-3.49,2.21-5.46,4.57-5.46a4.39,4.39,0,0,1,3.79,2.28v-2.06h1.6v10a4.84,4.84,0,0,1-1.27,3.58,5.21,5.21,0,0,1-3.84,1.33A8.2,8.2,0,0,1,1741.79,490.82Zm7.94-8.4v-.07c0-2.49-1.7-4-3.48-4s-3.28,1.49-3.28,4v0c0,2.51,1.48,4,3.28,4A3.72,3.72,0,0,0,1749.73,482.42Z" transform="matrix(1, 0, 0, 1, -451.504852, -290.860016)"/>
  <path d="M1754,483v-.12c0-3.53,2.07-6,4.77-6,2.91,0,4.64,2.49,4.64,6,0,.16,0,.47,0,.67h-7.77c.18,2.55,1.75,4,3.57,4a4.07,4.07,0,0,0,3-1.34l.91,1a5.24,5.24,0,0,1-4,1.73C1756.26,488.93,1754,486.66,1754,483Zm7.81-.71c-.11-2.2-1.15-4-3-4-1.71,0-3,1.57-3.15,4Z" transform="matrix(1, 0, 0, 1, -451.504852, -290.860016)"/>
  <rect class="cls-3" x="1545.15" y="547.19" width="271.67" height="79.52" rx="4" style="fill: rgb(255, 255, 255);" transform="matrix(1, 0, 0, 1, -451.504852, -290.860016)"/>
  <path class="cls-11" d="M1812.83,627.21H1549.15a4.51,4.51,0,0,1-4.5-4.5V551.19a4.51,4.51,0,0,1,4.5-4.5h263.68a4.51,4.51,0,0,1,4.5,4.5v71.52A4.51,4.51,0,0,1,1812.83,627.21Zm-263.68-79.52a3.5,3.5,0,0,0-3.5,3.5v71.52a3.5,3.5,0,0,0,3.5,3.5h263.68a3.5,3.5,0,0,0,3.5-3.5V551.19a3.5,3.5,0,0,0-3.5-3.5Z" style="fill: rgb(79, 87, 97);" transform="matrix(1, 0, 0, 1, -451.504852, -290.860016)"/>
  <path d="M1584.2,581.71h1.64l5.92,15.64H1590l-1.51-4.09h-7l-1.51,4.09h-1.7Zm3.73,10-2.93-7.89-3,7.89Z" transform="matrix(1, 0, 0, 1, -451.504852, -290.860016)"/>
  <path d="M1593.12,591.68v-.22c0-3.84,2.26-5.91,4.62-5.91a4.26,4.26,0,0,1,3.74,2.38v-6.62h1.6v16h-1.6v-2.23a4.29,4.29,0,0,1-3.74,2.45C1595.38,597.57,1593.12,595.55,1593.12,591.68Zm8.43,0v-.2c0-2.73-1.66-4.47-3.48-4.47s-3.31,1.63-3.31,4.47v.18c0,2.82,1.51,4.48,3.31,4.48S1601.55,594.39,1601.55,591.66Z" transform="matrix(1, 0, 0, 1, -451.504852, -290.860016)"/>
  <path d="M1604.53,600.63V599.3a3.27,3.27,0,0,0,.68.07c.89,0,1.34-.56,1.34-1.6v-12h1.59v12.11c0,1.84-.91,2.87-2.66,2.87A3.91,3.91,0,0,1,1604.53,600.63Zm1.93-19.12h1.77v1.88h-1.77Z" transform="matrix(1, 0, 0, 1, -451.504852, -290.860016)"/>
  <path d="M1611.41,593.37v-7.6H1613v7.13c0,2.07,1,3.22,2.67,3.22a3,3,0,0,0,2.92-3.28v-7.07h1.6v11.58h-1.6v-1.89a3.74,3.74,0,0,1-3.41,2.11C1612.83,597.57,1611.41,596,1611.41,593.37Z" transform="matrix(1, 0, 0, 1, -451.504852, -290.860016)"/>
  <path d="M1624,594.66v-7.47h-1.4v-1.42h1.4v-3.38h1.59v3.38h3v1.42h-3v7.2a1.48,1.48,0,0,0,1.67,1.67,3.39,3.39,0,0,0,1.35-.31v1.37a3.8,3.8,0,0,1-1.73.4A2.59,2.59,0,0,1,1624,594.66Z" transform="matrix(1, 0, 0, 1, -451.504852, -290.860016)"/>
  <path d="M1630.42,594v-.09c0-2.37,1.71-3.73,4.26-3.73a9.34,9.34,0,0,1,3,.47V590a2.63,2.63,0,0,0-3-2.87,6.34,6.34,0,0,0-3,.78l-.51-1.31a8,8,0,0,1,3.64-.93,4.41,4.41,0,0,1,3.24,1.15,4.3,4.3,0,0,1,1.11,3.13v7.45h-1.58v-1.69a4,4,0,0,1-3.52,1.93A3.54,3.54,0,0,1,1630.42,594Zm7.26-.66v-1.45a8.38,8.38,0,0,0-2.8-.46c-1.84,0-2.86,1-2.86,2.42v.06a2.32,2.32,0,0,0,2.46,2.36A3,3,0,0,0,1637.68,593.33Z" transform="matrix(1, 0, 0, 1, -451.504852, -290.860016)"/>
  <path d="M1642.34,585.77h1.59v1.89a3.74,3.74,0,0,1,3.42-2.11c2.35,0,3.77,1.62,3.77,4.22v7.58h-1.59v-7.14c0-2.06-1-3.22-2.67-3.22a3,3,0,0,0-2.93,3.31v7.05h-1.59Z" transform="matrix(1, 0, 0, 1, -451.504852, -290.860016)"/>
  <path d="M1654.72,594.66v-7.47h-1.4v-1.42h1.4v-3.38h1.6v3.38h3v1.42h-3v7.2a1.47,1.47,0,0,0,1.66,1.67,3.39,3.39,0,0,0,1.35-.31v1.37a3.8,3.8,0,0,1-1.73.4A2.59,2.59,0,0,1,1654.72,594.66Z" transform="matrix(1, 0, 0, 1, -451.504852, -290.860016)"/>
  <path d="M1684.52,589.66v-.13c0-4.71,2.93-8,6.81-8a6.5,6.5,0,0,1,4.73,1.91l-1,1.27a5.27,5.27,0,0,0-3.73-1.62c-2.86,0-5.06,2.62-5.06,6.37v.09c0,3.82,2.2,6.42,5.06,6.42a5.24,5.24,0,0,0,3.84-1.73l1,1.16a6.66,6.66,0,0,1-4.92,2.13C1687.38,597.57,1684.52,594.39,1684.52,589.66Z" transform="matrix(1, 0, 0, 1, -451.504852, -290.860016)"/>
  <path d="M1698.68,581.31h1.59v16h-1.59Z" transform="matrix(1, 0, 0, 1, -451.504852, -290.860016)"/>
  <path d="M1703.07,591.66v-.16c0-3.37,2.17-6,5.15-6s5.12,2.55,5.12,5.93v.14c0,3.37-2.17,6-5.15,6S1703.07,595,1703.07,591.66Zm8.65,0v-.11c0-2.6-1.55-4.54-3.53-4.54s-3.48,1.94-3.48,4.51v.12c0,2.59,1.53,4.53,3.51,4.53S1711.72,594.19,1711.72,591.64Z" transform="matrix(1, 0, 0, 1, -451.504852, -290.860016)"/>
  <path d="M1715.85,593.37v-7.6h1.6v7.13c0,2.07,1,3.22,2.66,3.22a3,3,0,0,0,2.93-3.28v-7.07h1.6v11.58H1723v-1.89a3.75,3.75,0,0,1-3.42,2.11C1717.27,597.57,1715.85,596,1715.85,593.37Z" transform="matrix(1, 0, 0, 1, -451.504852, -290.860016)"/>
  <path d="M1727.35,591.68v-.22c0-3.84,2.26-5.91,4.61-5.91a4.27,4.27,0,0,1,3.75,2.38v-6.62h1.6v16h-1.6v-2.23a4.31,4.31,0,0,1-3.75,2.45C1729.61,597.57,1727.35,595.55,1727.35,591.68Zm8.43,0v-.2c0-2.73-1.67-4.47-3.49-4.47s-3.3,1.63-3.3,4.47v.18c0,2.82,1.51,4.48,3.3,4.48S1735.78,594.39,1735.78,591.66Z" transform="matrix(1, 0, 0, 1, -451.504852, -290.860016)"/>
  <path d="M1740.81,581.79h1.67v9l7.36-9h2.07l-5.66,6.8,6,8.76h-2l-5.1-7.4-2.62,3v4.36h-1.67Z" transform="matrix(1, 0, 0, 1, -451.504852, -290.860016)"/>
  <path d="M1754.31,581.51h1.77v1.88h-1.77Zm.08,4.26h1.6v11.58h-1.6Z" transform="matrix(1, 0, 0, 1, -451.504852, -290.860016)"/>
  <path d="M1759.92,594.66v-7.47h-1.4v-1.42h1.4v-3.38h1.6v3.38h3v1.42h-3v7.2a1.47,1.47,0,0,0,1.66,1.67,3.39,3.39,0,0,0,1.35-.31v1.37a3.8,3.8,0,0,1-1.73.4A2.59,2.59,0,0,1,1759.92,594.66Z" transform="matrix(1, 0, 0, 1, -451.504852, -290.860016)"/>
  <path d="M1767.58,594.66v-7.47h-1.4v-1.42h1.4v-3.38h1.59v3.38h3v1.42h-3v7.2a1.48,1.48,0,0,0,1.67,1.67,3.43,3.43,0,0,0,1.35-.31v1.37a3.84,3.84,0,0,1-1.73.4A2.59,2.59,0,0,1,1767.58,594.66Z" transform="matrix(1, 0, 0, 1, -451.504852, -290.860016)"/>
  <path d="M1782,585.77h1.71l-4.11,11.78c-.82,2.4-1.82,3.22-3.37,3.22a4.27,4.27,0,0,1-2.08-.54l.48-1.33a3,3,0,0,0,1.51.42c.87,0,1.42-.49,2-2l-4.44-11.58h1.73l3.46,9.53Z" transform="matrix(1, 0, 0, 1, -451.504852, -290.860016)"/>
  <rect class="cls-3" x="1568.49" y="274.38" width="225" height="27.15" style="fill: rgb(255, 255, 255);" transform="matrix(1, 0, 0, 1, -451.504852, -290.860016)"/>
  <rect class="cls-3" x="1562.49" y="420.99" width="237" height="27.15" style="fill: rgb(255, 255, 255);" transform="matrix(1, 0, 0, 1, -451.504852, -290.860016)"/>
  <rect class="cls-3" x="1557.91" y="534.03" width="246" height="27.15" style="fill: rgb(255, 255, 255);" transform="matrix(1, 0, 0, 1, -451.504852, -290.860016)"/>
  <path class="cls-11" d="M1600.15,541.85h4.31a4.2,4.2,0,0,1,3,1,2.7,2.7,0,0,1,.78,2v0a2.73,2.73,0,0,1-1.57,2.54,2.76,2.76,0,0,1,2.07,2.77v.08c0,2.09-1.68,3.18-4.2,3.18h-4.42Zm5.75,3.42c0-.84-.6-1.29-1.62-1.29h-1.79v2.62h1.67c1.06,0,1.74-.43,1.74-1.31Zm-1.31,3.35h-2.1v2.72h2.15c1.08,0,1.76-.46,1.76-1.36v0C1606.4,549.14,1605.78,548.62,1604.59,548.62Z" style="fill: rgb(79, 87, 97);" transform="matrix(1, 0, 0, 1, -451.504852, -290.860016)"/>
  <path class="cls-11" d="M1610.59,541.85h2.4v11.61h-2.4Z" style="fill: rgb(79, 87, 97);" transform="matrix(1, 0, 0, 1, -451.504852, -290.860016)"/>
  <path class="cls-11" d="M1615.39,541.85h2.41v9.41h4.69v2.2h-7.1Z" style="fill: rgb(79, 87, 97);" transform="matrix(1, 0, 0, 1, -451.504852, -290.860016)"/>
  <path class="cls-11" d="M1624.09,541.85h2.4v9.41h4.69v2.2h-7.09Z" style="fill: rgb(79, 87, 97);" transform="matrix(1, 0, 0, 1, -451.504852, -290.860016)"/>
  <path class="cls-11" d="M1632.87,541.85h2.41v11.61h-2.41Z" style="fill: rgb(79, 87, 97);" transform="matrix(1, 0, 0, 1, -451.504852, -290.860016)"/>
  <path class="cls-11" d="M1637.68,541.85h2.2l4.44,6.77v-6.77h2.36v11.61h-2.06l-4.59-7v7h-2.35Z" style="fill: rgb(79, 87, 97);" transform="matrix(1, 0, 0, 1, -451.504852, -290.860016)"/>
  <path class="cls-11" d="M1648.58,547.74v-.15c0-3.43,2.27-5.9,5.42-5.9a5.4,5.4,0,0,1,3.79,1.36l-1.42,1.87a3.31,3.31,0,0,0-2.41-1c-1.65,0-2.91,1.51-2.91,3.65v.13c0,2.39,1.31,3.73,3,3.73a2.92,2.92,0,0,0,1.73-.48V548.9h-2.11v-2.09h4.4v5.38a6.8,6.8,0,0,1-4.13,1.44C1650.83,553.63,1648.58,551.38,1648.58,547.74Z" style="fill: rgb(79, 87, 97);" transform="matrix(1, 0, 0, 1, -451.504852, -290.860016)"/>
  <path class="cls-11" d="M1668.54,540.38h2l-6.23,15.06h-2Z" style="fill: rgb(79, 87, 97);" transform="matrix(1, 0, 0, 1, -451.504852, -290.860016)"/>
  <path class="cls-11" d="M1675.24,541.85h4.31a4.2,4.2,0,0,1,3,1,2.7,2.7,0,0,1,.78,2v0a2.86,2.86,0,0,0,.49,5.31v.08c0,2.09-1.67,3.18-4.19,3.18h-4.42Zm5.75,3.42c0-.84-.6-1.29-1.63-1.29h-1.79v2.62h1.68c1.06,0,1.74-.43,1.74-1.31Zm-1.31,3.35h-2.11v2.72h2.16c1.07,0,1.75-.46,1.75-1.36v0C1681.48,549.14,1680.87,548.62,1679.68,548.62Z" style="fill: rgb(79, 87, 97);" transform="matrix(1, 0, 0, 1, -451.504852, -290.860016)"/>
  <path class="cls-11" d="M1685.44,549v-7.1h2.41V549c0,1.64.77,2.45,2,2.45s2-.79,2-2.4v-7.17h2.39v7c0,3.2-1.76,4.75-4.45,4.75S1685.44,552.09,1685.44,549Z" style="fill: rgb(79, 87, 97);" transform="matrix(1, 0, 0, 1, -451.504852, -290.860016)"/>
  <path class="cls-11" d="M1695.6,551.91l1.43-1.78a4.42,4.42,0,0,0,2.88,1.31c.93,0,1.49-.46,1.49-1.14v0c0-.58-.33-.95-2-1.58-2.05-.79-3.33-1.57-3.33-3.56v0c0-2,1.56-3.4,3.79-3.4a5.53,5.53,0,0,1,3.75,1.42l-1.34,1.83a4.06,4.06,0,0,0-2.47-1.08c-.83,0-1.34.41-1.34,1v0c0,.66.39,1,2.2,1.72,2,.8,3.12,1.66,3.12,3.47v0c0,2.16-1.64,3.48-3.9,3.48A6.24,6.24,0,0,1,1695.6,551.91Z" style="fill: rgb(79, 87, 97);" transform="matrix(1, 0, 0, 1, -451.504852, -290.860016)"/>
  <path class="cls-11" d="M1705.64,541.85h2.4v11.61h-2.4Z" style="fill: rgb(79, 87, 97);" transform="matrix(1, 0, 0, 1, -451.504852, -290.860016)"/>
  <path class="cls-11" d="M1710.45,541.85h2.2l4.44,6.77v-6.77h2.35v11.61h-2l-4.59-7v7h-2.35Z" style="fill: rgb(79, 87, 97);" transform="matrix(1, 0, 0, 1, -451.504852, -290.860016)"/>
  <path class="cls-11" d="M1721.76,541.85h7.48V544h-5.09v2.5h4.47v2.17h-4.47v2.59h5.15v2.17h-7.54Z" style="fill: rgb(79, 87, 97);" transform="matrix(1, 0, 0, 1, -451.504852, -290.860016)"/>
  <path class="cls-11" d="M1730.34,551.91l1.43-1.78a4.44,4.44,0,0,0,2.88,1.31c.93,0,1.49-.46,1.49-1.14v0c0-.58-.33-.95-2-1.58-2.05-.79-3.33-1.57-3.33-3.56v0c0-2,1.56-3.4,3.8-3.4a5.5,5.5,0,0,1,3.74,1.42L1737,545a4,4,0,0,0-2.47-1.08c-.83,0-1.34.41-1.34,1v0c0,.66.4,1,2.2,1.72,2,.8,3.12,1.66,3.12,3.47v0c0,2.16-1.64,3.48-3.9,3.48A6.24,6.24,0,0,1,1730.34,551.91Z" style="fill: rgb(79, 87, 97);" transform="matrix(1, 0, 0, 1, -451.504852, -290.860016)"/>
  <path class="cls-11" d="M1739.34,551.91l1.42-1.78a4.47,4.47,0,0,0,2.89,1.31c.93,0,1.49-.46,1.49-1.14v0c0-.58-.33-.95-2-1.58-2.05-.79-3.33-1.57-3.33-3.56v0c0-2,1.56-3.4,3.79-3.4a5.53,5.53,0,0,1,3.75,1.42L1746,545a4.06,4.06,0,0,0-2.47-1.08c-.83,0-1.34.41-1.34,1v0c0,.66.39,1,2.2,1.72,2,.8,3.12,1.66,3.12,3.47v0c0,2.16-1.65,3.48-3.9,3.48A6.24,6.24,0,0,1,1739.34,551.91Z" style="fill: rgb(79, 87, 97);" transform="matrix(1, 0, 0, 1, -451.504852, -290.860016)"/>
  <path class="cls-11" d="M1753,541.85h2.4v9.41h4.69v2.2H1753Z" style="fill: rgb(79, 87, 97);" transform="matrix(1, 0, 0, 1, -451.504852, -290.860016)"/>
  <path class="cls-11" d="M1760.7,547.78v-.2c0-3.49,2.18-5.92,5.25-5.92s5.24,2.42,5.24,5.88v.2c0,3.47-2.19,5.92-5.26,5.92S1760.7,551.24,1760.7,547.78Zm8,0v-.12c0-2.29-1.16-3.73-2.77-3.73s-2.76,1.42-2.76,3.71v.12c0,2.29,1.17,3.73,2.78,3.73S1768.7,550,1768.7,547.73Z" style="fill: rgb(79, 87, 97);" transform="matrix(1, 0, 0, 1, -451.504852, -290.860016)"/>
  <path class="cls-11" d="M1772.67,547.74v-.15c0-3.43,2.27-5.9,5.42-5.9a5.41,5.41,0,0,1,3.8,1.36l-1.43,1.87a3.29,3.29,0,0,0-2.4-1c-1.66,0-2.92,1.51-2.92,3.65v.13c0,2.39,1.31,3.73,3,3.73a2.89,2.89,0,0,0,1.72-.48V548.9h-2.1v-2.09h4.39v5.38a6.75,6.75,0,0,1-4.13,1.44C1774.93,553.63,1772.67,551.38,1772.67,547.74Z" style="fill: rgb(79, 87, 97);" transform="matrix(1, 0, 0, 1, -451.504852, -290.860016)"/>
  <path class="cls-11" d="M1784.31,541.85h2.4v11.61h-2.4Z" style="fill: rgb(79, 87, 97);" transform="matrix(1, 0, 0, 1, -451.504852, -290.860016)"/>
  <path class="cls-11" d="M1788.7,547.74v-.15c0-3.51,2.18-5.9,5.25-5.9a4.89,4.89,0,0,1,3.73,1.54l-1.44,1.86a3.26,3.26,0,0,0-2.37-1.16c-1.56,0-2.7,1.44-2.7,3.7v0c0,2.3,1.19,3.71,2.73,3.71a3.26,3.26,0,0,0,2.39-1.21l1.44,1.71a5,5,0,0,1-3.93,1.74C1790.75,553.63,1788.7,551.29,1788.7,547.74Z" style="fill: rgb(79, 87, 97);" transform="matrix(1, 0, 0, 1, -451.504852, -290.860016)"/>
  <path class="cls-11" d="M1610,280.56h2.52l2.58,4.71,2.56-4.71h2.53v11.61h-2.35v-7.41l-2.74,4.79h0l-2.71-4.76v7.38H1610Z" style="fill: rgb(79, 87, 97);" transform="matrix(1, 0, 0, 1, -451.504852, -290.860016)"/>
  <path class="cls-11" d="M1622.07,286.49v-.2c0-3.49,2.18-5.92,5.25-5.92s5.23,2.42,5.23,5.88v.2c0,3.47-2.18,5.92-5.25,5.92S1622.07,290,1622.07,286.49Zm8-.05v-.12c0-2.29-1.16-3.73-2.77-3.73s-2.77,1.42-2.77,3.71v.12c0,2.29,1.18,3.73,2.79,3.73S1630.07,288.72,1630.07,286.44Z" style="fill: rgb(79, 87, 97);" transform="matrix(1, 0, 0, 1, -451.504852, -290.860016)"/>
  <path class="cls-11" d="M1634.46,280.56h2.2l4.44,6.77v-6.77h2.36v11.61h-2.06l-4.59-7v7h-2.35Z" style="fill: rgb(79, 87, 97);" transform="matrix(1, 0, 0, 1, -451.504852, -290.860016)"/>
  <path class="cls-11" d="M1645.86,280.56h2.4v11.61h-2.4Z" style="fill: rgb(79, 87, 97);" transform="matrix(1, 0, 0, 1, -451.504852, -290.860016)"/>
  <path class="cls-11" d="M1652.88,282.79H1650v-2.23h8.22v2.23h-2.92v9.38h-2.39Z" style="fill: rgb(79, 87, 97);" transform="matrix(1, 0, 0, 1, -451.504852, -290.860016)"/>
  <path class="cls-11" d="M1659,286.49v-.2c0-3.49,2.18-5.92,5.25-5.92s5.24,2.42,5.24,5.88v.2c0,3.47-2.19,5.92-5.26,5.92S1659,290,1659,286.49Zm8-.05v-.12c0-2.29-1.16-3.73-2.77-3.73s-2.76,1.42-2.76,3.71v.12c0,2.29,1.17,3.73,2.78,3.73S1667,288.72,1667,286.44Z" style="fill: rgb(79, 87, 97);" transform="matrix(1, 0, 0, 1, -451.504852, -290.860016)"/>
  <path class="cls-11" d="M1671.34,280.56h4.36a4.32,4.32,0,0,1,3.15,1.12,3.7,3.7,0,0,1,1,2.68v.07a3.5,3.5,0,0,1-2.15,3.43l2.47,4.31h-2.75l-2.14-3.81h-1.51v3.81h-2.4Zm4.17,5.68a1.67,1.67,0,0,0,1.89-1.74v0c0-1.16-.71-1.74-1.94-1.74h-1.72v3.5Z" style="fill: rgb(79, 87, 97);" transform="matrix(1, 0, 0, 1, -451.504852, -290.860016)"/>
  <path class="cls-11" d="M1681.81,280.56h2.4v11.61h-2.4Z" style="fill: rgb(79, 87, 97);" transform="matrix(1, 0, 0, 1, -451.504852, -290.860016)"/>
  <path class="cls-11" d="M1686.62,280.56h2.2l4.44,6.77v-6.77h2.35v11.61h-2l-4.59-7v7h-2.35Z" style="fill: rgb(79, 87, 97);" transform="matrix(1, 0, 0, 1, -451.504852, -290.860016)"/>
  <path class="cls-11" d="M1697.52,286.45v-.15c0-3.43,2.27-5.9,5.42-5.9a5.4,5.4,0,0,1,3.79,1.36l-1.42,1.87a3.33,3.33,0,0,0-2.41-1c-1.65,0-2.91,1.51-2.91,3.65v.13c0,2.39,1.3,3.73,3,3.73a2.94,2.94,0,0,0,1.73-.48v-2.06h-2.11v-2.09H1707v5.38a6.75,6.75,0,0,1-4.12,1.44C1699.77,292.34,1697.52,290.08,1697.52,286.45Z" style="fill: rgb(79, 87, 97);" transform="matrix(1, 0, 0, 1, -451.504852, -290.860016)"/>
  <path class="cls-11" d="M1711.93,290.62l1.43-1.78a4.42,4.42,0,0,0,2.88,1.31c.93,0,1.49-.46,1.49-1.14v0c0-.58-.33-.95-2-1.58-2-.79-3.33-1.57-3.33-3.56v0c0-2,1.56-3.4,3.8-3.4a5.5,5.5,0,0,1,3.74,1.42l-1.34,1.83a4,4,0,0,0-2.47-1.08c-.83,0-1.34.41-1.34,1v0c0,.66.4,1,2.2,1.72,2,.8,3.12,1.66,3.12,3.47v0c0,2.16-1.64,3.48-3.9,3.48A6.24,6.24,0,0,1,1711.93,290.62Z" style="fill: rgb(79, 87, 97);" transform="matrix(1, 0, 0, 1, -451.504852, -290.860016)"/>
  <path class="cls-11" d="M1721.89,280.56h7.47v2.18h-5.09v2.5h4.48v2.17h-4.48V290h5.16v2.17h-7.54Z" style="fill: rgb(79, 87, 97);" transform="matrix(1, 0, 0, 1, -451.504852, -290.860016)"/>
  <path class="cls-11" d="M1731.32,280.56h4.35a4.31,4.31,0,0,1,3.15,1.12,3.67,3.67,0,0,1,1,2.68v.07a3.5,3.5,0,0,1-2.15,3.43l2.46,4.31h-2.75l-2.13-3.81h-1.51v3.81h-2.4Zm4.17,5.68a1.67,1.67,0,0,0,1.89-1.74v0c0-1.16-.71-1.74-1.94-1.74h-1.72v3.5Z" style="fill: rgb(79, 87, 97);" transform="matrix(1, 0, 0, 1, -451.504852, -290.860016)"/>
  <path class="cls-11" d="M1740.59,280.56h2.61l2.45,8,2.45-8h2.54l-3.91,11.68h-2.23Z" style="fill: rgb(79, 87, 97);" transform="matrix(1, 0, 0, 1, -451.504852, -290.860016)"/>
  <path class="cls-11" d="M1752.16,280.56h2.4v11.61h-2.4Z" style="fill: rgb(79, 87, 97);" transform="matrix(1, 0, 0, 1, -451.504852, -290.860016)"/>
  <path class="cls-11" d="M1756.55,286.45v-.15c0-3.51,2.19-5.9,5.25-5.9a4.86,4.86,0,0,1,3.73,1.54l-1.44,1.86a3.26,3.26,0,0,0-2.37-1.16c-1.56,0-2.7,1.44-2.7,3.7v.05c0,2.3,1.19,3.71,2.73,3.71a3.26,3.26,0,0,0,2.39-1.21l1.44,1.71a5,5,0,0,1-3.93,1.74C1758.6,292.34,1756.55,290,1756.55,286.45Z" style="fill: rgb(79, 87, 97);" transform="matrix(1, 0, 0, 1, -451.504852, -290.860016)"/>
  <path class="cls-11" d="M1767.22,280.56h7.47v2.18h-5.08v2.5h4.47v2.17h-4.47V290h5.15v2.17h-7.54Z" style="fill: rgb(79, 87, 97);" transform="matrix(1, 0, 0, 1, -451.504852, -290.860016)"/>
  <path class="cls-11" d="M1775.8,290.62l1.43-1.78a4.42,4.42,0,0,0,2.88,1.31c.93,0,1.49-.46,1.49-1.14v0c0-.58-.33-.95-2-1.58-2-.79-3.33-1.57-3.33-3.56v0c0-2,1.56-3.4,3.8-3.4a5.5,5.5,0,0,1,3.74,1.42l-1.34,1.83a4,4,0,0,0-2.47-1.08c-.83,0-1.34.41-1.34,1v0c0,.66.4,1,2.2,1.72,2,.8,3.12,1.66,3.12,3.47v0c0,2.16-1.64,3.48-3.9,3.48A6.24,6.24,0,0,1,1775.8,290.62Z" style="fill: rgb(79, 87, 97);" transform="matrix(1, 0, 0, 1, -451.504852, -290.860016)"/>
  <path class="cls-11" d="M1601.45,280.18a12.74,12.74,0,0,0-4.7-4.69,13,13,0,0,0-12.94,0,12.81,12.81,0,0,0-4.7,4.69,13,13,0,0,0,0,12.95,12.89,12.89,0,0,0,4.7,4.69,13,13,0,0,0,12.94,0,12.81,12.81,0,0,0,4.7-4.69,13,13,0,0,0,0-12.95Zm-3.26,11.06a9.11,9.11,0,0,1-3.32,3.32,9.16,9.16,0,0,1-9.17,0,9.06,9.06,0,0,1-3.33-3.32,9.23,9.23,0,0,1,0-9.17,9.17,9.17,0,0,1,3.33-3.33,9.23,9.23,0,0,1,9.17,0,9.22,9.22,0,0,1,3.32,3.33,9.16,9.16,0,0,1,0,9.17Zm0,0" style="fill: rgb(79, 87, 97);" transform="matrix(1, 0, 0, 1, -451.504852, -290.860016)"/>
  <path class="cls-11" d="M1591.89,280.2h-1.07a.53.53,0,0,0-.39.15.54.54,0,0,0-.15.39v5.91h-3.76a.51.51,0,0,0-.54.54v1.07a.51.51,0,0,0,.54.54h5.37a.51.51,0,0,0,.54-.54v-7.52a.54.54,0,0,0-.15-.39.53.53,0,0,0-.39-.15Zm0,0" style="fill: rgb(79, 87, 97);" transform="matrix(1, 0, 0, 1, -451.504852, -290.860016)"/>
  <path class="cls-11" d="M1591.8,537a2.2,2.2,0,0,0-1.62-.67h-22.86a2.2,2.2,0,0,0-1.62.67,2.18,2.18,0,0,0-.67,1.61V556a2.2,2.2,0,0,0,.67,1.62,2.24,2.24,0,0,0,1.62.67h22.86a2.24,2.24,0,0,0,1.62-.67,2.2,2.2,0,0,0,.67-1.62V538.59a2.18,2.18,0,0,0-.67-1.61Zm-1.16,19a.41.41,0,0,1-.14.32.43.43,0,0,1-.32.14h-22.86a.43.43,0,0,1-.32-.14.45.45,0,0,1-.14-.32V538.59a.41.41,0,0,1,.14-.32.42.42,0,0,1,.32-.13h22.86a.42.42,0,0,1,.32.13.41.41,0,0,1,.14.32Zm0,0" style="fill: rgb(79, 87, 97);" transform="matrix(1, 0, 0, 1, -451.504852, -290.860016)"/>
  <rect class="cls-11" x="1568.69" y="549.11" width="3.66" height="5.49" style="fill: rgb(79, 87, 97);" transform="matrix(1, 0, 0, 1, -451.504852, -290.860016)"/>
  <rect class="cls-11" x="1574.18" y="541.79" width="3.66" height="12.81" style="fill: rgb(79, 87, 97);" transform="matrix(1, 0, 0, 1, -451.504852, -290.860016)"/>
  <rect class="cls-11" x="1579.66" y="545.45" width="3.66" height="9.15" style="fill: rgb(79, 87, 97);" transform="matrix(1, 0, 0, 1, -451.504852, -290.860016)"/>
  <rect class="cls-11" x="1585.15" y="539.96" width="3.66" height="14.63" style="fill: rgb(79, 87, 97);" transform="matrix(1, 0, 0, 1, -451.504852, -290.860016)"/>
  <rect class="cls-3" x="1545.15" y="659.07" width="271.67" height="118.57" rx="4.88" style="fill: rgb(255, 255, 255);" transform="matrix(1, 0, 0, 1, -451.504852, -290.860016)"/>
  <path class="cls-11" d="M1811.94,778.14H1550a5.4,5.4,0,0,1-5.39-5.39V664a5.39,5.39,0,0,1,5.39-5.38h261.9a5.39,5.39,0,0,1,5.39,5.38v108.8A5.4,5.4,0,0,1,1811.94,778.14ZM1550,659.57a4.39,4.39,0,0,0-4.39,4.38v108.8a4.4,4.4,0,0,0,4.39,4.39h261.9a4.4,4.4,0,0,0,4.39-4.39V664a4.39,4.39,0,0,0-4.39-4.38Z" style="fill: rgb(79, 87, 97);" transform="matrix(1, 0, 0, 1, -451.504852, -290.860016)"/>
  <path d="M1659.55,733.16h5.3a5.6,5.6,0,0,1,4.08,1.45,4.42,4.42,0,0,1,1.22,3.2v0a4.43,4.43,0,0,1-3.68,4.49l4.17,6.38h-2l-3.9-6.05h-3.53v6.05h-1.66Zm5,8c2.53,0,3.93-1.26,3.93-3.24v0c0-2-1.42-3.17-3.75-3.17h-3.53v6.46Z" transform="matrix(1, 0, 0, 1, -451.504852, -290.860016)"/>
  <path d="M1672.35,745.36v-.09c0-2.38,1.71-3.73,4.26-3.73a9.34,9.34,0,0,1,3,.47v-.69a2.63,2.63,0,0,0-2.95-2.87,6.34,6.34,0,0,0-3,.78l-.51-1.31a7.88,7.88,0,0,1,3.64-.93,4.39,4.39,0,0,1,3.24,1.15,4.3,4.3,0,0,1,1.11,3.13v7.45h-1.58V747a4,4,0,0,1-3.52,1.93A3.53,3.53,0,0,1,1672.35,745.36Zm7.26-.67v-1.44a8.12,8.12,0,0,0-2.8-.47c-1.84,0-2.86,1-2.86,2.43v.06a2.32,2.32,0,0,0,2.46,2.36A3,3,0,0,0,1679.61,744.69Z" transform="matrix(1, 0, 0, 1, -451.504852, -290.860016)"/>
  <path d="M1684.4,732.68h1.6v16h-1.6Z" transform="matrix(1, 0, 0, 1, -451.504852, -290.860016)"/>
  <path d="M1689.55,732.68h1.59v16h-1.59Z" transform="matrix(1, 0, 0, 1, -451.504852, -290.860016)"/>
  <path d="M1701.88,737.14h1.71l-4.1,11.78c-.82,2.4-1.82,3.22-3.37,3.22a4.31,4.31,0,0,1-2.09-.54l.49-1.33a3,3,0,0,0,1.51.42c.86,0,1.42-.49,2-2l-4.43-11.58h1.73l3.46,9.53Z" transform="matrix(1, 0, 0, 1, -451.504852, -290.860016)"/>
  <path d="M1600.53,695.22h-4.35v-1.55h10.39v1.55h-4.38v14h-1.66Z" transform="matrix(1, 0, 0, 1, -451.504852, -290.860016)"/>
  <path d="M1606.3,703.53v-.11c0-3.53,2.06-6,4.77-6,2.91,0,4.64,2.49,4.64,6,0,.16,0,.47,0,.67h-7.77c.18,2.55,1.75,4,3.57,4a4.06,4.06,0,0,0,3-1.33l.91,1a5.22,5.22,0,0,1-4,1.73C1608.61,709.46,1606.3,707.2,1606.3,703.53Zm7.81-.71c-.11-2.2-1.15-4-3-4-1.71,0-3,1.58-3.15,4Z" transform="matrix(1, 0, 0, 1, -451.504852, -290.860016)"/>
  <path d="M1618.28,697.65h1.6v1.84a3.62,3.62,0,0,1,3.24-2.07,3.34,3.34,0,0,1,3.19,2.11,4,4,0,0,1,3.55-2.11c2.25,0,3.69,1.56,3.69,4.25v7.55H1632v-7.13c0-2.11-.93-3.22-2.51-3.22s-2.73,1.2-2.73,3.29v7.06h-1.59v-7.15c0-2.07-.94-3.2-2.51-3.2s-2.73,1.35-2.73,3.31v7h-1.6Z" transform="matrix(1, 0, 0, 1, -451.504852, -290.860016)"/>
  <path d="M1636.72,697.65h1.6v2.22a4.33,4.33,0,0,1,3.75-2.45c2.35,0,4.61,2.05,4.61,5.89v.22c0,3.85-2.26,5.91-4.61,5.91a4.28,4.28,0,0,1-3.75-2.37v5.48h-1.6Zm8.32,5.88v-.17c0-2.83-1.51-4.49-3.28-4.49s-3.51,1.75-3.51,4.46v.23c0,2.71,1.69,4.44,3.51,4.44S1645,706.38,1645,703.53Z" transform="matrix(1, 0, 0, 1, -451.504852, -290.860016)"/>
  <path d="M1648.77,703.53v-.11c0-3.53,2.07-6,4.77-6,2.91,0,4.64,2.49,4.64,6,0,.16,0,.47,0,.67h-7.77c.18,2.55,1.75,4,3.57,4a4.06,4.06,0,0,0,3-1.33l.91,1a5.2,5.2,0,0,1-4,1.73C1651.08,709.46,1648.77,707.2,1648.77,703.53Zm7.81-.71c-.11-2.2-1.15-4-3-4-1.71,0-3,1.58-3.15,4Z" transform="matrix(1, 0, 0, 1, -451.504852, -290.860016)"/>
  <path d="M1659.71,707.8l.85-1.18a5.24,5.24,0,0,0,3.37,1.4c1.26,0,2.15-.71,2.15-1.8v0c0-1-.95-1.56-2.51-2.2-1.84-.8-3.3-1.53-3.3-3.33v0c0-1.89,1.53-3.15,3.59-3.15a6.33,6.33,0,0,1,3.64,1.24l-.78,1.22a5,5,0,0,0-2.9-1.08c-1.22,0-2,.71-2,1.62v0c0,1,1,1.47,2.57,2.13,1.91.85,3.24,1.65,3.24,3.4v.05c0,2.06-1.66,3.33-3.75,3.33A6.43,6.43,0,0,1,1659.71,707.8Z" transform="matrix(1, 0, 0, 1, -451.504852, -290.860016)"/>
  <path d="M1670.58,706.53v-7.46h-1.39v-1.42h1.39v-3.38h1.6v3.38h3v1.42h-3v7.2a1.47,1.47,0,0,0,1.67,1.66,3.43,3.43,0,0,0,1.35-.31V709a4,4,0,0,1-1.73.4A2.6,2.6,0,0,1,1670.58,706.53Z" transform="matrix(1, 0, 0, 1, -451.504852, -290.860016)"/>
  <path d="M1701,693.67h4.69c3.3,0,5.45,1.87,5.45,4.93v0c0,3.28-2.48,5.06-5.65,5.08h-2.82v5.49H1701Zm4.53,8.55c2.42,0,3.93-1.4,3.93-3.53v0c0-2.27-1.51-3.47-3.86-3.47h-2.93v7Z" transform="matrix(1, 0, 0, 1, -451.504852, -290.860016)"/>
  <path d="M1712.63,705.87v-.09c0-2.38,1.71-3.74,4.26-3.74a9.45,9.45,0,0,1,3,.47v-.69a2.63,2.63,0,0,0-2.95-2.86,6.34,6.34,0,0,0-3,.77l-.51-1.31a8,8,0,0,1,3.64-.93,4.38,4.38,0,0,1,3.24,1.16,4.29,4.29,0,0,1,1.11,3.13v7.44h-1.57v-1.69a4,4,0,0,1-3.53,1.93A3.54,3.54,0,0,1,1712.63,705.87Zm7.26-.67v-1.44a8.08,8.08,0,0,0-2.8-.47c-1.84,0-2.86,1-2.86,2.42v.07a2.31,2.31,0,0,0,2.46,2.35A3,3,0,0,0,1719.89,705.2Z" transform="matrix(1, 0, 0, 1, -451.504852, -290.860016)"/>
  <path d="M1725,706.53v-7.46h-1.4v-1.42h1.4v-3.38h1.6v3.38h3v1.42h-3v7.2a1.46,1.46,0,0,0,1.66,1.66,3.39,3.39,0,0,0,1.35-.31V709a3.94,3.94,0,0,1-1.73.4A2.59,2.59,0,0,1,1725,706.53Z" transform="matrix(1, 0, 0, 1, -451.504852, -290.860016)"/>
  <path d="M1732.14,697.65h1.6v2.55a4.07,4.07,0,0,1,4-2.71v1.73h-.09c-2.15,0-3.88,1.51-3.88,4.49v5.51h-1.6Z" transform="matrix(1, 0, 0, 1, -451.504852, -290.860016)"/>
  <path d="M1738.84,703.53v-.15c0-3.38,2.17-6,5.15-6s5.12,2.56,5.12,5.94v.13c0,3.38-2.17,6-5.15,6S1738.84,706.91,1738.84,703.53Zm8.65,0v-.11c0-2.6-1.55-4.53-3.53-4.53s-3.48,1.93-3.48,4.51v.11c0,2.6,1.53,4.53,3.51,4.53S1747.49,706.07,1747.49,703.51Z" transform="matrix(1, 0, 0, 1, -451.504852, -290.860016)"/>
  <path d="M1751.91,693.18h1.6v16h-1.6Z" transform="matrix(1, 0, 0, 1, -451.504852, -290.860016)"/>
  <path d="M1756.3,703.53v-.11c0-3.53,2.07-6,4.77-6,2.91,0,4.64,2.49,4.64,6,0,.16,0,.47,0,.67h-7.77c.18,2.55,1.76,4,3.58,4a4.06,4.06,0,0,0,3-1.33l.91,1a5.2,5.2,0,0,1-4,1.73C1758.61,709.46,1756.3,707.2,1756.3,703.53Zm7.81-.71c-.11-2.2-1.15-4-3-4-1.7,0-3,1.58-3.15,4Z" transform="matrix(1, 0, 0, 1, -451.504852, -290.860016)"/>
  <rect class="cls-3" x="1575.99" y="645.9" width="210" height="27.15" style="fill: rgb(255, 255, 255);" transform="matrix(1, 0, 0, 1, -451.504852, -290.860016)"/>
  <path class="cls-11" d="M1599.65,428.82H1604a4.32,4.32,0,0,1,3.15,1.11,3.67,3.67,0,0,1,1,2.68v.07a3.49,3.49,0,0,1-2.16,3.43l2.47,4.32h-2.75l-2.14-3.82h-1.51v3.82h-2.4Zm4.18,5.67a1.68,1.68,0,0,0,1.89-1.74v0c0-1.16-.72-1.74-1.94-1.74h-1.73v3.5Z" style="fill: rgb(79, 87, 97);" transform="matrix(1, 0, 0, 1, -451.504852, -290.860016)"/>
  <path class="cls-11" d="M1610,428.82h7.48V431h-5.09v2.5h4.47v2.18h-4.47v2.58h5.15v2.18H1610Z" style="fill: rgb(79, 87, 97);" transform="matrix(1, 0, 0, 1, -451.504852, -290.860016)"/>
  <path class="cls-11" d="M1618.63,438.87l1.42-1.78a4.44,4.44,0,0,0,2.88,1.31c.93,0,1.49-.46,1.49-1.14v0c0-.58-.33-.94-2-1.57-2.06-.8-3.33-1.58-3.33-3.57v0c0-2,1.56-3.4,3.79-3.4a5.54,5.54,0,0,1,3.75,1.42l-1.35,1.83a4,4,0,0,0-2.47-1.08c-.82,0-1.34.41-1.34,1v0c0,.66.4,1,2.21,1.72,2,.8,3.11,1.66,3.11,3.47v0c0,2.16-1.64,3.49-3.89,3.49A6.22,6.22,0,0,1,1618.63,438.87Z" style="fill: rgb(79, 87, 97);" transform="matrix(1, 0, 0, 1, -451.504852, -290.860016)"/>
  <path class="cls-11" d="M1628.16,434.74v-.2c0-3.48,2.18-5.92,5.25-5.92s5.23,2.42,5.23,5.89v.19c0,3.47-2.18,5.93-5.25,5.93S1628.16,438.2,1628.16,434.74Zm8-.05v-.12c0-2.29-1.16-3.73-2.77-3.73s-2.77,1.43-2.77,3.72v.11c0,2.29,1.18,3.73,2.79,3.73S1636.16,437,1636.16,434.69Z" style="fill: rgb(79, 87, 97);" transform="matrix(1, 0, 0, 1, -451.504852, -290.860016)"/>
  <path class="cls-11" d="M1640.4,435.92v-7.1h2.4v7.11c0,1.64.78,2.46,2,2.46s2-.8,2-2.41v-7.16h2.38v7.05c0,3.2-1.75,4.74-4.44,4.74S1640.4,439.05,1640.4,435.92Z" style="fill: rgb(79, 87, 97);" transform="matrix(1, 0, 0, 1, -451.504852, -290.860016)"/>
  <path class="cls-11" d="M1651.41,428.82h4.35a4.32,4.32,0,0,1,3.15,1.11,3.67,3.67,0,0,1,1,2.68v.07a3.5,3.5,0,0,1-2.15,3.43l2.46,4.32h-2.75l-2.13-3.82h-1.51v3.82h-2.4Zm4.17,5.67a1.67,1.67,0,0,0,1.89-1.74v0c0-1.16-.71-1.74-1.94-1.74h-1.72v3.5Z" style="fill: rgb(79, 87, 97);" transform="matrix(1, 0, 0, 1, -451.504852, -290.860016)"/>
  <path class="cls-11" d="M1661.38,434.7v-.14c0-3.52,2.19-5.91,5.25-5.91a4.86,4.86,0,0,1,3.73,1.54l-1.44,1.86a3.23,3.23,0,0,0-2.37-1.16c-1.56,0-2.7,1.44-2.7,3.7v.05c0,2.3,1.19,3.71,2.73,3.71a3.26,3.26,0,0,0,2.39-1.21l1.44,1.71a5,5,0,0,1-3.92,1.74C1663.44,440.59,1661.38,438.25,1661.38,434.7Z" style="fill: rgb(79, 87, 97);" transform="matrix(1, 0, 0, 1, -451.504852, -290.860016)"/>
  <path class="cls-11" d="M1672.05,428.82h7.48V431h-5.09v2.5h4.47v2.18h-4.47v2.58h5.15v2.18h-7.54Z" style="fill: rgb(79, 87, 97);" transform="matrix(1, 0, 0, 1, -451.504852, -290.860016)"/>
  <path class="cls-11" d="M1684.78,434.74v-.2c0-3.48,2.19-5.92,5.25-5.92s5.24,2.42,5.24,5.89v.19c0,3.47-2.19,5.93-5.25,5.93S1684.78,438.2,1684.78,434.74Zm8-.05v-.12c0-2.29-1.16-3.73-2.76-3.73s-2.77,1.43-2.77,3.72v.11c0,2.29,1.17,3.73,2.78,3.73S1692.78,437,1692.78,434.69Z" style="fill: rgb(79, 87, 97);" transform="matrix(1, 0, 0, 1, -451.504852, -290.860016)"/>
  <path class="cls-11" d="M1697.17,428.82H1701c2.6,0,4.24,1.51,4.24,4v0c0,2.67-1.91,4-4.34,4.06h-1.36v3.54h-2.41Zm3.75,5.92a1.78,1.78,0,0,0,1.94-1.86v0a1.73,1.73,0,0,0-2-1.87h-1.31v3.75Z" style="fill: rgb(79, 87, 97);" transform="matrix(1, 0, 0, 1, -451.504852, -290.860016)"/>
  <path class="cls-11" d="M1709,431h-2.92v-2.22h8.22V431h-2.92v9.39H1709Z" style="fill: rgb(79, 87, 97);" transform="matrix(1, 0, 0, 1, -451.504852, -290.860016)"/>
  <path class="cls-11" d="M1716,428.82h2.4v11.61H1716Z" style="fill: rgb(79, 87, 97);" transform="matrix(1, 0, 0, 1, -451.504852, -290.860016)"/>
  <path class="cls-11" d="M1720.82,428.82h2.52l2.59,4.71,2.55-4.71H1731v11.61h-2.35V433l-2.73,4.8h0l-2.72-4.76v7.38h-2.34Z" style="fill: rgb(79, 87, 97);" transform="matrix(1, 0, 0, 1, -451.504852, -290.860016)"/>
  <path class="cls-11" d="M1733.42,428.82h2.4v11.61h-2.4Z" style="fill: rgb(79, 87, 97);" transform="matrix(1, 0, 0, 1, -451.504852, -290.860016)"/>
  <path class="cls-11" d="M1737.91,438.59l5.28-7.63h-5.12v-2.14h8.09v1.84l-5.29,7.63h5.29v2.14h-8.25Z" style="fill: rgb(79, 87, 97);" transform="matrix(1, 0, 0, 1, -451.504852, -290.860016)"/>
  <path class="cls-11" d="M1751.43,428.75h2.29l4.16,11.68h-2.49l-.86-2.52h-4l-.85,2.52h-2.42Zm2.37,7-1.26-3.78-1.28,3.78Z" style="fill: rgb(79, 87, 97);" transform="matrix(1, 0, 0, 1, -451.504852, -290.860016)"/>
  <path class="cls-11" d="M1760.35,431h-2.92v-2.22h8.22V431h-2.92v9.39h-2.38Z" style="fill: rgb(79, 87, 97);" transform="matrix(1, 0, 0, 1, -451.504852, -290.860016)"/>
  <path class="cls-11" d="M1767.36,428.82h2.4v11.61h-2.4Z" style="fill: rgb(79, 87, 97);" transform="matrix(1, 0, 0, 1, -451.504852, -290.860016)"/>
  <path class="cls-11" d="M1771.75,434.74v-.2c0-3.48,2.18-5.92,5.25-5.92s5.24,2.42,5.24,5.89v.19c0,3.47-2.19,5.93-5.25,5.93S1771.75,438.2,1771.75,434.74Zm8-.05v-.12c0-2.29-1.16-3.73-2.76-3.73s-2.77,1.43-2.77,3.72v.11c0,2.29,1.17,3.73,2.78,3.73S1779.75,437,1779.75,434.69Z" style="fill: rgb(79, 87, 97);" transform="matrix(1, 0, 0, 1, -451.504852, -290.860016)"/>
  <path class="cls-11" d="M1784.14,428.82h2.21l4.44,6.76v-6.76h2.35v11.61h-2.05l-4.59-7v7h-2.36Z" style="fill: rgb(79, 87, 97);" transform="matrix(1, 0, 0, 1, -451.504852, -290.860016)"/>
  <path class="cls-11" d="M1591.75,428.07a12.89,12.89,0,0,0-4.7-4.69,13,13,0,0,0-12.94,0,12.81,12.81,0,0,0-4.7,4.69,13,13,0,0,0,0,12.95,12.89,12.89,0,0,0,4.69,4.7,13,13,0,0,0,13,0,12.92,12.92,0,0,0,4.7-4.7,13,13,0,0,0,0-12.95Zm-2.81,4.51-9.12,9.12a1.06,1.06,0,0,1-.77.32,1.07,1.07,0,0,1-.76-.32l-6.07-6.08a1,1,0,0,1-.31-.75,1,1,0,0,1,.31-.78l1.52-1.51a1.07,1.07,0,0,1,.76-.32,1,1,0,0,1,.75.32l3.8,3.8,6.85-6.84a1.05,1.05,0,0,1,.76-.32,1,1,0,0,1,.75.32l1.53,1.52a1,1,0,0,1,.3.77,1,1,0,0,1-.3.75Zm0,0" style="fill: rgb(79, 87, 97);" transform="matrix(1, 0, 0, 1, -451.504852, -290.860016)"/>
  <path class="cls-11" d="M1607.92,656H1605v-2.22h8.22V656h-2.92v9.39h-2.38Z" style="fill: rgb(79, 87, 97);" transform="matrix(1, 0, 0, 1, -451.504852, -290.860016)"/>
  <path class="cls-11" d="M1614.84,653.73h7.47v2.17h-5.08v2.51h4.47v2.17h-4.47v2.59h5.15v2.17h-7.54Z" style="fill: rgb(79, 87, 97);" transform="matrix(1, 0, 0, 1, -451.504852, -290.860016)"/>
  <path class="cls-11" d="M1623.42,663.78l1.43-1.78a4.38,4.38,0,0,0,2.88,1.32c.93,0,1.49-.47,1.49-1.15v0c0-.58-.33-.94-2-1.57-2-.8-3.33-1.58-3.33-3.57v0c0-2,1.56-3.4,3.8-3.4a5.46,5.46,0,0,1,3.74,1.43l-1.34,1.82a4,4,0,0,0-2.47-1.08c-.83,0-1.34.42-1.34,1v0c0,.66.4,1,2.2,1.72,2,.8,3.12,1.66,3.12,3.47v0c0,2.16-1.64,3.49-3.9,3.49A6.26,6.26,0,0,1,1623.42,663.78Z" style="fill: rgb(79, 87, 97);" transform="matrix(1, 0, 0, 1, -451.504852, -290.860016)"/>
  <path class="cls-11" d="M1635.35,656h-2.92v-2.22h8.22V656h-2.91v9.39h-2.39Z" style="fill: rgb(79, 87, 97);" transform="matrix(1, 0, 0, 1, -451.504852, -290.860016)"/>
  <path class="cls-11" d="M1642.36,653.73h2.4v11.61h-2.4Z" style="fill: rgb(79, 87, 97);" transform="matrix(1, 0, 0, 1, -451.504852, -290.860016)"/>
  <path class="cls-11" d="M1647.16,653.73h2.21l4.44,6.77v-6.77h2.35v11.61h-2.05l-4.59-7v7h-2.36Z" style="fill: rgb(79, 87, 97);" transform="matrix(1, 0, 0, 1, -451.504852, -290.860016)"/>
  <path class="cls-11" d="M1658.07,659.62v-.15c0-3.44,2.27-5.91,5.41-5.91a5.46,5.46,0,0,1,3.8,1.36l-1.43,1.88a3.26,3.26,0,0,0-2.4-1c-1.66,0-2.91,1.51-2.91,3.65v.13c0,2.39,1.3,3.74,3,3.74a2.89,2.89,0,0,0,1.72-.49v-2.05h-2.1v-2.09h4.39v5.37a6.69,6.69,0,0,1-4.13,1.44C1660.32,665.5,1658.07,663.25,1658.07,659.62Z" style="fill: rgb(79, 87, 97);" transform="matrix(1, 0, 0, 1, -451.504852, -290.860016)"/>
  <path class="cls-11" d="M1678,652.25h2l-6.23,15.06h-2Z" style="fill: rgb(79, 87, 97);" transform="matrix(1, 0, 0, 1, -451.504852, -290.860016)"/>
  <path class="cls-11" d="M1684.72,653.73H1689a4.24,4.24,0,0,1,3,1,2.66,2.66,0,0,1,.78,2v0a2.72,2.72,0,0,1-1.57,2.54,2.77,2.77,0,0,1,2.07,2.77v.08c0,2.09-1.67,3.19-4.19,3.19h-4.43Zm5.75,3.42c0-.85-.59-1.3-1.62-1.3h-1.79v2.62h1.67c1.06,0,1.74-.43,1.74-1.31Zm-1.31,3.35h-2.1v2.72h2.15c1.08,0,1.76-.47,1.76-1.36v0C1691,661,1690.36,660.5,1689.16,660.5Z" style="fill: rgb(79, 87, 97);" transform="matrix(1, 0, 0, 1, -451.504852, -290.860016)"/>
  <path class="cls-11" d="M1695.08,653.73h7.47v2.17h-5.09v2.51h4.48v2.17h-4.48v2.59h5.16v2.17h-7.54Z" style="fill: rgb(79, 87, 97);" transform="matrix(1, 0, 0, 1, -451.504852, -290.860016)"/>
  <path class="cls-11" d="M1704.51,653.73h2.2l4.44,6.77v-6.77h2.35v11.61h-2l-4.59-7v7h-2.35Z" style="fill: rgb(79, 87, 97);" transform="matrix(1, 0, 0, 1, -451.504852, -290.860016)"/>
  <path class="cls-11" d="M1715.41,659.62v-.15c0-3.52,2.18-5.91,5.25-5.91a4.87,4.87,0,0,1,3.73,1.55L1723,657a3.26,3.26,0,0,0-2.37-1.16c-1.56,0-2.7,1.45-2.7,3.7v0c0,2.31,1.19,3.72,2.73,3.72a3.28,3.28,0,0,0,2.39-1.22l1.44,1.71a5,5,0,0,1-3.93,1.74C1717.46,665.5,1715.41,663.17,1715.41,659.62Z" style="fill: rgb(79, 87, 97);" transform="matrix(1, 0, 0, 1, -451.504852, -290.860016)"/>
  <path class="cls-11" d="M1726.08,653.73h2.4v4.66h3.81v-4.66h2.41v11.61h-2.41v-4.73h-3.81v4.73h-2.4Z" style="fill: rgb(79, 87, 97);" transform="matrix(1, 0, 0, 1, -451.504852, -290.860016)"/>
  <path class="cls-11" d="M1737,653.73h2.52l2.59,4.71,2.55-4.71h2.53v11.61h-2.35v-7.42l-2.73,4.8h0l-2.72-4.76v7.38H1737Z" style="fill: rgb(79, 87, 97);" transform="matrix(1, 0, 0, 1, -451.504852, -290.860016)"/>
  <path class="cls-11" d="M1752.8,653.66h2.29l4.16,11.68h-2.49l-.86-2.52h-4l-.85,2.52h-2.42Zm2.37,7-1.26-3.78-1.27,3.78Z" style="fill: rgb(79, 87, 97);" transform="matrix(1, 0, 0, 1, -451.504852, -290.860016)"/>
  <path class="cls-11" d="M1760.69,653.73h4.36a4.32,4.32,0,0,1,3.15,1.11,3.71,3.71,0,0,1,1,2.69v.06A3.52,3.52,0,0,1,1767,661l2.47,4.31h-2.75l-2.14-3.82h-1.51v3.82h-2.4Zm4.17,5.67a1.67,1.67,0,0,0,1.89-1.74v0c0-1.16-.71-1.74-1.94-1.74h-1.72v3.5Z" style="fill: rgb(79, 87, 97);" transform="matrix(1, 0, 0, 1, -451.504852, -290.860016)"/>
  <path class="cls-11" d="M1771.08,653.73h2.4v5l3.79-5h2.84l-3.9,4.92,4.06,6.69h-2.81l-2.9-4.78-1.08,1.36v3.42h-2.4Z" style="fill: rgb(79, 87, 97);" transform="matrix(1, 0, 0, 1, -451.504852, -290.860016)"/>
  <path class="cls-11" d="M1595.39,647.5h-13a.81.81,0,0,0,0,1.62h.71v18.6a5.79,5.79,0,0,0,11.57,0v-18.6h.72a.81.81,0,0,0,0-1.62Zm-2.34,5.61a7,7,0,0,1-4.27,2.94,10.7,10.7,0,0,0-4.06,1.45v-8.38h8.33Z" style="fill: rgb(79, 87, 97);" transform="matrix(1, 0, 0, 1, -451.504852, -290.860016)"/>
</svg>