<?xml version="1.0" encoding="utf-8"?>
<svg viewBox="172.615 -146.711 671.73 95" xmlns="http://www.w3.org/2000/svg">
  <rect class="cls-3" x="625.12" y="157.66" width="669.72" height="80.49" rx="4" style="fill: rgb(255, 255, 255);" transform="matrix(1, 0, 0, 1, -451.504852, -290.860016)"/>
  <path class="cls-7" d="M1290.85,239.15H629.12a5,5,0,0,1-5-5V161.66a5,5,0,0,1,5-5h661.73a5,5,0,0,1,5,5v72.49A5,5,0,0,1,1290.85,239.15ZM629.12,158.66a3,3,0,0,0-3,3v72.49a3,3,0,0,0,3,3h661.73a3,3,0,0,0,3-3V161.66a3,3,0,0,0-3-3Z" style="fill: rgb(35, 156, 220);" transform="matrix(1, 0, 0, 1, -451.504852, -290.860016)"/>
  <path d="M758.53,189.92h1.66v7h7.5v-7h1.66v15.55h-1.66v-7h-7.5v7h-1.66Z" transform="matrix(1, 0, 0, 1, -451.504852, -290.860016)"/>
  <path d="M772.24,199.78v-.15c0-3.38,2.17-6,5.15-6s5.12,2.56,5.12,5.93v.14c0,3.37-2.17,6-5.15,6S772.24,203.16,772.24,199.78Zm8.65,0v-.11c0-2.6-1.55-4.53-3.53-4.53s-3.48,1.93-3.48,4.51v.11c0,2.6,1.53,4.53,3.51,4.53S780.89,202.31,780.89,199.76Z" transform="matrix(1, 0, 0, 1, -451.504852, -290.860016)"/>
  <path d="M785.18,193.89h1.59v2.56a4.09,4.09,0,0,1,4-2.71v1.73h-.08c-2.16,0-3.89,1.51-3.89,4.49v5.51h-1.59Z" transform="matrix(1, 0, 0, 1, -451.504852, -290.860016)"/>
  <path d="M793,189.63h1.77v1.89H793Zm.09,4.26h1.59v11.58H793.1Z" transform="matrix(1, 0, 0, 1, -451.504852, -290.860016)"/>
  <path d="M797.47,204.42l6.41-9.15h-6.17v-1.38h8.21v1.05l-6.41,9.15h6.39v1.38h-8.43Z" transform="matrix(1, 0, 0, 1, -451.504852, -290.860016)"/>
  <path d="M807.63,199.78v-.15c0-3.38,2.18-6,5.15-6s5.12,2.56,5.12,5.93v.14c0,3.37-2.17,6-5.14,6S807.63,203.16,807.63,199.78Zm8.66,0v-.11c0-2.6-1.56-4.53-3.53-4.53s-3.49,1.93-3.49,4.51v.11c0,2.6,1.53,4.53,3.51,4.53S816.29,202.31,816.29,199.76Z" transform="matrix(1, 0, 0, 1, -451.504852, -290.860016)"/>
  <path d="M820.57,193.89h1.6v1.89a3.74,3.74,0,0,1,3.41-2.11c2.35,0,3.77,1.62,3.77,4.22v7.58h-1.59v-7.13c0-2.07-1-3.22-2.67-3.22a3,3,0,0,0-2.92,3.31v7h-1.6Z" transform="matrix(1, 0, 0, 1, -451.504852, -290.860016)"/>
  <path d="M1100.66,190.21h9.47v1.53h-7.81v5.42h7v1.51h-7v5.55h7.93v1.54h-9.59Z" transform="matrix(1, 0, 0, 1, -451.504852, -290.860016)"/>
  <path d="M1112.55,198.07v-.13c0-4.71,2.93-8,6.82-8a6.46,6.46,0,0,1,4.72,1.91l-1,1.27a5.25,5.25,0,0,0-3.73-1.62c-2.86,0-5,2.62-5,6.38V198c0,3.83,2.19,6.42,5,6.42a5.24,5.24,0,0,0,3.84-1.73l1,1.16a6.65,6.65,0,0,1-4.93,2.13C1115.42,206,1112.55,202.8,1112.55,198.07Z" transform="matrix(1, 0, 0, 1, -451.504852, -290.860016)"/>
  <path d="M1125.87,204.47l5-5.6c1.87-2,2.58-3.13,2.58-4.58a2.67,2.67,0,0,0-2.8-2.77c-1.42,0-2.44.75-3.48,2.22l-1.16-1a5.44,5.44,0,0,1,4.8-2.78,4.11,4.11,0,0,1,4.37,4.16v.07c0,2-1,3.31-3.13,5.59l-3.88,4.4h7.12v1.56h-9.43Z" transform="matrix(1, 0, 0, 1, -451.504852, -290.860016)"/>
  <path d="M1143.13,190.12h1.64l5.93,15.64h-1.78l-1.51-4.09h-7l-1.5,4.09h-1.71Zm3.73,10-2.93-7.89-3,7.89Z" transform="matrix(1, 0, 0, 1, -451.504852, -290.860016)"/>
  <path d="M1153.29,190.21H1158c3.3,0,5.45,1.86,5.45,4.93v0c0,3.29-2.48,5.07-5.65,5.09H1155v5.49h-1.67Zm4.53,8.55c2.42,0,3.93-1.4,3.93-3.53v0c0-2.27-1.51-3.47-3.86-3.47H1155v7Z" transform="matrix(1, 0, 0, 1, -451.504852, -290.860016)"/>
  <path d="M1166.25,190.21h1.67v15.55h-1.67Z" transform="matrix(1, 0, 0, 1, -451.504852, -290.860016)"/>
  <rect class="cls-3" x="702.39" y="144.5" width="184.3" height="27.15" style="fill: rgb(255, 255, 255);" transform="matrix(1, 0, 0, 1, -451.504852, -290.860016)"/>
  <path class="cls-7" d="M751.58,152.89h2.53l2,7.64,2.12-7.68h2.09l2.14,7.68,1.94-7.64h2.48l-3.31,11.67h-2.21l-2.12-7.38-2.12,7.38h-2.19Z" style="fill: rgb(35, 156, 220);" transform="matrix(1, 0, 0, 1, -451.504852, -290.860016)"/>
  <path class="cls-7" d="M768.36,152.89h7.48v2.17h-5.09v2.5h4.47v2.18h-4.47v2.58h5.15v2.18h-7.54Z" style="fill: rgb(35, 156, 220);" transform="matrix(1, 0, 0, 1, -451.504852, -290.860016)"/>
  <path class="cls-7" d="M777.79,152.89h4.31a4.2,4.2,0,0,1,3,1,2.7,2.7,0,0,1,.78,2v0a2.73,2.73,0,0,1-1.57,2.54,2.76,2.76,0,0,1,2.07,2.77v.08c0,2.09-1.68,3.19-4.2,3.19h-4.42Zm5.75,3.41c0-.84-.6-1.29-1.62-1.29h-1.79v2.62h1.67c1.06,0,1.74-.43,1.74-1.31Zm-1.31,3.35h-2.1v2.72h2.15c1.08,0,1.76-.46,1.76-1.36h0C784,160.17,783.42,159.65,782.23,159.65Z" style="fill: rgb(35, 156, 220);" transform="matrix(1, 0, 0, 1, -451.504852, -290.860016)"/>
  <path class="cls-7" d="M791.86,152.89h7.47v2.2h-5.07v2.61h4.46v2.2h-4.46v4.6h-2.4Z" style="fill: rgb(35, 156, 220);" transform="matrix(1, 0, 0, 1, -451.504852, -290.860016)"/>
  <path class="cls-7" d="M801,152.89h4.35a4.3,4.3,0,0,1,3.15,1.11,3.67,3.67,0,0,1,1,2.68v.07a3.5,3.5,0,0,1-2.15,3.43l2.46,4.32h-2.75L805,160.68h-1.51v3.82H801Zm4.17,5.67a1.67,1.67,0,0,0,1.89-1.74v0c0-1.16-.71-1.74-1.94-1.74h-1.72v3.5Z" style="fill: rgb(35, 156, 220);" transform="matrix(1, 0, 0, 1, -451.504852, -290.860016)"/>
  <path class="cls-7" d="M811,158.81v-.2c0-3.49,2.19-5.92,5.25-5.92s5.24,2.42,5.24,5.88v.2c0,3.47-2.19,5.93-5.25,5.93S811,162.27,811,158.81Zm8-.05v-.12c0-2.29-1.16-3.73-2.76-3.73s-2.77,1.43-2.77,3.71v.12c0,2.29,1.18,3.73,2.78,3.73S819,161.05,819,158.76Z" style="fill: rgb(35, 156, 220);" transform="matrix(1, 0, 0, 1, -451.504852, -290.860016)"/>
  <path class="cls-7" d="M823.4,152.89h2.21l4.44,6.76v-6.76h2.35V164.5h-2l-4.59-7v7H823.4Z" style="fill: rgb(35, 156, 220);" transform="matrix(1, 0, 0, 1, -451.504852, -290.860016)"/>
  <path class="cls-7" d="M836.94,155.11H834v-2.22h8.22v2.22h-2.91v9.39h-2.39Z" style="fill: rgb(35, 156, 220);" transform="matrix(1, 0, 0, 1, -451.504852, -290.860016)"/>
  <path class="cls-7" d="M843.86,152.89h7.48v2.17h-5.09v2.5h4.47v2.18h-4.47v2.58h5.15v2.18h-7.54Z" style="fill: rgb(35, 156, 220);" transform="matrix(1, 0, 0, 1, -451.504852, -290.860016)"/>
  <path class="cls-7" d="M853.29,152.89h2.21l4.44,6.76v-6.76h2.35V164.5h-2.06l-4.59-7v7h-2.35Z" style="fill: rgb(35, 156, 220);" transform="matrix(1, 0, 0, 1, -451.504852, -290.860016)"/>
  <path class="cls-7" d="M864.61,152.89h3.74c3.37,0,5.54,2.32,5.54,5.72v.15c0,3.4-2.17,5.74-5.54,5.74h-3.74Zm2.4,2.17v7.26h1.33c1.82,0,3.06-1.27,3.06-3.58v-.08c0-2.31-1.24-3.6-3.06-3.6Z" style="fill: rgb(35, 156, 220);" transform="matrix(1, 0, 0, 1, -451.504852, -290.860016)"/>
  <path class="cls-7" d="M719.7,165.48h20a3,3,0,0,0,3-2.95v-13a3,3,0,0,0-3-2.95h-20a3,3,0,0,0-3,2.95v13a3,3,0,0,0,3,2.95Zm-.59-15.92a.62.62,0,0,1,.59-.59h20a.62.62,0,0,1,.59.59v13a.58.58,0,0,1-.18.42.57.57,0,0,1-.41.17h-20a.57.57,0,0,1-.41-.17.58.58,0,0,1-.18-.42Zm0,0" style="fill: rgb(35, 156, 220);" transform="matrix(1, 0, 0, 1, -451.504852, -290.860016)"/>
  <path class="cls-7" d="M744.47,166.66H712v1.77a1.46,1.46,0,0,0,.86,1.25,3.94,3.94,0,0,0,2.08.52h29.49a3.94,3.94,0,0,0,2.08-.52,1.48,1.48,0,0,0,.86-1.25v-1.77Zm-13.27,1.77h-3a.25.25,0,0,1-.29-.29c0-.2.09-.3.29-.3h3a.26.26,0,0,1,.29.3.26.26,0,0,1-.29.29Zm0,0" style="fill: rgb(35, 156, 220);" transform="matrix(1, 0, 0, 1, -451.504852, -290.860016)"/>
  <rect class="cls-3" x="1050.44" y="145.32" width="167.84" height="27.15" style="fill: rgb(255, 255, 255);" transform="matrix(1, 0, 0, 1, -451.504852, -290.860016)"/>
  <path class="cls-7" d="M1112.18,152h2.29l4.15,11.67h-2.48l-.86-2.52h-4l-.84,2.52H1108Zm2.37,7-1.26-3.78L1112,159Z" style="fill: rgb(35, 156, 220);" transform="matrix(1, 0, 0, 1, -451.504852, -290.860016)"/>
  <path class="cls-7" d="M1120.07,152.06h3.86c2.6,0,4.24,1.51,4.24,4v0c0,2.67-1.91,4-4.34,4.06h-1.36v3.53h-2.4Zm3.74,5.92a1.77,1.77,0,0,0,1.94-1.85v0a1.73,1.73,0,0,0-2-1.87h-1.31V158Z" style="fill: rgb(35, 156, 220);" transform="matrix(1, 0, 0, 1, -451.504852, -290.860016)"/>
  <path class="cls-7" d="M1129.82,152.06h2.41v11.61h-2.41Z" style="fill: rgb(35, 156, 220);" transform="matrix(1, 0, 0, 1, -451.504852, -290.860016)"/>
  <path class="cls-7" d="M1138.34,152.06h3.86c2.6,0,4.24,1.51,4.24,4v0c0,2.67-1.9,4-4.34,4.06h-1.36v3.53h-2.4Zm3.74,5.92a1.77,1.77,0,0,0,1.94-1.85v0a1.73,1.73,0,0,0-2-1.87h-1.31V158Z" style="fill: rgb(35, 156, 220);" transform="matrix(1, 0, 0, 1, -451.504852, -290.860016)"/>
  <path class="cls-7" d="M1148,152.06h4.35a4.3,4.3,0,0,1,3.15,1.11,3.69,3.69,0,0,1,1,2.69v.07a3.5,3.5,0,0,1-2.15,3.43l2.46,4.31h-2.75l-2.13-3.81h-1.51v3.81H1148Zm4.17,5.68a1.68,1.68,0,0,0,1.89-1.75h0c0-1.16-.71-1.74-1.94-1.74h-1.72v3.5Z" style="fill: rgb(35, 156, 220);" transform="matrix(1, 0, 0, 1, -451.504852, -290.860016)"/>
  <path class="cls-7" d="M1158,158v-.19c0-3.49,2.19-5.93,5.25-5.93s5.24,2.43,5.24,5.89v.2c0,3.47-2.19,5.92-5.25,5.92S1158,161.45,1158,158Zm8,0v-.11c0-2.29-1.16-3.73-2.76-3.73s-2.77,1.42-2.77,3.71v.12c0,2.29,1.18,3.73,2.78,3.73S1166,160.22,1166,157.93Z" style="fill: rgb(35, 156, 220);" transform="matrix(1, 0, 0, 1, -451.504852, -290.860016)"/>
  <path class="cls-7" d="M1178.47,152.06l-3.31,5.68,3.44,5.93h-2.73l-2.12-4-2.14,4h-2.67l3.43-5.9-3.28-5.71h2.74l2,3.77,2-3.77Z" style="fill: rgb(35, 156, 220);" transform="matrix(1, 0, 0, 1, -451.504852, -290.860016)"/>
  <path class="cls-7" d="M1180.24,152.06h2.4v11.61h-2.4Z" style="fill: rgb(35, 156, 220);" transform="matrix(1, 0, 0, 1, -451.504852, -290.860016)"/>
  <path class="cls-7" d="M1185.05,152.06h7.47v2.18h-5.09v2.5h4.48v2.17h-4.48v2.59h5.16v2.17h-7.54Z" style="fill: rgb(35, 156, 220);" transform="matrix(1, 0, 0, 1, -451.504852, -290.860016)"/>
  <path class="cls-7" d="M1193.63,162.11l1.42-1.77a4.47,4.47,0,0,0,2.89,1.31c.92,0,1.49-.46,1.49-1.14v0c0-.58-.33-1-2-1.58-2.06-.79-3.33-1.57-3.33-3.56v0c0-2,1.56-3.4,3.79-3.4a5.54,5.54,0,0,1,3.75,1.43l-1.34,1.82a4.1,4.1,0,0,0-2.47-1.07c-.83,0-1.35.41-1.35,1h0c0,.67.4,1,2.21,1.73,2,.8,3.11,1.66,3.11,3.47v0c0,2.16-1.64,3.48-3.89,3.48A6.18,6.18,0,0,1,1193.63,162.11Z" style="fill: rgb(35, 156, 220);" transform="matrix(1, 0, 0, 1, -451.504852, -290.860016)"/>
  <path class="cls-7" d="M1066.87,152.84h24.92v3.48a.56.56,0,0,0,.17.4.55.55,0,0,0,.41.18.57.57,0,0,0,.42-.17l5.79-5.79a.6.6,0,0,0,0-.84l-5.78-5.77a.67.67,0,0,0-.43-.18.57.57,0,0,0-.42.16.56.56,0,0,0-.16.41v3.48h-24.92a.57.57,0,0,0-.41.17.56.56,0,0,0-.17.41v3.48a.54.54,0,0,0,.17.41.57.57,0,0,0,.41.17Zm0,0" style="fill: rgb(35, 156, 220);" transform="matrix(1, 0, 0, 1, -451.504852, -290.860016)"/>
  <path class="cls-7" d="M1098.17,159.79h-24.93v-3.47a.57.57,0,0,0-.17-.41.53.53,0,0,0-.41-.17.54.54,0,0,0-.41.16l-5.8,5.8a.54.54,0,0,0-.16.41.54.54,0,0,0,.16.4l5.78,5.8a.67.67,0,0,0,.43.18.57.57,0,0,0,.41-.17.54.54,0,0,0,.17-.41v-3.48h24.93a.56.56,0,0,0,.4-.17.55.55,0,0,0,.18-.41v-3.48a.62.62,0,0,0-.58-.58Zm0,0" style="fill: rgb(35, 156, 220);" transform="matrix(1, 0, 0, 1, -451.504852, -290.860016)"/>
  <rect class="cls-8" x="959.49" y="173.29" width="1" height="47.58" style="fill: rgb(141, 215, 247);" transform="matrix(1, 0, 0, 1, -451.504852, -290.860016)"/>
</svg>