<?xml version="1.0" encoding="utf-8"?>
<svg viewBox="738.511 65.728 491 129.8" xmlns="http://www.w3.org/2000/svg">
  <rect class="cls-3" x="924.41" y="428.15" width="489" height="111.29" rx="2.89" transform="matrix(1, 0, 0, 1, -184.899368, -344.922089)" style="fill: rgb(255, 255, 255);"/>
  <path class="cls-2" d="M1410.52,540.45H927.3a3.89,3.89,0,0,1-3.89-3.89V431a3.89,3.89,0,0,1,3.89-3.89h483.22a3.9,3.9,0,0,1,3.89,3.89V536.56A3.9,3.9,0,0,1,1410.52,540.45ZM927.3,429.15a1.89,1.89,0,0,0-1.89,1.89V536.56a1.89,1.89,0,0,0,1.89,1.89h483.22a1.89,1.89,0,0,0,1.89-1.89V431a1.89,1.89,0,0,0-1.89-1.89Z" transform="matrix(1, 0, 0, 1, -184.899368, -344.922089)" style="fill: rgb(236, 25, 68);"/>
  <rect class="cls-3" x="1097.11" y="410.65" width="138.6" height="27.15" transform="matrix(1, 0, 0, 1, -184.899368, -344.922089)" style="fill: rgb(255, 255, 255);"/>
  <path class="cls-2" d="M1147.12,427.42l1.43-1.77a4.44,4.44,0,0,0,2.88,1.31c.93,0,1.49-.46,1.49-1.14v0c0-.58-.33-.95-2-1.58-2-.79-3.33-1.57-3.33-3.56v0c0-2,1.56-3.4,3.8-3.4a5.51,5.51,0,0,1,3.74,1.43l-1.34,1.83a4,4,0,0,0-2.47-1.08c-.83,0-1.34.41-1.34,1v0c0,.66.4,1,2.2,1.72,2,.8,3.12,1.66,3.12,3.47v0c0,2.16-1.64,3.48-3.89,3.48A6.22,6.22,0,0,1,1147.12,427.42Z" transform="matrix(1, 0, 0, 1, -184.899368, -344.922089)" style="fill: rgb(236, 25, 68);"/>
  <path class="cls-2" d="M1159.05,419.6h-2.91v-2.23h8.22v2.23h-2.92V429h-2.39Z" transform="matrix(1, 0, 0, 1, -184.899368, -344.922089)" style="fill: rgb(236, 25, 68);"/>
  <path class="cls-2" d="M1165.12,423.29v-.19c0-3.49,2.18-5.93,5.25-5.93s5.24,2.43,5.24,5.89v.2c0,3.47-2.19,5.92-5.26,5.92S1165.12,426.76,1165.12,423.29Zm8,0v-.12c0-2.29-1.16-3.73-2.77-3.73s-2.76,1.42-2.76,3.71v.12c0,2.29,1.17,3.73,2.78,3.73S1173.12,425.53,1173.12,423.25Z" transform="matrix(1, 0, 0, 1, -184.899368, -344.922089)" style="fill: rgb(236, 25, 68);"/>
  <path class="cls-2" d="M1177.51,417.37h4.36a4.32,4.32,0,0,1,3.15,1.12,3.66,3.66,0,0,1,1,2.68v.07a3.49,3.49,0,0,1-2.15,3.43l2.47,4.31h-2.75l-2.14-3.81h-1.51V429h-2.4Zm4.18,5.68a1.67,1.67,0,0,0,1.88-1.75h0c0-1.16-.71-1.74-1.93-1.74h-1.73v3.5Z" transform="matrix(1, 0, 0, 1, -184.899368, -344.922089)" style="fill: rgb(236, 25, 68);"/>
  <path class="cls-2" d="M1191.18,417.31h2.29l4.15,11.67h-2.48l-.86-2.52h-4l-.84,2.52H1187Zm2.37,7-1.26-3.78-1.28,3.78Z" transform="matrix(1, 0, 0, 1, -184.899368, -344.922089)" style="fill: rgb(236, 25, 68);"/>
  <path class="cls-2" d="M1198.07,423.26v-.15c0-3.43,2.27-5.9,5.42-5.9a5.4,5.4,0,0,1,3.79,1.36l-1.42,1.87a3.29,3.29,0,0,0-2.4-1c-1.66,0-2.92,1.51-2.92,3.65v.13c0,2.39,1.31,3.73,3,3.73a3,3,0,0,0,1.72-.48v-2.06h-2.11v-2.09h4.4v5.38a6.78,6.78,0,0,1-4.13,1.44C1200.32,429.15,1198.07,426.89,1198.07,423.26Z" transform="matrix(1, 0, 0, 1, -184.899368, -344.922089)" style="fill: rgb(236, 25, 68);"/>
  <path class="cls-2" d="M1209.62,417.37h7.47v2.18H1212v2.5h4.48v2.17H1212v2.59h5.16V429h-7.54Z" transform="matrix(1, 0, 0, 1, -184.899368, -344.922089)" style="fill: rgb(236, 25, 68);"/>
  <path class="cls-2" d="M1137.67,414.71v1.89c0,2.09-5.09,3.79-11.37,3.79s-11.37-1.7-11.37-3.79v-1.89c0-2.09,5.1-3.79,11.37-3.79S1137.67,412.62,1137.67,414.71Zm0,5.06v2.52c0,2.08-5.09,3.78-11.37,3.78s-11.37-1.7-11.37-3.78v-2.52c2.45,1.72,6.92,2.52,11.37,2.52S1135.23,421.49,1137.67,419.77Zm0,5.68V428c0,2.09-5.09,3.79-11.37,3.79s-11.37-1.7-11.37-3.79v-2.52c2.45,1.72,6.92,2.52,11.37,2.52S1135.23,427.17,1137.67,425.45Zm0,5.69v2.51c0,2.09-5.09,3.79-11.37,3.79s-11.37-1.7-11.37-3.79v-2.51c2.45,1.71,6.92,2.51,11.37,2.51S1135.23,432.85,1137.67,431.14Z" transform="matrix(1, 0, 0, 1, -184.899368, -344.922089)" style="fill: rgb(236, 25, 68);"/>
  <rect class="cls-9" x="1094.65" y="446.21" width="1" height="73.47" transform="matrix(1, 0, 0, 1, -184.899368, -344.922089)" style="fill: rgb(255, 204, 216);"/>
  <rect class="cls-9" x="1239.43" y="446.21" width="1" height="73.47" transform="matrix(1, 0, 0, 1, -184.899368, -344.922089)" style="fill: rgb(255, 204, 216);"/>
  <path d="M999.45,505.74l1.12-1.37a6.65,6.65,0,0,0,4.71,2.08c2,0,3.34-1.22,3.34-2.82v0c0-1.39-.67-2.27-3.7-3.35-3.46-1.29-4.83-2.53-4.83-4.9v-.05c0-2.51,2.11-4.42,5-4.42a7.26,7.26,0,0,1,5,1.89l-1.08,1.38a6,6,0,0,0-4-1.62c-1.91,0-3.15,1.17-3.15,2.6v.05c0,1.46.74,2.3,3.89,3.44,3.39,1.27,4.63,2.63,4.63,4.86v.05c0,2.67-2.19,4.56-5.18,4.56A8.2,8.2,0,0,1,999.45,505.74Z" transform="matrix(1, 0, 0, 1, -184.899368, -344.922089)"/>
  <path d="M1012.15,495.41H1014l2.74,9.92,2.85-9.95H1021l2.84,9.95,2.77-9.92h1.75L1024.64,508h-1.55l-2.82-9.71-2.84,9.71h-1.55Z" transform="matrix(1, 0, 0, 1, -184.899368, -344.922089)"/>
  <path d="M1031.06,490.82H1033v2h-1.92Zm.1,4.59h1.72v12.45h-1.72Z" transform="matrix(1, 0, 0, 1, -184.899368, -344.922089)"/>
  <path d="M1037.15,496.94h-1.52v-1.51h1.52v-1.15a4.06,4.06,0,0,1,1-2.89,3.29,3.29,0,0,1,2.41-.89,5.59,5.59,0,0,1,1.65.24v1.53a5.06,5.06,0,0,0-1.41-.23c-1.24,0-1.89.76-1.89,2.34v1.05h3.25v1.51h-3.22v10.92h-1.75Z" transform="matrix(1, 0, 0, 1, -184.899368, -344.922089)"/>
  <path d="M1044.72,505v-8h-1.5v-1.53h1.5v-3.64h1.72v3.64h3.25v1.53h-3.25v7.74a1.59,1.59,0,0,0,1.79,1.8,3.61,3.61,0,0,0,1.46-.34v1.48a4.12,4.12,0,0,1-1.86.44A2.8,2.8,0,0,1,1044.72,505Z" transform="matrix(1, 0, 0, 1, -184.899368, -344.922089)"/>
  <rect class="cls-2" x="990.86" y="451.93" width="67.53" height="19.75" transform="matrix(1, 0, 0, 1, -184.899368, -344.922089)" style="fill: rgb(236, 25, 68);"/>
  <path class="cls-3" d="M1001,462v-.17c0-2.84,1.81-4.83,4.31-4.82s4.28,2,4.26,4.83V462c0,2.83-1.8,4.83-4.31,4.82S1001,464.83,1001,462Zm6.54,0v-.09c0-1.87-.93-3.06-2.25-3.06s-2.27,1.15-2.27,3V462c0,1.87,1,3.06,2.26,3.06S1007.56,463.86,1007.57,462Z" transform="matrix(1, 0, 0, 1, -184.899368, -344.922089)" style="fill: rgb(255, 255, 255);"/>
  <path class="cls-3" d="M1011.19,457.2h3.52a3.47,3.47,0,0,1,2.48.84,2.23,2.23,0,0,1,.63,1.62v0a2.34,2.34,0,0,0,.38,4.34v.07c0,1.71-1.37,2.6-3.43,2.59l-3.62,0Zm3.61,5.55h-1.72V465h1.76c.88,0,1.43-.37,1.44-1.11h0C1016.27,463.17,1015.77,462.75,1014.8,462.75Zm1.08-2.74c0-.69-.49-1.06-1.33-1.06h-1.46v2.14h1.37c.87,0,1.42-.35,1.43-1.07Z" transform="matrix(1, 0, 0, 1, -184.899368, -344.922089)" style="fill: rgb(255, 255, 255);"/>
  <path class="cls-3" d="M1018.8,465.64l1.2-1.38a1.75,1.75,0,0,0,1.33.75c.67,0,1.09-.42,1.09-1.39l0-6.38h2l0,6.47a3.18,3.18,0,0,1-.82,2.36,3.05,3.05,0,0,1-2.19.78A3.3,3.3,0,0,1,1018.8,465.64Z" transform="matrix(1, 0, 0, 1, -184.899368, -344.922089)" style="fill: rgb(255, 255, 255);"/>
  <path class="cls-3" d="M1026.22,457.26l6.11,0v1.78l-4.16,0v2l3.65,0v1.77h-3.66V465h4.21v1.78l-6.17,0Z" transform="matrix(1, 0, 0, 1, -184.899368, -344.922089)" style="fill: rgb(255, 255, 255);"/>
  <path class="cls-3" d="M1033.53,462.1V462c0-2.87,1.81-4.82,4.32-4.81a4,4,0,0,1,3,1.28l-1.18,1.51a2.66,2.66,0,0,0-1.94-1c-1.27,0-2.21,1.17-2.22,3v0c0,1.88,1,3,2.23,3.05a2.66,2.66,0,0,0,2-1l1.17,1.41a4.14,4.14,0,0,1-3.21,1.41C1035.19,466.93,1033.52,465,1033.53,462.1Z" transform="matrix(1, 0, 0, 1, -184.899368, -344.922089)" style="fill: rgb(255, 255, 255);"/>
  <path class="cls-3" d="M1044.09,459.15h-2.38v-1.82l6.72,0v1.82H1046l0,7.68h-2Z" transform="matrix(1, 0, 0, 1, -184.899368, -344.922089)" style="fill: rgb(255, 255, 255);"/>
  <path d="M1134.12,499.59v-.14c0-5.07,3.16-8.56,7.34-8.56a6.93,6.93,0,0,1,5.08,2.05l-1.1,1.37a5.6,5.6,0,0,0-4-1.75c-3.08,0-5.44,2.82-5.44,6.86v.1c0,4.11,2.36,6.91,5.44,6.91a5.65,5.65,0,0,0,4.13-1.87l1.08,1.25a7.17,7.17,0,0,1-5.3,2.29C1137.21,508.1,1134.12,504.68,1134.12,499.59Z" transform="matrix(1, 0, 0, 1, -184.899368, -344.922089)"/>
  <path d="M1149.26,490.82h1.91v2h-1.91Zm.1,4.59h1.72v12.45h-1.72Z" transform="matrix(1, 0, 0, 1, -184.899368, -344.922089)"/>
  <path d="M1154.76,495.41h1.71v2a4,4,0,0,1,3.68-2.27c2.53,0,4.06,1.74,4.06,4.54v8.15h-1.72v-7.67c0-2.23-1-3.47-2.86-3.47s-3.16,1.44-3.16,3.56v7.58h-1.71Z" transform="matrix(1, 0, 0, 1, -184.899368, -344.922089)"/>
  <path d="M1167,501.77v-.24c0-4.14,2.43-6.36,5-6.36a4.59,4.59,0,0,1,4,2.56V490.6h1.72v17.26H1176v-2.39a4.65,4.65,0,0,1-4,2.63C1169.39,508.1,1167,505.93,1167,501.77Zm9.07,0v-.21c0-2.94-1.79-4.81-3.75-4.81s-3.56,1.75-3.56,4.81v.19c0,3,1.63,4.83,3.56,4.83S1176,504.68,1176,501.74Z" transform="matrix(1, 0, 0, 1, -184.899368, -344.922089)"/>
  <path d="M1180.54,501.74v-.12c0-3.8,2.22-6.45,5.14-6.45,3.13,0,5,2.68,5,6.43,0,.17,0,.5,0,.72h-8.36c.19,2.75,1.88,4.28,3.84,4.28a4.4,4.4,0,0,0,3.23-1.44l1,1.1a5.61,5.61,0,0,1-4.27,1.87C1183,508.13,1180.54,505.69,1180.54,501.74ZM1189,501c-.12-2.37-1.24-4.31-3.27-4.31-1.84,0-3.23,1.7-3.39,4.31Z" transform="matrix(1, 0, 0, 1, -184.899368, -344.922089)"/>
  <path d="M1193.44,495.41h1.72v2.75a4.38,4.38,0,0,1,4.27-2.92v1.86h-.09c-2.32,0-4.18,1.63-4.18,4.83v5.93h-1.72Z" transform="matrix(1, 0, 0, 1, -184.899368, -344.922089)"/>
  <rect class="cls-2" x="1132.64" y="451.93" width="67.53" height="19.75" transform="matrix(1, 0, 0, 1, -184.899368, -344.922089)" style="fill: rgb(236, 25, 68);"/>
  <path class="cls-3" d="M1146.42,457.17h3.52a3.52,3.52,0,0,1,2.48.84,2.21,2.21,0,0,1,.63,1.62v0a2.23,2.23,0,0,1-1.3,2.07,2.26,2.26,0,0,1,1.69,2.27v.07c0,1.71-1.38,2.6-3.44,2.59h-3.62Zm3.61,5.55h-1.72v2.23h1.76c.88,0,1.44-.37,1.44-1.1v0C1151.5,463.15,1151,462.72,1150,462.72Zm1.08-2.74c0-.69-.48-1.06-1.32-1.06h-1.47v2.14h1.37c.87,0,1.43-.34,1.43-1.06Z" transform="matrix(1, 0, 0, 1, -184.899368, -344.922089)" style="fill: rgb(255, 255, 255);"/>
  <path class="cls-3" d="M1154.89,457.21h2l0,7.7h3.83v1.8l-5.8,0Z" transform="matrix(1, 0, 0, 1, -184.899368, -344.922089)" style="fill: rgb(255, 255, 255);"/>
  <path class="cls-3" d="M1161.16,462.07v-.16c0-2.85,1.81-4.83,4.32-4.82s4.27,2,4.26,4.83v.16c0,2.84-1.81,4.84-4.32,4.83S1161.15,464.91,1161.16,462.07Zm6.55,0V462c0-1.88-.94-3.06-2.25-3.07s-2.27,1.16-2.28,3v.1c0,1.87,1,3.05,2.27,3.06S1167.7,463.93,1167.71,462.06Z" transform="matrix(1, 0, 0, 1, -184.899368, -344.922089)" style="fill: rgb(255, 255, 255);"/>
  <path class="cls-3" d="M1171,462.09V462c0-2.88,1.81-4.83,4.32-4.82a4,4,0,0,1,3,1.28l-1.18,1.51a2.65,2.65,0,0,0-1.94-.95c-1.27,0-2.21,1.17-2.22,3v0c0,1.89,1,3,2.23,3a2.7,2.7,0,0,0,2-1l1.17,1.4a4.07,4.07,0,0,1-3.21,1.41C1172.62,466.91,1171,465,1171,462.09Z" transform="matrix(1, 0, 0, 1, -184.899368, -344.922089)" style="fill: rgb(255, 255, 255);"/>
  <path class="cls-3" d="M1179.71,457.31h2l0,4.09,3.12-4.08h2.32l-3.2,4,3.29,5.48h-2.3l-2.35-3.92-.89,1.11v2.79h-2Z" transform="matrix(1, 0, 0, 1, -184.899368, -344.922089)" style="fill: rgb(255, 255, 255);"/>
  <path d="M1292.27,491.13h1.86l5.09,9,5.11-9h1.86v16.73h-1.79V494.38l-5.16,8.94h-.07l-5.16-8.94v13.48h-1.74Z" transform="matrix(1, 0, 0, 1, -184.899368, -344.922089)"/>
  <path d="M1309.15,504.25v-.09c0-2.56,1.84-4,4.58-4a10.38,10.38,0,0,1,3.2.5v-.74a2.83,2.83,0,0,0-3.17-3.08,6.85,6.85,0,0,0-3.18.83l-.55-1.41a8.61,8.61,0,0,1,3.92-1,4.74,4.74,0,0,1,3.48,1.24,4.63,4.63,0,0,1,1.2,3.37v8h-1.7v-1.81a4.28,4.28,0,0,1-3.79,2.08A3.81,3.81,0,0,1,1309.15,504.25Zm7.81-.71V502a8.94,8.94,0,0,0-3-.5c-2,0-3.08,1-3.08,2.61v.07a2.49,2.49,0,0,0,2.65,2.53A3.23,3.23,0,0,0,1317,503.54Z" transform="matrix(1, 0, 0, 1, -184.899368, -344.922089)"/>
  <path d="M1322,495.41h1.72v2a4,4,0,0,1,3.68-2.27c2.53,0,4.06,1.74,4.06,4.54v8.15h-1.72v-7.67c0-2.23-1-3.47-2.87-3.47s-3.15,1.44-3.15,3.56v7.58H1322Z" transform="matrix(1, 0, 0, 1, -184.899368, -344.922089)"/>
  <path d="M1334.84,490.82h1.91v2h-1.91Zm.1,4.59h1.72v12.45h-1.72Z" transform="matrix(1, 0, 0, 1, -184.899368, -344.922089)"/>
  <path d="M1340.48,490.6h1.72v17.26h-1.72Z" transform="matrix(1, 0, 0, 1, -184.899368, -344.922089)"/>
  <path d="M1345.06,504.25v-.09c0-2.56,1.84-4,4.59-4a10.48,10.48,0,0,1,3.2.5v-.74c0-2-1.17-3.08-3.18-3.08a6.85,6.85,0,0,0-3.18.83l-.55-1.41a8.61,8.61,0,0,1,3.92-1,4.74,4.74,0,0,1,3.49,1.24,4.66,4.66,0,0,1,1.19,3.37v8h-1.69v-1.81a4.3,4.3,0,0,1-3.8,2.08A3.81,3.81,0,0,1,1345.06,504.25Zm7.81-.71V502a8.94,8.94,0,0,0-3-.5c-2,0-3.08,1-3.08,2.61v.07a2.49,2.49,0,0,0,2.65,2.53A3.23,3.23,0,0,0,1352.87,503.54Z" transform="matrix(1, 0, 0, 1, -184.899368, -344.922089)"/>
  <rect class="cls-2" x="1289.42" y="451.93" width="67.53" height="19.75" transform="matrix(1, 0, 0, 1, -184.899368, -344.922089)" style="fill: rgb(236, 25, 68);"/>
  <path class="cls-3" d="M1311,457.2l6.11,0V459l-4.15,0v2.13l3.64,0V463h-3.64l0,3.76h-2Z" transform="matrix(1, 0, 0, 1, -184.899368, -344.922089)" style="fill: rgb(255, 255, 255);"/>
  <path class="cls-3" d="M1318.55,457.23h2l0,9.5h-2Z" transform="matrix(1, 0, 0, 1, -184.899368, -344.922089)" style="fill: rgb(255, 255, 255);"/>
  <path class="cls-3" d="M1322.48,457.25h2l0,7.69h3.83v1.81l-5.8,0Z" transform="matrix(1, 0, 0, 1, -184.899368, -344.922089)" style="fill: rgb(255, 255, 255);"/>
  <path class="cls-3" d="M1329.59,457.28l6.12,0v1.78l-4.16,0v2.05l3.66,0v1.77h-3.66V465l4.22,0v1.78l-6.17,0Z" transform="matrix(1, 0, 0, 1, -184.899368, -344.922089)" style="fill: rgb(255, 255, 255);"/>
</svg>