<?xml version="1.0" encoding="utf-8"?>
<svg viewBox="-426.165 753.83 134.17 12.573" xmlns="http://www.w3.org/2000/svg">
  <path d="M25.34,1044.92h1.42l3.56,10.31,3.59-10.31h1.36l-4.36,12.2H29.72Z" transform="matrix(1, 0, 0, 1, -451.504852, -290.860016)"/>
  <path d="M35.63,1052.6v-.09c0-2.75,1.61-4.67,3.72-4.67,2.27,0,3.62,1.94,3.62,4.66a4.88,4.88,0,0,1,0,.52H36.9c.13,2,1.36,3.09,2.78,3.09a3.19,3.19,0,0,0,2.34-1l.71.79a4.1,4.1,0,0,1-3.1,1.35C37.43,1057.22,35.63,1055.46,35.63,1052.6Zm6.09-.55c-.08-1.72-.9-3.12-2.37-3.12s-2.33,1.23-2.45,3.12Z" transform="matrix(1, 0, 0, 1, -451.504852, -290.860016)"/>
  <path d="M45,1048h1.25v2a3.18,3.18,0,0,1,3.09-2.11v1.35h-.06c-1.68,0-3,1.18-3,3.5V1057H45Z" transform="matrix(1, 0, 0, 1, -451.504852, -290.860016)"/>
  <path d="M50.19,1055.92l.66-.91a4.17,4.17,0,0,0,2.63,1.09c1,0,1.68-.56,1.68-1.41h0c0-.8-.74-1.21-1.95-1.72-1.44-.62-2.58-1.19-2.58-2.59v0a2.53,2.53,0,0,1,2.8-2.45,4.86,4.86,0,0,1,2.84,1l-.61,1a4,4,0,0,0-2.26-.85c-1,0-1.56.55-1.56,1.26v0c0,.76.78,1.14,2,1.66,1.48.66,2.52,1.28,2.52,2.65v0a2.66,2.66,0,0,1-2.92,2.6A5.08,5.08,0,0,1,50.19,1055.92Z" transform="matrix(1, 0, 0, 1, -451.504852, -290.860016)"/>
  <path d="M58.45,1044.69h1.38v1.47H58.45Zm.06,3.33h1.25v9H58.51Z" transform="matrix(1, 0, 0, 1, -451.504852, -290.860016)"/>
  <path d="M61.94,1052.6v-.12c0-2.63,1.69-4.64,4-4.64s4,2,4,4.62v.11c0,2.63-1.7,4.65-4,4.65S61.94,1055.23,61.94,1052.6Zm6.75,0v-.08c0-2-1.21-3.53-2.75-3.53s-2.72,1.5-2.72,3.51v.09c0,2,1.19,3.53,2.73,3.53S68.69,1054.57,68.69,1052.58Z" transform="matrix(1, 0, 0, 1, -451.504852, -290.860016)"/>
  <path d="M72,1048h1.25v1.47a2.91,2.91,0,0,1,2.66-1.65c1.84,0,2.94,1.27,2.94,3.29v5.9H77.63v-5.55c0-1.61-.76-2.51-2.08-2.51a2.34,2.34,0,0,0-2.28,2.57V1057H72Z" transform="matrix(1, 0, 0, 1, -451.504852, -290.860016)"/>
  <path d="M85.24,1056l3.91-4.36c1.45-1.56,2-2.44,2-3.57a2.08,2.08,0,0,0-2.18-2.16,3.27,3.27,0,0,0-2.71,1.73l-.9-.76a4.21,4.21,0,0,1,3.73-2.16A3.2,3.2,0,0,1,92.5,1048v0c0,1.56-.74,2.58-2.44,4.36l-3,3.43h5.55V1057H85.24Z" transform="matrix(1, 0, 0, 1, -451.504852, -290.860016)"/>
  <path d="M94.44,1051.06v-.14c0-3.63,1.71-6.19,4.39-6.19s4.38,2.52,4.38,6.16v.14c0,3.63-1.71,6.19-4.4,6.19S94.44,1054.69,94.44,1051.06Zm7.44,0v-.14c0-2.9-1.23-5-3.07-5s-3,2.08-3,5v.14c0,2.9,1.21,5,3.06,5S101.88,1054,101.88,1051.06Z" transform="matrix(1, 0, 0, 1, -451.504852, -290.860016)"/>
  <path d="M104.69,1056l3.91-4.36c1.46-1.56,2-2.44,2-3.57a2.08,2.08,0,0,0-2.18-2.16,3.29,3.29,0,0,0-2.72,1.73l-.9-.76a4.22,4.22,0,0,1,3.74-2.16A3.2,3.2,0,0,1,112,1048v0c0,1.56-.74,2.58-2.44,4.36l-3,3.43h5.56V1057h-7.36Z" transform="matrix(1, 0, 0, 1, -451.504852, -290.860016)"/>
  <path d="M115.61,1046.23l-2,.69-.23-1.12,2.51-1h1V1057h-1.28Z" transform="matrix(1, 0, 0, 1, -451.504852, -290.860016)"/>
  <path d="M119.6,1055.25h1.56V1057H119.6Z" transform="matrix(1, 0, 0, 1, -451.504852, -290.860016)"/>
  <path d="M123,1051.06v-.14c0-3.63,1.71-6.19,4.39-6.19s4.38,2.52,4.38,6.16v.14c0,3.63-1.71,6.19-4.4,6.19S123,1054.69,123,1051.06Zm7.44,0v-.14c0-2.9-1.23-5-3.07-5s-3,2.08-3,5v.14c0,2.9,1.21,5,3.06,5S130.4,1054,130.4,1051.06Z" transform="matrix(1, 0, 0, 1, -451.504852, -290.860016)"/>
  <path d="M133.21,1056l3.91-4.36c1.46-1.56,2-2.44,2-3.57a2.08,2.08,0,0,0-2.18-2.16,3.29,3.29,0,0,0-2.72,1.73l-.9-.76a4.22,4.22,0,0,1,3.74-2.16,3.2,3.2,0,0,1,3.41,3.23v0c0,1.56-.74,2.58-2.44,4.36l-3,3.43h5.56V1057h-7.36Z" transform="matrix(1, 0, 0, 1, -451.504852, -290.860016)"/>
  <path d="M142.62,1055.25h1.56V1057h-1.56Z" transform="matrix(1, 0, 0, 1, -451.504852, -290.860016)"/>
  <path d="M146,1051.06v-.14c0-3.63,1.71-6.19,4.39-6.19s4.38,2.52,4.38,6.16v.14c0,3.63-1.71,6.19-4.39,6.19S146,1054.69,146,1051.06Zm7.44,0v-.14c0-2.9-1.23-5-3.06-5s-3.05,2.08-3.05,5v.14c0,2.9,1.21,5,3.06,5S153.42,1054,153.42,1051.06Z" transform="matrix(1, 0, 0, 1, -451.504852, -290.860016)"/>
  <path d="M158.22,1046.23l-2,.69-.22-1.12,2.51-1h1V1057h-1.28Z" transform="matrix(1, 0, 0, 1, -451.504852, -290.860016)"/>
</svg>