<?xml version="1.0" encoding="utf-8"?>
<svg viewBox="1181.495 722.14 286.88 68.72" xmlns="http://www.w3.org/2000/svg">
  <rect class="cls-2" x="1633" y="1013" width="286.88" height="68.72" style="fill: rgb(236, 25, 68);" transform="matrix(1, 0, 0, 1, -451.504852, -290.860016)"/>
  <path class="cls-3" d="M1718.28,1031.94h-25.63a2.94,2.94,0,0,0-2.94,2.94v6.89h7.11v-1.12a1.58,1.58,0,0,1,1.57-1.56h14.11a1.58,1.58,0,0,1,1.57,1.56v1.12h7.11v-6.89A2.94,2.94,0,0,0,1718.28,1031.94Z" style="fill: rgb(255, 255, 255);" transform="matrix(1, 0, 0, 1, -451.504852, -290.860016)"/>
  <path class="cls-3" d="M1714.07,1054.06a1.58,1.58,0,0,1-1.57,1.57h-14.11a1.58,1.58,0,0,1-1.57-1.57V1053h-7.11v6.89a2.94,2.94,0,0,0,2.94,2.94h25.63a2.94,2.94,0,0,0,2.94-2.94V1053h-7.15Z" style="fill: rgb(255, 255, 255);" transform="matrix(1, 0, 0, 1, -451.504852, -290.860016)"/>
  <rect class="cls-3" x="1689.71" y="1043.82" width="7.11" height="7.11" style="fill: rgb(255, 255, 255);" transform="matrix(1, 0, 0, 1, -451.504852, -290.860016)"/>
  <rect class="cls-3" x="1714.07" y="1043.82" width="7.11" height="7.11" style="fill: rgb(255, 255, 255);" transform="matrix(1, 0, 0, 1, -451.504852, -290.860016)"/>
  <path class="cls-3" d="M1863.17,1053.32a2,2,0,1,0-2,2A2,2,0,0,0,1863.17,1053.32Zm-2,1.53a1.53,1.53,0,0,1,0-3.06,1.53,1.53,0,0,1,0,3.06Z" style="fill: rgb(255, 255, 255);" transform="matrix(1, 0, 0, 1, -451.504852, -290.860016)"/>
  <path class="cls-3" d="M1861.94,1053h0a.66.66,0,0,0-.15-.44.69.69,0,0,0-.52-.19h-.74v2h.41v-.63h.26l.37.63h.45l-.41-.74A.67.67,0,0,0,1861.94,1053Zm-.41,0c0,.19-.11.3-.33.3h-.3v-.59h.3a.3.3,0,0,1,.33.29Z" style="fill: rgb(255, 255, 255);" transform="matrix(1, 0, 0, 1, -451.504852, -290.860016)"/>
  <path class="cls-3" d="M1743,1047.51v-.26c0-4.73-3.09-8.16-7.34-8.16s-7.37,3.5-7.37,8.19v.27c0,4.73,3.09,8.15,7.34,8.15S1743,1052.2,1743,1047.51Zm-11.29-.08v-.18c0-3,1.53-5.18,3.92-5.18s4,2.23,4,5.21v.19c0,3-1.53,5.22-3.91,5.22S1731.72,1050.41,1731.72,1047.43Z" style="fill: rgb(255, 255, 255);" transform="matrix(1, 0, 0, 1, -451.504852, -290.860016)"/>
  <path class="cls-3" d="M1759.25,1047.55v-.41c0-5.41-3-8.09-6.22-8.09a5.35,5.35,0,0,0-4.66,2.87v-2.57H1745v20.52h3.39v-7a5.46,5.46,0,0,0,4.66,2.72C1756.27,1055.63,1759.25,1052.91,1759.25,1047.55Zm-11,0v-.3c0-3.13,1.75-5.14,3.8-5.14s3.72,2,3.72,5.14v.26c0,3.2-1.64,5.14-3.72,5.14S1748.3,1050.64,1748.3,1047.51Z" style="fill: rgb(255, 255, 255);" transform="matrix(1, 0, 0, 1, -451.504852, -290.860016)"/>
  <path class="cls-3" d="M1774,1053.21l-1.79-2.13a4.94,4.94,0,0,1-3.68,1.68c-2.09,0-3.73-1.45-4-4.13h10c0-.49,0-1,0-1.2,0-4.8-2.31-8.41-6.63-8.41-3.91,0-6.82,3.42-6.82,8.23v.22c0,5,3.21,8.16,7.3,8.16A7.24,7.24,0,0,0,1774,1053.21Zm-6.11-11.29c2,0,3.13,1.83,3.32,4.36h-6.74C1764.73,1043.56,1766,1041.92,1767.89,1041.92Z" style="fill: rgb(255, 255, 255);" transform="matrix(1, 0, 0, 1, -451.504852, -290.860016)"/>
  <path class="cls-3" d="M1784.54,1039.05a5,5,0,0,0-4.36,2.65v-2.35h-3.39v16h3.39v-9.68c0-2.2,1.23-3.54,3-3.54s2.87,1.23,2.87,3.46v9.72h3.39V1044.6C1789.46,1041.21,1787.63,1039.05,1784.54,1039.05Z" style="fill: rgb(255, 255, 255);" transform="matrix(1, 0, 0, 1, -451.504852, -290.860016)"/>
  <path class="cls-3" d="M1803.2,1050.79h0c0-2.54-1.86-3.69-4.35-4.81-1.87-.86-3.13-1.38-3.13-2.46v-.07c0-.86.74-1.57,2-1.57a7.09,7.09,0,0,1,3.8,1.42l1.45-2.5a9.07,9.07,0,0,0-5.18-1.71c-3,0-5.29,1.83-5.29,4.66v.07c0,2.61,2,3.73,4.36,4.73,1.9.82,3.13,1.34,3.13,2.46v0c0,1-.82,1.75-2.24,1.75a7.37,7.37,0,0,1-4.39-1.87l-1.6,2.46a9.4,9.4,0,0,0,5.92,2.24C1800.82,1055.63,1803.2,1053.91,1803.2,1050.79Z" style="fill: rgb(255, 255, 255);" transform="matrix(1, 0, 0, 1, -451.504852, -290.860016)"/>
  <path class="cls-3" d="M1813.74,1054.88v-2.79a3.83,3.83,0,0,1-1.82.45,1.53,1.53,0,0,1-1.71-1.75v-8.5h3.57v-2.94h-3.57V1035h-3.39v4.32h-1.75l.55,2.94h1.2v9.17c0,3.09,1.78,4.09,4.13,4.09A5.49,5.49,0,0,0,1813.74,1054.88Z" style="fill: rgb(255, 255, 255);" transform="matrix(1, 0, 0, 1, -451.504852, -290.860016)"/>
  <path class="cls-3" d="M1826.78,1040.8a6.41,6.41,0,0,0-4.69-1.64,11.7,11.7,0,0,0-5.29,1.27l1,2.72a9,9,0,0,1,3.87-1c2.16,0,3.43,1.12,3.43,3.24v.67a10.63,10.63,0,0,0-3.69-.63c-3.39,0-5.66,1.68-5.66,5.14v.15a4.67,4.67,0,0,0,4.88,4.88,5,5,0,0,0,4.43-2.27v2h3.35v-9.91A6.18,6.18,0,0,0,1826.78,1040.8Zm-1.68,9.17a3.16,3.16,0,0,1-3.46,3.09,2.45,2.45,0,0,1-2.61-2.53v-.08c0-1.68,1.16-2.68,3.09-2.68a7.45,7.45,0,0,1,3,.56V1050Z" style="fill: rgb(255, 255, 255);" transform="matrix(1, 0, 0, 1, -451.504852, -290.860016)"/>
  <path class="cls-3" d="M1842.87,1053.24l-1.82-2.27a4.47,4.47,0,0,1-3.24,1.64c-2.31,0-4-2.08-4-5.18v-.15c0-3,1.64-5.14,3.87-5.14a4.26,4.26,0,0,1,3.24,1.61l1.9-2.5a6.72,6.72,0,0,0-5.14-2.16c-4.17,0-7.3,3.43-7.3,8.19v.3c0,4.77,3,8.12,7.19,8.12A6.77,6.77,0,0,0,1842.87,1053.24Z" style="fill: rgb(255, 255, 255);" transform="matrix(1, 0, 0, 1, -451.504852, -290.860016)"/>
  <polygon class="cls-3" points="1853.3 1047.02 1850.92 1049.59 1854.12 1055.33 1858.07 1055.33 1853.3 1047.02" style="fill: rgb(255, 255, 255);" transform="matrix(1, 0, 0, 1, -451.504852, -290.860016)"/>
  <polygon class="cls-3" points="1853.86 1039.35 1848.42 1046.39 1848.42 1033.58 1844.99 1033.58 1844.99 1055.33 1848.42 1055.33 1848.42 1050.71 1857.92 1039.35 1853.86 1039.35" style="fill: rgb(255, 255, 255);" transform="matrix(1, 0, 0, 1, -451.504852, -290.860016)"/>
</svg>