<?xml version="1.0" encoding="utf-8"?>
<svg viewBox="314.911 215.808 481.99 128.03" xmlns="http://www.w3.org/2000/svg">
  <rect class="cls-3" x="500.81" y="576.47" width="480" height="111.29" rx="4.29" transform="matrix(1, 0, 0, 1, -184.899368, -344.922089)" style="fill: rgb(255, 255, 255);"/>
  <path class="cls-2" d="M976.51,688.76H505.1a5.29,5.29,0,0,1-5.29-5.29V580.76a5.29,5.29,0,0,1,5.29-5.29H976.51a5.29,5.29,0,0,1,5.29,5.29V683.47A5.29,5.29,0,0,1,976.51,688.76ZM505.1,577.47a3.29,3.29,0,0,0-3.29,3.29V683.47a3.29,3.29,0,0,0,3.29,3.29H976.51a3.29,3.29,0,0,0,3.29-3.29V580.76a3.29,3.29,0,0,0-3.29-3.29Z" transform="matrix(1, 0, 0, 1, -184.899368, -344.922089)" style="fill: rgb(236, 25, 68);"/>
  <rect class="cls-3" x="652.99" y="563.65" width="175.62" height="27.15" transform="matrix(1, 0, 0, 1, -184.899368, -344.922089)" style="fill: rgb(255, 255, 255);"/>
  <path class="cls-2" d="M709.71,570.37h2.2l4.44,6.77v-6.77h2.36V582h-2.06l-4.59-7v7h-2.35Z" transform="matrix(1, 0, 0, 1, -184.899368, -344.922089)" style="fill: rgb(236, 25, 68);"/>
  <path class="cls-2" d="M721,570.37h7.48v2.18h-5.09v2.5h4.48v2.17h-4.48v2.59h5.15V582H721Z" transform="matrix(1, 0, 0, 1, -184.899368, -344.922089)" style="fill: rgb(236, 25, 68);"/>
  <path class="cls-2" d="M732.67,572.6h-2.91v-2.23H738v2.23h-2.92V582h-2.39Z" transform="matrix(1, 0, 0, 1, -184.899368, -344.922089)" style="fill: rgb(236, 25, 68);"/>
  <path class="cls-2" d="M738.75,570.37h2.54l2,7.65,2.12-7.68h2.09l2.14,7.68,1.94-7.65H754l-3.31,11.68h-2.2l-2.12-7.38-2.13,7.38h-2.18Z" transform="matrix(1, 0, 0, 1, -184.899368, -344.922089)" style="fill: rgb(236, 25, 68);"/>
  <path class="cls-2" d="M754.61,576.29v-.19c0-3.49,2.19-5.93,5.25-5.93s5.24,2.43,5.24,5.89v.2c0,3.47-2.19,5.92-5.26,5.92S754.61,579.76,754.61,576.29Zm8,0v-.12c0-2.29-1.16-3.73-2.77-3.73s-2.76,1.42-2.76,3.71v.12c0,2.29,1.17,3.73,2.78,3.73S762.61,578.53,762.61,576.25Z" transform="matrix(1, 0, 0, 1, -184.899368, -344.922089)" style="fill: rgb(236, 25, 68);"/>
  <path class="cls-2" d="M767,570.37h4.36a4.32,4.32,0,0,1,3.15,1.12,3.67,3.67,0,0,1,1,2.68v.07a3.49,3.49,0,0,1-2.16,3.43L775.8,582h-2.75l-2.14-3.81H769.4V582H767Zm4.18,5.68a1.68,1.68,0,0,0,1.89-1.75h0c0-1.16-.72-1.74-1.94-1.74H769.4v3.5Z" transform="matrix(1, 0, 0, 1, -184.899368, -344.922089)" style="fill: rgb(236, 25, 68);"/>
  <path class="cls-2" d="M777.39,570.37h2.4v5l3.8-5h2.83l-3.89,4.93,4.06,6.68h-2.82l-2.9-4.77-1.08,1.36V582h-2.4Z" transform="matrix(1, 0, 0, 1, -184.899368, -344.922089)" style="fill: rgb(236, 25, 68);"/>
  <path class="cls-2" d="M788,570.37h2.4V582H788Z" transform="matrix(1, 0, 0, 1, -184.899368, -344.922089)" style="fill: rgb(236, 25, 68);"/>
  <path class="cls-2" d="M792.77,570.37H795l4.44,6.77v-6.77h2.35V582h-2l-4.59-7v7h-2.35Z" transform="matrix(1, 0, 0, 1, -184.899368, -344.922089)" style="fill: rgb(236, 25, 68);"/>
  <path class="cls-2" d="M803.67,576.26v-.15c0-3.43,2.27-5.9,5.42-5.9a5.4,5.4,0,0,1,3.79,1.36l-1.42,1.87a3.33,3.33,0,0,0-2.41-1c-1.65,0-2.91,1.51-2.91,3.65v.13c0,2.39,1.31,3.73,3,3.73a3,3,0,0,0,1.73-.48v-2.06h-2.11v-2.09h4.39v5.38a6.75,6.75,0,0,1-4.12,1.44C805.92,582.15,803.67,579.89,803.67,576.26Z" transform="matrix(1, 0, 0, 1, -184.899368, -344.922089)" style="fill: rgb(236, 25, 68);"/>
  <path class="cls-2" d="M681.83,560.84a3.44,3.44,0,0,0-.69,6.81v5a4.3,4.3,0,0,0-1.94.81l-3.35-3.35a3.15,3.15,0,1,0-1,1l3.36,3.36a4.31,4.31,0,0,0-.82,2h-4.95a3.45,3.45,0,1,0,0,1.37h4.95a4.34,4.34,0,0,0,.81,1.95L674.87,583a3.15,3.15,0,1,0,1,1l3.36-3.36a4.32,4.32,0,0,0,1.94.82v4.95a3.45,3.45,0,1,0,1.38,0v-4.95a4.35,4.35,0,0,0,2-.82l3.36,3.36a3.05,3.05,0,1,0,1-1l-3.35-3.35a4.45,4.45,0,0,0,.81-1.95h5a3.45,3.45,0,1,0,0-1.37h-5a4.42,4.42,0,0,0-.82-2L688.8,571a3.09,3.09,0,1,0-1-1l-3.35,3.35a4.34,4.34,0,0,0-2-.81v-5a3.44,3.44,0,0,0-.69-6.81Z" transform="matrix(1, 0, 0, 1, -184.899368, -344.922089)" style="fill: rgb(236, 25, 68);"/>
  <rect class="cls-9" x="646.29" y="599.21" width="1" height="73.47" transform="matrix(1, 0, 0, 1, -184.899368, -344.922089)" style="fill: rgb(255, 204, 216);"/>
  <rect class="cls-9" x="808.49" y="599.21" width="1" height="73.47" transform="matrix(1, 0, 0, 1, -184.899368, -344.922089)" style="fill: rgb(255, 204, 216);"/>
  <path d="M555.23,643.17h1.7l8.74,13.18V643.17h1.76v16.74h-1.5l-9-13.49v13.49h-1.74Z" transform="matrix(1, 0, 0, 1, -184.899368, -344.922089)"/>
  <path d="M570.54,653.79v-.12c0-3.8,2.22-6.46,5.13-6.46,3.13,0,5,2.68,5,6.43,0,.17,0,.51,0,.72h-8.36c.19,2.75,1.89,4.28,3.84,4.28a4.39,4.39,0,0,0,3.23-1.43l1,1.1a5.66,5.66,0,0,1-4.28,1.86C573,660.17,570.54,657.73,570.54,653.79Zm8.4-.77c-.12-2.36-1.24-4.3-3.27-4.3-1.84,0-3.22,1.7-3.39,4.3Z" transform="matrix(1, 0, 0, 1, -184.899368, -344.922089)"/>
  <path d="M583.26,655.63v-8.18H585v7.68c0,2.22,1,3.46,2.87,3.46s3.15-1.41,3.15-3.54v-7.6h1.72v12.46H591v-2a4,4,0,0,1-3.68,2.27C584.79,660.15,583.26,658.4,583.26,655.63Z" transform="matrix(1, 0, 0, 1, -184.899368, -344.922089)"/>
  <path d="M596.8,657v-8h-1.5v-1.53h1.5v-3.63h1.72v3.63h3.25V649h-3.25v7.75a1.58,1.58,0,0,0,1.79,1.79,3.76,3.76,0,0,0,1.46-.33v1.48a4.25,4.25,0,0,1-1.86.43A2.79,2.79,0,0,1,596.8,657Z" transform="matrix(1, 0, 0, 1, -184.899368, -344.922089)"/>
  <path d="M604.54,647.45h1.72v2.75a4.4,4.4,0,0,1,4.27-2.92v1.87h-.09c-2.32,0-4.18,1.62-4.18,4.83v5.93h-1.72Z" transform="matrix(1, 0, 0, 1, -184.899368, -344.922089)"/>
  <path d="M611.75,653.79v-.17c0-3.63,2.34-6.41,5.54-6.41s5.52,2.75,5.52,6.39v.14c0,3.63-2.34,6.43-5.54,6.43S611.75,657.42,611.75,653.79Zm9.31,0v-.12c0-2.79-1.67-4.87-3.79-4.87s-3.75,2.08-3.75,4.85v.12c0,2.8,1.64,4.88,3.77,4.88S621.06,656.51,621.06,653.76Z" transform="matrix(1, 0, 0, 1, -184.899368, -344.922089)"/>
  <path d="M625.67,647.45h1.72v2a4,4,0,0,1,3.68-2.27c2.53,0,4.06,1.75,4.06,4.54v8.16h-1.72v-7.68c0-2.22-1-3.46-2.87-3.46s-3.15,1.43-3.15,3.56v7.58h-1.72Z" transform="matrix(1, 0, 0, 1, -184.899368, -344.922089)"/>
  <rect class="cls-2" x="561.21" y="604.93" width="67.53" height="19.75" transform="matrix(1, 0, 0, 1, -184.899368, -344.922089)" style="fill: rgb(236, 25, 68);"/>
  <path class="cls-3" d="M582.27,618.42l1.18-1.45a3.65,3.65,0,0,0,2.35,1.09c.76,0,1.22-.38,1.22-.94h0c0-.47-.27-.77-1.62-1.29-1.68-.66-2.72-1.3-2.71-2.93v0a2.83,2.83,0,0,1,3.11-2.77,4.52,4.52,0,0,1,3.06,1.18l-1.1,1.49a3.33,3.33,0,0,0-2-.89c-.67,0-1.1.33-1.1.82v0c0,.54.32.8,1.8,1.41,1.65.66,2.54,1.37,2.53,2.85v0c0,1.76-1.35,2.84-3.19,2.83A5.08,5.08,0,0,1,582.27,618.42Z" transform="matrix(1, 0, 0, 1, -184.899368, -344.922089)" style="fill: rgb(255, 255, 255);"/>
  <path class="cls-3" d="M590.45,610.24h3.07A4.34,4.34,0,0,1,598,615v.12a4.35,4.35,0,0,1-4.54,4.67h-3.06Zm2,1.78,0,5.94h1.08c1.49,0,2.51-1,2.52-2.91V615c0-1.89-1-3-2.49-3Z" transform="matrix(1, 0, 0, 1, -184.899368, -344.922089)" style="fill: rgb(255, 255, 255);"/>
  <path class="cls-3" d="M599.59,610.27h1.8l3.61,5.55,0-5.54H607l0,9.5h-1.68L601.5,614l0,5.74h-1.93Z" transform="matrix(1, 0, 0, 1, -184.899368, -344.922089)" style="fill: rgb(255, 255, 255);"/>
  <path d="M690.06,652v-.19c0-4.93,3-8.56,7.21-8.56s7.16,3.61,7.16,8.51v.19c0,4.93-2.93,8.56-7.19,8.56S690.06,656.85,690.06,652Zm12.53,0v-.16c0-4-2.26-6.91-5.35-6.91s-5.32,2.84-5.32,6.88v.17c0,4,2.27,6.91,5.35,6.91S702.59,656,702.59,651.92Z" transform="matrix(1, 0, 0, 1, -184.899368, -344.922089)"/>
  <path d="M706.89,654.1v-.17c0-3.77,2.44-6.43,5.54-6.43a5.27,5.27,0,0,1,3.92,1.7l-1,1.29a4,4,0,0,0-2.91-1.41c-2.08,0-3.75,2-3.75,4.85v.12c0,2.94,1.72,4.83,3.82,4.83a4,4,0,0,0,2.91-1.43l1,1.15a5.15,5.15,0,0,1-4,1.86C709.25,660.46,706.89,657.88,706.89,654.1Z" transform="matrix(1, 0, 0, 1, -184.899368, -344.922089)"/>
  <path d="M719.45,657.3v-8H718v-1.53h1.5v-3.63h1.72v3.63h3.25v1.53h-3.25V657a1.58,1.58,0,0,0,1.79,1.79,3.76,3.76,0,0,0,1.46-.33V660a4.25,4.25,0,0,1-1.86.43A2.79,2.79,0,0,1,719.45,657.3Z" transform="matrix(1, 0, 0, 1, -184.899368, -344.922089)"/>
  <path d="M726.37,656.59v-.1c0-2.56,1.84-4,4.59-4a10.12,10.12,0,0,1,3.2.51v-.74a2.84,2.84,0,0,0-3.18-3.09,6.69,6.69,0,0,0-3.17.84l-.55-1.41a8.49,8.49,0,0,1,3.91-1,4.71,4.71,0,0,1,3.49,1.25,4.59,4.59,0,0,1,1.2,3.37v8h-1.7v-1.82a4.3,4.3,0,0,1-3.8,2.08A3.81,3.81,0,0,1,726.37,656.59Zm7.81-.72v-1.55a8.63,8.63,0,0,0-3-.51c-2,0-3.08,1-3.08,2.61v.07a2.5,2.5,0,0,0,2.66,2.54A3.23,3.23,0,0,0,734.18,655.87Z" transform="matrix(1, 0, 0, 1, -184.899368, -344.922089)"/>
  <path d="M737.74,647.74h1.86L743.09,658l3.53-10.23h1.82l-4.56,12.55h-1.55Z" transform="matrix(1, 0, 0, 1, -184.899368, -344.922089)"/>
  <path d="M751,643.15h1.91v2H751Zm.1,4.59h1.72V660.2h-1.72Z" transform="matrix(1, 0, 0, 1, -184.899368, -344.922089)"/>
  <path d="M755.67,656.59v-.1c0-2.56,1.84-4,4.59-4a10.12,10.12,0,0,1,3.2.51v-.74a2.84,2.84,0,0,0-3.18-3.09,6.69,6.69,0,0,0-3.17.84l-.55-1.41a8.45,8.45,0,0,1,3.91-1,4.71,4.71,0,0,1,3.49,1.25,4.63,4.63,0,0,1,1.19,3.37v8h-1.69v-1.82a4.3,4.3,0,0,1-3.8,2.08A3.81,3.81,0,0,1,755.67,656.59Zm7.81-.72v-1.55a8.68,8.68,0,0,0-3-.51c-2,0-3.08,1-3.08,2.61v.07A2.5,2.5,0,0,0,760,659,3.24,3.24,0,0,0,763.48,655.87Z" transform="matrix(1, 0, 0, 1, -184.899368, -344.922089)"/>
  <rect class="cls-2" x="666.42" y="604.93" width="122.59" height="19.75" transform="matrix(1, 0, 0, 1, -184.899368, -344.922089)" style="fill: rgb(236, 25, 68);"/>
  <path class="cls-3" d="M673.1,609.9h2l0,7.69,3.83,0v1.8l-5.8,0Z" transform="matrix(1, 0, 0, 1, -184.899368, -344.922089)" style="fill: rgb(255, 255, 255);"/>
  <path class="cls-3" d="M679.37,614.77v-.16c0-2.85,1.81-4.83,4.32-4.82s4.27,2,4.26,4.83v.16c0,2.84-1.81,4.84-4.32,4.83S679.36,617.61,679.37,614.77Zm6.55,0v-.09c0-1.88-.94-3.06-2.25-3.07s-2.27,1.16-2.28,3v.1c0,1.87,1,3,2.27,3.06S685.91,616.63,685.92,614.76Z" transform="matrix(1, 0, 0, 1, -184.899368, -344.922089)" style="fill: rgb(255, 255, 255);"/>
  <path class="cls-3" d="M691.74,609.93h1.87L697,619.5h-2l-.7-2.06-3.26,0-.7,2.06h-2Zm1.91,5.76-1-3.1-1.06,3.09Z" transform="matrix(1, 0, 0, 1, -184.899368, -344.922089)" style="fill: rgb(255, 255, 255);"/>
  <path class="cls-3" d="M698.19,610h3.07a4.34,4.34,0,0,1,4.5,4.7v.12a4.36,4.36,0,0,1-4.54,4.68l-3.06,0Zm2,1.78,0,5.94h1.08c1.49,0,2.51-1,2.52-2.92v-.07c0-1.88-1-3-2.49-3Z" transform="matrix(1, 0, 0, 1, -184.899368, -344.922089)" style="fill: rgb(255, 255, 255);"/>
  <path class="cls-3" d="M710.37,610.06h3.52a3.52,3.52,0,0,1,2.48.84,2.21,2.21,0,0,1,.63,1.62v0a2.23,2.23,0,0,1-1.3,2.07,2.26,2.26,0,0,1,1.69,2.27V617c0,1.71-1.38,2.6-3.44,2.59l-3.62,0Zm3.61,5.55h-1.72v2.23H714c.88,0,1.44-.37,1.44-1.1v0C715.45,616,715,615.61,714,615.61Zm1.08-2.74c0-.69-.48-1.06-1.33-1.06h-1.46V614h1.37c.87,0,1.43-.35,1.43-1.06Z" transform="matrix(1, 0, 0, 1, -184.899368, -344.922089)" style="fill: rgb(255, 255, 255);"/>
  <path class="cls-3" d="M721.51,610.05h1.87l3.36,9.56h-2l-.7-2.06h-3.26l-.7,2.05h-2Zm1.91,5.76-1-3.1-1.06,3.09Z" transform="matrix(1, 0, 0, 1, -184.899368, -344.922089)" style="fill: rgb(255, 255, 255);"/>
  <path class="cls-3" d="M728,610.13h2l0,7.69,3.83,0v1.8l-5.8,0Z" transform="matrix(1, 0, 0, 1, -184.899368, -344.922089)" style="fill: rgb(255, 255, 255);"/>
  <path class="cls-3" d="M737.75,610.12h1.87l3.36,9.57h-2l-.7-2.06-3.26,0-.7,2.06h-2Zm1.91,5.76-1-3.1-1.06,3.09Z" transform="matrix(1, 0, 0, 1, -184.899368, -344.922089)" style="fill: rgb(255, 255, 255);"/>
  <path class="cls-3" d="M744.2,610.2H746l3.6,5.55,0-5.54h1.92l0,9.49h-1.68L746.11,614l0,5.74h-1.93Z" transform="matrix(1, 0, 0, 1, -184.899368, -344.922089)" style="fill: rgb(255, 255, 255);"/>
  <path class="cls-3" d="M753.1,615.05v-.12c0-2.88,1.81-4.82,4.32-4.81a4,4,0,0,1,3,1.27l-1.18,1.52a2.63,2.63,0,0,0-1.94-1c-1.27,0-2.21,1.17-2.22,3v0c0,1.89,1,3,2.23,3a2.63,2.63,0,0,0,1.95-1l1.17,1.4a4.07,4.07,0,0,1-3.21,1.41C754.76,619.87,753.09,618,753.1,615.05Z" transform="matrix(1, 0, 0, 1, -184.899368, -344.922089)" style="fill: rgb(255, 255, 255);"/>
  <path class="cls-3" d="M761.92,610.27h2l0,9.5h-2Z" transform="matrix(1, 0, 0, 1, -184.899368, -344.922089)" style="fill: rgb(255, 255, 255);"/>
  <path class="cls-3" d="M765.85,610.29h1.8l3.61,5.55,0-5.54h1.92l0,9.49h-1.68l-3.73-5.76,0,5.74h-1.93Z" transform="matrix(1, 0, 0, 1, -184.899368, -344.922089)" style="fill: rgb(255, 255, 255);"/>
  <path class="cls-3" d="M774.75,615.14V615c0-2.81,1.88-4.82,4.45-4.81a4.43,4.43,0,0,1,3.1,1.12l-1.17,1.53a2.68,2.68,0,0,0-2-.82c-1.36,0-2.39,1.22-2.4,3v.11c0,2,1.06,3.06,2.45,3.06a2.43,2.43,0,0,0,1.42-.38v-1.69h-1.72V614.4h3.59l0,4.4a5.45,5.45,0,0,1-3.38,1.16C776.58,620,774.74,618.11,774.75,615.14Z" transform="matrix(1, 0, 0, 1, -184.899368, -344.922089)" style="fill: rgb(255, 255, 255);"/>
  <path d="M827.91,643.46h4.72c4.66,0,7.86,3.35,7.86,8.27v.17c0,4.9-3.2,8.3-7.86,8.3h-4.72Zm1.79,1.65v13.44h2.89c3.65,0,6-2.66,6-6.63v-.16c0-4-2.39-6.65-6-6.65Z" transform="matrix(1, 0, 0, 1, -184.899368, -344.922089)"/>
  <path d="M843,654.08V654c0-3.8,2.22-6.46,5.13-6.46,3.13,0,5,2.68,5,6.43,0,.17,0,.5,0,.72h-8.36c.19,2.75,1.89,4.28,3.85,4.28a4.37,4.37,0,0,0,3.22-1.43l1,1.1a5.64,5.64,0,0,1-4.27,1.86C845.43,660.46,843,658,843,654.08Zm8.41-.77c-.12-2.37-1.25-4.3-3.28-4.3-1.83,0-3.22,1.7-3.39,4.3Z" transform="matrix(1, 0, 0, 1, -184.899368, -344.922089)"/>
  <path d="M854.72,658.67l.91-1.27a5.69,5.69,0,0,0,3.63,1.51c1.36,0,2.32-.77,2.32-1.94v0c0-1.1-1-1.68-2.7-2.37-2-.86-3.56-1.65-3.56-3.59v0c0-2,1.65-3.39,3.87-3.39a6.75,6.75,0,0,1,3.91,1.34l-.83,1.31a5.48,5.48,0,0,0-3.13-1.17c-1.31,0-2.15.77-2.15,1.75v0c0,1.06,1.07,1.58,2.77,2.3,2,.91,3.49,1.77,3.49,3.66v.05c0,2.22-1.79,3.58-4,3.58A7,7,0,0,1,854.72,658.67Z" transform="matrix(1, 0, 0, 1, -184.899368, -344.922089)"/>
  <path d="M866.11,643.15H868v2h-1.91Zm.1,4.59h1.72V660.2h-1.72Z" transform="matrix(1, 0, 0, 1, -184.899368, -344.922089)"/>
  <path d="M871.48,662.49l.7-1.38a7.45,7.45,0,0,0,4,1.22c2.34,0,3.79-1.25,3.79-3.73v-1.82a4.71,4.71,0,0,1-4.1,2.56c-2.53,0-4.9-2.11-4.9-5.86v-.1c0-3.75,2.39-5.88,4.92-5.88A4.72,4.72,0,0,1,880,650v-2.22h1.72v10.81a5.19,5.19,0,0,1-1.36,3.85,5.65,5.65,0,0,1-4.13,1.43A8.81,8.81,0,0,1,871.48,662.49Zm8.55-9v-.07c0-2.67-1.84-4.33-3.75-4.33s-3.53,1.61-3.53,4.33v0c0,2.7,1.6,4.35,3.53,4.35S880,656.11,880,653.45Z" transform="matrix(1, 0, 0, 1, -184.899368, -344.922089)"/>
  <path d="M885.24,647.74H887v2a4,4,0,0,1,3.67-2.27c2.54,0,4.06,1.75,4.06,4.54v8.16H893v-7.68c0-2.22-1.05-3.47-2.86-3.47s-3.15,1.44-3.15,3.57v7.58h-1.72Z" transform="matrix(1, 0, 0, 1, -184.899368, -344.922089)"/>
  <path d="M897.25,656.59v-.1c0-2.56,1.84-4,4.58-4a10.07,10.07,0,0,1,3.2.51v-.74a2.84,2.84,0,0,0-3.17-3.09,6.7,6.7,0,0,0-3.18.84l-.55-1.41a8.49,8.49,0,0,1,3.92-1,4.7,4.7,0,0,1,3.48,1.25,4.59,4.59,0,0,1,1.2,3.37v8H905v-1.82a4.29,4.29,0,0,1-3.79,2.08A3.81,3.81,0,0,1,897.25,656.59Zm7.81-.72v-1.55a8.68,8.68,0,0,0-3-.51c-2,0-3.08,1-3.08,2.61v.07a2.5,2.5,0,0,0,2.65,2.54A3.24,3.24,0,0,0,905.06,655.87Z" transform="matrix(1, 0, 0, 1, -184.899368, -344.922089)"/>
  <path d="M910.5,657.3v-8H909v-1.53h1.5v-3.63h1.72v3.63h3.25v1.53h-3.25V657a1.58,1.58,0,0,0,1.79,1.79,3.76,3.76,0,0,0,1.46-.33V660a4.26,4.26,0,0,1-1.87.43A2.79,2.79,0,0,1,910.5,657.3Z" transform="matrix(1, 0, 0, 1, -184.899368, -344.922089)"/>
  <path d="M917.26,654.08V654c0-3.8,2.22-6.46,5.13-6.46,3.13,0,5,2.68,5,6.43,0,.17,0,.5,0,.72H919c.19,2.75,1.89,4.28,3.85,4.28a4.37,4.37,0,0,0,3.22-1.43l1,1.1a5.64,5.64,0,0,1-4.28,1.86C919.74,660.46,917.26,658,917.26,654.08Zm8.4-.77c-.12-2.37-1.24-4.3-3.27-4.3-1.84,0-3.22,1.7-3.39,4.3Z" transform="matrix(1, 0, 0, 1, -184.899368, -344.922089)"/>
  <rect class="cls-2" x="843.38" y="604.93" width="67.53" height="19.75" transform="matrix(1, 0, 0, 1, -184.899368, -344.922089)" style="fill: rgb(236, 25, 68);"/>
  <path class="cls-3" d="M865.17,610.2l3.06,0a4.33,4.33,0,0,1,4.5,4.69V615a4.35,4.35,0,0,1-4.54,4.67h-3.06Zm2,1.79,0,5.94h1.08c1.49,0,2.51-1,2.52-2.92V615c0-1.89-1-3-2.49-3Z" transform="matrix(1, 0, 0, 1, -184.899368, -344.922089)" style="fill: rgb(255, 255, 255);"/>
  <path class="cls-3" d="M874.3,610.24h1.8l3.61,5.55,0-5.54h1.92l0,9.5h-1.68L876.21,614l0,5.74h-1.93Z" transform="matrix(1, 0, 0, 1, -184.899368, -344.922089)" style="fill: rgb(255, 255, 255);"/>
  <path class="cls-3" d="M882.84,618.5l1.17-1.45a3.59,3.59,0,0,0,2.35,1.08c.76,0,1.22-.37,1.22-.93h0c0-.48-.26-.78-1.62-1.3-1.67-.66-2.71-1.3-2.71-2.93v0a2.82,2.82,0,0,1,3.12-2.77,4.47,4.47,0,0,1,3,1.18l-1.1,1.48a3.34,3.34,0,0,0-2-.89c-.68,0-1.1.34-1.11.83h0c0,.54.33.8,1.8,1.42,1.65.66,2.54,1.37,2.54,2.84v0a2.87,2.87,0,0,1-3.2,2.84A5.1,5.1,0,0,1,882.84,618.5Z" transform="matrix(1, 0, 0, 1, -184.899368, -344.922089)" style="fill: rgb(255, 255, 255);"/>
</svg>