<?xml version="1.0" encoding="utf-8"?>
<svg viewBox="52.615 -31.93 911.74 125.12" xmlns="http://www.w3.org/2000/svg">
  <rect class="cls-3" x="505.12" y="272.1" width="909.74" height="110.95" rx="4" style="fill: rgb(255, 255, 255);" transform="matrix(1, 0, 0, 1, -451.504852, -290.860016)"/>
  <path class="cls-7" d="M1410.86,384.05H509.12a5,5,0,0,1-5-5V276.1a5,5,0,0,1,5-5h901.74a5,5,0,0,1,5,5v103A5,5,0,0,1,1410.86,384.05ZM509.12,273.1a3,3,0,0,0-3,3v103a3,3,0,0,0,3,3h901.74a3,3,0,0,0,3-3V276.1a3,3,0,0,0-3-3Z" style="fill: rgb(35, 156, 220);" transform="matrix(1, 0, 0, 1, -451.504852, -290.860016)"/>
  <path d="M880.6,301.21h1.73l4.73,8.33,4.75-8.33h1.73v15.55h-1.67V304.23l-4.79,8.31H887l-4.8-8.31v12.53H880.6Z" transform="matrix(1, 0, 0, 1, -451.504852, -290.860016)"/>
  <path d="M896.89,312.79v-7.6h1.6v7.13c0,2.07,1,3.22,2.66,3.22a3,3,0,0,0,2.93-3.29v-7.06h1.6v11.57h-1.6v-1.88a3.75,3.75,0,0,1-3.42,2.11C898.31,317,896.89,315.37,896.89,312.79Z" transform="matrix(1, 0, 0, 1, -451.504852, -290.860016)"/>
  <path d="M909,305.19h1.6v2.55a4.1,4.1,0,0,1,4-2.71v1.74h-.09c-2.15,0-3.88,1.51-3.88,4.48v5.51H909Z" transform="matrix(1, 0, 0, 1, -451.504852, -290.860016)"/>
  <path d="M915.51,313.41v-.09c0-2.38,1.71-3.73,4.26-3.73a9.34,9.34,0,0,1,3,.47v-.69a2.64,2.64,0,0,0-3-2.87,6.34,6.34,0,0,0-2.95.78l-.51-1.31A7.89,7.89,0,0,1,920,305a4.39,4.39,0,0,1,3.24,1.16,4.3,4.3,0,0,1,1.11,3.13v7.44h-1.58v-1.68a4,4,0,0,1-3.53,1.93A3.53,3.53,0,0,1,915.51,313.41Zm7.25-.67V311.3a8,8,0,0,0-2.79-.47c-1.84,0-2.86,1-2.86,2.42v.07a2.31,2.31,0,0,0,2.46,2.36A3,3,0,0,0,922.76,312.74Z" transform="matrix(1, 0, 0, 1, -451.504852, -290.860016)"/>
  <path d="M927.42,305.19H929v1.89a3.74,3.74,0,0,1,3.42-2.11c2.35,0,3.77,1.62,3.77,4.22v7.57h-1.6v-7.13c0-2.06-1-3.22-2.66-3.22a3,3,0,0,0-2.93,3.31v7h-1.6Z" transform="matrix(1, 0, 0, 1, -451.504852, -290.860016)"/>
  <path d="M938.72,311.08v-.16c0-3.38,2.17-5.95,5.15-5.95s5.12,2.55,5.12,5.93V311c0,3.38-2.17,6-5.15,6S938.72,314.45,938.72,311.08Zm8.65,0v-.11c0-2.6-1.55-4.53-3.53-4.53s-3.48,1.93-3.48,4.51V311c0,2.6,1.53,4.53,3.51,4.53S947.37,313.61,947.37,311.05Z" transform="matrix(1, 0, 0, 1, -451.504852, -290.860016)"/>
  <path d="M971.44,301.21h9.39v1.54h-7.72v5.64H980v1.53h-6.9v6.84h-1.67Z" transform="matrix(1, 0, 0, 1, -451.504852, -290.860016)"/>
  <path d="M983.27,305.19h1.6v2.55a4.08,4.08,0,0,1,4-2.71v1.74h-.09c-2.15,0-3.88,1.51-3.88,4.48v5.51h-1.6Z" transform="matrix(1, 0, 0, 1, -451.504852, -290.860016)"/>
  <path d="M990,311.08V311c0-3.54,2.06-6,4.77-6,2.91,0,4.64,2.49,4.64,6,0,.16,0,.47,0,.67h-7.77c.18,2.56,1.75,4,3.57,4a4.07,4.07,0,0,0,3-1.34l.91,1a5.26,5.26,0,0,1-4,1.73C992.28,317,990,314.74,990,311.08Zm7.81-.71c-.11-2.2-1.15-4-3-4-1.71,0-3,1.57-3.15,4Z" transform="matrix(1, 0, 0, 1, -451.504852, -290.860016)"/>
  <path d="M1001.33,311.08V311c0-3.54,2.07-6,4.77-6,2.91,0,4.64,2.49,4.64,6,0,.16,0,.47,0,.67H1003c.18,2.56,1.76,4,3.57,4a4.07,4.07,0,0,0,3-1.34l.91,1a5.24,5.24,0,0,1-4,1.73C1003.64,317,1001.33,314.74,1001.33,311.08Zm7.81-.71c-.11-2.2-1.15-4-3-4-1.71,0-3,1.57-3.15,4Z" transform="matrix(1, 0, 0, 1, -451.504852, -290.860016)"/>
  <path d="M1012.45,315.72l6.41-9.15h-6.17v-1.38h8.21v1l-6.41,9.16h6.39v1.37h-8.43Z" transform="matrix(1, 0, 0, 1, -451.504852, -290.860016)"/>
  <path d="M1022.61,311.08V311c0-3.54,2.07-6,4.77-6,2.91,0,4.64,2.49,4.64,6,0,.16,0,.47,0,.67h-7.77c.18,2.56,1.75,4,3.57,4a4.07,4.07,0,0,0,3-1.34l.91,1a5.24,5.24,0,0,1-4,1.73C1024.92,317,1022.61,314.74,1022.61,311.08Zm7.81-.71c-.11-2.2-1.15-4-3-4-1.71,0-3,1.57-3.15,4Z" transform="matrix(1, 0, 0, 1, -451.504852, -290.860016)"/>
  <path d="M1034.59,305.19h1.6v2.55a4.1,4.1,0,0,1,4-2.71v1.74h-.08c-2.16,0-3.89,1.51-3.89,4.48v5.51h-1.6Z" transform="matrix(1, 0, 0, 1, -451.504852, -290.860016)"/>
  <rect class="cls-3" x="834.8" y="258.94" width="249.89" height="27.15" style="fill: rgb(255, 255, 255);" transform="matrix(1, 0, 0, 1, -451.504852, -290.860016)"/>
  <path class="cls-7" d="M886,265.61h2.29l4.16,11.68H890l-.86-2.52h-4l-.85,2.52h-2.42Zm2.37,7-1.26-3.78-1.27,3.78Z" style="fill: rgb(35, 156, 220);" transform="matrix(1, 0, 0, 1, -451.504852, -290.860016)"/>
  <path class="cls-7" d="M893.91,265.68h3.86c2.6,0,4.24,1.51,4.24,4v0c0,2.68-1.91,4-4.34,4.07h-1.36v3.53h-2.4Zm3.74,5.92a1.77,1.77,0,0,0,1.94-1.86h0a1.73,1.73,0,0,0-2-1.88h-1.31v3.75Z" style="fill: rgb(35, 156, 220);" transform="matrix(1, 0, 0, 1, -451.504852, -290.860016)"/>
  <path class="cls-7" d="M903.58,265.68h3.86c2.61,0,4.25,1.51,4.25,4v0c0,2.68-1.91,4-4.35,4.07H906v3.53h-2.41Zm3.75,5.92a1.78,1.78,0,0,0,1.94-1.86h0a1.74,1.74,0,0,0-2-1.88H906v3.75Z" style="fill: rgb(35, 156, 220);" transform="matrix(1, 0, 0, 1, -451.504852, -290.860016)"/>
  <path class="cls-7" d="M913.26,265.68h2.4v9.41h4.69v2.2h-7.09Z" style="fill: rgb(35, 156, 220);" transform="matrix(1, 0, 0, 1, -451.504852, -290.860016)"/>
  <path class="cls-7" d="M922,265.68h2.4v11.61H922Z" style="fill: rgb(35, 156, 220);" transform="matrix(1, 0, 0, 1, -451.504852, -290.860016)"/>
  <path class="cls-7" d="M926.43,271.57v-.15c0-3.52,2.19-5.9,5.25-5.9a4.86,4.86,0,0,1,3.73,1.54L934,268.92a3.24,3.24,0,0,0-2.37-1.17c-1.56,0-2.7,1.45-2.7,3.7v.05c0,2.31,1.19,3.72,2.73,3.72A3.26,3.26,0,0,0,934,274l1.44,1.71a5,5,0,0,1-3.93,1.74C928.48,277.46,926.43,275.12,926.43,271.57Z" style="fill: rgb(35, 156, 220);" transform="matrix(1, 0, 0, 1, -451.504852, -290.860016)"/>
  <path class="cls-7" d="M940.38,265.61h2.29l4.16,11.68h-2.49l-.86-2.52h-4l-.85,2.52h-2.42Zm2.37,7-1.26-3.78-1.27,3.78Z" style="fill: rgb(35, 156, 220);" transform="matrix(1, 0, 0, 1, -451.504852, -290.860016)"/>
  <path class="cls-7" d="M949.29,267.9h-2.91v-2.22h8.22v2.22h-2.92v9.39h-2.39Z" style="fill: rgb(35, 156, 220);" transform="matrix(1, 0, 0, 1, -451.504852, -290.860016)"/>
  <path class="cls-7" d="M956.3,265.68h2.41v11.61H956.3Z" style="fill: rgb(35, 156, 220);" transform="matrix(1, 0, 0, 1, -451.504852, -290.860016)"/>
  <path class="cls-7" d="M960.69,271.6v-.2c0-3.48,2.19-5.92,5.26-5.92s5.23,2.42,5.23,5.89v.2c0,3.47-2.18,5.92-5.25,5.92S960.69,275.07,960.69,271.6Zm8-.05v-.11c0-2.29-1.16-3.74-2.77-3.74s-2.77,1.43-2.77,3.72v.12c0,2.29,1.18,3.73,2.79,3.73S968.7,273.84,968.7,271.55Z" style="fill: rgb(35, 156, 220);" transform="matrix(1, 0, 0, 1, -451.504852, -290.860016)"/>
  <path class="cls-7" d="M973.09,265.68h2.2l4.44,6.77v-6.77h2.35v11.61H980l-4.59-7v7h-2.35Z" style="fill: rgb(35, 156, 220);" transform="matrix(1, 0, 0, 1, -451.504852, -290.860016)"/>
  <path class="cls-7" d="M988.11,265.68h2.41v9.41h4.69v2.2h-7.1Z" style="fill: rgb(35, 156, 220);" transform="matrix(1, 0, 0, 1, -451.504852, -290.860016)"/>
  <path class="cls-7" d="M996.9,265.68h2.4v11.61h-2.4Z" style="fill: rgb(35, 156, 220);" transform="matrix(1, 0, 0, 1, -451.504852, -290.860016)"/>
  <path class="cls-7" d="M1001.7,265.68h7.47v2.21h-5.07v2.6h4.46v2.21h-4.46v4.59h-2.4Z" style="fill: rgb(35, 156, 220);" transform="matrix(1, 0, 0, 1, -451.504852, -290.860016)"/>
  <path class="cls-7" d="M1010.88,265.68h7.47v2.17h-5.09v2.51h4.48v2.17h-4.48v2.59h5.16v2.17h-7.54Z" style="fill: rgb(35, 156, 220);" transform="matrix(1, 0, 0, 1, -451.504852, -290.860016)"/>
  <path class="cls-7" d="M1019.84,271.57v-.15c0-3.52,2.19-5.9,5.25-5.9a4.86,4.86,0,0,1,3.73,1.54l-1.44,1.86a3.2,3.2,0,0,0-2.37-1.17c-1.56,0-2.7,1.45-2.7,3.7v.05c0,2.31,1.19,3.72,2.73,3.72a3.26,3.26,0,0,0,2.39-1.21l1.44,1.71a5,5,0,0,1-3.92,1.74C1021.9,277.46,1019.84,275.12,1019.84,271.57Z" style="fill: rgb(35, 156, 220);" transform="matrix(1, 0, 0, 1, -451.504852, -290.860016)"/>
  <path class="cls-7" d="M1033.15,272.71l-3.78-7h2.72l2.28,4.56,2.31-4.56h2.65l-3.78,7v4.61h-2.4Z" style="fill: rgb(35, 156, 220);" transform="matrix(1, 0, 0, 1, -451.504852, -290.860016)"/>
  <path class="cls-7" d="M1039.41,271.57v-.15c0-3.52,2.19-5.9,5.25-5.9a4.88,4.88,0,0,1,3.73,1.54l-1.44,1.86a3.24,3.24,0,0,0-2.37-1.17c-1.56,0-2.7,1.45-2.7,3.7v.05c0,2.31,1.19,3.72,2.73,3.72A3.26,3.26,0,0,0,1047,274l1.44,1.71a5,5,0,0,1-3.93,1.74C1041.46,277.46,1039.41,275.12,1039.41,271.57Z" style="fill: rgb(35, 156, 220);" transform="matrix(1, 0, 0, 1, -451.504852, -290.860016)"/>
  <path class="cls-7" d="M1050.08,265.68h2.4v9.41h4.69v2.2h-7.09Z" style="fill: rgb(35, 156, 220);" transform="matrix(1, 0, 0, 1, -451.504852, -290.860016)"/>
  <path class="cls-7" d="M1058.78,265.68h7.47v2.17h-5.09v2.51h4.48v2.17h-4.48v2.59h5.16v2.17h-7.54Z" style="fill: rgb(35, 156, 220);" transform="matrix(1, 0, 0, 1, -451.504852, -290.860016)"/>
  <path class="cls-7" d="M874.38,262.61a.89.89,0,0,0-1.3,0l-1.88,1.86a11.19,11.19,0,0,0-3.55-2.26,11.13,11.13,0,0,0-11,1.6,11.37,11.37,0,0,0-3.9,6.29v.1a.47.47,0,0,0,.14.33.44.44,0,0,0,.32.13H856a.43.43,0,0,0,.43-.33,17.28,17.28,0,0,1,.77-1.69,7.34,7.34,0,0,1,2.69-2.59,7.42,7.42,0,0,1,8.66,1l-2,2a.89.89,0,0,0,0,1.3.89.89,0,0,0,.65.27h6.48a.92.92,0,0,0,.92-.92v-6.48A.89.89,0,0,0,874.38,262.61Z" style="fill: rgb(35, 156, 220);" transform="matrix(1, 0, 0, 1, -451.504852, -290.860016)"/>
  <path class="cls-7" d="M873.83,274.37h-2.78a.43.43,0,0,0-.43.33,17.28,17.28,0,0,1-.77,1.69,7.37,7.37,0,0,1-6.3,3.53,7.18,7.18,0,0,1-2.71-.52,7.51,7.51,0,0,1-2.33-1.48l2-2a.92.92,0,0,0,0-1.3.93.93,0,0,0-.66-.27h-6.48a.91.91,0,0,0-.65.27.89.89,0,0,0-.27.65v6.48a.89.89,0,0,0,.27.65.91.91,0,0,0,1.31,0l1.86-1.86a11.13,11.13,0,0,0,3.52,2.27,10.86,10.86,0,0,0,4.09.79,10.56,10.56,0,0,0,6.91-2.41,11.23,11.23,0,0,0,3.88-6.28.25.25,0,0,0,0-.1.44.44,0,0,0-.13-.33A.48.48,0,0,0,873.83,274.37Z" style="fill: rgb(35, 156, 220);" transform="matrix(1, 0, 0, 1, -451.504852, -290.860016)"/>
  <path d="M579.05,301.21h1.73l4.72,8.33,4.75-8.33H592v15.55h-1.66V304.23l-4.8,8.31h-.06l-4.79-8.31v12.53h-1.62Z" transform="matrix(1, 0, 0, 1, -451.504852, -290.860016)"/>
  <path d="M594.73,313.41v-.09c0-2.38,1.71-3.73,4.26-3.73a9.45,9.45,0,0,1,3,.47v-.69a2.64,2.64,0,0,0-3-2.87,6.35,6.35,0,0,0-3,.78l-.51-1.31a7.89,7.89,0,0,1,3.64-.94,4.38,4.38,0,0,1,3.24,1.16,4.3,4.3,0,0,1,1.11,3.13v7.44H602v-1.68a4,4,0,0,1-3.53,1.93A3.54,3.54,0,0,1,594.73,313.41Zm7.26-.67V311.3a8.08,8.08,0,0,0-2.8-.47c-1.84,0-2.86,1-2.86,2.42v.07a2.32,2.32,0,0,0,2.46,2.36A3,3,0,0,0,602,312.74Z" transform="matrix(1, 0, 0, 1, -451.504852, -290.860016)"/>
  <path d="M606.54,318.9l.64-1.29a6.9,6.9,0,0,0,3.73,1.13c2.17,0,3.53-1.15,3.53-3.46v-1.69a4.4,4.4,0,0,1-3.82,2.37c-2.35,0-4.55-1.95-4.55-5.44v-.09c0-3.49,2.22-5.46,4.57-5.46a4.39,4.39,0,0,1,3.8,2.29v-2.07H616v10a4.84,4.84,0,0,1-1.26,3.58,5.24,5.24,0,0,1-3.84,1.33A8.2,8.2,0,0,1,606.54,318.9Zm7.94-8.4v-.07a3.71,3.71,0,0,0-3.48-4c-1.82,0-3.29,1.49-3.29,4v.05c0,2.51,1.49,4,3.29,4A3.72,3.72,0,0,0,614.48,310.5Z" transform="matrix(1, 0, 0, 1, -451.504852, -290.860016)"/>
  <path d="M619.32,305.19h1.6v1.89a3.72,3.72,0,0,1,3.41-2.11c2.36,0,3.78,1.62,3.78,4.22v7.57h-1.6v-7.13c0-2.06-1-3.22-2.66-3.22a3,3,0,0,0-2.93,3.31v7h-1.6Z" transform="matrix(1, 0, 0, 1, -451.504852, -290.860016)"/>
  <path d="M631.08,312.79v-7.6h1.6v7.13c0,2.07,1,3.22,2.66,3.22a3,3,0,0,0,2.93-3.29v-7.06h1.6v11.57h-1.6v-1.88a3.76,3.76,0,0,1-3.42,2.11C632.5,317,631.08,315.37,631.08,312.79Z" transform="matrix(1, 0, 0, 1, -451.504852, -290.860016)"/>
  <path d="M643.15,305.19h1.6V307A3.62,3.62,0,0,1,648,305a3.33,3.33,0,0,1,3.19,2.11,4,4,0,0,1,3.55-2.11c2.24,0,3.68,1.55,3.68,4.24v7.55h-1.59v-7.13c0-2.11-.93-3.22-2.51-3.22s-2.73,1.2-2.73,3.29v7.06H650v-7.15c0-2.07-.93-3.2-2.5-3.2s-2.73,1.36-2.73,3.31v7h-1.6Z" transform="matrix(1, 0, 0, 1, -451.504852, -290.860016)"/>
  <path d="M687.73,302.77h-4.35v-1.56h10.38v1.56h-4.37v14h-1.66Z" transform="matrix(1, 0, 0, 1, -451.504852, -290.860016)"/>
  <path d="M694.76,305.19h1.6v2.55a4.1,4.1,0,0,1,4-2.71v1.74h-.09c-2.15,0-3.88,1.51-3.88,4.48v5.51h-1.6Z" transform="matrix(1, 0, 0, 1, -451.504852, -290.860016)"/>
  <path d="M701.47,311.08v-.16c0-3.38,2.17-5.95,5.14-5.95s5.13,2.55,5.13,5.93V311c0,3.38-2.18,6-5.15,6S701.47,314.45,701.47,311.08Zm8.65,0v-.11c0-2.6-1.55-4.53-3.53-4.53s-3.48,1.93-3.48,4.51V311c0,2.6,1.53,4.53,3.5,4.53S710.12,313.61,710.12,311.05Z" transform="matrix(1, 0, 0, 1, -451.504852, -290.860016)"/>
  <path d="M712.85,305.19h1.73l3.24,9.51,3.28-9.51h1.69l-4.24,11.66h-1.44Z" transform="matrix(1, 0, 0, 1, -451.504852, -290.860016)"/>
  <path d="M723.9,311.08V311c0-3.54,2.06-6,4.77-6,2.91,0,4.64,2.49,4.64,6,0,.16,0,.47,0,.67h-7.77c.18,2.56,1.75,4,3.57,4a4.07,4.07,0,0,0,3-1.34l.91,1a5.26,5.26,0,0,1-4,1.73C726.21,317,723.9,314.74,723.9,311.08Zm7.81-.71c-.11-2.2-1.15-4-3-4-1.71,0-3,1.57-3.15,4Z" transform="matrix(1, 0, 0, 1, -451.504852, -290.860016)"/>
  <path d="M626.28,354.28l1-1.27a6.17,6.17,0,0,0,4.37,1.93c1.87,0,3.11-1.13,3.11-2.62v0c0-1.29-.62-2.11-3.44-3.11-3.22-1.2-4.48-2.36-4.48-4.56v0c0-2.33,2-4.11,4.68-4.11a6.75,6.75,0,0,1,4.66,1.76l-1,1.28a5.55,5.55,0,0,0-3.73-1.51c-1.77,0-2.92,1.09-2.92,2.42v.05c0,1.35.68,2.13,3.61,3.2,3.15,1.18,4.31,2.44,4.31,4.51v0c0,2.49-2,4.25-4.82,4.25A7.63,7.63,0,0,1,626.28,354.28Z" transform="matrix(1, 0, 0, 1, -451.504852, -290.860016)"/>
  <path d="M638.55,352.9v-.09c0-2.38,1.71-3.73,4.26-3.73a9.65,9.65,0,0,1,3,.46v-.68a2.63,2.63,0,0,0-2.95-2.87,6.34,6.34,0,0,0-3,.78l-.51-1.31a7.89,7.89,0,0,1,3.64-.94,4.38,4.38,0,0,1,3.24,1.16,4.3,4.3,0,0,1,1.11,3.13v7.44h-1.58v-1.68a4,4,0,0,1-3.52,1.93A3.54,3.54,0,0,1,638.55,352.9Zm7.26-.67v-1.44a8.12,8.12,0,0,0-2.8-.47c-1.84,0-2.86,1-2.86,2.42v.07a2.32,2.32,0,0,0,2.46,2.36A3,3,0,0,0,645.81,352.23Z" transform="matrix(1, 0, 0, 1, -451.504852, -290.860016)"/>
  <path d="M650.47,340.21h1.59v6.36a3.74,3.74,0,0,1,3.42-2.11c2.35,0,3.77,1.62,3.77,4.22v7.57h-1.59v-7.13c0-2.06-1-3.22-2.67-3.22a3,3,0,0,0-2.93,3.31v7h-1.59Z" transform="matrix(1, 0, 0, 1, -451.504852, -290.860016)"/>
  <path d="M661.63,352.9v-.09c0-2.38,1.71-3.73,4.26-3.73a9.65,9.65,0,0,1,3,.46v-.68a2.64,2.64,0,0,0-3-2.87,6.34,6.34,0,0,0-2.95.78l-.51-1.31a7.89,7.89,0,0,1,3.64-.94,4.39,4.39,0,0,1,3.24,1.16,4.3,4.3,0,0,1,1.11,3.13v7.44h-1.58v-1.68a4,4,0,0,1-3.53,1.93A3.53,3.53,0,0,1,661.63,352.9Zm7.25-.67v-1.44a8,8,0,0,0-2.79-.47c-1.84,0-2.86,1-2.86,2.42v.07a2.32,2.32,0,0,0,2.46,2.36A3,3,0,0,0,668.88,352.23Z" transform="matrix(1, 0, 0, 1, -451.504852, -290.860016)"/>
  <path d="M673.54,344.68h1.6v2.55a4.09,4.09,0,0,1,4-2.71v1.74H679c-2.15,0-3.88,1.51-3.88,4.48v5.51h-1.6Z" transform="matrix(1, 0, 0, 1, -451.504852, -290.860016)"/>
  <path d="M680.09,352.9v-.09c0-2.38,1.71-3.73,4.26-3.73a9.65,9.65,0,0,1,3,.46v-.68a2.63,2.63,0,0,0-3-2.87,6.34,6.34,0,0,0-3,.78l-.51-1.31a7.89,7.89,0,0,1,3.64-.94,4.39,4.39,0,0,1,3.24,1.16,4.3,4.3,0,0,1,1.11,3.13v7.44h-1.58v-1.68a4,4,0,0,1-3.52,1.93A3.54,3.54,0,0,1,680.09,352.9Zm7.26-.67v-1.44a8.12,8.12,0,0,0-2.8-.47c-1.84,0-2.86,1-2.86,2.42v.07a2.32,2.32,0,0,0,2.46,2.36A3,3,0,0,0,687.35,352.23Z" transform="matrix(1, 0, 0, 1, -451.504852, -290.860016)"/>
  <rect class="cls-3" x="528" y="258.94" width="257.52" height="27.15" style="fill: rgb(255, 255, 255);" transform="matrix(1, 0, 0, 1, -451.504852, -290.860016)"/>
  <path class="cls-7" d="M571.61,265.68h2.53l2,7.65,2.12-7.68h2.09l2.13,7.68,1.94-7.65h2.49l-3.31,11.68h-2.21L579.23,270l-2.12,7.38h-2.19Z" style="fill: rgb(35, 156, 220);" transform="matrix(1, 0, 0, 1, -451.504852, -290.860016)"/>
  <path class="cls-7" d="M587.46,271.6v-.2c0-3.48,2.19-5.92,5.26-5.92s5.23,2.42,5.23,5.89v.2c0,3.47-2.18,5.92-5.25,5.92S587.46,275.07,587.46,271.6Zm8-.05v-.11c0-2.29-1.16-3.74-2.77-3.74s-2.77,1.43-2.77,3.72v.12c0,2.29,1.18,3.73,2.79,3.73S595.47,273.84,595.47,271.55Z" style="fill: rgb(35, 156, 220);" transform="matrix(1, 0, 0, 1, -451.504852, -290.860016)"/>
  <path class="cls-7" d="M599.86,265.68h4.35a4.3,4.3,0,0,1,3.15,1.11,3.68,3.68,0,0,1,1,2.69v.07a3.51,3.51,0,0,1-2.15,3.43l2.47,4.31H605.9l-2.13-3.81h-1.51v3.81h-2.4Zm4.17,5.67a1.67,1.67,0,0,0,1.89-1.74h0c0-1.17-.71-1.75-1.94-1.75h-1.72v3.5Z" style="fill: rgb(35, 156, 220);" transform="matrix(1, 0, 0, 1, -451.504852, -290.860016)"/>
  <path class="cls-7" d="M610.24,265.68h2.41v5l3.79-5h2.84l-3.9,4.93,4.06,6.68h-2.82l-2.9-4.78-1.07,1.36v3.42h-2.41Z" style="fill: rgb(35, 156, 220);" transform="matrix(1, 0, 0, 1, -451.504852, -290.860016)"/>
  <path class="cls-7" d="M620.73,265.68h2.41v9.41h4.68v2.2h-7.09Z" style="fill: rgb(35, 156, 220);" transform="matrix(1, 0, 0, 1, -451.504852, -290.860016)"/>
  <path class="cls-7" d="M628.42,271.6v-.2c0-3.48,2.19-5.92,5.25-5.92s5.24,2.42,5.24,5.89v.2c0,3.47-2.19,5.92-5.25,5.92S628.42,275.07,628.42,271.6Zm8-.05v-.11c0-2.29-1.16-3.74-2.76-3.74s-2.77,1.43-2.77,3.72v.12c0,2.29,1.18,3.73,2.78,3.73S636.42,273.84,636.42,271.55Z" style="fill: rgb(35, 156, 220);" transform="matrix(1, 0, 0, 1, -451.504852, -290.860016)"/>
  <path class="cls-7" d="M643.51,265.61h2.29L650,277.29h-2.48l-.87-2.52h-4l-.85,2.52h-2.41Zm2.37,7-1.26-3.78-1.27,3.78Z" style="fill: rgb(35, 156, 220);" transform="matrix(1, 0, 0, 1, -451.504852, -290.860016)"/>
  <path class="cls-7" d="M651.4,265.68h3.75c3.36,0,5.53,2.32,5.53,5.72v.15c0,3.4-2.17,5.74-5.53,5.74H651.4Zm2.4,2.17v7.27h1.33c1.82,0,3.06-1.28,3.06-3.58v-.09c0-2.3-1.24-3.6-3.06-3.6Z" style="fill: rgb(35, 156, 220);" transform="matrix(1, 0, 0, 1, -451.504852, -290.860016)"/>
  <path class="cls-7" d="M666.28,265.68h3.86c2.6,0,4.24,1.51,4.24,4v0c0,2.68-1.9,4-4.34,4.07h-1.36v3.53h-2.4ZM670,271.6a1.77,1.77,0,0,0,1.94-1.86h0a1.73,1.73,0,0,0-2-1.88h-1.31v3.75Z" style="fill: rgb(35, 156, 220);" transform="matrix(1, 0, 0, 1, -451.504852, -290.860016)"/>
  <path class="cls-7" d="M676,265.68h4.35a4.3,4.3,0,0,1,3.15,1.11,3.68,3.68,0,0,1,1,2.69v.07a3.51,3.51,0,0,1-2.15,3.43l2.46,4.31H682l-2.13-3.81h-1.51v3.81H676Zm4.17,5.67a1.67,1.67,0,0,0,1.89-1.74h0c0-1.17-.71-1.75-1.94-1.75h-1.72v3.5Z" style="fill: rgb(35, 156, 220);" transform="matrix(1, 0, 0, 1, -451.504852, -290.860016)"/>
  <path class="cls-7" d="M685.93,271.6v-.2c0-3.48,2.19-5.92,5.25-5.92s5.24,2.42,5.24,5.89v.2c0,3.47-2.19,5.92-5.25,5.92S685.93,275.07,685.93,271.6Zm8-.05v-.11c0-2.29-1.16-3.74-2.76-3.74s-2.77,1.43-2.77,3.72v.12c0,2.29,1.17,3.73,2.78,3.73S693.93,273.84,693.93,271.55Z" style="fill: rgb(35, 156, 220);" transform="matrix(1, 0, 0, 1, -451.504852, -290.860016)"/>
  <path class="cls-7" d="M696.86,265.68h2.61l2.45,8,2.45-8h2.54L703,277.36h-2.23Z" style="fill: rgb(35, 156, 220);" transform="matrix(1, 0, 0, 1, -451.504852, -290.860016)"/>
  <path class="cls-7" d="M708.43,265.68h2.4v11.61h-2.4Z" style="fill: rgb(35, 156, 220);" transform="matrix(1, 0, 0, 1, -451.504852, -290.860016)"/>
  <path class="cls-7" d="M712.39,275.73l1.42-1.77a4.47,4.47,0,0,0,2.89,1.31c.92,0,1.49-.47,1.49-1.15h0c0-.58-.33-.95-2-1.58-2.05-.8-3.33-1.57-3.33-3.56v0c0-2,1.56-3.4,3.79-3.4a5.54,5.54,0,0,1,3.75,1.43l-1.34,1.82a4.12,4.12,0,0,0-2.47-1.08c-.83,0-1.34.42-1.34,1h0c0,.67.39,1,2.2,1.73,2,.79,3.11,1.66,3.11,3.46v0c0,2.15-1.64,3.48-3.89,3.48A6.19,6.19,0,0,1,712.39,275.73Z" style="fill: rgb(35, 156, 220);" transform="matrix(1, 0, 0, 1, -451.504852, -290.860016)"/>
  <path class="cls-7" d="M722.43,265.68h2.4v11.61h-2.4Z" style="fill: rgb(35, 156, 220);" transform="matrix(1, 0, 0, 1, -451.504852, -290.860016)"/>
  <path class="cls-7" d="M726.82,271.6v-.2c0-3.48,2.19-5.92,5.25-5.92s5.24,2.42,5.24,5.89v.2c0,3.47-2.19,5.92-5.25,5.92S726.82,275.07,726.82,271.6Zm8-.05v-.11c0-2.29-1.16-3.74-2.76-3.74s-2.77,1.43-2.77,3.72v.12c0,2.29,1.17,3.73,2.78,3.73S734.82,273.84,734.82,271.55Z" style="fill: rgb(35, 156, 220);" transform="matrix(1, 0, 0, 1, -451.504852, -290.860016)"/>
  <path class="cls-7" d="M739.21,265.68h2.21l4.44,6.77v-6.77h2.35v11.61h-2.05l-4.59-7v7h-2.36Z" style="fill: rgb(35, 156, 220);" transform="matrix(1, 0, 0, 1, -451.504852, -290.860016)"/>
  <path class="cls-7" d="M750.61,265.68H753v11.61h-2.4Z" style="fill: rgb(35, 156, 220);" transform="matrix(1, 0, 0, 1, -451.504852, -290.860016)"/>
  <path class="cls-7" d="M755.42,265.68h2.2l4.44,6.77v-6.77h2.35v11.61h-2l-4.59-7v7h-2.35Z" style="fill: rgb(35, 156, 220);" transform="matrix(1, 0, 0, 1, -451.504852, -290.860016)"/>
  <path class="cls-7" d="M766.32,271.57v-.15c0-3.43,2.27-5.9,5.42-5.9a5.4,5.4,0,0,1,3.79,1.36l-1.42,1.87a3.34,3.34,0,0,0-2.41-1c-1.65,0-2.91,1.51-2.91,3.65v.14c0,2.38,1.31,3.73,3,3.73a3,3,0,0,0,1.73-.48v-2.06h-2.11v-2.09h4.39V276a6.69,6.69,0,0,1-4.12,1.45C768.57,277.46,766.32,275.2,766.32,271.57Z" style="fill: rgb(35, 156, 220);" transform="matrix(1, 0, 0, 1, -451.504852, -290.860016)"/>
  <path class="cls-7" d="M554.82,278a.53.53,0,0,0-.11-.3c-.57-.69-1-1.29-1.39-1.78a7.88,7.88,0,0,0,.5-1.17l2.39-.37a.37.37,0,0,0,.25-.16.51.51,0,0,0,.1-.3V271.1a.47.47,0,0,0-.1-.3.45.45,0,0,0-.27-.16l-2.34-.35a9.48,9.48,0,0,0-.53-1.27c.16-.23.39-.53.7-.92l.65-.84a.51.51,0,0,0,.1-.29c0-.28-.74-1.1-2.22-2.47a.51.51,0,0,0-.32-.12.42.42,0,0,0-.31.11l-1.82,1.37a6.23,6.23,0,0,0-1.16-.48l-.35-2.36a.39.39,0,0,0-.16-.27.44.44,0,0,0-.3-.12h-2.87a.47.47,0,0,0-.47.37,18.3,18.3,0,0,0-.35,2.38,7.75,7.75,0,0,0-1.19.49l-1.77-1.38a.52.52,0,0,0-.33-.11c-.19,0-.6.3-1.22.91a13.37,13.37,0,0,0-1.26,1.37.47.47,0,0,0-.11.31.65.65,0,0,0,.11.31c.58.69,1,1.28,1.39,1.77a7.88,7.88,0,0,0-.5,1.17l-2.39.37a.35.35,0,0,0-.24.17.43.43,0,0,0-.11.3v2.85a.43.43,0,0,0,.11.3.37.37,0,0,0,.26.15l2.34.37a9.16,9.16,0,0,0,.54,1.26c-.16.23-.4.54-.72.94l-.63.82a.46.46,0,0,0-.11.29c0,.28.74,1.11,2.22,2.47a.47.47,0,0,0,.32.13.42.42,0,0,0,.31-.11l1.82-1.37a6.89,6.89,0,0,0,1.16.47l.35,2.36a.38.38,0,0,0,.16.27.45.45,0,0,0,.31.12h2.87a.45.45,0,0,0,.46-.37,18.53,18.53,0,0,0,.35-2.39,8.22,8.22,0,0,0,1.19-.48l1.77,1.39a.62.62,0,0,0,.33.11c.19,0,.6-.31,1.21-.92a14.79,14.79,0,0,0,1.27-1.38.41.41,0,0,0,.11-.3Zm-5.34-2.74a4,4,0,0,1-6.74-2.79,3.84,3.84,0,0,1,1.16-2.8,4,4,0,0,1,5.58,0,3.84,3.84,0,0,1,1.16,2.8,3.81,3.81,0,0,1-1.16,2.79Zm0,0" style="fill: rgb(35, 156, 220);" transform="matrix(1, 0, 0, 1, -451.504852, -290.860016)"/>
  <path class="cls-7" d="M564.14,278.85a4.67,4.67,0,0,0-.46-.8,8.83,8.83,0,0,0,.78-2.13.14.14,0,0,0-.06-.11c-1.23-.72-1.87-1.08-1.91-1.08l-.09,0a13,13,0,0,0-1.42,1.73l-.47,0-.46,0a12.05,12.05,0,0,0-.8-1c-.39-.48-.63-.72-.71-.72a2.92,2.92,0,0,0-.46.25l-.91.52-.54.31a.13.13,0,0,0-.07.11,9.09,9.09,0,0,0,.79,2.13,4.09,4.09,0,0,0-.46.8c-1.53.15-2.3.31-2.3.48v2.16c0,.16.77.32,2.3.47a4.67,4.67,0,0,0,.46.81,8.92,8.92,0,0,0-.79,2.12.13.13,0,0,0,.07.11c1.25.73,1.89,1.1,1.91,1.1s.32-.24.71-.73.66-.83.8-1.05l.46,0,.47,0c.14.22.41.57.8,1.05s.63.73.71.73.66-.37,1.91-1.1a.14.14,0,0,0,.06-.11,8.68,8.68,0,0,0-.78-2.12,4.67,4.67,0,0,0,.46-.81c1.53-.15,2.3-.31,2.3-.47v-2.16c0-.17-.77-.33-2.3-.48Zm-2.23,2.95a1.89,1.89,0,0,1-1.4.58,2,2,0,0,1-1.39-3.36,1.93,1.93,0,0,1,1.39-.59,2,2,0,0,1,1.4,3.37Zm0,0" style="fill: rgb(35, 156, 220);" transform="matrix(1, 0, 0, 1, -451.504852, -290.860016)"/>
  <path class="cls-7" d="M564.14,263.05a4.67,4.67,0,0,0-.46-.8,8.53,8.53,0,0,0,.78-2.13.14.14,0,0,0-.06-.11c-1.23-.72-1.87-1.08-1.91-1.08l-.09,0a13,13,0,0,0-1.42,1.73l-.47,0-.46,0c-.14-.22-.41-.56-.8-1s-.63-.72-.71-.72a2.92,2.92,0,0,0-.46.25l-.91.52-.54.31a.13.13,0,0,0-.07.11,8.77,8.77,0,0,0,.79,2.13,4.09,4.09,0,0,0-.46.8c-1.53.15-2.3.31-2.3.48v2.16c0,.16.77.32,2.3.48a5,5,0,0,0,.46.8,8.77,8.77,0,0,0-.79,2.13s0,.07.07.11c1.25.73,1.89,1.09,1.91,1.09s.32-.24.71-.72.66-.84.8-1.05l.46,0,.47,0c.14.21.41.56.8,1.05s.63.72.71.72.66-.36,1.91-1.09a.15.15,0,0,0,.06-.11,8.53,8.53,0,0,0-.78-2.13,5,5,0,0,0,.46-.8c1.53-.16,2.3-.32,2.3-.48v-2.16c0-.17-.77-.33-2.3-.48ZM561.91,266a1.89,1.89,0,0,1-1.4.58,2,2,0,0,1-1.39-3.36,1.93,1.93,0,0,1,1.39-.59,2,2,0,0,1,1.4,3.37Zm0,0" style="fill: rgb(35, 156, 220);" transform="matrix(1, 0, 0, 1, -451.504852, -290.860016)"/>
  <rect class="cls-8" x="808.47" y="288.56" width="1" height="80.15" style="fill: rgb(141, 215, 247);" transform="matrix(1, 0, 0, 1, -451.504852, -290.860016)"/>
  <rect class="cls-8" x="1110.01" y="288.56" width="1" height="80.15" style="fill: rgb(141, 215, 247);" transform="matrix(1, 0, 0, 1, -451.504852, -290.860016)"/>
  <rect class="cls-3" x="1170.16" y="258.94" width="185.12" height="27.15" style="fill: rgb(255, 255, 255);" transform="matrix(1, 0, 0, 1, -451.504852, -290.860016)"/>
  <path class="cls-7" d="M1213.33,273.76v-.2c0-3.49,2.19-5.92,5.25-5.92s5.24,2.42,5.24,5.88v.2c0,3.47-2.19,5.93-5.25,5.93S1213.33,277.22,1213.33,273.76Zm8-.05v-.12c0-2.29-1.16-3.73-2.76-3.73s-2.77,1.43-2.77,3.71v.12c0,2.29,1.18,3.73,2.78,3.73S1221.33,276,1221.33,273.71Z" style="fill: rgb(35, 156, 220);" transform="matrix(1, 0, 0, 1, -451.504852, -290.860016)"/>
  <path class="cls-7" d="M1225.72,267.84h4.36a4.32,4.32,0,0,1,3.15,1.11,3.67,3.67,0,0,1,1,2.68v.07a3.49,3.49,0,0,1-2.16,3.43l2.47,4.32h-2.75l-2.14-3.82h-1.5v3.82h-2.41Zm4.18,5.67a1.67,1.67,0,0,0,1.89-1.74v0c0-1.16-.71-1.74-1.94-1.74h-1.72v3.5Z" style="fill: rgb(35, 156, 220);" transform="matrix(1, 0, 0, 1, -451.504852, -290.860016)"/>
  <path class="cls-7" d="M1235.7,273.72v-.15c0-3.51,2.18-5.9,5.25-5.9a4.89,4.89,0,0,1,3.73,1.54l-1.44,1.86a3.26,3.26,0,0,0-2.37-1.16c-1.56,0-2.7,1.44-2.7,3.7v.05c0,2.3,1.19,3.71,2.73,3.71a3.26,3.26,0,0,0,2.39-1.21l1.44,1.71a5,5,0,0,1-3.93,1.74C1237.75,279.61,1235.7,277.27,1235.7,273.72Z" style="fill: rgb(35, 156, 220);" transform="matrix(1, 0, 0, 1, -451.504852, -290.860016)"/>
  <path class="cls-7" d="M1246.37,267.84h2.4v4.66h3.81v-4.66H1255v11.61h-2.41v-4.73h-3.81v4.73h-2.4Z" style="fill: rgb(35, 156, 220);" transform="matrix(1, 0, 0, 1, -451.504852, -290.860016)"/>
  <path class="cls-7" d="M1257.3,267.84h7.48V270h-5.09v2.5h4.47v2.18h-4.47v2.58h5.15v2.18h-7.54Z" style="fill: rgb(35, 156, 220);" transform="matrix(1, 0, 0, 1, -451.504852, -290.860016)"/>
  <path class="cls-7" d="M1265.88,277.89l1.43-1.78a4.44,4.44,0,0,0,2.88,1.31c.93,0,1.49-.46,1.49-1.14v0c0-.58-.33-.94-2-1.57-2.06-.8-3.34-1.58-3.34-3.57v0c0-2,1.56-3.4,3.8-3.4a5.5,5.5,0,0,1,3.74,1.42l-1.34,1.83a4,4,0,0,0-2.47-1.08c-.83,0-1.34.41-1.34,1v0c0,.66.4,1,2.21,1.72,2,.8,3.11,1.66,3.11,3.47v0c0,2.16-1.64,3.49-3.89,3.49A6.26,6.26,0,0,1,1265.88,277.89Z" style="fill: rgb(35, 156, 220);" transform="matrix(1, 0, 0, 1, -451.504852, -290.860016)"/>
  <path class="cls-7" d="M1277.81,270.06h-2.91v-2.22h8.22v2.22h-2.92v9.39h-2.39Z" style="fill: rgb(35, 156, 220);" transform="matrix(1, 0, 0, 1, -451.504852, -290.860016)"/>
  <path class="cls-7" d="M1284.74,267.84h4.36a4.32,4.32,0,0,1,3.15,1.11,3.7,3.7,0,0,1,1,2.68v.07a3.5,3.5,0,0,1-2.15,3.43l2.47,4.32h-2.75l-2.14-3.82h-1.51v3.82h-2.4Zm4.18,5.67a1.67,1.67,0,0,0,1.88-1.74v0c0-1.16-.71-1.74-1.93-1.74h-1.73v3.5Z" style="fill: rgb(35, 156, 220);" transform="matrix(1, 0, 0, 1, -451.504852, -290.860016)"/>
  <path class="cls-7" d="M1298.41,267.77h2.29l4.15,11.68h-2.48l-.86-2.53h-4l-.84,2.53h-2.42Zm2.37,7-1.26-3.78-1.28,3.78Z" style="fill: rgb(35, 156, 220);" transform="matrix(1, 0, 0, 1, -451.504852, -290.860016)"/>
  <path class="cls-7" d="M1307.32,270.06h-2.91v-2.22h8.21v2.22h-2.91v9.39h-2.39Z" style="fill: rgb(35, 156, 220);" transform="matrix(1, 0, 0, 1, -451.504852, -290.860016)"/>
  <path class="cls-7" d="M1314.33,267.84h2.4v11.61h-2.4Z" style="fill: rgb(35, 156, 220);" transform="matrix(1, 0, 0, 1, -451.504852, -290.860016)"/>
  <path class="cls-7" d="M1318.72,273.76v-.2c0-3.49,2.19-5.92,5.25-5.92s5.24,2.42,5.24,5.88v.2c0,3.47-2.19,5.93-5.25,5.93S1318.72,277.22,1318.72,273.76Zm8-.05v-.12c0-2.29-1.16-3.73-2.76-3.73s-2.77,1.43-2.77,3.71v.12c0,2.29,1.18,3.73,2.78,3.73S1326.72,276,1326.72,273.71Z" style="fill: rgb(35, 156, 220);" transform="matrix(1, 0, 0, 1, -451.504852, -290.860016)"/>
  <path class="cls-7" d="M1331.11,267.84h2.21l4.44,6.76v-6.76h2.35v11.61h-2l-4.59-7v7h-2.36Z" style="fill: rgb(35, 156, 220);" transform="matrix(1, 0, 0, 1, -451.504852, -290.860016)"/>
  <path class="cls-7" d="M1208,269.22a3.68,3.68,0,0,0-2.46-3.47v-3.52a1.24,1.24,0,0,0-2.47,0v3.52a3.68,3.68,0,0,0,0,6.95v10.1a1.24,1.24,0,0,0,2.47,0V272.7A3.7,3.7,0,0,0,1208,269.22Z" style="fill: rgb(35, 156, 220);" transform="matrix(1, 0, 0, 1, -451.504852, -290.860016)"/>
  <path class="cls-7" d="M1197.34,272.33v-10.1a1.24,1.24,0,0,0-2.47,0v10.1a3.68,3.68,0,0,0,0,6.95v3.52a1.24,1.24,0,0,0,2.47,0v-3.52a3.68,3.68,0,0,0,0-6.95Z" style="fill: rgb(35, 156, 220);" transform="matrix(1, 0, 0, 1, -451.504852, -290.860016)"/>
  <path class="cls-7" d="M1189.11,267.39v-5.16a1.24,1.24,0,0,0-2.47,0v5.16a3.68,3.68,0,0,0,0,6.95v8.46a1.24,1.24,0,0,0,2.47,0v-8.46a3.68,3.68,0,0,0,0-6.95Z" style="fill: rgb(35, 156, 220);" transform="matrix(1, 0, 0, 1, -451.504852, -290.860016)"/>
  <path d="M1154.9,302.54h1.79V310h8.07v-7.48h1.79v16.74h-1.79V311.7h-8.07v7.58h-1.79Z" transform="matrix(1, 0, 0, 1, -451.504852, -290.860016)"/>
  <path d="M1169.65,313.16V313c0-3.81,2.22-6.46,5.14-6.46,3.13,0,5,2.68,5,6.43a6.19,6.19,0,0,1,0,.72h-8.35c.19,2.75,1.88,4.28,3.84,4.28a4.34,4.34,0,0,0,3.22-1.44l1,1.1a5.61,5.61,0,0,1-4.27,1.87C1172.14,319.54,1169.65,317.1,1169.65,313.16Zm8.41-.77c-.12-2.37-1.24-4.3-3.27-4.3-1.84,0-3.23,1.69-3.39,4.3Z" transform="matrix(1, 0, 0, 1, -451.504852, -290.860016)"/>
  <path d="M1181.73,315.67v-.1c0-2.56,1.84-4,4.59-4a10.12,10.12,0,0,1,3.2.51v-.75a2.84,2.84,0,0,0-3.18-3.08,6.69,6.69,0,0,0-3.17.84l-.55-1.41a8.49,8.49,0,0,1,3.91-1,4.71,4.71,0,0,1,3.49,1.25,4.59,4.59,0,0,1,1.19,3.37v8h-1.69v-1.82a4.3,4.3,0,0,1-3.8,2.08A3.81,3.81,0,0,1,1181.73,315.67Zm7.81-.72v-1.56a8.94,8.94,0,0,0-3-.5c-2,0-3.08,1-3.08,2.61v.07a2.49,2.49,0,0,0,2.65,2.53A3.23,3.23,0,0,0,1189.54,315Z" transform="matrix(1, 0, 0, 1, -451.504852, -290.860016)"/>
  <path d="M1195,316.38v-8h-1.51v-1.53H1195v-3.64h1.72v3.64H1200v1.53h-3.24v7.75a1.58,1.58,0,0,0,1.79,1.79,3.56,3.56,0,0,0,1.45-.34V319a4.18,4.18,0,0,1-1.86.43A2.78,2.78,0,0,1,1195,316.38Z" transform="matrix(1, 0, 0, 1, -451.504852, -290.860016)"/>
  <path d="M1229.69,303.72h1.73l4.73,8.34,4.74-8.34h1.73v15.56H1241V306.75l-4.79,8.31h-.07l-4.79-8.31v12.53h-1.62Z" transform="matrix(1, 0, 0, 1, -451.504852, -290.860016)"/>
  <path d="M1246.18,303.44H1248v1.88h-1.77Zm.09,4.26h1.59v11.58h-1.59Z" transform="matrix(1, 0, 0, 1, -451.504852, -290.860016)"/>
  <path d="M1250.24,317.85l.84-1.17a5.29,5.29,0,0,0,3.37,1.4c1.27,0,2.16-.71,2.16-1.8v0c0-1-1-1.55-2.51-2.19-1.84-.8-3.31-1.54-3.31-3.34v0c0-1.89,1.53-3.16,3.6-3.16a6.27,6.27,0,0,1,3.64,1.25l-.78,1.22a5.11,5.11,0,0,0-2.91-1.09c-1.22,0-2,.71-2,1.62v.05c0,1,1,1.46,2.57,2.13,1.91.84,3.24,1.64,3.24,3.4v0c0,2.07-1.66,3.34-3.75,3.34A6.44,6.44,0,0,1,1250.24,317.85Z" transform="matrix(1, 0, 0, 1, -451.504852, -290.860016)"/>
  <path d="M1261.11,316.59v-7.47h-1.4V307.7h1.4v-3.38h1.6v3.38h3v1.42h-3v7.2a1.47,1.47,0,0,0,1.66,1.67,3.44,3.44,0,0,0,1.36-.31v1.37a3.84,3.84,0,0,1-1.73.4A2.59,2.59,0,0,1,1261.11,316.59Z" transform="matrix(1, 0, 0, 1, -451.504852, -290.860016)"/>
  <path d="M1268.3,307.7h1.6v2.56a4.06,4.06,0,0,1,4-2.71v1.73h-.09c-2.15,0-3.88,1.51-3.88,4.49v5.51h-1.6Z" transform="matrix(1, 0, 0, 1, -451.504852, -290.860016)"/>
  <path d="M1274.85,315.92v-.09c0-2.37,1.71-3.73,4.26-3.73a9.39,9.39,0,0,1,3,.47v-.69a2.64,2.64,0,0,0-2.95-2.87,6.34,6.34,0,0,0-3,.78l-.51-1.31a8,8,0,0,1,3.64-.93,4.44,4.44,0,0,1,3.24,1.15,4.3,4.3,0,0,1,1.11,3.13v7.45h-1.58v-1.69a4,4,0,0,1-3.53,1.93A3.53,3.53,0,0,1,1274.85,315.92Zm7.25-.67v-1.44a8,8,0,0,0-2.79-.47c-1.84,0-2.87,1-2.87,2.43v.06a2.32,2.32,0,0,0,2.47,2.36A3,3,0,0,0,1282.1,315.25Z" transform="matrix(1, 0, 0, 1, -451.504852, -290.860016)"/>
  <path d="M1286.9,303.24h1.59v16h-1.59Z" transform="matrix(1, 0, 0, 1, -451.504852, -290.860016)"/>
  <path d="M1325.42,303.64h1.64l5.93,15.64h-1.78l-1.51-4.09h-7l-1.51,4.09h-1.71Zm3.73,10-2.93-7.89-3,7.89Z" transform="matrix(1, 0, 0, 1, -451.504852, -290.860016)"/>
  <path d="M1334.32,313.59v-.16c0-3.37,2.18-5.95,5.15-5.95s5.12,2.55,5.12,5.93v.13c0,3.38-2.17,6-5.14,6S1334.32,317,1334.32,313.59Zm8.65,0v-.11c0-2.6-1.55-4.54-3.52-4.54s-3.49,1.94-3.49,4.51v.11c0,2.6,1.53,4.54,3.51,4.54S1343,316.12,1343,313.57Z" transform="matrix(1, 0, 0, 1, -451.504852, -290.860016)"/>
  <path d="M1346.68,313.61v-.22c0-3.84,2.26-5.91,4.62-5.91a4.26,4.26,0,0,1,3.74,2.38v-6.62h1.6v16H1355v-2.23a4.28,4.28,0,0,1-3.74,2.45C1348.94,319.5,1346.68,317.48,1346.68,313.61Zm8.43,0v-.2c0-2.73-1.66-4.47-3.48-4.47s-3.31,1.62-3.31,4.47v.18c0,2.82,1.51,4.48,3.31,4.48S1355.11,316.32,1355.11,313.59Z" transform="matrix(1, 0, 0, 1, -451.504852, -290.860016)"/>
  <path d="M1359.93,303.24h1.6v6.35a3.72,3.72,0,0,1,3.41-2.11c2.35,0,3.77,1.62,3.77,4.22v7.58h-1.59v-7.14c0-2.06-1-3.22-2.66-3.22a3,3,0,0,0-2.93,3.31v7h-1.6Z" transform="matrix(1, 0, 0, 1, -451.504852, -290.860016)"/>
  <path d="M1148.11,354.28l1-1.27a6.17,6.17,0,0,0,4.37,1.93c1.86,0,3.11-1.13,3.11-2.62v0c0-1.29-.62-2.11-3.44-3.11-3.22-1.2-4.48-2.36-4.48-4.56v0c0-2.33,2-4.11,4.68-4.11a6.75,6.75,0,0,1,4.66,1.76l-1,1.28a5.57,5.57,0,0,0-3.73-1.51c-1.77,0-2.93,1.09-2.93,2.42v.05c0,1.35.69,2.13,3.62,3.2,3.15,1.18,4.3,2.44,4.3,4.51v0c0,2.49-2,4.25-4.81,4.25A7.61,7.61,0,0,1,1148.11,354.28Z" transform="matrix(1, 0, 0, 1, -451.504852, -290.860016)"/>
  <path d="M1160.45,350.57v-.11c0-3.54,2.06-6,4.77-6,2.9,0,4.63,2.49,4.63,6,0,.16,0,.47,0,.67h-7.76c.17,2.55,1.75,4,3.57,4a4.07,4.07,0,0,0,3-1.34l.91,1a5.24,5.24,0,0,1-4,1.73C1162.75,356.5,1160.45,354.23,1160.45,350.57Zm7.8-.71c-.11-2.2-1.15-4-3-4-1.71,0-3,1.57-3.15,4Z" transform="matrix(1, 0, 0, 1, -451.504852, -290.860016)"/>
  <path d="M1172.43,344.68h1.6v1.89a3.72,3.72,0,0,1,3.41-2.11c2.35,0,3.77,1.62,3.77,4.22v7.57h-1.59v-7.13c0-2.06-1-3.22-2.67-3.22a3,3,0,0,0-2.92,3.31v7h-1.6Z" transform="matrix(1, 0, 0, 1, -451.504852, -290.860016)"/>
  <path d="M1184.48,340.21h1.59v16h-1.59Z" transform="matrix(1, 0, 0, 1, -451.504852, -290.860016)"/>
  <path d="M1189.54,340.41h1.77v1.89h-1.77Zm.09,4.27h1.59v11.57h-1.59Z" transform="matrix(1, 0, 0, 1, -451.504852, -290.860016)"/>
  <path d="M1194.64,344.68h1.6v1.89a3.72,3.72,0,0,1,3.42-2.11c2.35,0,3.77,1.62,3.77,4.22v7.57h-1.6v-7.13c0-2.06-1-3.22-2.66-3.22a3,3,0,0,0-2.93,3.31v7h-1.6Z" transform="matrix(1, 0, 0, 1, -451.504852, -290.860016)"/>
  <path d="M1235.55,355.12l8.43-12.91h-8.12V340.7h10.27v1.13l-8.43,12.91h8.43v1.51h-10.58Z" transform="matrix(1, 0, 0, 1, -451.504852, -290.860016)"/>
  <path d="M1248.17,352.9v-.09c0-2.38,1.71-3.73,4.26-3.73a9.77,9.77,0,0,1,3,.46v-.68a2.64,2.64,0,0,0-3-2.87,6.34,6.34,0,0,0-3,.78l-.51-1.31a7.89,7.89,0,0,1,3.64-.94,4.38,4.38,0,0,1,3.24,1.16,4.3,4.3,0,0,1,1.11,3.13v7.44h-1.57v-1.68a4,4,0,0,1-3.53,1.93A3.54,3.54,0,0,1,1248.17,352.9Zm7.26-.67v-1.44a8.08,8.08,0,0,0-2.8-.47c-1.84,0-2.86,1-2.86,2.42v.07a2.32,2.32,0,0,0,2.46,2.36A3,3,0,0,0,1255.43,352.23Z" transform="matrix(1, 0, 0, 1, -451.504852, -290.860016)"/>
  <path d="M1267.87,354a4.3,4.3,0,0,1-3.74,2.45c-2.36,0-4.62-2-4.62-5.89v-.22c0-3.85,2.26-5.91,4.62-5.91a4.27,4.27,0,0,1,3.74,2.37v-2.15h1.6v14.91h-1.6Zm.07-3.46v-.2c0-2.74-1.66-4.47-3.48-4.47s-3.31,1.62-3.31,4.47v.17c0,2.83,1.51,4.49,3.31,4.49S1267.94,353.3,1267.94,350.57Z" transform="matrix(1, 0, 0, 1, -451.504852, -290.860016)"/>
  <path d="M1272,352.9v-.09c0-2.38,1.71-3.73,4.26-3.73a9.77,9.77,0,0,1,3,.46v-.68a2.64,2.64,0,0,0-3-2.87,6.27,6.27,0,0,0-3,.78l-.51-1.31a7.81,7.81,0,0,1,3.63-.94,4.38,4.38,0,0,1,3.24,1.16,4.3,4.3,0,0,1,1.11,3.13v7.44h-1.57v-1.68a4,4,0,0,1-3.53,1.93A3.54,3.54,0,0,1,1272,352.9Zm7.26-.67v-1.44a8,8,0,0,0-2.8-.47c-1.84,0-2.86,1-2.86,2.42v.07a2.32,2.32,0,0,0,2.46,2.36A3,3,0,0,0,1279.26,352.23Z" transform="matrix(1, 0, 0, 1, -451.504852, -290.860016)"/>
  <path d="M1283.92,344.68h1.6v2.55a4.08,4.08,0,0,1,4-2.71v1.74h-.09c-2.15,0-3.88,1.51-3.88,4.48v5.51h-1.6Z" transform="matrix(1, 0, 0, 1, -451.504852, -290.860016)"/>
  <path d="M1320.46,340.7h5.25a5.27,5.27,0,0,1,3.84,1.34,3.48,3.48,0,0,1,1,2.55v0a3.7,3.7,0,0,1-2.55,3.63c1.82.53,3.22,1.62,3.22,3.73v.06c0,2.65-2.15,4.2-5.41,4.2h-5.37Zm8.43,4.11c0-1.6-1.2-2.6-3.26-2.6h-3.51v5.47h3.35c2.06,0,3.42-1,3.42-2.82Zm-3.2,4.33h-3.57v5.6h3.77c2.24,0,3.66-1,3.66-2.8v0C1329.55,350.17,1328.2,349.14,1325.69,349.14Z" transform="matrix(1, 0, 0, 1, -451.504852, -290.860016)"/>
  <path d="M1334.08,340.21h1.6v16h-1.6Z" transform="matrix(1, 0, 0, 1, -451.504852, -290.860016)"/>
  <path d="M1338.34,352.9v-.09c0-2.38,1.71-3.73,4.26-3.73a9.65,9.65,0,0,1,3,.46v-.68a2.63,2.63,0,0,0-3-2.87,6.34,6.34,0,0,0-2.95.78l-.51-1.31a7.89,7.89,0,0,1,3.64-.94,4.38,4.38,0,0,1,3.24,1.16,4.3,4.3,0,0,1,1.11,3.13v7.44h-1.58v-1.68a4,4,0,0,1-3.52,1.93A3.54,3.54,0,0,1,1338.34,352.9Zm7.26-.67v-1.44a8.12,8.12,0,0,0-2.8-.47c-1.84,0-2.86,1-2.86,2.42v.07a2.32,2.32,0,0,0,2.46,2.36A3,3,0,0,0,1345.6,352.23Z" transform="matrix(1, 0, 0, 1, -451.504852, -290.860016)"/>
  <path d="M1349.61,355.21l6.42-9.15h-6.17v-1.38h8.21v1l-6.42,9.16H1358v1.37h-8.43Z" transform="matrix(1, 0, 0, 1, -451.504852, -290.860016)"/>
  <path d="M1359.93,352.9v-.09c0-2.38,1.71-3.73,4.26-3.73a9.65,9.65,0,0,1,3,.46v-.68a2.63,2.63,0,0,0-3-2.87,6.34,6.34,0,0,0-3,.78l-.51-1.31a7.89,7.89,0,0,1,3.64-.94,4.38,4.38,0,0,1,3.24,1.16,4.3,4.3,0,0,1,1.11,3.13v7.44h-1.58v-1.68a4,4,0,0,1-3.52,1.93A3.54,3.54,0,0,1,1359.93,352.9Zm7.26-.67v-1.44a8.12,8.12,0,0,0-2.8-.47c-1.84,0-2.86,1-2.86,2.42v.07a2.32,2.32,0,0,0,2.46,2.36A3,3,0,0,0,1367.19,352.23Z" transform="matrix(1, 0, 0, 1, -451.504852, -290.860016)"/>
  <path d="M1371.85,344.68h1.59v2.55a4.09,4.09,0,0,1,4-2.71v1.74h-.09c-2.16,0-3.89,1.51-3.89,4.48v5.51h-1.59Z" transform="matrix(1, 0, 0, 1, -451.504852, -290.860016)"/>
  <path d="M959.48,340.7h1.73l4.72,8.33,4.75-8.33h1.73v15.55h-1.66V343.72L966,352h-.07l-4.79-8.31v12.53h-1.62Z" transform="matrix(1, 0, 0, 1, -451.504852, -290.860016)"/>
  <path d="M975.17,352.9v-.09c0-2.38,1.7-3.73,4.26-3.73a9.7,9.7,0,0,1,3,.46v-.68a2.64,2.64,0,0,0-2.95-2.87,6.3,6.3,0,0,0-3,.78l-.51-1.31a7.85,7.85,0,0,1,3.64-.94,4.37,4.37,0,0,1,3.23,1.16,4.26,4.26,0,0,1,1.11,3.13v7.44H982.4v-1.68a4,4,0,0,1-3.53,1.93A3.53,3.53,0,0,1,975.17,352.9Zm7.25-.67v-1.44a8,8,0,0,0-2.79-.47c-1.85,0-2.87,1-2.87,2.42v.07a2.32,2.32,0,0,0,2.47,2.36A3,3,0,0,0,982.42,352.23Z" transform="matrix(1, 0, 0, 1, -451.504852, -290.860016)"/>
  <path d="M986,354.83l.84-1.18a5.23,5.23,0,0,0,3.37,1.4c1.27,0,2.16-.71,2.16-1.8v0c0-1-1-1.55-2.51-2.2-1.84-.8-3.31-1.53-3.31-3.33v0c0-1.89,1.53-3.16,3.6-3.16a6.27,6.27,0,0,1,3.64,1.25l-.78,1.22a5,5,0,0,0-2.91-1.09c-1.22,0-2,.71-2,1.62v0c0,1,1,1.47,2.57,2.14,1.91.84,3.24,1.64,3.24,3.4v0c0,2.07-1.66,3.33-3.75,3.33A6.43,6.43,0,0,1,986,354.83Z" transform="matrix(1, 0, 0, 1, -451.504852, -290.860016)"/>
  <path d="M995.82,352.9v-.09c0-2.38,1.71-3.73,4.26-3.73a9.77,9.77,0,0,1,3,.46v-.68a2.64,2.64,0,0,0-2.95-2.87,6.27,6.27,0,0,0-3,.78l-.51-1.31a7.81,7.81,0,0,1,3.63-.94,4.38,4.38,0,0,1,3.24,1.16,4.3,4.3,0,0,1,1.11,3.13v7.44h-1.57v-1.68a4,4,0,0,1-3.53,1.93A3.54,3.54,0,0,1,995.82,352.9Zm7.26-.67v-1.44a8,8,0,0,0-2.8-.47c-1.84,0-2.86,1-2.86,2.42v.07a2.32,2.32,0,0,0,2.46,2.36A3,3,0,0,0,1003.08,352.23Z" transform="matrix(1, 0, 0, 1, -451.504852, -290.860016)"/>
  <path d="M1007.74,340.21h1.6V351l5.12-6.31h1.93l-4.06,4.86,4.22,6.71h-1.89l-3.41-5.44-1.91,2.24v3.2h-1.6Z" transform="matrix(1, 0, 0, 1, -451.504852, -290.860016)"/>
  <path d="M1017.75,352.9v-.09c0-2.38,1.71-3.73,4.26-3.73a9.65,9.65,0,0,1,3,.46v-.68a2.64,2.64,0,0,0-3-2.87,6.34,6.34,0,0,0-2.95.78l-.51-1.31a7.89,7.89,0,0,1,3.64-.94,4.41,4.41,0,0,1,3.24,1.16,4.3,4.3,0,0,1,1.11,3.13v7.44H1025v-1.68a4,4,0,0,1-3.53,1.93A3.53,3.53,0,0,1,1017.75,352.9Zm7.25-.67v-1.44a8,8,0,0,0-2.79-.47c-1.84,0-2.87,1-2.87,2.42v.07a2.32,2.32,0,0,0,2.47,2.36A3,3,0,0,0,1025,352.23Z" transform="matrix(1, 0, 0, 1, -451.504852, -290.860016)"/>
  <path d="M1029.66,344.68h1.6v2.55a4.09,4.09,0,0,1,4-2.71v1.74h-.09c-2.15,0-3.88,1.51-3.88,4.48v5.51h-1.6Z" transform="matrix(1, 0, 0, 1, -451.504852, -290.860016)"/>
  <path d="M1037.5,340.41h1.77v1.89h-1.77Zm.08,4.27h1.6v11.57h-1.6Z" transform="matrix(1, 0, 0, 1, -451.504852, -290.860016)"/>
  <path d="M879.35,354.28l1-1.27a6.17,6.17,0,0,0,4.37,1.93c1.86,0,3.11-1.13,3.11-2.62v0c0-1.29-.63-2.11-3.44-3.11-3.22-1.2-4.48-2.36-4.48-4.56v0c0-2.33,1.95-4.11,4.68-4.11a6.76,6.76,0,0,1,4.66,1.76l-1,1.28a5.59,5.59,0,0,0-3.73-1.51c-1.77,0-2.93,1.09-2.93,2.42v.05c0,1.35.69,2.13,3.62,3.2,3.15,1.18,4.3,2.44,4.3,4.51v0c0,2.49-2,4.25-4.81,4.25A7.61,7.61,0,0,1,879.35,354.28Z" transform="matrix(1, 0, 0, 1, -451.504852, -290.860016)"/>
  <path d="M891.68,350.57v-.16c0-3.38,2.18-6,5.15-6S902,347,902,350.39v.13c0,3.38-2.18,6-5.15,6S891.68,353.94,891.68,350.57Zm8.66,0v-.11c0-2.6-1.56-4.53-3.53-4.53s-3.48,1.93-3.48,4.51v.11c0,2.6,1.53,4.53,3.5,4.53S900.34,353.1,900.34,350.54Z" transform="matrix(1, 0, 0, 1, -451.504852, -290.860016)"/>
  <path d="M904.75,340.21h1.6v16h-1.6Z" transform="matrix(1, 0, 0, 1, -451.504852, -290.860016)"/>
  <path d="M909.61,352.28v-7.6h1.6v7.13c0,2.07,1,3.22,2.66,3.22a3,3,0,0,0,2.93-3.29v-7.06h1.6v11.57h-1.6v-1.88a3.74,3.74,0,0,1-3.42,2.11C911,356.48,909.61,354.85,909.61,352.28Z" transform="matrix(1, 0, 0, 1, -451.504852, -290.860016)"/>
  <path d="M921.68,344.68h1.6v1.84a3.62,3.62,0,0,1,3.24-2.06,3.35,3.35,0,0,1,3.2,2.11,4,4,0,0,1,3.55-2.11c2.24,0,3.68,1.55,3.68,4.24v7.55h-1.6v-7.13c0-2.11-.93-3.22-2.51-3.22s-2.73,1.2-2.73,3.29v7.06h-1.59V349.1c0-2.07-.93-3.2-2.51-3.2s-2.73,1.36-2.73,3.31v7h-1.6Z" transform="matrix(1, 0, 0, 1, -451.504852, -290.860016)"/>
</svg>