<?xml version="1.0" encoding="utf-8"?>
<svg viewBox="4.687 0.654 403.41 125.12" xmlns="http://www.w3.org/2000/svg">
  <rect class="cls-3" x="5.687" y="13.474" width="401.41" height="111.29" rx="2.62" style="fill: rgb(255, 255, 255);"/>
  <path class="cls-2" d="M 404.477 125.774 L 8.307 125.774 C 6.31 125.769 4.693 124.151 4.687 122.154 L 4.687 16.094 C 4.687 14.095 6.308 12.474 8.307 12.474 L 404.477 12.474 C 406.476 12.474 408.097 14.095 408.097 16.094 L 408.097 122.154 C 408.092 124.151 406.474 125.769 404.477 125.774 Z M 8.307 14.474 C 7.415 14.48 6.693 15.202 6.687 16.094 L 6.687 122.154 C 6.693 123.047 7.415 123.769 8.307 123.774 L 404.477 123.774 C 405.37 123.769 406.092 123.047 406.097 122.154 L 406.097 16.094 C 406.092 15.202 405.37 14.48 404.477 14.474 Z" style="fill: rgb(236, 25, 68);"/>
  <rect class="cls-3" x="131.967" y="0.654" width="148.84" height="27.15" style="fill: rgb(255, 255, 255);"/>
  <path class="cls-2" d="M 189.837 13.264 L 189.837 13.114 C 189.837 9.604 192.027 7.214 195.087 7.214 C 196.495 7.163 197.856 7.724 198.817 8.754 L 197.377 10.614 C 196.788 9.908 195.926 9.486 195.007 9.454 C 193.447 9.454 192.307 10.894 192.307 13.154 L 192.307 13.204 C 192.307 15.504 193.497 16.914 195.047 16.914 C 195.977 16.869 196.843 16.429 197.427 15.704 L 198.867 17.414 C 197.888 18.553 196.449 19.192 194.947 19.154 C 191.897 19.154 189.837 16.814 189.837 13.264 Z" style="fill: rgb(236, 25, 68);"/>
  <path class="cls-2" d="M 199.747 13.324 L 199.747 13.124 C 199.747 9.634 201.937 7.204 204.997 7.204 C 208.057 7.204 210.237 9.624 210.237 13.094 L 210.237 13.284 C 210.237 16.754 208.047 19.214 204.987 19.214 C 201.927 19.214 199.747 16.764 199.747 13.324 Z M 207.747 13.274 L 207.747 13.154 C 207.747 10.864 206.587 9.424 204.987 9.424 C 203.387 9.424 202.217 10.854 202.217 13.134 L 202.217 13.254 C 202.217 15.544 203.397 16.984 204.997 16.984 C 206.597 16.984 207.747 15.544 207.747 13.254 Z" style="fill: rgb(236, 25, 68);"/>
  <path class="cls-2" d="M 212.137 7.384 L 214.687 7.384 L 217.277 12.094 L 219.827 7.384 L 222.357 7.384 L 222.357 18.994 L 220.007 18.994 L 220.007 11.574 L 217.247 16.324 L 217.247 16.324 L 214.527 11.574 L 214.527 18.954 L 212.187 18.954 Z" style="fill: rgb(236, 25, 68);"/>
  <path class="cls-2" d="M 224.687 7.384 L 228.547 7.384 C 231.147 7.384 232.787 8.894 232.787 11.384 L 232.787 11.384 C 232.787 14.054 230.887 15.384 228.447 15.444 L 227.087 15.444 L 227.087 18.984 L 224.687 18.984 Z M 228.437 13.304 C 229.515 13.403 230.43 12.525 230.377 11.444 L 230.377 11.444 C 230.475 10.32 229.493 9.401 228.377 9.574 L 227.067 9.574 L 227.067 13.324 Z" style="fill: rgb(236, 25, 68);"/>
  <path class="cls-2" d="M 234.177 14.474 L 234.177 7.384 L 236.577 7.384 L 236.577 14.494 C 236.577 16.134 237.357 16.954 238.577 16.954 C 239.797 16.954 240.577 16.154 240.577 14.544 L 240.577 7.384 L 242.967 7.384 L 242.967 14.384 C 242.967 17.594 241.207 19.134 238.527 19.134 C 235.847 19.134 234.177 17.614 234.177 14.474 Z" style="fill: rgb(236, 25, 68);"/>
  <path class="cls-2" d="M 247.397 9.604 L 244.477 9.604 L 244.477 7.384 L 252.687 7.384 L 252.687 9.604 L 249.787 9.604 L 249.787 18.994 L 247.397 18.994 Z" style="fill: rgb(236, 25, 68);"/>
  <path class="cls-2" d="M 254.327 7.384 L 261.797 7.384 L 261.797 9.554 L 256.687 9.554 L 256.687 12.054 L 261.167 12.054 L 261.167 14.234 L 256.687 14.234 L 256.687 16.814 L 261.847 16.814 L 261.847 18.994 L 254.307 18.994 Z" style="fill: rgb(236, 25, 68);"/>
  <path class="cls-2" d="M 177.457 18.934 L 151.207 18.934 C 150.94 18.935 150.684 19.043 150.497 19.234 C 150.306 19.421 150.198 19.677 150.197 19.944 L 150.197 23.944 C 150.198 24.211 150.306 24.467 150.497 24.654 C 150.684 24.845 150.94 24.953 151.207 24.954 L 177.457 24.954 C 178.009 24.954 178.457 24.506 178.457 23.954 L 178.457 19.954 C 178.457 19.402 178.009 18.954 177.457 18.954 Z M 176.457 22.934 L 166.357 22.934 L 166.357 20.934 L 176.457 20.934 L 176.457 22.934 Z M 176.457 22.934" style="fill: rgb(236, 25, 68);"/>
  <path class="cls-2" d="M 177.457 10.854 L 151.207 10.854 C 150.94 10.855 150.684 10.963 150.497 11.154 C 150.306 11.341 150.198 11.597 150.197 11.864 L 150.197 15.864 C 150.197 16.416 150.645 16.864 151.197 16.864 L 177.447 16.864 C 177.714 16.863 177.97 16.755 178.157 16.564 C 178.348 16.377 178.456 16.121 178.457 15.854 L 178.457 11.854 C 178.457 11.302 178.009 10.854 177.457 10.854 Z M 176.457 14.854 L 160.297 14.854 L 160.297 12.854 L 176.447 12.854 Z M 176.457 14.854" style="fill: rgb(236, 25, 68);"/>
  <path class="cls-2" d="M 178.167 3.084 C 177.98 2.893 177.724 2.785 177.457 2.784 L 151.207 2.784 C 150.94 2.785 150.684 2.893 150.497 3.084 C 150.3 3.267 150.191 3.525 150.197 3.794 L 150.197 7.794 C 150.197 8.346 150.645 8.794 151.197 8.794 L 177.447 8.794 C 177.714 8.793 177.97 8.685 178.157 8.494 C 178.348 8.307 178.456 8.051 178.457 7.784 L 178.457 3.784 C 178.456 3.517 178.348 3.261 178.157 3.074 Z M 176.447 6.814 L 170.387 6.814 L 170.387 4.814 L 176.447 4.814 Z M 176.447 6.814" style="fill: rgb(236, 25, 68);"/>
  <path d="M 104.317 80.174 L 106.007 80.174 L 114.747 93.324 L 114.747 80.174 L 116.517 80.174 L 116.517 96.914 L 115.017 96.914 L 106.017 83.424 L 106.017 96.914 L 104.277 96.914 Z"/>
  <path d="M 119.617 90.794 L 119.617 90.624 C 119.617 86.994 121.957 84.214 125.157 84.214 C 128.357 84.214 130.677 86.964 130.677 90.604 L 130.677 90.744 C 130.677 94.384 128.337 97.174 125.137 97.174 C 121.937 97.174 119.617 94.424 119.617 90.794 Z M 128.937 90.794 L 128.937 90.674 C 128.937 87.874 127.257 85.794 125.137 85.794 C 123.017 85.794 121.387 87.874 121.387 90.644 L 121.387 90.764 C 121.387 93.564 123.037 95.644 125.157 95.644 C 127.277 95.644 128.937 93.514 128.937 90.774 Z"/>
  <path d="M 131.867 84.454 L 133.687 84.454 L 137.177 94.694 L 140.717 84.454 L 142.527 84.454 L 137.967 97.014 L 136.417 97.014 Z"/>
  <path d="M 143.737 93.324 L 143.737 93.224 C 143.737 90.674 145.577 89.224 148.317 89.224 C 149.404 89.217 150.484 89.386 151.517 89.724 L 151.517 88.984 C 151.69 87.178 150.148 85.675 148.347 85.894 C 147.235 85.912 146.143 86.2 145.167 86.734 L 144.617 85.324 C 145.826 84.684 147.17 84.342 148.537 84.324 C 149.821 84.254 151.079 84.705 152.027 85.574 C 152.859 86.493 153.288 87.707 153.217 88.944 L 153.217 96.944 L 151.517 96.944 L 151.517 95.124 C 150.723 96.451 149.274 97.247 147.727 97.204 C 145.525 97.309 143.694 95.528 143.737 93.324 Z M 151.547 92.604 L 151.547 91.054 C 150.584 90.713 149.569 90.543 148.547 90.554 C 146.547 90.554 145.467 91.554 145.467 93.154 L 145.467 93.224 C 145.435 94.684 146.66 95.858 148.117 95.764 C 149.957 95.872 151.516 94.427 151.547 92.584 Z"/>
  <rect class="cls-2" x="61.047" y="40.984" width="135" height="19.75" style="fill: rgb(236, 25, 68);"/>
  <path class="cls-3" d="M 68.507 46.054 L 70.687 46.054 L 72.687 52.594 L 74.687 46.064 L 76.687 46.064 L 73.447 55.604 L 71.687 55.604 Z" style="fill: rgb(255, 255, 255);"/>
  <path class="cls-3" d="M 77.967 46.094 L 79.967 46.094 L 79.967 55.584 L 77.967 55.584 Z" style="fill: rgb(255, 255, 255);"/>
  <path class="cls-3" d="M 81.897 46.104 L 85.467 46.104 C 86.413 46.053 87.339 46.384 88.037 47.024 C 88.587 47.62 88.872 48.414 88.827 49.224 L 88.827 49.324 C 88.891 50.541 88.177 51.665 87.047 52.124 L 89.047 55.664 L 86.797 55.664 L 85.057 52.534 L 83.827 52.534 L 83.827 55.654 L 81.827 55.654 Z M 85.297 50.764 C 86.141 50.869 86.878 50.194 86.847 49.344 L 86.847 49.344 C 86.847 48.394 86.267 47.914 85.267 47.904 L 83.857 47.904 L 83.857 50.764 Z" style="fill: rgb(255, 255, 255);"/>
  <path class="cls-3" d="M 92.167 47.964 L 89.777 47.964 L 89.777 46.154 L 96.497 46.154 L 96.497 47.974 L 94.117 47.974 L 94.117 55.654 L 92.167 55.654 Z" style="fill: rgb(255, 255, 255);"/>
  <path class="cls-3" d="M 97.687 51.984 L 97.687 46.174 L 99.687 46.174 L 99.687 51.994 C 99.687 53.334 100.317 53.994 101.337 53.994 C 102.357 53.994 102.987 53.354 102.997 51.994 L 102.997 46.134 L 104.997 46.134 L 104.997 51.894 C 104.997 54.514 103.547 55.774 101.347 55.764 C 99.147 55.754 97.687 54.544 97.687 51.984 Z" style="fill: rgb(255, 255, 255);"/>
  <path class="cls-3" d="M 109.147 46.164 L 111.017 46.164 L 114.377 55.724 L 112.377 55.724 L 111.677 53.654 L 108.387 53.654 L 107.687 55.714 L 105.687 55.714 Z M 111.057 51.924 L 110.057 48.824 L 109.007 51.914 Z" style="fill: rgb(255, 255, 255);"/>
  <path class="cls-3" d="M 115.597 46.244 L 117.597 46.244 L 117.597 53.934 L 121.437 53.934 L 121.437 55.734 L 115.637 55.734 Z" style="fill: rgb(255, 255, 255);"/>
  <path class="cls-3" d="M 125.747 46.324 L 127.807 46.324 L 129.907 50.184 L 132.007 46.344 L 134.087 46.344 L 134.087 55.844 L 132.157 55.844 L 132.157 49.774 L 129.907 53.684 L 129.907 53.684 L 127.697 49.784 L 127.697 55.784 L 125.687 55.784 Z" style="fill: rgb(255, 255, 255);"/>
  <path class="cls-3" d="M 138.687 46.324 L 140.557 46.324 L 143.917 55.894 L 141.917 55.894 L 141.217 53.824 L 137.957 53.824 L 137.257 55.884 L 135.257 55.884 Z M 140.607 52.084 L 139.607 48.994 L 138.547 52.084 Z" style="fill: rgb(255, 255, 255);"/>
  <path class="cls-3" d="M 144.287 51.184 L 144.287 51.064 C 144.287 48.184 146.097 46.234 148.607 46.244 C 149.744 46.225 150.834 46.691 151.607 47.524 L 150.427 49.034 C 149.95 48.443 149.246 48.08 148.487 48.034 C 147.217 48.034 146.277 49.214 146.267 51.034 L 146.267 51.034 C 146.267 52.924 147.267 54.034 148.497 54.084 C 149.259 54.041 149.968 53.678 150.447 53.084 L 151.617 54.484 C 150.815 55.414 149.635 55.933 148.407 55.894 C 145.947 56.004 144.277 54.084 144.287 51.184 Z" style="fill: rgb(255, 255, 255);"/>
  <path class="cls-3" d="M 153.037 46.404 L 155.037 46.404 L 155.037 50.214 L 158.157 50.214 L 158.157 46.424 L 160.157 46.424 L 160.157 55.914 L 158.157 55.914 L 158.157 52.054 L 155.037 52.054 L 155.037 55.924 L 153.037 55.924 Z" style="fill: rgb(255, 255, 255);"/>
  <path class="cls-3" d="M 162.057 46.444 L 164.057 46.444 L 164.057 55.944 L 162.057 55.944 Z" style="fill: rgb(255, 255, 255);"/>
  <path class="cls-3" d="M 165.987 46.454 L 167.787 46.454 L 171.397 52.004 L 171.397 46.464 L 173.327 46.464 L 173.327 55.964 L 171.647 55.964 L 167.917 50.214 L 167.917 55.944 L 165.997 55.944 Z" style="fill: rgb(255, 255, 255);"/>
  <path class="cls-3" d="M 175.247 46.494 L 181.357 46.494 L 181.357 48.324 L 177.187 48.324 L 177.187 50.324 L 180.847 50.324 L 180.847 52.094 L 177.187 52.094 L 177.187 54.214 L 181.397 54.214 L 181.397 55.994 L 175.237 55.994 Z" style="fill: rgb(255, 255, 255);"/>
  <path class="cls-3" d="M 182.227 54.744 L 183.407 53.294 C 184.029 53.934 184.867 54.319 185.757 54.374 C 186.517 54.374 186.977 54.004 186.977 53.444 L 186.977 53.444 C 186.977 52.964 186.707 52.664 185.357 52.144 C 183.677 51.494 182.637 50.844 182.647 49.224 L 182.647 49.224 C 182.668 47.566 184.108 46.283 185.757 46.454 C 186.889 46.45 187.981 46.872 188.817 47.634 L 187.717 49.124 C 187.17 48.61 186.465 48.297 185.717 48.234 C 185.047 48.234 184.617 48.564 184.617 49.054 L 184.617 49.054 C 184.617 49.604 184.937 49.864 186.417 50.474 C 188.067 51.134 188.957 51.844 188.947 53.324 L 188.947 53.324 C 188.947 55.084 187.597 56.164 185.757 56.154 C 184.442 56.159 183.177 55.653 182.227 54.744 Z" style="fill: rgb(255, 255, 255);"/>
  <path d="M 281.687 95.694 L 290.757 81.804 L 282.017 81.804 L 282.017 80.174 L 293.077 80.174 L 293.077 81.394 L 284.037 95.324 L 293.117 95.324 L 293.117 96.944 L 281.687 96.944 Z"/>
  <path d="M 295.907 92.634 L 295.907 84.454 L 297.627 84.454 L 297.627 92.134 C 297.627 94.354 298.627 95.604 300.497 95.604 C 302.367 95.604 303.647 94.194 303.647 92.064 L 303.647 84.454 L 305.367 84.454 L 305.367 96.914 L 303.687 96.914 L 303.687 94.914 C 303.01 96.326 301.572 97.213 300.007 97.184 C 297.437 97.154 295.907 95.404 295.907 92.634 Z"/>
  <path d="M 308.897 84.454 L 310.617 84.454 L 310.617 86.454 C 311.294 85.042 312.732 84.155 314.297 84.184 C 316.827 84.184 318.357 85.924 318.357 88.724 L 318.357 96.874 L 316.687 96.874 L 316.687 89.204 C 316.687 86.974 315.637 85.734 313.817 85.734 C 311.997 85.734 310.667 87.164 310.667 89.294 L 310.667 96.874 L 308.947 96.874 Z"/>
  <rect class="cls-2" x="248.637" y="40.984" width="103.1" height="19.75" style="fill: rgb(236, 25, 68);"/>
  <path class="cls-3" d="M 260.907 50.954 L 260.907 50.834 C 260.907 47.954 262.717 46.014 265.217 46.024 C 266.369 45.988 267.481 46.451 268.267 47.294 L 267.077 48.814 C 266.61 48.216 265.905 47.851 265.147 47.814 C 263.877 47.814 262.937 48.984 262.927 50.814 L 262.927 50.814 C 262.927 52.704 263.927 53.864 265.147 53.864 C 265.929 53.845 266.662 53.478 267.147 52.864 L 268.317 54.264 C 267.509 55.193 266.328 55.71 265.097 55.674 C 262.567 55.774 260.897 53.854 260.907 50.954 Z" style="fill: rgb(255, 255, 255);"/>
  <path class="cls-3" d="M 269.017 51.014 L 269.017 50.854 C 269.017 48.004 270.817 46.014 273.327 46.024 C 275.837 46.034 277.597 48.024 277.587 50.864 L 277.587 51.024 C 277.587 53.864 275.777 55.864 273.277 55.844 C 270.777 55.824 268.997 53.854 269.017 51.014 Z M 275.557 51.014 L 275.557 50.914 C 275.557 49.044 274.617 47.864 273.307 47.854 C 271.997 47.844 271.037 49.014 271.027 50.854 L 271.027 50.954 C 271.027 52.824 271.977 54.004 273.297 54.014 C 274.617 54.024 275.547 52.874 275.557 51.004 Z" style="fill: rgb(255, 255, 255);"/>
  <path class="cls-3" d="M 279.167 46.214 L 280.977 46.214 L 284.587 51.764 L 284.587 46.224 L 286.507 46.224 L 286.507 55.724 L 284.827 55.724 L 281.097 49.974 L 281.097 55.704 L 279.167 55.704 Z" style="fill: rgb(255, 255, 255);"/>
  <path class="cls-3" d="M 290.237 48.074 L 287.857 48.074 L 287.857 46.264 L 294.577 46.264 L 294.577 48.074 L 292.187 48.074 L 292.187 55.754 L 290.187 55.754 Z" style="fill: rgb(255, 255, 255);"/>
  <path class="cls-3" d="M 297.617 46.234 L 299.487 46.234 L 302.847 55.794 L 300.847 55.794 L 300.157 53.724 L 296.887 53.724 L 296.187 55.784 L 294.187 55.784 Z M 299.537 51.994 L 298.537 48.904 L 297.477 51.984 Z" style="fill: rgb(255, 255, 255);"/>
  <path class="cls-3" d="M 304.137 46.324 L 306.137 46.324 L 306.137 55.824 L 304.137 55.824 Z" style="fill: rgb(255, 255, 255);"/>
  <path class="cls-3" d="M 308.077 46.324 L 309.877 46.324 L 313.487 51.874 L 313.487 46.334 L 315.407 46.334 L 315.407 55.834 L 313.687 55.834 L 309.957 50.084 L 309.957 55.814 L 308.037 55.814 Z" style="fill: rgb(255, 255, 255);"/>
  <path class="cls-3" d="M 317.327 46.374 L 323.437 46.374 L 323.437 48.154 L 319.277 48.154 L 319.277 50.204 L 322.937 50.204 L 322.937 51.974 L 319.277 51.974 L 319.277 54.084 L 323.497 54.084 L 323.497 55.864 L 317.327 55.864 Z" style="fill: rgb(255, 255, 255);"/>
  <path class="cls-3" d="M 325.047 46.404 L 328.607 46.404 C 329.551 46.351 330.477 46.679 331.177 47.314 C 331.73 47.913 332.015 48.711 331.967 49.524 L 331.967 49.524 C 332.033 50.739 331.323 51.862 330.197 52.324 L 332.197 55.864 L 329.947 55.864 L 328.217 52.734 L 326.987 52.734 L 326.987 55.854 L 324.987 55.854 Z M 328.437 51.054 C 329.282 51.174 330.027 50.496 329.987 49.644 L 329.987 49.644 C 329.987 48.694 329.417 48.224 328.407 48.214 L 326.997 48.214 L 326.997 51.074 Z" style="fill: rgb(255, 255, 255);"/>
  <path class="cls-3" d="M 332.817 54.654 L 333.987 53.214 C 334.617 53.848 335.456 54.232 336.347 54.294 C 337.097 54.294 337.567 53.914 337.567 53.364 L 337.567 53.364 C 337.567 52.894 337.297 52.594 335.947 52.074 C 334.267 51.414 333.227 50.774 333.237 49.144 L 333.237 49.144 C 333.251 47.484 334.697 46.2 336.347 46.384 C 337.478 46.376 338.57 46.793 339.407 47.554 L 338.297 49.044 C 337.749 48.531 337.045 48.218 336.297 48.154 C 335.617 48.154 335.197 48.494 335.197 48.984 L 335.197 48.984 C 335.197 49.524 335.517 49.784 336.987 50.404 C 338.647 51.054 339.537 51.764 339.527 53.244 L 339.527 53.244 C 339.527 55.004 338.177 56.084 336.327 56.084 C 335.018 56.073 333.762 55.561 332.817 54.654 Z" style="fill: rgb(255, 255, 255);"/>
  <rect class="cls-9" x="221.387" y="39.734" width="1" height="63.91" style="fill: rgb(255, 204, 216);"/>
</svg>