<?xml version="1.0" encoding="utf-8"?>
<svg viewBox="-397.235 -159.77 405.14 322.47" xmlns="http://www.w3.org/2000/svg">
  <polygon class="cls-3" points="417.61 131.59 417.61 244.93 437.96 245.76 435.85 235.88 435.86 235.25 436.05 234.69 436.47 234.28 437.07 234.01 437.67 234.03 438.26 234.25 458.31 248.75 458.52 248.96 458.72 249.21 458.86 249.46 458.95 249.78 458.94 250.41 458.83 250.65 458.69 250.96 458.47 251.17 458.26 251.37 437.65 265.04 437.05 265.24 436.46 265.23 435.87 265 435.46 264.54 435.29 263.94 435.3 263.38 437.81 253.56 417.61 253.91 417.61 441.46 54.77 441.46 54.77 131.59 417.61 131.59" style="fill: rgb(255, 255, 255);" transform="matrix(1, 0, 0, 1, -451.504852, -290.860016)"/>
  <path class="cls-10" d="M418.1,442H54.27V131.09H418.1V244.45l19.24.78-2-9.3,0-.84.22-.67.66-.59.7-.32.88.05.7.28,20.05,14.51.51.55.19.32.16.49-.06.9-.36.71-.44.42-20.79,13.78-.68.22-.85-.05-.7-.26-.58-.64-.21-.78,0-.75,2.34-9.19-19.06.33ZM55.27,441H417.1V253.42l21.35-.37-2.65,10.4v.43l.12.42.25.28.4.15H437l.45-.15L458,251l.29-.29.17-.37v-.45l-.17-.4-.33-.35L438,234.69l-.45-.17h-.39l-.42.18-.28.27-.12.37v.49l2.24,10.45-21.49-.87V132.09H55.27Z" style="fill: rgb(153, 153, 153);" transform="matrix(1, 0, 0, 1, -451.504852, -290.860016)"/>
  <g class="cls-4" transform="matrix(1, 0, 0, 1, -451.504852, -290.860016)" style="opacity: 0.15;">
    <polygon class="cls-5" points="406.87 452.56 65.23 452.56 56.59 441.35 418.19 441.35 406.87 452.56" style="fill: rgb(128, 133, 140);"/>
    <path class="cls-5" d="M407.28,453.56H64.74L54.55,440.35H420.63Zm-341.56-2H406.46l9.3-9.21H58.62Z" style="fill: rgb(128, 133, 140);"/>
  </g>
  <rect class="cls-3" x="102.02" y="331.82" width="271.67" height="86.18" rx="3.54" style="fill: rgb(255, 255, 255);" transform="matrix(1, 0, 0, 1, -451.504852, -290.860016)"/>
  <path class="cls-11" d="M370.15,418.5H105.56a4,4,0,0,1-4-4v-79.1a4,4,0,0,1,4-4H370.15a4,4,0,0,1,4,4v79.1A4,4,0,0,1,370.15,418.5ZM105.56,332.32a3,3,0,0,0-3,3v79.1a3,3,0,0,0,3,3H370.15a3,3,0,0,0,3-3v-79.1a3,3,0,0,0-3-3Z" style="fill: rgb(79, 87, 97);" transform="matrix(1, 0, 0, 1, -451.504852, -290.860016)"/>
  <path d="M182.43,369.08h4.69c3.3,0,5.45,1.87,5.45,4.94v0c0,3.29-2.48,5.06-5.65,5.09H184.1v5.48h-1.67Zm4.53,8.56c2.42,0,3.93-1.4,3.93-3.54v0c0-2.26-1.51-3.46-3.86-3.46H184.1v7Z" transform="matrix(1, 0, 0, 1, -451.504852, -290.860016)"/>
  <path d="M202.49,373.06h1.71l-4.1,11.77c-.82,2.4-1.82,3.23-3.38,3.23a4.27,4.27,0,0,1-2.08-.54l.49-1.33a3.09,3.09,0,0,0,1.51.42c.86,0,1.42-.49,2-2l-4.44-11.57h1.74l3.46,9.53Z" transform="matrix(1, 0, 0, 1, -451.504852, -290.860016)"/>
  <path d="M207.06,382v-7.47h-1.39v-1.42h1.39v-3.38h1.6v3.38h3v1.42h-3v7.2a1.48,1.48,0,0,0,1.67,1.67,3.43,3.43,0,0,0,1.35-.31v1.37a3.84,3.84,0,0,1-1.73.4A2.59,2.59,0,0,1,207.06,382Z" transform="matrix(1, 0, 0, 1, -451.504852, -290.860016)"/>
  <path d="M214.25,368.59h1.6V375a3.74,3.74,0,0,1,3.42-2.11c2.35,0,3.77,1.62,3.77,4.22v7.57h-1.6V377.5c0-2.06-1-3.22-2.66-3.22a3,3,0,0,0-2.93,3.31v7h-1.6Z" transform="matrix(1, 0, 0, 1, -451.504852, -290.860016)"/>
  <path d="M225.55,379v-.16c0-3.37,2.17-6,5.15-6s5.12,2.55,5.12,5.93v.13c0,3.38-2.17,6-5.15,6S225.55,382.32,225.55,379Zm8.65,0v-.11c0-2.6-1.55-4.53-3.53-4.53s-3.48,1.93-3.48,4.51v.11c0,2.6,1.53,4.54,3.51,4.54S234.2,381.48,234.2,378.92Z" transform="matrix(1, 0, 0, 1, -451.504852, -290.860016)"/>
  <path d="M238.48,373.06h1.6V375a3.74,3.74,0,0,1,3.42-2.11c2.35,0,3.77,1.62,3.77,4.22v7.57h-1.6V377.5c0-2.06-1-3.22-2.66-3.22a3,3,0,0,0-2.93,3.31v7h-1.6Z" transform="matrix(1, 0, 0, 1, -451.504852, -290.860016)"/>
  <path d="M255.33,382.66l1-1.27a6.17,6.17,0,0,0,4.37,1.93c1.86,0,3.11-1.13,3.11-2.62v0c0-1.29-.62-2.11-3.44-3.11-3.22-1.2-4.48-2.36-4.48-4.55v0c0-2.33,1.95-4.11,4.68-4.11a6.76,6.76,0,0,1,4.66,1.76l-1,1.28a5.59,5.59,0,0,0-3.73-1.51c-1.77,0-2.93,1.09-2.93,2.43v0c0,1.35.69,2.13,3.62,3.2,3.15,1.18,4.3,2.44,4.3,4.51v0c0,2.49-2,4.25-4.81,4.25A7.61,7.61,0,0,1,255.33,382.66Z" transform="matrix(1, 0, 0, 1, -451.504852, -290.860016)"/>
  <path d="M268.51,369.08h4.39c4.33,0,7.3,3.11,7.3,7.69v.16c0,4.55-3,7.7-7.3,7.7h-4.39Zm1.66,1.54V383.1h2.69c3.39,0,5.61-2.46,5.61-6.15v-.16c0-3.69-2.22-6.17-5.61-6.17Z" transform="matrix(1, 0, 0, 1, -451.504852, -290.860016)"/>
  <path d="M283.33,369.08H285v9l7.37-9h2.06l-5.65,6.8,6,8.75h-2l-5.1-7.39-2.62,3v4.35h-1.66Z" transform="matrix(1, 0, 0, 1, -451.504852, -290.860016)"/>
  <rect class="cls-3" x="182.78" y="317.83" width="99.36" height="27.15" style="fill: rgb(255, 255, 255);" transform="matrix(1, 0, 0, 1, -451.504852, -290.860016)"/>
  <path class="cls-11" d="M230.92,335.4l1.43-1.93a4.29,4.29,0,0,0,2.88,1.42c.93,0,1.49-.5,1.49-1.24v0c0-.63-.33-1-2-1.71-2-.87-3.33-1.72-3.33-3.88v0a3.57,3.57,0,0,1,3.8-3.69,5.24,5.24,0,0,1,3.74,1.55l-1.34,2a3.89,3.89,0,0,0-2.47-1.17c-.83,0-1.34.45-1.34,1.1v0c0,.72.4,1.06,2.2,1.87,2,.87,3.12,1.81,3.12,3.77v0a3.64,3.64,0,0,1-3.9,3.79A6,6,0,0,1,230.92,335.4Z" style="fill: rgb(79, 87, 97);" transform="matrix(1, 0, 0, 1, -451.504852, -290.860016)"/>
  <path class="cls-11" d="M240.88,324.47h3.75c3.36,0,5.53,2.52,5.53,6.22v.16c0,3.7-2.17,6.24-5.53,6.24h-3.75Zm2.4,2.36v7.9h1.33c1.82,0,3.06-1.39,3.06-3.89v-.09c0-2.51-1.24-3.92-3.06-3.92Z" style="fill: rgb(79, 87, 97);" transform="matrix(1, 0, 0, 1, -451.504852, -290.860016)"/>
  <path class="cls-11" d="M252.05,324.47h2.4v5.45l3.79-5.45h2.84l-3.9,5.36,4.06,7.26h-2.81l-2.9-5.19-1.08,1.48v3.71h-2.4Z" style="fill: rgb(79, 87, 97);" transform="matrix(1, 0, 0, 1, -451.504852, -290.860016)"/>
  <path class="cls-11" d="M261.64,335.94l1-1.8a4,4,0,0,0,2.37,1.08c.66,0,.94-.34.94-.74v0c0-.56-.66-.79-1.62-1.24-1.26-.6-2.34-1.28-2.34-2.92v0a2.85,2.85,0,0,1,3.05-3,4.92,4.92,0,0,1,2.93,1.05l-.94,1.84a3.82,3.82,0,0,0-2-.83c-.57,0-.86.31-.86.68v0c0,.5.66.79,1.6,1.26,1.3.67,2.36,1.37,2.36,2.91v0a2.86,2.86,0,0,1-3.14,3A5.09,5.09,0,0,1,261.64,335.94Z" style="fill: rgb(79, 87, 97);" transform="matrix(1, 0, 0, 1, -451.504852, -290.860016)"/>
  <path class="cls-11" d="M220.34,337.47a3.06,3.06,0,0,1-.88,2.3,3.29,3.29,0,0,1-2.36.84H206.51a3.29,3.29,0,0,1-2.36-.84,3.06,3.06,0,0,1-.88-2.3c0-.42,0-.84,0-1.25a11.38,11.38,0,0,1,.17-1.32,11.11,11.11,0,0,1,.32-1.32,6.15,6.15,0,0,1,.52-1.18,4.77,4.77,0,0,1,.75-1,3.51,3.51,0,0,1,1-.64,3.68,3.68,0,0,1,1.35-.25,1.43,1.43,0,0,1,.51.26l.91.59a5.6,5.6,0,0,0,1.31.58,5,5,0,0,0,1.61.26,5.08,5.08,0,0,0,1.62-.26,5.6,5.6,0,0,0,1.31-.58l.91-.59a1.43,1.43,0,0,1,.51-.26,3.68,3.68,0,0,1,1.35.25,3.33,3.33,0,0,1,1,.64,4.48,4.48,0,0,1,.76,1,6.83,6.83,0,0,1,.52,1.18,11.11,11.11,0,0,1,.32,1.32c.08.47.14.91.17,1.32S220.34,337.05,220.34,337.47Zm-5.24-14.12a4.67,4.67,0,0,1,0,6.59,4.66,4.66,0,0,1-7.95-3.3,4.66,4.66,0,0,1,7.95-3.29Z" style="fill: rgb(79, 87, 97);" transform="matrix(1, 0, 0, 1, -451.504852, -290.860016)"/>
  <rect class="cls-3" x="102.02" y="211" width="271.67" height="88" rx="3.58" style="fill: rgb(255, 255, 255);" transform="matrix(1, 0, 0, 1, -451.504852, -290.860016)"/>
  <path class="cls-11" d="M370.11,299.5H105.59a4.08,4.08,0,0,1-4.07-4.08V214.58a4.08,4.08,0,0,1,4.07-4.08H370.11a4.08,4.08,0,0,1,4.08,4.08v80.84A4.08,4.08,0,0,1,370.11,299.5Zm-264.52-88a3.08,3.08,0,0,0-3.07,3.08v80.84a3.08,3.08,0,0,0,3.07,3.08H370.11a3.08,3.08,0,0,0,3.08-3.08V214.58a3.08,3.08,0,0,0-3.08-3.08Z" style="fill: rgb(79, 87, 97);" transform="matrix(1, 0, 0, 1, -451.504852, -290.860016)"/>
  <path d="M159.53,252.12v-.18c0-4.58,2.76-7.95,6.7-7.95s6.66,3.35,6.66,7.91v.17c0,4.58-2.73,8-6.68,8S159.53,256.67,159.53,252.12Zm11.65,0v-.16c0-3.75-2.11-6.42-5-6.42s-5,2.64-5,6.4v.15c0,3.76,2.11,6.42,5,6.42S171.18,255.85,171.18,252.1Z" transform="matrix(1, 0, 0, 1, -451.504852, -290.860016)"/>
  <path d="M175.8,248.21h1.6v2.22a4.3,4.3,0,0,1,3.75-2.44c2.35,0,4.61,2,4.61,5.88v.22c0,3.85-2.26,5.91-4.61,5.91a4.27,4.27,0,0,1-3.75-2.37v5.48h-1.6Zm8.32,5.88v-.17c0-2.82-1.51-4.49-3.28-4.49s-3.51,1.75-3.51,4.46v.23c0,2.71,1.69,4.44,3.51,4.44S184.12,256.94,184.12,254.09Z" transform="matrix(1, 0, 0, 1, -451.504852, -290.860016)"/>
  <path d="M187.85,254.09V254c0-3.53,2.06-6,4.77-6,2.9,0,4.64,2.48,4.64,6a5.31,5.31,0,0,1,0,.67h-7.76c.18,2.55,1.75,4,3.57,4a4.08,4.08,0,0,0,3-1.33l.9,1a5.21,5.21,0,0,1-4,1.74C190.16,260,187.85,257.76,187.85,254.09Zm7.81-.71c-.11-2.2-1.16-4-3-4-1.71,0-3,1.58-3.15,4Z" transform="matrix(1, 0, 0, 1, -451.504852, -290.860016)"/>
  <path d="M199.83,248.21h1.6v1.89a3.72,3.72,0,0,1,3.41-2.11c2.36,0,3.78,1.62,3.78,4.22v7.57H207v-7.13c0-2.07-1-3.22-2.66-3.22a3,3,0,0,0-2.93,3.31v7h-1.6Z" transform="matrix(1, 0, 0, 1, -451.504852, -290.860016)"/>
  <path d="M210.93,257.8l1-1.26a6.15,6.15,0,0,0,4.37,1.93c1.86,0,3.1-1.13,3.1-2.62v0c0-1.29-.62-2.11-3.43-3.11-3.22-1.2-4.49-2.36-4.49-4.56v0c0-2.33,2-4.11,4.69-4.11a6.71,6.71,0,0,1,4.65,1.75l-1,1.29a5.59,5.59,0,0,0-3.73-1.51c-1.78,0-2.93,1.09-2.93,2.42v0c0,1.35.69,2.13,3.62,3.2,3.15,1.17,4.3,2.44,4.3,4.51v0c0,2.49-2,4.24-4.81,4.24A7.55,7.55,0,0,1,210.93,257.8Z" transform="matrix(1, 0, 0, 1, -451.504852, -290.860016)"/>
  <path d="M224.33,257.09v-7.46h-1.4v-1.42h1.4v-3.38h1.6v3.38h3v1.42h-3v7.2a1.46,1.46,0,0,0,1.66,1.66,3.39,3.39,0,0,0,1.35-.31v1.38a3.94,3.94,0,0,1-1.73.4A2.59,2.59,0,0,1,224.33,257.09Z" transform="matrix(1, 0, 0, 1, -451.504852, -290.860016)"/>
  <path d="M230.76,256.43v-.09c0-2.38,1.71-3.73,4.26-3.73a9.77,9.77,0,0,1,3,.46v-.69a2.64,2.64,0,0,0-3-2.86,6.22,6.22,0,0,0-2.95.78l-.51-1.32a8,8,0,0,1,3.64-.93,4.38,4.38,0,0,1,3.24,1.16,4.29,4.29,0,0,1,1.11,3.13v7.44H238v-1.69a4,4,0,0,1-3.53,1.94A3.54,3.54,0,0,1,230.76,256.43Zm7.26-.67v-1.44a8.08,8.08,0,0,0-2.8-.47c-1.84,0-2.86,1-2.86,2.42v.07a2.31,2.31,0,0,0,2.46,2.35A3,3,0,0,0,238,255.76Z" transform="matrix(1, 0, 0, 1, -451.504852, -290.860016)"/>
  <path d="M242.06,254.12V254c0-3.51,2.26-6,5.14-6a4.86,4.86,0,0,1,3.64,1.57l-1,1.2a3.73,3.73,0,0,0-2.71-1.31c-1.93,0-3.48,1.82-3.48,4.51v.11c0,2.74,1.6,4.49,3.55,4.49a3.75,3.75,0,0,0,2.71-1.33l.93,1.06a4.76,4.76,0,0,1-3.73,1.74C244.25,260,242.06,257.63,242.06,254.12Z" transform="matrix(1, 0, 0, 1, -451.504852, -290.860016)"/>
  <path d="M253.26,243.74h1.6v10.78l5.13-6.31h1.93l-4.06,4.86,4.21,6.71h-1.88l-3.42-5.44-1.91,2.24v3.2h-1.6Z" transform="matrix(1, 0, 0, 1, -451.504852, -290.860016)"/>
  <path d="M263.83,252.1V252c0-4.71,2.92-8,6.81-8a6.46,6.46,0,0,1,4.72,1.91l-1,1.27a5.2,5.2,0,0,0-3.73-1.63c-2.86,0-5.05,2.63-5.05,6.38V252c0,3.82,2.19,6.42,5.05,6.42a5.28,5.28,0,0,0,3.84-1.73l1,1.15a6.62,6.62,0,0,1-4.92,2.13C266.69,260,263.83,256.83,263.83,252.1Z" transform="matrix(1, 0, 0, 1, -451.504852, -290.860016)"/>
  <path d="M278,243.74h1.6v16H278Z" transform="matrix(1, 0, 0, 1, -451.504852, -290.860016)"/>
  <path d="M283,243.94h1.78v1.89H283Zm.09,4.27h1.6v11.57h-1.6Z" transform="matrix(1, 0, 0, 1, -451.504852, -290.860016)"/>
  <path d="M287.52,254.09V254c0-3.53,2.07-6,4.77-6,2.91,0,4.64,2.48,4.64,6,0,.16,0,.47,0,.67h-7.77c.18,2.55,1.76,4,3.57,4a4.06,4.06,0,0,0,3-1.33l.91,1a5.21,5.21,0,0,1-4,1.74C289.83,260,287.52,257.76,287.52,254.09Zm7.81-.71c-.11-2.2-1.15-4-3-4-1.71,0-3,1.58-3.15,4Z" transform="matrix(1, 0, 0, 1, -451.504852, -290.860016)"/>
  <path d="M299.51,248.21h1.59v1.89a3.74,3.74,0,0,1,3.42-2.11c2.35,0,3.77,1.62,3.77,4.22v7.57h-1.6v-7.13c0-2.07-1-3.22-2.66-3.22a3,3,0,0,0-2.93,3.31v7h-1.59Z" transform="matrix(1, 0, 0, 1, -451.504852, -290.860016)"/>
  <path d="M311.89,257.09v-7.46h-1.4v-1.42h1.4v-3.38h1.59v3.38h3v1.42h-3v7.2a1.47,1.47,0,0,0,1.67,1.66,3.39,3.39,0,0,0,1.35-.31v1.38a3.94,3.94,0,0,1-1.73.4A2.59,2.59,0,0,1,311.89,257.09Z" transform="matrix(1, 0, 0, 1, -451.504852, -290.860016)"/>
  <rect class="cls-3" x="182.78" y="197.83" width="99.36" height="27.15" style="fill: rgb(255, 255, 255);" transform="matrix(1, 0, 0, 1, -451.504852, -290.860016)"/>
  <path class="cls-11" d="M231.35,210.87v-.16c0-3.82,2.19-6.42,5.26-6.42a4.65,4.65,0,0,1,3.72,1.68l-1.44,2a3.12,3.12,0,0,0-2.37-1.27c-1.55,0-2.7,1.57-2.7,4v.05c0,2.51,1.2,4,2.74,4a3.18,3.18,0,0,0,2.38-1.32l1.44,1.86a4.86,4.86,0,0,1-3.92,1.89C233.41,217.27,231.35,214.73,231.35,210.87Z" style="fill: rgb(79, 87, 97);" transform="matrix(1, 0, 0, 1, -451.504852, -290.860016)"/>
  <path class="cls-11" d="M242,204.47h2.41v10.22h4.69v2.4H242Z" style="fill: rgb(79, 87, 97);" transform="matrix(1, 0, 0, 1, -451.504852, -290.860016)"/>
  <path class="cls-11" d="M250.8,204.47h2.41v12.62H250.8Z" style="fill: rgb(79, 87, 97);" transform="matrix(1, 0, 0, 1, -451.504852, -290.860016)"/>
  <path class="cls-11" d="M254.71,215.94l1-1.8a4,4,0,0,0,2.37,1.08c.66,0,.95-.34.95-.74v0c0-.56-.67-.79-1.63-1.24-1.26-.6-2.33-1.28-2.33-2.92v0a2.85,2.85,0,0,1,3-3,4.94,4.94,0,0,1,2.93,1.05l-.95,1.84a3.82,3.82,0,0,0-2-.83c-.56,0-.86.31-.86.68v0c0,.5.66.79,1.61,1.26,1.29.67,2.35,1.37,2.35,2.91v0a2.86,2.86,0,0,1-3.13,3A5.1,5.1,0,0,1,254.71,215.94Z" style="fill: rgb(79, 87, 97);" transform="matrix(1, 0, 0, 1, -451.504852, -290.860016)"/>
  <path class="cls-12" d="M220.85,202.15H202.17a1.56,1.56,0,0,0-1.56,1.56v15.57a1.56,1.56,0,0,0,1.56,1.56h18.68a1.56,1.56,0,0,0,1.56-1.56V203.71a1.56,1.56,0,0,0-1.56-1.56Zm-3.51,12.75h-8.55v-2.14h8.55v2.14Zm-13.77-1.7,3.27-3.26-3.27-3.27L205.2,205l4.9,4.9-4.9,4.9Z" style="fill: rgb(79, 87, 97); fill-rule: evenodd;" transform="matrix(1, 0, 0, 1, -451.504852, -290.860016)"/>
  <path d="M166.48,161.14V161c0-4.36,2.71-7.32,6.51-7.32a6.05,6.05,0,0,1,4.63,1.91l-1.79,2.3a4,4,0,0,0-2.94-1.44c-1.93,0-3.35,1.79-3.35,4.59v.06c0,2.86,1.48,4.61,3.39,4.61a4,4,0,0,0,3-1.5l1.79,2.12a6.27,6.27,0,0,1-4.87,2.16C169,168.44,166.48,165.54,166.48,161.14Z" transform="matrix(1, 0, 0, 1, -451.504852, -290.860016)"/>
  <path d="M179.71,153.83h3V165.5h5.82v2.73h-8.8Z" transform="matrix(1, 0, 0, 1, -451.504852, -290.860016)"/>
  <path d="M190.6,153.83h3v14.4h-3Z" transform="matrix(1, 0, 0, 1, -451.504852, -290.860016)"/>
  <path d="M196.56,153.83h9.27v2.7h-6.31v3.1h5.54v2.7h-5.54v3.21h6.39v2.69h-9.35Z" transform="matrix(1, 0, 0, 1, -451.504852, -290.860016)"/>
  <path d="M208.25,153.83H211l5.51,8.4v-8.4h2.92v14.4h-2.55l-5.69-8.7v8.7h-2.92Z" transform="matrix(1, 0, 0, 1, -451.504852, -290.860016)"/>
  <path d="M225,156.59h-3.61v-2.76h10.19v2.76H228v11.64h-3Z" transform="matrix(1, 0, 0, 1, -451.504852, -290.860016)"/>
  <path d="M241,156.59h-3.62v-2.76h10.19v2.76h-3.61v11.64h-3Z" transform="matrix(1, 0, 0, 1, -451.504852, -290.860016)"/>
  <path d="M248.5,161.18v-.25c0-4.32,2.71-7.34,6.51-7.34s6.5,3,6.5,7.3v.25c0,4.29-2.72,7.34-6.52,7.34S248.5,165.48,248.5,161.18Zm9.92-.06V161c0-2.84-1.44-4.63-3.43-4.63s-3.43,1.77-3.43,4.61v.14c0,2.84,1.46,4.63,3.45,4.63S258.42,164,258.42,161.12Z" transform="matrix(1, 0, 0, 1, -451.504852, -290.860016)"/>
  <path d="M263.35,161.18v-.25c0-4.32,2.71-7.34,6.52-7.34s6.49,3,6.49,7.3v.25c0,4.29-2.71,7.34-6.51,7.34S263.35,165.48,263.35,161.18Zm9.93-.06V161c0-2.84-1.44-4.63-3.43-4.63s-3.44,1.77-3.44,4.61v.14c0,2.84,1.46,4.63,3.46,4.63S273.28,164,273.28,161.12Z" transform="matrix(1, 0, 0, 1, -451.504852, -290.860016)"/>
  <path d="M278.72,153.83h3V165.5h5.82v2.73h-8.8Z" transform="matrix(1, 0, 0, 1, -451.504852, -290.860016)"/>
  <path d="M288.46,166.3l1.77-2.2a5.5,5.5,0,0,0,3.57,1.62c1.15,0,1.85-.57,1.85-1.42v0c0-.72-.41-1.17-2.46-1.95-2.55-1-4.14-2-4.14-4.42v0c0-2.51,1.94-4.22,4.71-4.22a6.82,6.82,0,0,1,4.65,1.77l-1.67,2.26a5,5,0,0,0-3.06-1.34c-1,0-1.67.52-1.67,1.26v0c0,.82.5,1.21,2.74,2.14,2.51,1,3.86,2.05,3.86,4.3v0c0,2.67-2,4.32-4.83,4.32A7.71,7.71,0,0,1,288.46,166.3Z" transform="matrix(1, 0, 0, 1, -451.504852, -290.860016)"/>
</svg>