<?xml version="1.0" encoding="utf-8"?>
<svg viewBox="56.154 164.82 508 305" xmlns="http://www.w3.org/2000/svg">
  <rect id="Rectangle-path" stroke="#E9E9E9" fill="#F7F7F7" fill-rule="nonzero" x="549" y="97" width="508" height="305" transform="matrix(1, 0, 0, 1, -492.846252, 67.819977)"/>
  <polygon id="Shape" stroke="#28658E" stroke-width="2" fill="#CFEEFF" fill-rule="nonzero" points="1025.3 381 582.771 381 581 325.648 633.491 187 974.509 187 1027 325.648" transform="matrix(1, 0, 0, 1, -492.846252, 67.819977)"/>
  <g id="Group-21" transform="matrix(1, 0, 0, 1, 238.153748, 408.819977)">
    <g id="Group-3" transform="translate(0.000000, 0.669500)">
      <mask id="mask-8" fill="white">
        <polygon points="0 0.3306 26.8538107 0.3306 26.8538107 8.8336 0 8.8336" transform="matrix(1, 0, 0, 1, 0, 0)"/>
      </mask>
      <g id="Clip-2"/>
      <path d="M24.375304,0.3306 L2.51077067,0.3306 C1.14423733,0.3306 -0.000296,1.4576 -0.000296,2.8746 L-0.000296,8.8336 L6.06967733,8.8336 L6.06967733,7.8676 C6.06967733,7.1266 6.674504,6.5146 7.40463733,6.5146 L19.449864,6.5146 C20.180984,6.5146 20.7838373,7.1266 20.7838373,7.8676 L20.7838373,8.8336 L26.8538107,8.8336 L26.8538107,2.8746 C26.8538107,1.4906 25.7418373,0.3306 24.375304,0.3306" id="Fill-1" fill="#EC1944" mask="url(#mask-8)"/>
    </g>
    <path d="M20.7841333,20.1324 C20.7841333,20.8734 20.1802933,21.4854 19.4491733,21.4854 L7.40493333,21.4854 C6.67381333,21.4854 6.06997333,20.8734 6.06997333,20.1324 L6.06997333,19.1664 L0,19.1664 L0,25.1254 C0,26.5094 1.11296,27.6694 2.51008,27.6694 L24.3756,27.6694 C25.7421333,27.6694 26.88568,26.5424 26.88568,25.1254 L26.88568,19.1664 L20.7841333,19.1664 L20.7841333,20.1324 Z" id="Fill-4" fill="#EC1944"/>
    <mask id="mask-10" fill="white">
      <polygon points="0 27.6695 148 27.6695 148 0.9995 0 0.9995" transform="matrix(1, 0, 0, 1, 0, 0)"/>
    </mask>
    <g id="Clip-7"/>
    <polygon id="Fill-6" fill="#EC1944" mask="url(#mask-10)" points="0 17.4265 6.06997333 17.4265 6.06997333 11.2745 0 11.2745"/>
    <polygon id="Fill-8" fill="#EC1944" mask="url(#mask-10)" points="20.7841333 17.4265 26.8541067 17.4265 26.8541067 11.2745 20.7841333 11.2745"/>
    <path d="M146.283496,20.8087 C145.584936,20.8087 144.981096,20.2287 144.981096,19.4887 C144.981096,18.7797 145.553363,18.1677 146.283496,18.1677 C147.014616,18.1677 147.586883,18.7477 147.586883,19.4887 C147.586883,20.2287 147.014616,20.8087 146.283496,20.8087 M147.999309,19.4887 C147.999309,18.5217 147.237603,17.7487 146.283496,17.7487 C145.330376,17.7487 144.567683,18.5217 144.567683,19.4887 C144.567683,20.4547 145.330376,21.2277 146.283496,21.2277 C147.237603,21.2277 147.999309,20.4547 147.999309,19.4887" id="Fill-9" fill="#4E4540" mask="url(#mask-10)"/>
    <path d="M146.601499,19.1983 C146.601499,19.3593 146.505792,19.4563 146.315365,19.4563 L146.060805,19.4563 L146.060805,18.9403 L146.315365,18.9403 C146.474219,18.9403 146.601499,19.0373 146.601499,19.1983 M146.950779,19.1983 C146.950779,19.0373 146.887632,18.8763 146.824485,18.8123 C146.728779,18.7153 146.569925,18.6513 146.378512,18.6513 L145.744085,18.6513 L145.744085,20.3583 L146.092379,20.3583 L146.092379,19.8103 L146.315365,19.8103 L146.633072,20.3583 L147.014912,20.3583 L146.664645,19.7143 C146.824485,19.6173 146.950779,19.4563 146.950779,19.1983" id="Fill-10" fill="#4E4540" mask="url(#mask-10)"/>
    <path d="M35.8481653,14.399 L35.8481653,14.238 C35.8481653,11.661 37.1505653,9.761 39.185072,9.761 C41.1554453,9.761 42.5851253,11.693 42.5851253,14.27 L42.5851253,14.431 C42.5851253,17.008 41.2827253,18.941 39.2482187,18.941 C37.246272,18.941 35.8481653,16.976 35.8481653,14.399 M45.4770453,14.463 L45.4770453,14.238 C45.4770453,10.148 42.8396853,7.184 39.2166453,7.184 C35.5936053,7.184 32.924672,10.212 32.924672,14.27 L32.924672,14.496 C32.924672,18.586 35.562032,21.55 39.185072,21.55 C42.808112,21.518 45.4770453,18.522 45.4770453,14.463" id="Fill-11" fill="#4E4540" mask="url(#mask-10)"/>
    <path d="M49.9900587,14.4634 L49.9900587,14.2064 C49.9900587,11.5004 51.483872,9.7604 53.2322453,9.7604 C54.979632,9.7604 56.409312,11.4674 56.409312,14.2064 L56.409312,14.4314 C56.409312,17.2014 55.0112053,18.8764 53.2322453,18.8764 C51.483872,18.8764 49.9900587,17.1694 49.9900587,14.4634 M59.333792,14.4954 L59.333792,14.1414 C59.333792,9.4714 56.7595787,7.1514 54.026512,7.1514 C52.0561387,7.1514 50.880032,8.3114 50.0532053,9.6314 L50.0532053,7.4094 L47.1612853,7.4094 L47.1612853,25.1574 L50.0532053,25.1574 L50.0532053,19.1334 C50.880032,20.3584 52.0561387,21.4854 54.026512,21.4854 C56.791152,21.4854 59.333792,19.1334 59.333792,14.4954" id="Fill-12" fill="#4E4540" mask="url(#mask-10)"/>
    <path d="M66.70656,9.6319 C68.3908,9.6319 69.37648,11.2109 69.5353333,13.4009 L63.7830667,13.4009 C64.0050667,11.0489 65.1180267,9.6319 66.70656,9.6319 M71.9181333,19.3919 L70.3927467,17.5559 C69.5027733,18.4579 68.5496533,19.0049 67.2462667,19.0049 C65.4673067,19.0049 64.0692,17.7489 63.81464,15.4299 L72.36312,15.4299 C72.39568,15.0109 72.39568,14.5919 72.39568,14.3989 C72.39568,10.2439 70.4253067,7.1199 66.7381333,7.1199 C63.4012267,7.1199 60.92272,10.0829 60.92272,14.2379 L60.92272,14.4309 C60.92272,18.7479 63.6557867,21.4859 67.1515467,21.4859 C69.1534933,21.5179 70.67888,20.7129 71.9181333,19.3919" id="Fill-13" fill="#4E4540" mask="url(#mask-10)"/>
    <path d="M80.9120933,7.1519 C79.069,7.1519 77.9570267,8.2149 77.1933467,9.4389 L77.1933467,7.4099 L74.3024133,7.4099 L74.3024133,21.2279 L77.1933467,21.2279 L77.1933467,12.8529 C77.1933467,10.9529 78.24316,9.7929 79.7685467,9.7929 C81.3255067,9.7929 82.2144933,10.8559 82.2144933,12.7889 L82.2144933,21.1949 L85.1074,21.1949 L85.1074,11.9509 C85.1074,9.0199 83.55044,7.1519 80.9120933,7.1519" id="Fill-14" fill="#4E4540" mask="url(#mask-10)"/>
    <path d="M96.8336373,17.2979 C96.8336373,15.1079 95.245104,14.1099 93.1148907,13.1429 C91.5263573,12.4019 90.4459573,11.9509 90.4459573,11.0169 L90.4459573,10.9529 C90.4459573,10.2119 91.0823573,9.5999 92.1627573,9.5999 C93.2421707,9.5999 94.3876907,10.1149 95.4039573,10.8239 L96.6441973,8.6659 C95.372384,7.7319 93.7512907,7.1839 92.225904,7.1839 C89.683264,7.1839 87.7128907,8.7619 87.7128907,11.2109 L87.7128907,11.2749 C87.7128907,13.5289 89.3971307,14.4959 91.4306507,15.3649 C93.051744,16.0739 94.1005707,16.5249 94.1005707,17.4909 L94.1005707,17.5239 C94.1005707,18.3929 93.401024,19.0369 92.1943307,19.0369 C90.9866507,19.0369 89.683264,18.4249 88.4440107,17.4269 L87.0774773,19.5529 C88.6344373,20.8729 90.5100907,21.4849 92.1301973,21.4849 C94.8001173,21.4849 96.8336373,20.0039 96.8336373,17.2979" id="Fill-15" fill="#4E4540" mask="url(#mask-10)"/>
    <path d="M105.827301,20.8409 L105.827301,18.4249 C105.351728,18.6829 104.811035,18.8119 104.270341,18.8119 C103.348795,18.8119 102.808101,18.3609 102.808101,17.2979 L102.808101,9.9539 L105.858875,9.9539 L105.858875,7.4099 L102.808101,7.4099 L102.808101,3.6739 L99.917168,3.6739 L99.917168,7.4099 L98.4233547,7.4099 L98.8999147,9.9539 L99.917168,9.9539 L99.917168,17.8779 C99.917168,20.5509 101.442555,21.4209 103.444501,21.4209 C104.366048,21.4529 105.160315,21.1949 105.827301,20.8409" id="Fill-16" fill="#4E4540" mask="url(#mask-10)"/>
    <path d="M115.520512,16.5894 C115.520512,18.1674 114.249685,19.2954 112.565445,19.2624 C111.293632,19.2304 110.340512,18.4574 110.340512,17.0724 L110.340512,17.0084 C110.340512,15.5584 111.325205,14.6894 112.978859,14.6894 C113.963552,14.6894 114.821952,14.8824 115.488939,15.1724 L115.488939,16.5894 L115.520512,16.5894 Z M116.950192,8.6664 C116.061205,7.7634 114.726245,7.2484 112.947285,7.2484 C111.135765,7.2484 109.768245,7.6994 108.433285,8.3434 L109.260112,10.6944 C110.150085,10.2764 111.230485,9.8574 112.565445,9.8574 C114.408539,9.8574 115.488939,10.8234 115.488939,12.6594 L115.488939,13.2394 C114.567392,12.9174 113.645845,12.6924 112.342459,12.6924 C109.450539,12.6924 107.512725,14.1414 107.512725,17.1364 L107.512725,17.2654 C107.512725,19.9394 109.418965,21.4854 111.675472,21.4854 C113.454432,21.4854 114.663099,20.7124 115.457365,19.5204 L115.457365,21.2274 L118.317712,21.2274 L118.317712,12.6594 C118.317712,10.9204 117.872725,9.5684 116.950192,8.6664 Z" id="Fill-17" fill="#4E4540" mask="url(#mask-10)"/>
    <path d="M130.679955,19.4239 L129.122995,17.4589 C128.327741,18.2639 127.534461,18.8759 126.357368,18.8759 C124.386995,18.8759 122.988888,17.0719 122.988888,14.3989 L122.988888,14.2699 C122.988888,11.6609 124.386995,9.8249 126.294221,9.8249 C127.534461,9.8249 128.327741,10.4379 129.058861,11.2109 L130.679955,9.0519 C129.536408,7.8929 128.264595,7.1839 126.294221,7.1839 C122.734328,7.1839 120.065395,10.1479 120.065395,14.2699 L120.065395,14.5279 C120.065395,18.6509 122.639608,21.5499 126.198515,21.5499 C128.233021,21.5179 129.598568,20.6479 130.679955,19.4239" id="Fill-18" fill="#4E4540" mask="url(#mask-10)"/>
    <polygon id="Fill-19" fill="#4E4540" mask="url(#mask-10)" points="139.578208 14.045 137.543701 16.267 140.277755 21.228 143.646235 21.228"/>
    <polygon id="Fill-20" fill="#4E4540" mask="url(#mask-10)" points="140.055163 7.4097 135.414869 13.4967 135.414869 2.4167 132.491376 2.4167 132.491376 21.2277 135.414869 21.2277 135.414869 17.2337 143.519349 7.4097"/>
  </g>
  <path d="M 581 325.877 L 1027 325.877" id="Shape" stroke="#286391" stroke-width="2" transform="matrix(1, 0, 0, 1, -492.846252, 67.819977)"/>
</svg>