<?xml version="1.0" encoding="utf-8"?>
<svg viewBox="149.154 352.82 333 26" xmlns="http://www.w3.org/2000/svg">
  <path d="M106.85,285 L414.15,285 C421.246859,285 427,290.753141 427,297.85 L427,298.15 C427,305.246859 421.246859,311 414.15,311 L106.85,311 C99.753141,311 94,305.246859 94,298.15 L94,297.85 C94,290.753141 99.753141,285 106.85,285 Z" id="Rectangle-path" stroke="#08497C" stroke-width="2" fill="#35A2DE" fill-rule="nonzero" transform="matrix(1, 0, 0, 1, 55.15377, 67.819977)"/>
  <path d="M148.401408,298.791016 C148.401408,299.552738 148.130187,300.150388 147.587735,300.583984 C147.045283,301.01758 146.297018,301.234375 145.342919,301.234375 C144.388819,301.234375 143.607854,301.083986 143,300.783203 L143,299.458984 C143.384718,299.642579 143.793474,299.787109 144.226281,299.892578 C144.659089,299.998047 145.062074,300.050781 145.43525,300.050781 C145.981549,300.050781 146.384535,299.945314 146.644219,299.734375 C146.903904,299.523436 147.033744,299.240236 147.033744,298.884766 C147.033744,298.564452 146.914483,298.29297 146.675959,298.070312 C146.437434,297.847655 145.945002,297.583986 145.19865,297.279297 C144.429215,296.962889 143.886771,296.601565 143.571303,296.195312 C143.255834,295.78906 143.098103,295.300784 143.098103,294.730469 C143.098103,294.015621 143.348165,293.453127 143.848298,293.042969 C144.348431,292.63281 145.019753,292.427734 145.862285,292.427734 C146.670192,292.427734 147.47424,292.60742 148.274452,292.966797 L147.835876,294.109375 C147.085677,293.789061 146.416278,293.628906 145.82766,293.628906 C145.381388,293.628906 145.042842,293.727538 144.812011,293.924805 C144.58118,294.122071 144.465767,294.382811 144.465767,294.707031 C144.465767,294.929689 144.511932,295.120116 144.604264,295.27832 C144.696597,295.436524 144.848558,295.585937 145.060153,295.726562 C145.271747,295.867188 145.652612,296.052733 146.202758,296.283203 C146.822154,296.544923 147.276114,296.789061 147.564652,297.015625 C147.85319,297.242189 148.064782,297.498045 148.199433,297.783203 C148.334084,298.068361 148.401408,298.404295 148.401408,298.791016 Z M155.505184,301.117188 L154.14329,301.117188 L154.14329,297.132812 C154.14329,296.63281 154.044227,296.259767 153.846097,296.013672 C153.647968,295.767577 153.333466,295.644531 152.902582,295.644531 C152.3332,295.644531 151.914826,295.817381 151.647447,296.163086 C151.380068,296.508791 151.246381,297.087887 151.246381,297.900391 L151.246381,301.117188 L149.890258,301.117188 L149.890258,292 L151.246381,292 L151.246381,294.314453 C151.246381,294.685549 151.223298,295.082029 151.177132,295.503906 L151.263693,295.503906 C151.448358,295.191405 151.705153,294.94922 152.034086,294.777344 C152.36302,294.605468 152.74677,294.519531 153.185348,294.519531 C154.731913,294.519531 155.505184,295.310539 155.505184,296.892578 L155.505184,301.117188 Z M161.385563,301.117188 L161.114339,300.214844 L161.068173,300.214844 C160.760399,300.609377 160.450706,300.877929 160.139085,301.020508 C159.827463,301.163087 159.427363,301.234375 158.938772,301.234375 C158.311682,301.234375 157.822136,301.062502 157.470119,300.71875 C157.118103,300.374998 156.942097,299.888675 156.942097,299.259766 C156.942097,298.591794 157.186389,298.087892 157.67498,297.748047 C158.163572,297.408201 158.907989,297.222656 159.908255,297.191406 L161.010466,297.15625 L161.010466,296.810547 C161.010466,296.396482 160.915249,296.086915 160.724814,295.881836 C160.534379,295.676757 160.239113,295.574219 159.839006,295.574219 C159.511996,295.574219 159.198456,295.623046 158.898376,295.720703 C158.598297,295.81836 158.309763,295.933593 158.032766,296.066406 L157.59419,295.082031 C157.940436,294.898437 158.319377,294.75879 158.731025,294.663086 C159.142673,294.567382 159.531232,294.519531 159.896714,294.519531 C160.708468,294.519531 161.321121,294.699217 161.734693,295.058594 C162.148264,295.417971 162.355047,295.982418 162.355047,296.751953 L162.355047,301.117188 L161.385563,301.117188 Z M159.365806,300.179688 C159.858245,300.179688 160.253536,300.04004 160.551692,299.760742 C160.849848,299.481444 160.998924,299.089846 160.998924,298.585938 L160.998924,298.023438 L160.17948,298.058594 C159.540848,298.082031 159.076309,298.190429 158.785847,298.383789 C158.495385,298.577149 158.350156,298.873045 158.350156,299.271484 C158.350156,299.560548 158.434793,299.784179 158.604069,299.942383 C158.773345,300.100587 159.027254,300.179688 159.365806,300.179688 Z M167.485231,294.519531 C167.75838,294.519531 167.983437,294.539062 168.160407,294.578125 L168.02768,295.861328 C167.835321,295.814453 167.635271,295.791016 167.427523,295.791016 C166.885072,295.791016 166.445538,295.970701 166.10891,296.330078 C165.772282,296.689455 165.603971,297.156247 165.603971,297.730469 L165.603971,301.117188 L164.247848,301.117188 L164.247848,294.636719 L165.309664,294.636719 L165.488556,295.779297 L165.557805,295.779297 C165.7694,295.392576 166.045431,295.085939 166.385906,294.859375 C166.726381,294.632811 167.092819,294.519531 167.485231,294.519531 Z M171.894073,301.234375 C170.901501,301.234375 170.125345,300.940433 169.565581,300.352539 C169.005817,299.764645 168.725939,298.955083 168.725939,297.923828 C168.725939,296.865229 168.985619,296.033206 169.504988,295.427734 C170.024357,294.822263 170.737998,294.519531 171.645931,294.519531 C172.488463,294.519531 173.154014,294.779294 173.642606,295.298828 C174.131197,295.818362 174.375489,296.533199 174.375489,297.443359 L174.375489,298.1875 L170.122457,298.1875 C170.141693,298.816409 170.309043,299.299803 170.624511,299.637695 C170.939979,299.975588 171.384322,300.144531 171.957551,300.144531 C172.334574,300.144531 172.685624,300.108399 173.01071,300.036133 C173.335796,299.963867 173.684922,299.843751 174.058099,299.675781 L174.058099,300.794922 C173.727241,300.955079 173.392542,301.068359 173.053991,301.134766 C172.715439,301.201172 172.328804,301.234375 171.894073,301.234375 Z M171.645931,295.5625 C171.215047,295.5625 170.869769,295.70117 170.610084,295.978516 C170.3504,296.255861 170.195553,296.660154 170.14554,297.191406 L173.042449,297.191406 C173.034755,296.656247 172.9078,296.250978 172.661581,295.975586 C172.415361,295.700194 172.076815,295.5625 171.645931,295.5625 Z M178.06876,301.234375 C177.272394,301.234375 176.651085,300.941409 176.204812,300.355469 C175.75854,299.769528 175.535407,298.947271 175.535407,297.888672 C175.535407,296.826167 175.761425,295.999026 176.213468,295.407227 C176.665512,294.815427 177.29163,294.519531 178.091843,294.519531 C178.930527,294.519531 179.569149,294.833981 180.007727,295.462891 L180.076976,295.462891 C180.011574,294.998045 179.978873,294.630861 179.978873,294.361328 L179.978873,292 L181.340767,292 L181.340767,301.117188 L180.278951,301.117188 L180.042351,300.267578 L179.978873,300.267578 C179.544142,300.912113 178.907444,301.234375 178.06876,301.234375 Z M178.432316,300.121094 C178.990157,300.121094 179.396028,299.961916 179.649941,299.643555 C179.903855,299.325194 180.034657,298.808597 180.042351,298.09375 L180.042351,297.900391 C180.042351,297.08398 179.911549,296.503908 179.649941,296.160156 C179.388333,295.816405 178.978615,295.644531 178.420775,295.644531 C177.943725,295.644531 177.576325,295.840818 177.318564,296.233398 C177.060803,296.625979 176.931925,297.185543 176.931925,297.912109 C176.931925,298.630863 177.056956,299.178709 177.307023,299.555664 C177.557089,299.932619 177.932183,300.121094 178.432316,300.121094 Z M191.964691,301.117188 L190.602797,301.117188 L190.602797,297.132812 C190.602797,296.63281 190.503734,296.259767 190.305604,296.013672 C190.107475,295.767577 189.792973,295.644531 189.362089,295.644531 C188.78886,295.644531 188.369524,295.816405 188.104069,296.160156 C187.838614,296.503908 187.705888,297.080074 187.705888,297.888672 L187.705888,301.117188 L186.349765,301.117188 L186.349765,294.636719 L187.411581,294.636719 L187.602015,295.486328 L187.671264,295.486328 C187.863623,295.177733 188.136768,294.939454 188.490708,294.771484 C188.844648,294.603515 189.237054,294.519531 189.667938,294.519531 C191.199114,294.519531 191.964691,295.310539 191.964691,296.892578 L191.964691,301.117188 Z M196.638987,301.234375 C195.646415,301.234375 194.870259,300.940433 194.310495,300.352539 C193.750731,299.764645 193.470853,298.955083 193.470853,297.923828 C193.470853,296.865229 193.730533,296.033206 194.249902,295.427734 C194.769271,294.822263 195.482911,294.519531 196.390845,294.519531 C197.233377,294.519531 197.898928,294.779294 198.38752,295.298828 C198.876111,295.818362 199.120403,296.533199 199.120403,297.443359 L199.120403,298.1875 L194.867371,298.1875 C194.886607,298.816409 195.053956,299.299803 195.369425,299.637695 C195.684893,299.975588 196.129236,300.144531 196.702465,300.144531 C197.079488,300.144531 197.430538,300.108399 197.755624,300.036133 C198.08071,299.963867 198.429836,299.843751 198.803013,299.675781 L198.803013,300.794922 C198.472155,300.955079 198.137456,301.068359 197.798905,301.134766 C197.460353,301.201172 197.073718,301.234375 196.638987,301.234375 Z M196.390845,295.5625 C195.959961,295.5625 195.614682,295.70117 195.354998,295.978516 C195.095314,296.255861 194.940467,296.660154 194.890454,297.191406 L197.787363,297.191406 C197.779669,296.656247 197.652714,296.250978 197.406495,295.975586 C197.160275,295.700194 196.821729,295.5625 196.390845,295.5625 Z M203.038732,300.121094 C203.36959,300.121094 203.700442,300.06836 204.031299,299.962891 L204.031299,301 C203.881259,301.066407 203.687941,301.12207 203.45134,301.166992 C203.214739,301.211914 202.969485,301.234375 202.715571,301.234375 C201.430614,301.234375 200.788146,300.546882 200.788146,299.171875 L200.788146,295.679688 L199.916764,295.679688 L199.916764,295.070312 L200.851624,294.566406 L201.313282,293.195312 L202.150039,293.195312 L202.150039,294.636719 L203.967821,294.636719 L203.967821,295.679688 L202.150039,295.679688 L202.150039,299.148438 C202.150039,299.48047 202.23179,299.725585 202.395295,299.883789 C202.5588,300.041993 202.773277,300.121094 203.038732,300.121094 Z M210.540689,301.117188 L209.715473,298.09375 C209.615447,297.773436 209.434632,297.029303 209.173024,295.861328 L209.121088,295.861328 C208.897951,296.916021 208.720984,297.66406 208.59018,298.105469 L207.741882,301.117188 L206.241491,301.117188 L204.452563,294.636719 L205.837539,294.636719 L206.651213,297.830078 C206.835877,298.619145 206.966679,299.294919 207.043623,299.857422 L207.078247,299.857422 C207.116719,299.572264 207.175388,299.245119 207.254255,298.875977 C207.333122,298.506834 207.401408,298.23047 207.459116,298.046875 L208.428599,294.636719 L209.917449,294.636719 L210.858079,298.046875 C210.915787,298.238282 210.98792,298.531248 211.074482,298.925781 C211.161043,299.320314 211.212017,299.626952 211.227406,299.845703 L211.273572,299.845703 C211.33128,299.365232 211.465929,298.693364 211.677523,297.830078 L212.502739,294.636719 L213.864632,294.636719 L212.064163,301.117188 L210.540689,301.117188 Z M220.622164,297.865234 C220.622164,298.923833 220.354789,299.749997 219.820031,300.34375 C219.285274,300.937503 218.540856,301.234375 217.586757,301.234375 C216.990444,301.234375 216.463389,301.097658 216.005575,300.824219 C215.547761,300.55078 215.19575,300.158206 214.949531,299.646484 C214.703311,299.134763 214.580203,298.541019 214.580203,297.865234 C214.580203,296.814448 214.845655,295.994144 215.376565,295.404297 C215.907475,294.81445 216.65574,294.519531 217.621381,294.519531 C218.544703,294.519531 219.275656,294.821286 219.814261,295.424805 C220.352865,296.028323 220.622164,296.841792 220.622164,297.865234 Z M215.976721,297.865234 C215.976721,299.361336 216.521089,300.109375 217.60984,300.109375 C218.687049,300.109375 219.225646,299.361336 219.225646,297.865234 C219.225646,296.384758 218.683202,295.644531 217.598298,295.644531 C217.028916,295.644531 216.616313,295.835936 216.360475,296.21875 C216.104638,296.601564 215.976721,297.150387 215.976721,297.865234 Z M225.417645,294.519531 C225.690794,294.519531 225.915851,294.539062 226.092821,294.578125 L225.960094,295.861328 C225.767735,295.814453 225.567685,295.791016 225.359937,295.791016 C224.817486,295.791016 224.377952,295.970701 224.041324,296.330078 C223.704696,296.689455 223.536385,297.156247 223.536385,297.730469 L223.536385,301.117188 L222.180262,301.117188 L222.180262,294.636719 L223.242077,294.636719 L223.42097,295.779297 L223.490219,295.779297 C223.701814,295.392576 223.977845,295.085939 224.31832,294.859375 C224.658795,294.632811 225.025233,294.519531 225.417645,294.519531 Z M228.585779,297.695312 L229.353286,296.722656 L231.280712,294.636719 L232.844581,294.636719 L230.276604,297.419922 L233.006162,301.117188 L231.413439,301.117188 L229.364828,298.275391 L228.620403,298.896484 L228.620403,301.117188 L227.275822,301.117188 L227.275822,292 L228.620403,292 L228.620403,296.447266 L228.551154,297.695312 L228.585779,297.695312 Z M235.389476,301.117188 L234.033353,301.117188 L234.033353,294.636719 L235.389476,294.636719 L235.389476,301.117188 Z M233.952563,292.919922 C233.952563,292.673827 234.018925,292.484376 234.151653,292.351562 C234.284381,292.218749 234.473851,292.152344 234.72007,292.152344 C234.958595,292.152344 235.144219,292.218749 235.276946,292.351562 C235.409674,292.484376 235.476037,292.673827 235.476037,292.919922 C235.476037,293.154298 235.409674,293.338867 235.276946,293.473633 C235.144219,293.608399 234.958595,293.675781 234.72007,293.675781 C234.473851,293.675781 234.284381,293.608399 234.151653,293.473633 C234.018925,293.338867 233.952563,293.154298 233.952563,292.919922 Z M242.943369,301.117188 L241.581475,301.117188 L241.581475,297.132812 C241.581475,296.63281 241.482412,296.259767 241.284282,296.013672 C241.086153,295.767577 240.771651,295.644531 240.340767,295.644531 C239.767538,295.644531 239.348202,295.816405 239.082746,296.160156 C238.817291,296.503908 238.684566,297.080074 238.684566,297.888672 L238.684566,301.117188 L237.328443,301.117188 L237.328443,294.636719 L238.390258,294.636719 L238.580692,295.486328 L238.649941,295.486328 C238.8423,295.177733 239.115446,294.939454 239.469386,294.771484 C239.823326,294.603515 240.215732,294.519531 240.646616,294.519531 C242.177792,294.519531 242.943369,295.310539 242.943369,296.892578 L242.943369,301.117188 Z M250.220266,294.636719 L250.220266,295.392578 L249.129597,295.597656 C249.229624,295.734376 249.312337,295.902343 249.377739,296.101562 C249.443141,296.300782 249.475841,296.511718 249.475841,296.734375 C249.475841,297.402347 249.248861,297.927732 248.794894,298.310547 C248.340928,298.693361 247.715771,298.884766 246.919405,298.884766 C246.715505,298.884766 246.530843,298.869141 246.365415,298.837891 C246.073029,299.021485 245.926839,299.236327 245.926839,299.482422 C245.926839,299.63086 245.995125,299.742187 246.1317,299.816406 C246.268275,299.890625 246.519299,299.927734 246.884781,299.927734 L247.998533,299.927734 C248.702566,299.927734 249.237316,300.080077 249.602797,300.384766 C249.968279,300.689455 250.151017,301.128903 250.151017,301.703125 C250.151017,302.437504 249.852866,303.003904 249.256553,303.402344 C248.660241,303.800783 247.798486,304 246.671264,304 C245.801802,304 245.138174,303.843752 244.68036,303.53125 C244.222546,303.218748 243.993642,302.77344 243.993642,302.195312 C243.993642,301.796873 244.117712,301.461915 244.365855,301.19043 C244.613998,300.918944 244.9612,300.730469 245.407473,300.625 C245.226655,300.546875 245.077579,300.420899 244.960241,300.24707 C244.842902,300.073241 244.784233,299.890626 244.784233,299.699219 C244.784233,299.45703 244.851558,299.251954 244.986209,299.083984 C245.12086,298.916015 245.32091,298.750001 245.586365,298.585938 C245.255508,298.441406 244.987172,298.206056 244.781348,297.879883 C244.575524,297.553709 244.472613,297.171877 244.472613,296.734375 C244.472613,296.031246 244.690937,295.48633 245.127592,295.099609 C245.564246,294.712889 246.186518,294.519531 246.994425,294.519531 C247.175242,294.519531 247.364713,294.532226 247.562842,294.557617 C247.760972,294.583008 247.910048,294.609375 248.010074,294.636719 L250.220266,294.636719 Z M245.205497,302.125 C245.205497,302.421876 245.337261,302.65039 245.600792,302.810547 C245.864324,302.970704 246.234609,303.050781 246.711659,303.050781 C247.450317,303.050781 248.000455,302.94336 248.362089,302.728516 C248.723724,302.513671 248.904538,302.228517 248.904538,301.873047 C248.904538,301.591795 248.805475,301.391602 248.607345,301.272461 C248.409216,301.15332 248.040854,301.09375 247.50225,301.09375 L246.475059,301.09375 C246.086494,301.09375 245.777763,301.186523 245.548856,301.37207 C245.319949,301.557618 245.205497,301.808592 245.205497,302.125 Z M245.788341,296.734375 C245.788341,297.140627 245.891252,297.453124 246.097076,297.671875 C246.302899,297.890626 246.598166,298 246.982883,298 C247.767707,298 248.160113,297.574223 248.160113,296.722656 C248.160113,296.300779 248.062974,295.975587 247.868691,295.74707 C247.674409,295.518554 247.379143,295.404297 246.982883,295.404297 C246.590471,295.404297 246.293282,295.517577 246.091305,295.744141 C245.889328,295.970704 245.788341,296.300779 245.788341,296.734375 Z M258.466647,301.117188 L258.195423,300.214844 L258.149257,300.214844 C257.841483,300.609377 257.53179,300.877929 257.220168,301.020508 C256.908547,301.163087 256.508447,301.234375 256.019855,301.234375 C255.392766,301.234375 254.90322,301.062502 254.551203,300.71875 C254.199186,300.374998 254.023181,299.888675 254.023181,299.259766 C254.023181,298.591794 254.267473,298.087892 254.756064,297.748047 C255.244656,297.408201 255.989073,297.222656 256.989339,297.191406 L258.091549,297.15625 L258.091549,296.810547 C258.091549,296.396482 257.996333,296.086915 257.805898,295.881836 C257.615463,295.676757 257.320196,295.574219 256.92009,295.574219 C256.59308,295.574219 256.27954,295.623046 255.97946,295.720703 C255.67938,295.81836 255.390846,295.933593 255.11385,296.066406 L254.675274,295.082031 C255.02152,294.898437 255.400461,294.75879 255.812109,294.663086 C256.223757,294.567382 256.612316,294.519531 256.977797,294.519531 C257.789552,294.519531 258.402205,294.699217 258.815777,295.058594 C259.229348,295.417971 259.436131,295.982418 259.436131,296.751953 L259.436131,301.117188 L258.466647,301.117188 Z M256.44689,300.179688 C256.939328,300.179688 257.33462,300.04004 257.632776,299.760742 C257.930932,299.481444 258.080008,299.089846 258.080008,298.585938 L258.080008,298.023438 L257.260563,298.058594 C256.621932,298.082031 256.157393,298.190429 255.866931,298.383789 C255.576469,298.577149 255.43124,298.873045 255.43124,299.271484 C255.43124,299.560548 255.515877,299.784179 255.685153,299.942383 C255.854428,300.100587 256.108338,300.179688 256.44689,300.179688 Z M266.943858,301.117188 L265.581964,301.117188 L265.581964,297.132812 C265.581964,296.63281 265.482901,296.259767 265.284771,296.013672 C265.086642,295.767577 264.77214,295.644531 264.341256,295.644531 C263.768027,295.644531 263.348691,295.816405 263.083236,296.160156 C262.81778,296.503908 262.685055,297.080074 262.685055,297.888672 L262.685055,301.117188 L261.328932,301.117188 L261.328932,294.636719 L262.390747,294.636719 L262.581182,295.486328 L262.65043,295.486328 C262.842789,295.177733 263.115935,294.939454 263.469875,294.771484 C263.823815,294.603515 264.216221,294.519531 264.647105,294.519531 C266.178281,294.519531 266.943858,295.310539 266.943858,296.892578 L266.943858,301.117188 Z M270.983372,301.234375 C270.187007,301.234375 269.565697,300.941409 269.119425,300.355469 C268.673152,299.769528 268.45002,298.947271 268.45002,297.888672 C268.45002,296.826167 268.676038,295.999026 269.128081,295.407227 C269.580124,294.815427 270.206243,294.519531 271.006455,294.519531 C271.84514,294.519531 272.483762,294.833981 272.92234,295.462891 L272.991588,295.462891 C272.926186,294.998045 272.893486,294.630861 272.893486,294.361328 L272.893486,292 L274.255379,292 L274.255379,301.117188 L273.193564,301.117188 L272.956964,300.267578 L272.893486,300.267578 C272.458755,300.912113 271.822057,301.234375 270.983372,301.234375 Z M271.346929,300.121094 C271.904769,300.121094 272.31064,299.961916 272.564554,299.643555 C272.818468,299.325194 272.94927,298.808597 272.956964,298.09375 L272.956964,297.900391 C272.956964,297.08398 272.826162,296.503908 272.564554,296.160156 C272.302946,295.816405 271.893228,295.644531 271.335387,295.644531 C270.858337,295.644531 270.490938,295.840818 270.233177,296.233398 C269.975416,296.625979 269.846538,297.185543 269.846538,297.912109 C269.846538,298.630863 269.971569,299.178709 270.221635,299.555664 C270.471702,299.932619 270.846796,300.121094 271.346929,300.121094 Z M283.552034,299.271484 C283.552034,299.9043 283.325054,300.389647 282.871088,300.727539 C282.417121,301.065431 281.766958,301.234375 280.920579,301.234375 C280.070353,301.234375 279.38749,301.103517 278.871968,300.841797 L278.871968,299.652344 C279.622167,300.003908 280.320419,300.179688 280.966745,300.179688 C281.801582,300.179688 282.218995,299.923831 282.218995,299.412109 C282.218995,299.248046 282.172829,299.111329 282.080497,299.001953 C281.988165,298.892578 281.836203,298.779297 281.624609,298.662109 C281.413014,298.544921 281.11871,298.41211 280.741686,298.263672 C280.006876,297.974608 279.509635,297.685548 279.249951,297.396484 C278.990267,297.10742 278.860426,296.732424 278.860426,296.271484 C278.860426,295.716794 279.080674,295.286134 279.521176,294.979492 C279.961677,294.67285 280.560866,294.519531 281.31876,294.519531 C282.068959,294.519531 282.778753,294.673827 283.448161,294.982422 L283.009585,296.019531 C282.320941,295.730467 281.741949,295.585938 281.272594,295.585938 C280.557019,295.585938 280.199237,295.792967 280.199237,296.207031 C280.199237,296.410157 280.29253,296.582031 280.479118,296.722656 C280.665706,296.863282 281.072539,297.056639 281.699628,297.302734 C282.226691,297.509767 282.60948,297.699218 282.848005,297.871094 C283.08653,298.04297 283.263497,298.24121 283.378912,298.46582 C283.494328,298.690431 283.552034,298.958983 283.552034,299.271484 Z M287.395344,300.121094 C287.726201,300.121094 288.057054,300.06836 288.387911,299.962891 L288.387911,301 C288.237871,301.066407 288.044553,301.12207 287.807952,301.166992 C287.571351,301.211914 287.326097,301.234375 287.072183,301.234375 C285.787226,301.234375 285.144757,300.546882 285.144757,299.171875 L285.144757,295.679688 L284.273376,295.679688 L284.273376,295.070312 L285.208236,294.566406 L285.669894,293.195312 L286.506651,293.195312 L286.506651,294.636719 L288.324433,294.636719 L288.324433,295.679688 L286.506651,295.679688 L286.506651,299.148438 C286.506651,299.48047 286.588402,299.725585 286.751907,299.883789 C286.915412,300.041993 287.129889,300.121094 287.395344,300.121094 Z M295.324335,297.865234 C295.324335,298.923833 295.05696,299.749997 294.522203,300.34375 C293.987445,300.937503 293.243028,301.234375 292.288928,301.234375 C291.692616,301.234375 291.16556,301.097658 290.707746,300.824219 C290.249933,300.55078 289.897921,300.158206 289.651702,299.646484 C289.405483,299.134763 289.282375,298.541019 289.282375,297.865234 C289.282375,296.814448 289.547826,295.994144 290.078736,295.404297 C290.609647,294.81445 291.357911,294.519531 292.323552,294.519531 C293.246875,294.519531 293.977827,294.821286 294.516432,295.424805 C295.055037,296.028323 295.324335,296.841792 295.324335,297.865234 Z M290.678893,297.865234 C290.678893,299.361336 291.22326,300.109375 292.312011,300.109375 C293.38922,300.109375 293.927817,299.361336 293.927817,297.865234 C293.927817,296.384758 293.385373,295.644531 292.300469,295.644531 C291.731087,295.644531 291.318484,295.835936 291.062647,296.21875 C290.806809,296.601564 290.678893,297.150387 290.678893,297.865234 Z M300.119816,294.519531 C300.392966,294.519531 300.618022,294.539062 300.794992,294.578125 L300.662265,295.861328 C300.469906,295.814453 300.269856,295.791016 300.062109,295.791016 C299.519657,295.791016 299.080124,295.970701 298.743496,296.330078 C298.406868,296.689455 298.238556,297.156247 298.238556,297.730469 L298.238556,301.117188 L296.882433,301.117188 L296.882433,294.636719 L297.944249,294.636719 L298.123142,295.779297 L298.19239,295.779297 C298.403985,295.392576 298.680016,295.085939 299.020491,294.859375 C299.360966,294.632811 299.727404,294.519531 300.119816,294.519531 Z M305.734742,301.117188 L305.463517,300.214844 L305.417351,300.214844 C305.109577,300.609377 304.799884,300.877929 304.488263,301.020508 C304.176642,301.163087 303.776541,301.234375 303.28795,301.234375 C302.66086,301.234375 302.171314,301.062502 301.819298,300.71875 C301.467281,300.374998 301.291275,299.888675 301.291275,299.259766 C301.291275,298.591794 301.535567,298.087892 302.024159,297.748047 C302.51275,297.408201 303.257168,297.222656 304.257433,297.191406 L305.359644,297.15625 L305.359644,296.810547 C305.359644,296.396482 305.264428,296.086915 305.073993,295.881836 C304.883557,295.676757 304.588291,295.574219 304.188185,295.574219 C303.861175,295.574219 303.547635,295.623046 303.247555,295.720703 C302.947475,295.81836 302.658941,295.933593 302.381944,296.066406 L301.943369,295.082031 C302.289614,294.898437 302.668556,294.75879 303.080203,294.663086 C303.491851,294.567382 303.88041,294.519531 304.245892,294.519531 C305.057646,294.519531 305.6703,294.699217 306.083871,295.058594 C306.497443,295.417971 306.704225,295.982418 306.704225,296.751953 L306.704225,301.117188 L305.734742,301.117188 Z M303.714984,300.179688 C304.207423,300.179688 304.602714,300.04004 304.900871,299.760742 C305.199027,299.481444 305.348103,299.089846 305.348103,298.585938 L305.348103,298.023438 L304.528658,298.058594 C303.890027,298.082031 303.425487,298.190429 303.135025,298.383789 C302.844564,298.577149 302.699335,298.873045 302.699335,299.271484 C302.699335,299.560548 302.783972,299.784179 302.953247,299.942383 C303.122523,300.100587 303.376433,300.179688 303.714984,300.179688 Z M313.986894,294.636719 L313.986894,295.392578 L312.896225,295.597656 C312.996251,295.734376 313.078964,295.902343 313.144366,296.101562 C313.209768,296.300782 313.242469,296.511718 313.242469,296.734375 C313.242469,297.402347 313.015489,297.927732 312.561522,298.310547 C312.107555,298.693361 311.482398,298.884766 310.686033,298.884766 C310.482133,298.884766 310.297471,298.869141 310.132042,298.837891 C309.839657,299.021485 309.693466,299.236327 309.693466,299.482422 C309.693466,299.63086 309.761753,299.742187 309.898327,299.816406 C310.034902,299.890625 310.285927,299.927734 310.651408,299.927734 L311.76516,299.927734 C312.469194,299.927734 313.003943,300.080077 313.369425,300.384766 C313.734907,300.689455 313.917645,301.128903 313.917645,301.703125 C313.917645,302.437504 313.619493,303.003904 313.023181,303.402344 C312.426868,303.800783 311.565114,304 310.437891,304 C309.568429,304 308.904801,303.843752 308.446987,303.53125 C307.989174,303.218748 307.76027,302.77344 307.76027,302.195312 C307.76027,301.796873 307.88434,301.461915 308.132482,301.19043 C308.380625,300.918944 308.727828,300.730469 309.1741,300.625 C308.993283,300.546875 308.844207,300.420899 308.726868,300.24707 C308.609529,300.073241 308.550861,299.890626 308.550861,299.699219 C308.550861,299.45703 308.618185,299.251954 308.752836,299.083984 C308.887488,298.916015 309.087538,298.750001 309.352993,298.585938 C309.022136,298.441406 308.753799,298.206056 308.547975,297.879883 C308.342151,297.553709 308.239241,297.171877 308.239241,296.734375 C308.239241,296.031246 308.457565,295.48633 308.894219,295.099609 C309.330874,294.712889 309.953145,294.519531 310.761052,294.519531 C310.94187,294.519531 311.13134,294.532226 311.32947,294.557617 C311.527599,294.583008 311.676675,294.609375 311.776702,294.636719 L313.986894,294.636719 Z M308.972124,302.125 C308.972124,302.421876 309.103888,302.65039 309.36742,302.810547 C309.630951,302.970704 310.001237,303.050781 310.478286,303.050781 C311.216944,303.050781 311.767082,302.94336 312.128717,302.728516 C312.490351,302.513671 312.671166,302.228517 312.671166,301.873047 C312.671166,301.591795 312.572103,301.391602 312.373973,301.272461 C312.175843,301.15332 311.807482,301.09375 311.268877,301.09375 L310.241686,301.09375 C309.853121,301.09375 309.54439,301.186523 309.315483,301.37207 C309.086576,301.557618 308.972124,301.808592 308.972124,302.125 Z M309.554969,296.734375 C309.554969,297.140627 309.657879,297.453124 309.863703,297.671875 C310.069527,297.890626 310.364793,298 310.749511,298 C311.534335,298 311.926741,297.574223 311.926741,296.722656 C311.926741,296.300779 311.829601,295.975587 311.635319,295.74707 C311.441036,295.518554 311.14577,295.404297 310.749511,295.404297 C310.357099,295.404297 310.059909,295.517577 309.857932,295.744141 C309.655956,295.970704 309.554969,296.300779 309.554969,296.734375 Z M317.95716,301.234375 C316.964588,301.234375 316.188432,300.940433 315.628668,300.352539 C315.068904,299.764645 314.789026,298.955083 314.789026,297.923828 C314.789026,296.865229 315.048706,296.033206 315.568075,295.427734 C316.087444,294.822263 316.801084,294.519531 317.709018,294.519531 C318.55155,294.519531 319.217101,294.779294 319.705692,295.298828 C320.194284,295.818362 320.438576,296.533199 320.438576,297.443359 L320.438576,298.1875 L316.185544,298.1875 C316.20478,298.816409 316.372129,299.299803 316.687598,299.637695 C317.003066,299.975588 317.447408,300.144531 318.020638,300.144531 C318.397661,300.144531 318.748711,300.108399 319.073797,300.036133 C319.398883,299.963867 319.748009,299.843751 320.121185,299.675781 L320.121185,300.794922 C319.790328,300.955079 319.455629,301.068359 319.117077,301.134766 C318.778526,301.201172 318.391891,301.234375 317.95716,301.234375 Z M317.709018,295.5625 C317.278134,295.5625 316.932855,295.70117 316.673171,295.978516 C316.413487,296.255861 316.25864,296.660154 316.208627,297.191406 L319.105536,297.191406 C319.097842,296.656247 318.970887,296.250978 318.724667,295.975586 C318.478448,295.700194 318.139902,295.5625 317.709018,295.5625 Z M328.286776,294.519531 C328.559926,294.519531 328.784982,294.539062 328.961952,294.578125 L328.829225,295.861328 C328.636867,295.814453 328.436816,295.791016 328.229069,295.791016 C327.686617,295.791016 327.247084,295.970701 326.910456,296.330078 C326.573828,296.689455 326.405516,297.156247 326.405516,297.730469 L326.405516,301.117188 L325.049394,301.117188 L325.049394,294.636719 L326.111209,294.636719 L326.290102,295.779297 L326.359351,295.779297 C326.570945,295.392576 326.846976,295.085939 327.187451,294.859375 C327.527926,294.632811 327.894364,294.519531 328.286776,294.519531 Z M332.695618,301.234375 C331.703047,301.234375 330.926891,300.940433 330.367126,300.352539 C329.807362,299.764645 329.527484,298.955083 329.527484,297.923828 C329.527484,296.865229 329.787165,296.033206 330.306534,295.427734 C330.825902,294.822263 331.539543,294.519531 332.447477,294.519531 C333.290008,294.519531 333.95556,294.779294 334.444151,295.298828 C334.932742,295.818362 335.177034,296.533199 335.177034,297.443359 L335.177034,298.1875 L330.924002,298.1875 C330.943238,298.816409 331.110588,299.299803 331.426056,299.637695 C331.741525,299.975588 332.185867,300.144531 332.759096,300.144531 C333.13612,300.144531 333.487169,300.108399 333.812255,300.036133 C334.137342,299.963867 334.486468,299.843751 334.859644,299.675781 L334.859644,300.794922 C334.528787,300.955079 334.194088,301.068359 333.855536,301.134766 C333.516984,301.201172 333.130349,301.234375 332.695618,301.234375 Z M332.447477,295.5625 C332.016593,295.5625 331.671314,295.70117 331.411629,295.978516 C331.151945,296.255861 330.997099,296.660154 330.947085,297.191406 L333.843995,297.191406 C333.8363,296.656247 333.709345,296.250978 333.463126,295.975586 C333.216907,295.700194 332.87836,295.5625 332.447477,295.5625 Z M341.005477,299.271484 C341.005477,299.9043 340.778497,300.389647 340.324531,300.727539 C339.870564,301.065431 339.220401,301.234375 338.374022,301.234375 C337.523796,301.234375 336.840932,301.103517 336.325411,300.841797 L336.325411,299.652344 C337.07561,300.003908 337.773862,300.179688 338.420188,300.179688 C339.255025,300.179688 339.672437,299.923831 339.672437,299.412109 C339.672437,299.248046 339.626272,299.111329 339.53394,299.001953 C339.441608,298.892578 339.289646,298.779297 339.078052,298.662109 C338.866457,298.544921 338.572152,298.41211 338.195129,298.263672 C337.460318,297.974608 336.963078,297.685548 336.703394,297.396484 C336.44371,297.10742 336.313869,296.732424 336.313869,296.271484 C336.313869,295.716794 336.534117,295.286134 336.974619,294.979492 C337.41512,294.67285 338.014309,294.519531 338.772203,294.519531 C339.522402,294.519531 340.232195,294.673827 340.901604,294.982422 L340.463028,296.019531 C339.774384,295.730467 339.195392,295.585938 338.726037,295.585938 C338.010462,295.585938 337.65268,295.792967 337.65268,296.207031 C337.65268,296.410157 337.745973,296.582031 337.932561,296.722656 C338.119149,296.863282 338.525981,297.056639 339.153071,297.302734 C339.680134,297.509767 340.062923,297.699218 340.301448,297.871094 C340.539973,298.04297 340.71694,298.24121 340.832355,298.46582 C340.947771,298.690431 341.005477,298.958983 341.005477,299.271484 Z M348.132336,297.865234 C348.132336,298.923833 347.864961,299.749997 347.330203,300.34375 C346.795446,300.937503 346.051029,301.234375 345.096929,301.234375 C344.500616,301.234375 343.973561,301.097658 343.515747,300.824219 C343.057933,300.55078 342.705922,300.158206 342.459703,299.646484 C342.213483,299.134763 342.090376,298.541019 342.090376,297.865234 C342.090376,296.814448 342.355827,295.994144 342.886737,295.404297 C343.417647,294.81445 344.165912,294.519531 345.131553,294.519531 C346.054876,294.519531 346.785828,294.821286 347.324433,295.424805 C347.863037,296.028323 348.132336,296.841792 348.132336,297.865234 Z M343.486894,297.865234 C343.486894,299.361336 344.031261,300.109375 345.120012,300.109375 C346.197221,300.109375 346.735818,299.361336 346.735818,297.865234 C346.735818,296.384758 346.193374,295.644531 345.10847,295.644531 C344.539088,295.644531 344.126485,295.835936 343.870647,296.21875 C343.61481,296.601564 343.486894,297.150387 343.486894,297.865234 Z M354.191608,301.117188 L354.001174,300.267578 L353.931925,300.267578 C353.743413,300.568361 353.475077,300.804687 353.126907,300.976562 C352.778738,301.148438 352.381523,301.234375 351.93525,301.234375 C351.161968,301.234375 350.5849,301.039064 350.20403,300.648438 C349.823159,300.257811 349.632727,299.66602 349.632727,298.873047 L349.632727,294.636719 L351.000391,294.636719 L351.000391,298.632812 C351.000391,299.128909 351.100416,299.500975 351.300469,299.749023 C351.500523,299.997072 351.814063,300.121094 352.241099,300.121094 C352.810481,300.121094 353.228856,299.948244 353.496234,299.602539 C353.763613,299.256834 353.8973,298.677738 353.8973,297.865234 L353.8973,294.636719 L355.259194,294.636719 L355.259194,301.117188 L354.191608,301.117188 Z M360.429773,294.519531 C360.702923,294.519531 360.927979,294.539062 361.104949,294.578125 L360.972222,295.861328 C360.779863,295.814453 360.579813,295.791016 360.372066,295.791016 C359.829614,295.791016 359.390081,295.970701 359.053453,296.330078 C358.716825,296.689455 358.548513,297.156247 358.548513,297.730469 L358.548513,301.117188 L357.19239,301.117188 L357.19239,294.636719 L358.254206,294.636719 L358.433099,295.779297 L358.502347,295.779297 C358.713942,295.392576 358.989973,295.085939 359.330448,294.859375 C359.670923,294.632811 360.037361,294.519531 360.429773,294.519531 Z M364.625098,301.234375 C363.659457,301.234375 362.925619,300.948245 362.423562,300.375977 C361.921506,299.803708 361.670481,298.982427 361.670481,297.912109 C361.670481,296.82226 361.933047,295.984378 362.458187,295.398438 C362.983326,294.812497 363.74217,294.519531 364.734742,294.519531 C365.407998,294.519531 366.013919,294.646483 366.552523,294.900391 L366.142801,296.007812 C365.569572,295.781249 365.096376,295.667969 364.7232,295.667969 C363.619061,295.667969 363.066999,296.412102 363.066999,297.900391 C363.066999,298.626957 363.204534,299.17285 363.479607,299.538086 C363.75468,299.903322 364.157666,300.085938 364.688576,300.085938 C365.292583,300.085938 365.86388,299.933595 366.402484,299.628906 L366.402484,300.830078 C366.160112,300.97461 365.901394,301.078125 365.62632,301.140625 C365.351247,301.203125 365.01751,301.234375 364.625098,301.234375 Z M370.690141,301.234375 C369.697569,301.234375 368.921413,300.940433 368.361649,300.352539 C367.801885,299.764645 367.522007,298.955083 367.522007,297.923828 C367.522007,296.865229 367.781688,296.033206 368.301056,295.427734 C368.820425,294.822263 369.534066,294.519531 370.441999,294.519531 C371.284531,294.519531 371.950082,294.779294 372.438674,295.298828 C372.927265,295.818362 373.171557,296.533199 373.171557,297.443359 L373.171557,298.1875 L368.918525,298.1875 C368.937761,298.816409 369.105111,299.299803 369.420579,299.637695 C369.736047,299.975588 370.18039,300.144531 370.753619,300.144531 C371.130642,300.144531 371.481692,300.108399 371.806778,300.036133 C372.131865,299.963867 372.480991,299.843751 372.854167,299.675781 L372.854167,300.794922 C372.52331,300.955079 372.18861,301.068359 371.850059,301.134766 C371.511507,301.201172 371.124872,301.234375 370.690141,301.234375 Z M370.441999,295.5625 C370.011115,295.5625 369.665837,295.70117 369.406152,295.978516 C369.146468,296.255861 368.991621,296.660154 368.941608,297.191406 L371.838517,297.191406 C371.830823,296.656247 371.703868,296.250978 371.457649,295.975586 C371.211429,295.700194 370.872883,295.5625 370.441999,295.5625 Z M379,299.271484 C379,299.9043 378.77302,300.389647 378.319053,300.727539 C377.865086,301.065431 377.214923,301.234375 376.368545,301.234375 C375.518319,301.234375 374.835455,301.103517 374.319933,300.841797 L374.319933,299.652344 C375.070133,300.003908 375.768385,300.179688 376.41471,300.179688 C377.249548,300.179688 377.66696,299.923831 377.66696,299.412109 C377.66696,299.248046 377.620795,299.111329 377.528462,299.001953 C377.43613,298.892578 377.284169,298.779297 377.072574,298.662109 C376.86098,298.544921 376.566675,298.41211 376.189652,298.263672 C375.454841,297.974608 374.957601,297.685548 374.697917,297.396484 C374.438232,297.10742 374.308392,296.732424 374.308392,296.271484 C374.308392,295.716794 374.52864,295.286134 374.969141,294.979492 C375.409643,294.67285 376.008832,294.519531 376.766725,294.519531 C377.516925,294.519531 378.226718,294.673827 378.896127,294.982422 L378.457551,296.019531 C377.768906,295.730467 377.189915,295.585938 376.720559,295.585938 C376.004985,295.585938 375.647203,295.792967 375.647203,296.207031 C375.647203,296.410157 375.740495,296.582031 375.927083,296.722656 C376.113671,296.863282 376.520504,297.056639 377.147594,297.302734 C377.674657,297.509767 378.057445,297.699218 378.29597,297.871094 C378.534495,298.04297 378.711463,298.24121 378.826878,298.46582 C378.942293,298.690431 379,298.958983 379,299.271484 Z" id="Shared-networking-an" fill="#FFFFFF" transform="matrix(1, 0, 0, 1, 55.15377, 67.819977)"/>
</svg>