<?xml version="1.0" encoding="utf-8"?>
<svg viewBox="129.377 234.82 370.367 111.625" xmlns="http://www.w3.org/2000/svg">
  <path d="M135.5,278.625 L135.5,267.375" id="Shape" stroke="#286391" opacity="0.5" transform="matrix(1, 0, 0, 1, 55.15377, 67.819977)"/>
  <path d="M257.5,278.625 L257.5,267.375" id="Shape" stroke="#286391" opacity="0.5" transform="matrix(1, 0, 0, 1, 55.15377, 67.819977)"/>
  <path d="M384.5,278.625 L384.5,267.375" id="Shape" stroke="#286391" opacity="0.5" transform="matrix(1, 0, 0, 1, 55.15377, 67.819977)"/>
  <g id="Group" transform="matrix(1, 0, 0, 1, 148.15377, 236.819977)">
    <g transform="translate(0.000000, 50.260870)">
      <polygon id="Rectangle-path" stroke="#08497C" stroke-width="2" fill="#35A2DE" fill-rule="nonzero" points="0 0 83.6047059 0 83.6047059 25.3275362 0 25.3275362"/>
      <ellipse id="Oval" fill="#08497C" fill-rule="nonzero" cx="11.2658824" cy="8.27826087" rx="2.37176471" ry="2.36521739"/>
      <g id="Clipped" transform="translate(20.752941, 4.927536)">
        <mask id="mask-2" fill="white">
          <polygon points="0 0 56.6258824 0 56.6258824 15.7681159 0 15.7681159" transform="matrix(1, 0, 0, 1, 0, 0)"/>
        </mask>
        <g id="SVGID_16_"/>
        <g id="Group" mask="url(#mask-2)" stroke="#08497C">
          <g transform="translate(-39.529412, 1.971014)" id="Shape">
            <path d="M0,14.5855072 L14.6258824,0"/>
            <path d="M5.92941176,14.5855072 L20.5552941,0"/>
            <path d="M12.8470588,14.5855072 L27.4729412,0"/>
            <path d="M18.7764706,14.5855072 L33.4023529,0"/>
            <path d="M24.7058824,14.5855072 L39.3317647,0"/>
            <path d="M31.6235294,14.5855072 L46.2494118,0"/>
            <path d="M37.5529412,14.5855072 L52.1788235,0"/>
            <path d="M43.4823529,14.5855072 L58.1082353,0"/>
            <path d="M50.4,14.5855072 L65.0258824,0"/>
            <path d="M56.3294118,14.5855072 L70.9552941,0"/>
            <path d="M62.2588235,14.5855072 L76.8847059,0"/>
            <path d="M69.1764706,14.5855072 L83.8023529,0"/>
            <path d="M75.1058824,14.5855072 L89.7317647,0"/>
            <path d="M81.0352941,14.5855072 L95.6611765,0"/>
            <path d="M87.9529412,14.5855072 L102.578824,0"/>
            <path d="M93.8823529,14.5855072 L108.508235,0"/>
            <path d="M100.8,14.5855072 L115.425882,0"/>
            <path d="M106.729412,14.5855072 L121.355294,0"/>
          </g>
        </g>
      </g>
      <path d="M17.7882353,4.92753623 L17.7882353,20.2028986" id="Shape" stroke="#08497C"/>
    </g>
    <g>
      <polygon id="Rectangle-path" stroke="#08497C" stroke-width="2" fill="#35A2DE" fill-rule="nonzero" points="0 0 83.6047059 0 83.6047059 25.3275362 0 25.3275362"/>
      <ellipse id="Oval" fill="#08497C" fill-rule="nonzero" cx="11.2658824" cy="8.27826087" rx="2.37176471" ry="2.36521739"/>
      <g id="Clipped" transform="translate(20.752941, 4.927536)">
        <mask id="mask-4" fill="white">
          <polygon points="0 0 56.6258824 0 56.6258824 15.7681159 0 15.7681159" transform="matrix(1, 0, 0, 1, 0, 0)"/>
        </mask>
        <g id="SVGID_14_"/>
        <g id="Group" mask="url(#mask-4)" stroke="#08497C">
          <g transform="translate(-39.529412, 1.971014)" id="Shape">
            <path d="M0,14.5855072 L14.6258824,0"/>
            <path d="M5.92941176,14.5855072 L20.5552941,0"/>
            <path d="M12.8470588,14.5855072 L27.4729412,0"/>
            <path d="M18.7764706,14.5855072 L33.4023529,0"/>
            <path d="M24.7058824,14.5855072 L39.3317647,0"/>
            <path d="M31.6235294,14.5855072 L46.2494118,0"/>
            <path d="M37.5529412,14.5855072 L52.1788235,0"/>
            <path d="M43.4823529,14.5855072 L58.1082353,0"/>
            <path d="M50.4,14.5855072 L65.0258824,0"/>
            <path d="M56.3294118,14.5855072 L70.9552941,0"/>
            <path d="M62.2588235,14.5855072 L76.8847059,0"/>
            <path d="M69.1764706,14.5855072 L83.8023529,0"/>
            <path d="M75.1058824,14.5855072 L89.7317647,0"/>
            <path d="M81.0352941,14.5855072 L95.6611765,0"/>
            <path d="M87.9529412,14.5855072 L102.578824,0"/>
            <path d="M93.8823529,14.5855072 L108.508235,0"/>
            <path d="M100.8,14.5855072 L115.425882,0"/>
            <path d="M106.729412,14.5855072 L121.355294,0"/>
          </g>
        </g>
      </g>
      <path d="M17.7882353,5.91304348 L17.7882353,21.0898551" id="Shape" stroke="#08497C"/>
    </g>
    <g transform="translate(0.000000, 24.637681)">
      <polygon id="Rectangle-path" stroke="#08497C" stroke-width="2" fill="#35A2DE" fill-rule="nonzero" points="0 0 83.6047059 0 83.6047059 25.3275362 0 25.3275362"/>
      <ellipse id="Oval" fill="#08497C" fill-rule="nonzero" cx="11.2658824" cy="9.26376812" rx="2.37176471" ry="2.36521739"/>
      <g id="Clipped" transform="translate(20.752941, 4.927536)">
        <mask id="mask-6" fill="white">
          <polygon points="0 0 56.6258824 0 56.6258824 15.7681159 0 15.7681159" transform="matrix(1, 0, 0, 1, 0, 0)"/>
        </mask>
        <g id="SVGID_13_"/>
        <g id="Group" mask="url(#mask-6)" stroke="#08497C">
          <g transform="translate(-39.529412, 1.971014)" id="Shape">
            <path d="M0,14.4869565 L14.6258824,0"/>
            <path d="M5.92941176,14.4869565 L20.5552941,0"/>
            <path d="M12.8470588,14.4869565 L27.4729412,0"/>
            <path d="M18.7764706,14.4869565 L33.4023529,0"/>
            <path d="M24.7058824,14.4869565 L39.3317647,0"/>
            <path d="M31.6235294,14.4869565 L46.2494118,0"/>
            <path d="M37.5529412,14.4869565 L52.1788235,0"/>
            <path d="M43.4823529,14.4869565 L58.1082353,0"/>
            <path d="M50.4,14.4869565 L65.0258824,0"/>
            <path d="M56.3294118,14.4869565 L70.9552941,0"/>
            <path d="M62.2588235,14.4869565 L76.8847059,0"/>
            <path d="M69.1764706,14.4869565 L83.8023529,0"/>
            <path d="M75.1058824,14.4869565 L89.7317647,0"/>
            <path d="M81.0352941,14.4869565 L95.6611765,0"/>
            <path d="M87.9529412,14.4869565 L102.578824,0"/>
            <path d="M93.8823529,14.4869565 L108.508235,0"/>
            <path d="M100.8,14.4869565 L115.425882,0"/>
            <path d="M106.729412,14.4869565 L121.355294,0"/>
          </g>
        </g>
      </g>
      <path d="M17.7882353,5.91304348 L17.7882353,21.0898551" id="Shape" stroke="#08497C"/>
    </g>
  </g>
  <g id="Group" transform="matrix(1, 0, 0, 1, 161.15377, 319.819977)" fill="#474A4B">
    <path d="M0.571299605,1.01332721 L3.08320368,1.01332721 C4.24848605,1.01332721 5.09060215,1.18183042 5.60957725,1.51884191 C6.12855234,1.8558534 6.388036,2.38817038 6.388036,3.11580882 C6.388036,3.60600735 6.26070573,4.01386173 6.00604137,4.33938419 C5.75137701,4.66490665 5.38482017,4.86979125 4.90635986,4.95404412 L4.90635986,5.01148897 C5.5005767,5.12254957 5.93755104,5.34179524 6.21729598,5.66923254 C6.49704092,5.99666984 6.63691129,6.43994818 6.63691129,6.99908088 C6.63691129,7.75352706 6.37163989,8.34424572 5.84108914,8.7712546 C5.3105384,9.19826347 4.57260161,9.41176471 3.62725664,9.41176471 L0.571299605,9.41176471 L0.571299605,1.01332721 Z M1.95458319,4.48299632 L3.28577659,4.48299632 C3.86455922,4.48299632 4.28706421,4.39204288 4.55330422,4.21013327 C4.81954423,4.02822366 4.95266224,3.71898196 4.95266224,3.2823989 C4.95266224,2.88794227 4.80893338,2.60263568 4.52147134,2.42647059 C4.23400929,2.25030549 3.77774249,2.16222426 3.15265725,2.16222426 L1.95458319,2.16222426 L1.95458319,4.48299632 Z M1.95458319,5.59742647 L1.95458319,8.25712316 L3.42468373,8.25712316 C4.00346636,8.25712316 4.4404407,8.14702163 4.73561984,7.92681526 C5.03079898,7.70660889 5.17838634,7.359071 5.17838634,6.88419118 C5.17838634,6.44760811 5.02790511,6.12400534 4.72693814,5.91337316 C4.42597117,5.70274098 3.96873975,5.59742647 3.35523016,5.59742647 L1.95458319,5.59742647 Z M12.2568626,9.41176471 L11.9848361,8.52711397 L11.9385337,8.52711397 C11.6298496,8.91391125 11.319241,9.17719752 11.0066983,9.3169807 C10.6941557,9.45676387 10.2928724,9.52665441 9.80283647,9.52665441 C9.17389267,9.52665441 8.68289944,9.35815119 8.32984203,9.02113971 C7.97678462,8.68412822 7.80025857,8.20734071 7.80025857,7.59076287 C7.80025857,6.93588827 8.04527287,6.44186747 8.53530884,6.10868566 C9.0253448,5.77550385 9.7719632,5.59359697 10.7751864,5.56295956 L11.8806557,5.52849265 L11.8806557,5.18956801 C11.8806557,4.78362236 11.785158,4.48012509 11.5941598,4.2790671 C11.4031615,4.07800911 11.1070222,3.97748162 10.7057329,3.97748162 C10.377756,3.97748162 10.0632889,4.02535185 9.76232189,4.12109375 C9.46135492,4.21683565 9.17196794,4.3298094 8.89415228,4.46001838 L8.45427967,3.49494485 C8.80154925,3.31495008 9.18161082,3.17804122 9.59447576,3.08421415 C10.0073407,2.99038709 10.3970485,2.94347426 10.7636108,2.94347426 C11.5777651,2.94347426 12.1922301,3.11963672 12.6070243,3.47196691 C13.0218185,3.8242971 13.2292125,4.37767699 13.2292125,5.13212316 L13.2292125,9.41176471 L12.2568626,9.41176471 Z M10.2311335,8.49264706 C10.725028,8.49264706 11.1214882,8.3557382 11.4205258,8.08191636 C11.7195635,7.80809453 11.8690801,7.42417526 11.8690801,6.93014706 L11.8690801,6.37867647 L11.0472129,6.41314338 C10.4066935,6.43612144 9.94078043,6.54239335 9.64945984,6.73196232 C9.35813925,6.92153128 9.21248113,7.21162489 9.21248113,7.60225184 C9.21248113,7.88564786 9.29736798,8.10489353 9.46714422,8.2599954 C9.63692046,8.41509728 9.891581,8.49264706 10.2311335,8.49264706 Z M18.3745644,2.94347426 C18.6485215,2.94347426 18.8742434,2.96262236 19.0517367,3.00091912 L18.9186174,4.2589614 C18.7256898,4.21300528 18.5250482,4.19002757 18.3166865,4.19002757 C17.7726308,4.19002757 17.331798,4.36619003 16.9941747,4.71852022 C16.6565515,5.07085041 16.4877425,5.52848983 16.4877425,6.09145221 L16.4877425,9.41176471 L15.1276101,9.41176471 L15.1276101,3.05836397 L16.1925648,3.05836397 L16.3719865,4.1785386 L16.4414401,4.1785386 C16.6536604,3.79940068 16.9305073,3.49877562 17.271989,3.27665441 C17.6134708,3.0545332 17.9809922,2.94347426 18.3745644,2.94347426 Z M22.7964417,9.52665441 C21.8009355,9.52665441 21.0224846,9.23847561 20.4610654,8.66210937 C19.8996462,8.08574314 19.6189409,7.29205469 19.6189409,6.28102022 C19.6189409,5.24317802 19.8793892,4.42746927 20.4002935,3.83386949 C20.9211979,3.2402697 21.6369483,2.94347426 22.5475664,2.94347426 C23.392589,2.94347426 24.0601083,3.1981439 24.5501443,3.70749081 C25.0401802,4.21683772 25.2851945,4.91765792 25.2851945,5.80997243 L25.2851945,6.53952206 L21.0195878,6.53952206 C21.0388806,7.1560999 21.206725,7.63001519 21.5231262,7.96128217 C21.8395274,8.29254914 22.2851833,8.45818015 22.8601074,8.45818015 C23.2382454,8.45818015 23.5903329,8.42275618 23.9163804,8.35190717 C24.242428,8.28105816 24.5925862,8.16329739 24.9668657,7.99862132 L24.9668657,9.09581801 C24.6350303,9.25283473 24.2993414,9.36389367 23.9597889,9.42899816 C23.6202365,9.49410265 23.2324579,9.52665441 22.7964417,9.52665441 Z M22.5475664,3.96599265 C22.1154087,3.96599265 21.7691089,4.10194411 21.5086567,4.3738511 C21.2482045,4.6457581 21.0929002,5.04212362 21.042739,5.56295956 L23.9482133,5.56295956 C23.9404962,5.03829395 23.813166,4.64097102 23.5662187,4.37097886 C23.3192714,4.1009867 22.9797241,3.96599265 22.5475664,3.96599265 Z M33.7122276,9.41176471 L31.2582015,2.39774816 L31.2118991,2.39774816 C31.2774944,3.43942004 31.3102916,4.41597277 31.3102916,5.32743566 L31.3102916,9.41176471 L30.0543396,9.41176471 L30.0543396,1.01332721 L32.0048273,1.01332721 L34.3546731,7.6941636 L34.3893999,7.6941636 L36.8086992,1.01332721 L38.7649747,1.01332721 L38.7649747,9.41176471 L37.4337813,9.41176471 L37.4337813,5.25850184 C37.4337813,4.84106715 37.4443922,4.29726132 37.4656142,3.62706801 C37.4868362,2.95687471 37.5051641,2.55093514 37.5205983,2.40923713 L37.4742959,2.40923713 L34.9334528,9.41176471 L33.7122276,9.41176471 Z M43.6440879,9.52665441 C42.6485818,9.52665441 41.8701308,9.23847561 41.3087117,8.66210937 C40.7472925,8.08574314 40.4665871,7.29205469 40.4665871,6.28102022 C40.4665871,5.24317802 40.7270354,4.42746927 41.2479398,3.83386949 C41.7688442,3.2402697 42.4845946,2.94347426 43.3952126,2.94347426 C44.2402353,2.94347426 44.9077546,3.1981439 45.3977905,3.70749081 C45.8878265,4.21683772 46.1328408,4.91765792 46.1328408,5.80997243 L46.1328408,6.53952206 L41.8672341,6.53952206 C41.8865269,7.1560999 42.0543713,7.63001519 42.3707725,7.96128217 C42.6871737,8.29254914 43.1328296,8.45818015 43.7077537,8.45818015 C44.0858917,8.45818015 44.4379792,8.42275618 44.7640267,8.35190717 C45.0900743,8.28105816 45.4402325,8.16329739 45.8145119,7.99862132 L45.8145119,9.09581801 C45.4826766,9.25283473 45.1469877,9.36389367 44.8074352,9.42899816 C44.4678827,9.49410265 44.0801042,9.52665441 43.6440879,9.52665441 Z M43.3952126,3.96599265 C42.9630549,3.96599265 42.6167552,4.10194411 42.356303,4.3738511 C42.0958508,4.6457581 41.9405465,5.04212362 41.8903853,5.56295956 L44.7958596,5.56295956 C44.7881425,5.03829395 44.6608122,4.64097102 44.413865,4.37097886 C44.1669177,4.1009867 43.8273703,3.96599265 43.3952126,3.96599265 Z M50.0627552,8.43520221 C50.3945906,8.43520221 50.726421,8.38350236 51.0582564,8.2801011 L51.0582564,9.296875 C50.9077729,9.36197949 50.7138836,9.41655156 50.4765828,9.46059283 C50.2392819,9.50463411 49.9933029,9.52665441 49.7386386,9.52665441 C48.4498826,9.52665441 47.8055142,8.85264154 47.8055142,7.50459559 L47.8055142,4.08088235 L46.9315568,4.08088235 L46.9315568,3.48345588 L47.86918,2.98943015 L48.3322038,1.64522059 L49.1714344,1.64522059 L49.1714344,3.05836397 L50.9945906,3.05836397 L50.9945906,4.08088235 L49.1714344,4.08088235 L49.1714344,7.48161765 C49.1714344,7.80714011 49.2534274,8.04744867 49.4174158,8.20255055 C49.5814042,8.35765243 49.7965152,8.43520221 50.0627552,8.43520221 Z M56.3425154,9.41176471 L56.0704889,8.52711397 L56.0241866,8.52711397 C55.7155025,8.91391125 55.4048938,9.17719752 55.0923512,9.3169807 C54.7798086,9.45676387 54.3785253,9.52665441 53.8884893,9.52665441 C53.2595455,9.52665441 52.7685523,9.35815119 52.4154949,9.02113971 C52.0624375,8.68412822 51.8859114,8.20734071 51.8859114,7.59076287 C51.8859114,6.93588827 52.1309257,6.44186747 52.6209617,6.10868566 C53.1109977,5.77550385 53.8576161,5.59359697 54.8608393,5.56295956 L55.9663086,5.52849265 L55.9663086,5.18956801 C55.9663086,4.78362236 55.8708109,4.48012509 55.6798126,4.2790671 C55.4888144,4.07800911 55.192675,3.97748162 54.7913857,3.97748162 C54.4634089,3.97748162 54.1489417,4.02535185 53.8479747,4.12109375 C53.5470078,4.21683565 53.2576208,4.3298094 52.9798051,4.46001838 L52.5399325,3.49494485 C52.8872021,3.31495008 53.2672637,3.17804122 53.6801286,3.08421415 C54.0929936,2.99038709 54.4827014,2.94347426 54.8492637,2.94347426 C55.6634179,2.94347426 56.2778829,3.11963672 56.6926772,3.47196691 C57.1074714,3.8242971 57.3148654,4.37767699 57.3148654,5.13212316 L57.3148654,9.41176471 L56.3425154,9.41176471 Z M54.3167863,8.49264706 C54.8106808,8.49264706 55.207141,8.3557382 55.5061787,8.08191636 C55.8052164,7.80809453 55.954733,7.42417526 55.954733,6.93014706 L55.954733,6.37867647 L55.1328658,6.41314338 C54.4923463,6.43612144 54.0264333,6.54239335 53.7351127,6.73196232 C53.4437921,6.92153128 53.298134,7.21162489 53.298134,7.60225184 C53.298134,7.88564786 53.3830208,8.10489353 53.5527971,8.2599954 C53.7225733,8.41509728 53.9772339,8.49264706 54.3167863,8.49264706 Z M60.5733953,9.41176471 L59.2132629,9.41176471 L59.2132629,0.473345588 L60.5733953,0.473345588 L60.5733953,9.41176471 Z" id="Bare-Metal"/>
  </g>
  <g id="Group" transform="matrix(1, 0, 0, 1, 272.15377, 285.819977)">
    <polygon id="Rectangle-path" stroke="#08497C" stroke-width="2" fill="#35A2DE" fill-rule="nonzero" points="0 0 83.6047059 0 83.6047059 25.7 0 25.7"/>
    <ellipse id="Oval" fill="#08497C" fill-rule="nonzero" cx="11.2658824" cy="8.4" rx="2.37176471" ry="2.4"/>
    <g id="Clipped" transform="translate(19.764706, 5.000000)">
      <mask id="mask-15" fill="white">
        <polygon points="0 0 56.6258824 0 56.6258824 16 0 16" transform="matrix(1, 0, 0, 1, 0, 0)"/>
      </mask>
      <g id="SVGID_11_"/>
      <g id="Group" mask="url(#mask-15)" stroke="#08497C">
        <g transform="translate(-38.541176, 2.000000)" id="Shape">
          <path d="M0,14.8 L14.6258824,0"/>
          <path d="M5.92941176,14.8 L20.5552941,0"/>
          <path d="M11.8588235,14.8 L26.4847059,0"/>
          <path d="M18.7764706,14.8 L33.4023529,0"/>
          <path d="M24.7058824,14.8 L39.3317647,0"/>
          <path d="M30.6352941,14.8 L45.2611765,0"/>
          <path d="M37.5529412,14.8 L52.1788235,0"/>
          <path d="M43.4823529,14.8 L58.1082353,0"/>
          <path d="M49.4117647,14.8 L64.0376471,0"/>
          <path d="M56.3294118,14.8 L70.9552941,0"/>
          <path d="M62.2588235,14.8 L76.8847059,0"/>
          <path d="M69.1764706,14.8 L83.8023529,0"/>
          <path d="M75.1058824,14.8 L89.7317647,0"/>
          <path d="M81.0352941,14.8 L95.6611765,0"/>
          <path d="M87.9529412,14.8 L102.578824,0"/>
          <path d="M93.8823529,14.8 L108.508235,0"/>
          <path d="M99.8117647,14.8 L114.437647,0"/>
          <path d="M106.729412,14.8 L121.355294,0"/>
        </g>
      </g>
    </g>
    <path d="M16.8,5 L16.8,20.5" id="Shape" stroke="#08497C"/>
  </g>
  <path d="M276.029557,207 L239.970443,207 C238.8867,207 238,206.1133 238,205.029557 L238,168.970443 C238,167.8867 238.8867,167 239.970443,167 L276.029557,167 C277.1133,167 278,167.8867 278,168.970443 L278,205.029557 C278,206.1133 277.1133,207 276.029557,207 Z" id="Shape" stroke="#08497C" stroke-width="2" fill="#FFFFFF" fill-rule="nonzero" transform="matrix(1, 0, 0, 1, 55.15377, 67.819977)"/>
  <g id="Group" transform="matrix(1, 0, 0, 1, 265.15377, 319.819977)" fill="#474A4B">
    <path d="M6.41820791,1.01332721 L7.8565051,1.01332721 L4.88711735,9.41176471 L3.42562181,9.41176471 L0.467833227,1.01332721 L1.89453125,1.01332721 L3.66340482,6.23506434 C3.75619865,6.48399328 3.85479061,6.80472383 3.95918367,7.19726562 C4.06357673,7.58980742 4.13123789,7.88181583 4.16216916,8.07329963 C4.21243249,7.78224426 4.28975952,7.44523782 4.39415258,7.06227022 C4.49854564,6.67930262 4.58360538,6.39591085 4.64933434,6.2120864 L6.41820791,1.01332721 Z M10.193738,9.41176471 L8.83083546,9.41176471 L8.83083546,3.05836397 L10.193738,3.05836397 L10.193738,9.41176471 Z M8.74964126,1.37522978 C8.74964126,1.13396019 8.81633583,0.94822369 8.94972696,0.818014706 C9.08311809,0.687805722 9.27353591,0.622702206 9.52098613,0.622702206 C9.76070353,0.622702206 9.94725499,0.687805722 10.0806461,0.818014706 C10.2140373,0.94822369 10.2807318,1.13396019 10.2807318,1.37522978 C10.2807318,1.60501034 10.2140373,1.78595982 10.0806461,1.91808364 C9.94725499,2.05020746 9.76070353,2.11626838 9.52098613,2.11626838 C9.27353591,2.11626838 9.08311809,2.05020746 8.94972696,1.91808364 C8.81633583,1.78595982 8.74964126,1.60501034 8.74964126,1.37522978 Z M15.3959662,2.94347426 C15.6704813,2.94347426 15.8966629,2.96262236 16.0745177,3.00091912 L15.9411272,4.2589614 C15.7478068,4.21300528 15.5467565,4.19002757 15.3379703,4.19002757 C14.7928066,4.19002757 14.3510759,4.36619003 14.0127651,4.71852022 C13.6744542,5.07085041 13.5053013,5.52848983 13.5053013,6.09145221 L13.5053013,9.41176471 L12.1423988,9.41176471 L12.1423988,3.05836397 L13.2095225,3.05836397 L13.3893096,4.1785386 L13.4589047,4.1785386 C13.6715572,3.79940068 13.9489679,3.49877562 14.2911452,3.27665441 C14.6333224,3.0545332 15.0015924,2.94347426 15.3959662,2.94347426 Z M19.6528619,8.43520221 C19.9853732,8.43520221 20.3178794,8.38350236 20.6503906,8.2801011 L20.6503906,9.296875 C20.4996006,9.36197949 20.3053165,9.41655156 20.0675323,9.46059283 C19.8297481,9.50463411 19.5832682,9.52665441 19.3280851,9.52665441 C18.0367043,9.52665441 17.3910236,8.85264154 17.3910236,7.50459559 L17.3910236,4.08088235 L16.5152862,4.08088235 L16.5152862,3.48345588 L17.454819,2.98943015 L17.9187859,1.64522059 L18.7597258,1.64522059 L18.7597258,3.05836397 L20.5865952,3.05836397 L20.5865952,4.08088235 L18.7597258,4.08088235 L18.7597258,7.48161765 C18.7597258,7.80714011 18.8418857,8.04744867 19.0062081,8.20255055 C19.1705306,8.35765243 19.3860797,8.43520221 19.6528619,8.43520221 Z M26.4557757,9.41176471 L26.2643893,8.57881434 L26.1947943,8.57881434 C26.0053403,8.87369939 25.7356622,9.10539131 25.3857522,9.27389706 C25.0358421,9.4424028 24.6366413,9.52665441 24.1881378,9.52665441 C23.4109894,9.52665441 22.8310367,9.33517348 22.4482621,8.95220588 C22.0654876,8.56923828 21.8741032,7.98905107 21.8741032,7.21162684 L21.8741032,3.05836397 L23.2486049,3.05836397 L23.2486049,6.97610294 C23.2486049,7.46247179 23.3491301,7.82724296 23.5501834,8.07042739 C23.7512367,8.31361182 24.0663443,8.43520221 24.4955158,8.43520221 C25.0677444,8.43520221 25.4882102,8.26574158 25.7569256,7.92681526 C26.0256411,7.58788893 26.1599968,7.02014798 26.1599968,6.22357537 L26.1599968,3.05836397 L27.528699,3.05836397 L27.528699,9.41176471 L26.4557757,9.41176471 Z M33.4848732,9.41176471 L33.2122927,8.52711397 L33.165896,8.52711397 C32.8565833,8.91391125 32.545342,9.17719752 32.2321628,9.3169807 C31.9189836,9.45676387 31.516883,9.52665441 31.025849,9.52665441 C30.3956242,9.52665441 29.903631,9.35815119 29.5498545,9.02113971 C29.196078,8.68412822 29.0191924,8.20734071 29.0191924,7.59076287 C29.0191924,6.93588827 29.2647058,6.44186747 29.7557398,6.10868566 C30.2467738,5.77550385 30.9949129,5.59359697 32.0001794,5.56295956 L33.1079002,5.52849265 L33.1079002,5.18956801 C33.1079002,4.78362236 33.012208,4.48012509 32.8208207,4.2790671 C32.6294334,4.07800911 32.3326909,3.97748162 31.9305843,3.97748162 C31.6019395,3.97748162 31.2868319,4.02535185 30.9852519,4.12109375 C30.683672,4.21683565 30.3936956,4.3298094 30.1153141,4.46001838 L29.6745456,3.49494485 C30.0225225,3.31495008 30.4033581,3.17804122 30.8170639,3.08421415 C31.2307698,2.99038709 31.6212713,2.94347426 31.9885802,2.94347426 C32.8043926,2.94347426 33.4201091,3.11963672 33.8357482,3.47196691 C34.2513872,3.8242971 34.4592036,4.37767699 34.4592036,5.13212316 L34.4592036,9.41176471 L33.4848732,9.41176471 Z M31.4550183,8.49264706 C31.9499188,8.49264706 32.3471864,8.3557382 32.6468331,8.08191636 C32.9464799,7.80809453 33.096301,7.42417526 33.096301,6.93014706 L33.096301,6.37867647 L32.2727599,6.41314338 C31.6309359,6.43612144 31.1640739,6.54239335 30.87216,6.73196232 C30.5802461,6.92153128 30.4342913,7.21162489 30.4342913,7.60225184 C30.4342913,7.88564786 30.519351,8.10489353 30.6894731,8.2599954 C30.8595951,8.41509728 31.1147743,8.49264706 31.4550183,8.49264706 Z M37.7243702,9.41176471 L36.3614676,9.41176471 L36.3614676,0.473345588 L37.7243702,0.473345588 L37.7243702,9.41176471 Z M46.568738,9.41176471 L44.1097138,2.39774816 L44.0633171,2.39774816 C44.1290461,3.43942004 44.1619101,4.41597277 44.1619101,5.32743566 L44.1619101,9.41176471 L42.9034,9.41176471 L42.9034,1.01332721 L44.8578603,1.01332721 L47.212492,7.6941636 L47.2472895,7.6941636 L49.6715163,1.01332721 L51.6317761,1.01332721 L51.6317761,9.41176471 L50.2978715,9.41176471 L50.2978715,5.25850184 C50.2978715,4.84106715 50.308504,4.29726132 50.3297692,3.62706801 C50.3510345,2.95687471 50.3693996,2.55093514 50.3848653,2.40923713 L50.3384686,2.40923713 L47.7924506,9.41176471 L46.568738,9.41176471 Z M57.7329401,9.41176471 L57.4603595,8.52711397 L57.4139629,8.52711397 C57.1046501,8.91391125 56.7934088,9.17719752 56.4802296,9.3169807 C56.1670504,9.45676387 55.7649498,9.52665441 55.2739158,9.52665441 C54.643691,9.52665441 54.1516978,9.35815119 53.7979213,9.02113971 C53.4441448,8.68412822 53.2672592,8.20734071 53.2672592,7.59076287 C53.2672592,6.93588827 53.5127726,6.44186747 54.0038066,6.10868566 C54.4948406,5.77550385 55.2429797,5.59359697 56.2482462,5.56295956 L57.355967,5.52849265 L57.355967,5.18956801 C57.355967,4.78362236 57.2602748,4.48012509 57.0688875,4.2790671 C56.8775002,4.07800911 56.5807578,3.97748162 56.1786511,3.97748162 C55.8500063,3.97748162 55.5348987,4.02535185 55.2333187,4.12109375 C54.9317388,4.21683565 54.6417624,4.3298094 54.3633809,4.46001838 L53.9226124,3.49494485 C54.2705893,3.31495008 54.6514249,3.17804122 55.0651307,3.08421415 C55.4788366,2.99038709 55.8693381,2.94347426 56.236647,2.94347426 C57.0524594,2.94347426 57.6681759,3.11963672 58.083815,3.47196691 C58.499454,3.8242971 58.7072704,4.37767699 58.7072704,5.13212316 L58.7072704,9.41176471 L57.7329401,9.41176471 Z M55.7030851,8.49264706 C56.1979856,8.49264706 56.5952532,8.3557382 56.8949,8.08191636 C57.1945467,7.80809453 57.3443678,7.42417526 57.3443678,6.93014706 L57.3443678,6.37867647 L56.5208267,6.41314338 C55.8790027,6.43612144 55.4121407,6.54239335 55.1202268,6.73196232 C54.8283129,6.92153128 54.6823581,7.21162489 54.6823581,7.60225184 C54.6823581,7.88564786 54.7674178,8.10489353 54.9375399,8.2599954 C55.1076619,8.41509728 55.3628411,8.49264706 55.7030851,8.49264706 Z M63.1961496,9.52665441 C62.2256807,9.52665441 61.4881742,9.24613485 60.9836077,8.68508732 C60.4790412,8.12403978 60.2267618,7.31886248 60.2267618,6.26953125 C60.2267618,5.20105164 60.4906403,4.37959846 61.0184052,3.80514706 C61.5461701,3.23069566 62.308808,2.94347426 63.3063417,2.94347426 C63.9829634,2.94347426 64.5919137,3.06793687 65.1332111,3.31686581 L64.7214405,4.40257353 C64.1453455,4.18045232 63.6697842,4.06939338 63.2947425,4.06939338 C62.1850829,4.06939338 61.6302615,4.79893572 61.6302615,6.25804228 C61.6302615,6.97036202 61.7684836,7.50555121 62.0449318,7.86362592 C62.3213801,8.22170063 62.7263805,8.40073529 63.259945,8.40073529 C63.8669713,8.40073529 64.4411245,8.25138017 64.9824219,7.95266544 L64.9824219,9.13028493 C64.7388381,9.27198294 64.4788259,9.37346783 64.2023776,9.43474265 C63.9259293,9.49601746 63.5905233,9.52665441 63.1961496,9.52665441 Z M72.1333107,9.41176471 L70.7646086,9.41176471 L70.7646086,5.50551471 C70.7646086,5.01531618 70.66505,4.6495876 70.4659299,4.40831801 C70.2668098,4.16704843 69.9507356,4.04641544 69.5176977,4.04641544 C68.9454691,4.04641544 68.5250033,4.21587606 68.2562879,4.55480239 C67.9875724,4.89372872 67.8532167,5.46146967 67.8532167,6.25804228 L67.8532167,9.41176471 L66.4903141,9.41176471 L66.4903141,0.473345588 L67.8532167,0.473345588 L67.8532167,2.74241728 C67.8532167,3.1062365 67.8300186,3.49494278 67.7836217,3.90854779 L67.8706154,3.90854779 C68.0562031,3.60217371 68.3142821,3.36473736 68.6448601,3.19623162 C68.9754381,3.02772587 69.3611067,2.94347426 69.8018774,2.94347426 C71.3561741,2.94347426 72.1333107,3.71897202 72.1333107,5.26999081 L72.1333107,9.41176471 Z M75.3926778,9.41176471 L74.0297752,9.41176471 L74.0297752,3.05836397 L75.3926778,3.05836397 L75.3926778,9.41176471 Z M73.948581,1.37522978 C73.948581,1.13396019 74.0152756,0.94822369 74.1486667,0.818014706 C74.2820578,0.687805722 74.4724756,0.622702206 74.7199259,0.622702206 C74.9596433,0.622702206 75.1461947,0.687805722 75.2795859,0.818014706 C75.412977,0.94822369 75.4796716,1.13396019 75.4796716,1.37522978 C75.4796716,1.60501034 75.412977,1.78595982 75.2795859,1.91808364 C75.1461947,2.05020746 74.9596433,2.11626838 74.7199259,2.11626838 C74.4724756,2.11626838 74.2820578,2.05020746 74.1486667,1.91808364 C74.0152756,1.78595982 73.948581,1.60501034 73.948581,1.37522978 Z M82.9843351,9.41176471 L81.615633,9.41176471 L81.615633,5.50551471 C81.615633,5.01531618 81.5160744,4.6495876 81.3169543,4.40831801 C81.1178342,4.16704843 80.80176,4.04641544 80.3687221,4.04641544 C79.7926271,4.04641544 79.3711947,4.21491866 79.1044125,4.55193015 C78.8376302,4.88894164 78.7042411,5.45381037 78.7042411,6.24655331 L78.7042411,9.41176471 L77.3413385,9.41176471 L77.3413385,3.05836397 L78.4084622,3.05836397 L78.5998485,3.89131434 L78.6694436,3.89131434 C78.862764,3.58876993 79.137275,3.3551632 79.4929847,3.19048713 C79.8486944,3.02581106 80.2430622,2.94347426 80.6761001,2.94347426 C82.2149312,2.94347426 82.9843351,3.71897202 82.9843351,5.26999081 L82.9843351,9.41176471 Z M87.6819994,9.52665441 C86.6844657,9.52665441 85.9044292,9.23847561 85.3418666,8.66210937 C84.779304,8.08574314 84.4980269,7.29205469 84.4980269,6.28102022 C84.4980269,5.24317802 84.7590057,4.42746927 85.280971,3.83386949 C85.8029363,3.2402697 86.5201445,2.94347426 87.4326172,2.94347426 C88.2793609,2.94347426 88.9482397,3.1981439 89.4392738,3.70749081 C89.9303078,4.21683772 90.1758211,4.91765792 90.1758211,5.80997243 L90.1758211,6.53952206 L85.9015266,6.53952206 C85.9208587,7.1560999 86.089045,7.63001519 86.4060906,7.96128217 C86.7231362,8.29254914 87.1696998,8.45818015 87.7457948,8.45818015 C88.1247029,8.45818015 88.4775075,8.42275618 88.8042191,8.35190717 C89.1309308,8.28105816 89.4818022,8.16329739 89.8568439,7.99862132 L89.8568439,9.09581801 C89.5243327,9.25283473 89.1879601,9.36389367 88.847716,9.42899816 C88.507472,9.49410265 88.1189037,9.52665441 87.6819994,9.52665441 Z M87.4326172,3.96599265 C86.9995793,3.96599265 86.6525742,4.10194411 86.3915916,4.3738511 C86.1306089,4.6457581 85.9749883,5.04212362 85.924725,5.56295956 L88.8361169,5.56295956 C88.828384,5.03829395 88.7007944,4.64097102 88.4533442,4.37097886 C88.205894,4.1009867 87.8656551,3.96599265 87.4326172,3.96599265 Z M96.0334024,7.60225184 C96.0334024,8.22265935 95.8052877,8.69848946 95.3490513,9.02975643 C94.892815,9.36102341 94.2394016,9.52665441 93.3887915,9.52665441 C92.5343149,9.52665441 91.8480375,9.39836219 91.3299386,9.1417739 L91.3299386,7.97564338 C92.0838885,8.32031422 92.7856313,8.49264706 93.4351881,8.49264706 C94.274199,8.49264706 94.6936982,8.24180704 94.6936982,7.74011949 C94.6936982,7.57927309 94.647302,7.44523644 94.5545081,7.33800551 C94.4617143,7.23077459 94.3089934,7.11971565 94.0963409,7.00482537 C93.8836884,6.88993509 93.5879124,6.75972806 93.2090043,6.61420037 C92.4705201,6.33080434 91.9707941,6.04741257 91.7098115,5.76401654 C91.4488288,5.48062052 91.3183394,5.11297714 91.3183394,4.66107537 C91.3183394,4.11726137 91.5396881,3.69504593 91.982392,3.39441636 C92.4250959,3.09378679 93.0272802,2.94347426 93.7889629,2.94347426 C94.5429127,2.94347426 95.2562546,3.0947442 95.9290099,3.3972886 L95.4882414,4.4140625 C94.7961541,4.13066648 94.2142681,3.98897059 93.7425662,3.98897059 C93.023414,3.98897059 92.6638433,4.19194037 92.6638433,4.59788603 C92.6638433,4.79702918 92.7576023,4.9655324 92.9451232,5.10340074 C93.132644,5.24126907 93.5415107,5.43083519 94.1717355,5.67210478 C94.7014336,5.87507761 95.0861356,6.06081411 95.325853,6.22931985 C95.5655704,6.3978256 95.7434226,6.59217874 95.8594149,6.81238511 C95.9754071,7.03259148 96.0334024,7.29587776 96.0334024,7.60225184 Z" id="Virtual-Machines"/>
  </g>
  <g id="Group" transform="matrix(1, 0, 0, 1, 398.15377, 285.819977)">
    <polygon id="Rectangle-path" stroke="#08497C" stroke-width="2" fill="#35A2DE" fill-rule="nonzero" points="0 0 83.6047059 0 83.6047059 25.7 0 25.7"/>
    <ellipse id="Oval" fill="#08497C" fill-rule="nonzero" cx="11.2658824" cy="8.4" rx="2.37176471" ry="2.4"/>
    <g id="Clipped" transform="translate(19.764706, 5.000000)">
      <mask id="mask-17" fill="white">
        <polygon points="0 0 56.6258824 0 56.6258824 16 0 16" transform="matrix(1, 0, 0, 1, 0, 0)"/>
      </mask>
      <g id="SVGID_10_"/>
      <g id="Group" mask="url(#mask-17)" stroke="#08497C">
        <g transform="translate(-39.529412, 2.000000)" id="Shape">
          <path d="M0,14.8 L14.6258824,0"/>
          <path d="M6.91764706,14.8 L21.5435294,0"/>
          <path d="M12.8470588,14.8 L27.4729412,0"/>
          <path d="M18.7764706,14.8 L33.4023529,0"/>
          <path d="M25.6941176,14.8 L40.32,0"/>
          <path d="M31.6235294,14.8 L46.2494118,0"/>
          <path d="M38.5411765,14.8 L53.1670588,0"/>
          <path d="M44.4705882,14.8 L59.0964706,0"/>
          <path d="M50.4,14.8 L65.0258824,0"/>
          <path d="M57.3176471,14.8 L71.9435294,0"/>
          <path d="M63.2470588,14.8 L77.8729412,0"/>
          <path d="M69.1764706,14.8 L83.8023529,0"/>
          <path d="M76.0941176,14.8 L90.72,0"/>
          <path d="M82.0235294,14.8 L96.6494118,0"/>
          <path d="M87.9529412,14.8 L102.578824,0"/>
          <path d="M94.8705882,14.8 L109.496471,0"/>
          <path d="M100.8,14.8 L115.425882,0"/>
          <path d="M106.729412,14.8 L121.355294,0"/>
        </g>
      </g>
    </g>
    <path d="M16.8,5 L16.8,20.5" id="Shape" stroke="#08497C"/>
  </g>
  <g id="Group-3" transform="matrix(1, 0, 0, 1, 419.15377, 236.819977)" fill="#FFFFFF" fill-rule="nonzero" stroke="#08497C" stroke-width="2">
    <path d="M16.2227273,18.1571429 L1.95454545,18.1571429 C0.879545455,18.1571429 0,17.2785714 0,16.2047619 L0,1.95238095 C0,0.878571429 0.879545455,0 1.95454545,0 L16.2227273,0 C17.2977273,0 18.1772727,0.878571429 18.1772727,1.95238095 L18.1772727,16.2047619 C18.1772727,17.2785714 17.2977273,18.1571429 16.2227273,18.1571429 Z" id="Shape"/>
    <path d="M40.6545455,18.1571429 L26.3863636,18.1571429 C25.3113636,18.1571429 24.4318182,17.2785714 24.4318182,16.2047619 L24.4318182,1.95238095 C24.4318182,0.878571429 25.3113636,0 26.3863636,0 L40.6545455,0 C41.7295455,0 42.6090909,0.878571429 42.6090909,1.95238095 L42.6090909,16.2047619 C42.6090909,17.2785714 41.7295455,18.1571429 40.6545455,18.1571429 Z" id="Shape"/>
    <path d="M16.2227273,40.6095238 L1.95454545,40.6095238 C0.879545455,40.6095238 0,39.7309524 0,38.6571429 L0,24.4047619 C0,23.3309524 0.879545455,22.452381 1.95454545,22.452381 L16.2227273,22.452381 C17.2977273,22.452381 18.1772727,23.3309524 18.1772727,24.4047619 L18.1772727,38.6571429 C18.1772727,39.7309524 17.2977273,40.6095238 16.2227273,40.6095238 Z" id="Shape"/>
    <path d="M40.6545455,40.6095238 L26.3863636,40.6095238 C25.3113636,40.6095238 24.4318182,39.7309524 24.4318182,38.6571429 L24.4318182,24.4047619 C24.4318182,23.3309524 25.3113636,22.452381 26.3863636,22.452381 L40.6545455,22.452381 C41.7295455,22.452381 42.6090909,23.3309524 42.6090909,24.4047619 L42.6090909,38.6571429 C42.6090909,39.7309524 41.7295455,40.6095238 40.6545455,40.6095238 Z" id="Shape"/>
  </g>
  <g id="Group" transform="matrix(1, 0, 0, 1, 410.15377, 319.819977)" fill="#474A4B">
    <path d="M4.03398623,2.0703125 C3.24052087,2.0703125 2.61654291,2.34987466 2.16203363,2.90900735 C1.70752434,3.46814005 1.48027311,4.23980819 1.48027311,5.22403493 C1.48027311,6.25421777 1.69885798,7.03354515 2.13603428,7.56204044 C2.57321059,8.09053573 3.20585491,8.35477941 4.03398623,8.35477941 C4.39220117,8.35477941 4.73885559,8.31935544 5.0739599,8.24850643 C5.4090642,8.17765743 5.75764448,8.08670399 6.11971119,7.97564338 L6.11971119,9.15326287 C5.45720614,9.40219181 4.70612156,9.52665441 3.86643491,9.52665441 C2.63001559,9.52665441 1.68056765,9.15422401 1.01806259,8.40935202 C0.355557535,7.66448004 0.0243099758,6.59888867 0.0243099758,5.21254596 C0.0243099758,4.33937983 0.185119111,3.57537092 0.506742205,2.92049632 C0.828365299,2.26562173 1.29345998,1.76394169 1.90204021,1.41544118 C2.51062044,1.06694066 3.22511372,0.892693015 4.04554149,0.892693015 C4.90833877,0.892693015 5.70564395,1.07268509 6.43748093,1.43267463 L5.94060462,2.57582721 C5.65557337,2.44178855 5.35417661,2.32402777 5.03640529,2.22254136 C4.71863397,2.12105495 4.38449762,2.0703125 4.03398623,2.0703125 Z M13.4630808,6.22357537 C13.4630808,7.26141757 13.1953866,8.07138189 12.65999,8.65349265 C12.1245935,9.2356034 11.3792865,9.52665441 10.4240467,9.52665441 C9.82702175,9.52665441 9.29933668,9.39261776 8.84097563,9.12454044 C8.38261457,8.85646312 8.03018257,8.47158645 7.78366906,7.9698989 C7.53715555,7.46821134 7.41390065,6.88610932 7.41390065,6.22357537 C7.41390065,5.19339252 7.67966904,4.38917262 8.21121379,3.81089154 C8.74275855,3.23261047 9.49191727,2.94347426 10.4587124,2.94347426 C11.3831381,2.94347426 12.1149641,3.2393123 12.6542124,3.83099724 C13.1934607,4.42268219 13.4630808,5.22020025 13.4630808,6.22357537 Z M8.81208747,6.22357537 C8.81208747,7.69034128 9.35710525,8.42371324 10.4471572,8.42371324 C11.5256538,8.42371324 12.064894,7.69034128 12.064894,6.22357537 C12.064894,4.77212816 11.5218021,4.04641544 10.4356019,4.04641544 C9.86553943,4.04641544 9.4524429,4.23406675 9.19629996,4.609375 C8.94015702,4.98468325 8.81208747,5.52274466 8.81208747,6.22357537 Z M20.6446768,9.41176471 L19.2811557,9.41176471 L19.2811557,5.50551471 C19.2811557,5.01531618 19.181974,4.6495876 18.9836077,4.40831801 C18.7852414,4.16704843 18.4703636,4.04641544 18.038965,4.04641544 C17.4650507,4.04641544 17.0452137,4.21491866 16.7794413,4.55193015 C16.5136689,4.88894164 16.3807847,5.45381037 16.3807847,6.24655331 L16.3807847,9.41176471 L15.0230413,9.41176471 L15.0230413,3.05836397 L16.0861255,3.05836397 L16.2767873,3.89131434 L16.3461189,3.89131434 C16.5387076,3.58876993 16.8121794,3.3551632 17.1665426,3.19048713 C17.5209058,3.02581106 17.9137808,2.94347426 18.3451794,2.94347426 C19.8781853,2.94347426 20.6446768,3.71897202 20.6446768,5.26999081 L20.6446768,9.41176471 Z M24.9143464,8.43520221 C25.245599,8.43520221 25.5768465,8.38350236 25.908099,8.2801011 L25.908099,9.296875 C25.7578799,9.36197949 25.5643311,9.41655156 25.3274471,9.46059283 C25.090563,9.50463411 24.8450161,9.52665441 24.5907991,9.52665441 C23.3043067,9.52665441 22.6610701,8.85264154 22.6610701,7.50459559 L22.6610701,4.08088235 L21.7886478,4.08088235 L21.7886478,3.48345588 L22.7246241,2.98943015 L23.1868346,1.64522059 L24.0245912,1.64522059 L24.0245912,3.05836397 L25.8445451,3.05836397 L25.8445451,4.08088235 L24.0245912,4.08088235 L24.0245912,7.48161765 C24.0245912,7.80714011 24.1064401,8.04744867 24.2701405,8.20255055 C24.4338409,8.35765243 24.648574,8.43520221 24.9143464,8.43520221 Z M31.1830766,9.41176471 L30.9115279,8.52711397 L30.8653069,8.52711397 C30.557165,8.91391125 30.2471018,9.17719752 29.9351082,9.3169807 C29.6231145,9.45676387 29.2225361,9.52665441 28.7333608,9.52665441 C28.1055217,9.52665441 27.6153909,9.35815119 27.2629536,9.02113971 C26.9105163,8.68412822 26.7343003,8.20734071 26.7343003,7.59076287 C26.7343003,6.93588827 26.9788843,6.44186747 27.4680595,6.10868566 C27.9572348,5.77550385 28.7025418,5.59359697 29.7040029,5.56295956 L30.8075305,5.52849265 L30.8075305,5.18956801 C30.8075305,4.78362236 30.7122006,4.48012509 30.5215378,4.2790671 C30.330875,4.07800911 30.0352558,3.97748162 29.6346713,3.97748162 C29.3072706,3.97748162 28.9933558,4.02535185 28.6929174,4.12109375 C28.3924791,4.21683565 28.1036004,4.3298094 27.8262727,4.46001838 L27.3871727,3.49494485 C27.7338323,3.31495008 28.1132263,3.17804122 28.5253661,3.08421415 C28.9375059,2.99038709 29.3265292,2.94347426 29.6924477,2.94347426 C30.5051719,2.94347426 31.1185576,3.11963672 31.5326233,3.47196691 C31.946689,3.8242971 32.1537187,4.37767699 32.1537187,5.13212316 L32.1537187,9.41176471 L31.1830766,9.41176471 Z M29.1609056,8.49264706 C29.6539326,8.49264706 30.0496964,8.3557382 30.3482088,8.08191636 C30.6467213,7.80809453 30.7959753,7.42417526 30.7959753,6.93014706 L30.7959753,6.37867647 L29.9755516,6.41314338 C29.3361572,6.43612144 28.8710625,6.54239335 28.5802536,6.73196232 C28.2894447,6.92153128 28.1440424,7.21162489 28.1440424,7.60225184 C28.1440424,7.88564786 28.2287802,8.10489353 28.3982582,8.2599954 C28.5677362,8.41509728 28.8219495,8.49264706 29.1609056,8.49264706 Z M35.4065252,9.41176471 L34.0487818,9.41176471 L34.0487818,3.05836397 L35.4065252,3.05836397 L35.4065252,9.41176471 Z M33.967895,1.37522978 C33.967895,1.13396019 34.0343371,0.94822369 34.1672232,0.818014706 C34.3001094,0.687805722 34.4898064,0.622702206 34.73632,0.622702206 C34.9751299,0.622702206 35.1609752,0.687805722 35.2938614,0.818014706 C35.4267476,0.94822369 35.4931897,1.13396019 35.4931897,1.37522978 C35.4931897,1.60501034 35.4267476,1.78595982 35.2938614,1.91808364 C35.1609752,2.05020746 34.9751299,2.11626838 34.73632,2.11626838 C34.4898064,2.11626838 34.3001094,2.05020746 34.1672232,1.91808364 C34.0343371,1.78595982 33.967895,1.60501034 33.967895,1.37522978 Z M42.9694448,9.41176471 L41.6059238,9.41176471 L41.6059238,5.50551471 C41.6059238,5.01531618 41.5067421,4.6495876 41.3083758,4.40831801 C41.1100094,4.16704843 40.7951317,4.04641544 40.363733,4.04641544 C39.7898188,4.04641544 39.3699817,4.21491866 39.1042094,4.55193015 C38.838437,4.88894164 38.7055528,5.45381037 38.7055528,6.24655331 L38.7055528,9.41176471 L37.3478094,9.41176471 L37.3478094,3.05836397 L38.4108936,3.05836397 L38.6015554,3.89131434 L38.670887,3.89131434 C38.8634757,3.58876993 39.1369475,3.3551632 39.4913107,3.19048713 C39.8456738,3.02581106 40.2385488,2.94347426 40.6699475,2.94347426 C42.2029534,2.94347426 42.9694448,3.71897202 42.9694448,5.26999081 L42.9694448,9.41176471 Z M47.6493263,9.52665441 C46.6555687,9.52665441 45.8784851,9.23847561 45.318052,8.66210937 C44.757619,8.08574314 44.4774066,7.29205469 44.4774066,6.28102022 C44.4774066,5.24317802 44.7373975,4.42746927 45.2573869,3.83386949 C45.7773763,3.2402697 46.4918696,2.94347426 47.4008882,2.94347426 C48.2444266,2.94347426 48.9107734,3.1981439 49.3999487,3.70749081 C49.8891239,4.21683772 50.1337079,4.91765792 50.1337079,5.80997243 L50.1337079,6.53952206 L45.8755935,6.53952206 C45.8948523,7.1560999 46.062402,7.63001519 46.3782474,7.96128217 C46.6940928,8.29254914 47.138966,8.45818015 47.7128803,8.45818015 C48.0903541,8.45818015 48.4418231,8.42275618 48.767298,8.35190717 C49.0927729,8.28105816 49.4423161,8.16329739 49.8159381,7.99862132 L49.8159381,9.09581801 C49.4846856,9.25283473 49.1495863,9.36389367 48.8106303,9.42899816 C48.4716742,9.49410265 48.0845767,9.52665441 47.6493263,9.52665441 Z M47.4008882,3.96599265 C46.9694895,3.96599265 46.623798,4.10194411 46.3638033,4.3738511 C46.1038086,4.6457581 45.948777,5.04212362 45.898704,5.56295956 L48.799075,5.56295956 C48.7913714,5.03829395 48.6642648,4.64097102 48.4177513,4.37097886 C48.1712378,4.1009867 47.8322868,3.96599265 47.4008882,3.96599265 Z M54.9175867,2.94347426 C55.1910627,2.94347426 55.416388,2.96262236 55.5935696,3.00091912 L55.4606841,4.2589614 C55.2680954,4.21300528 55.0678062,4.19002757 54.8598104,4.19002757 C54.3167103,4.19002757 53.8766518,4.36619003 53.5396216,4.71852022 C53.2025914,5.07085041 53.0340789,5.52848983 53.0340789,6.09145221 L53.0340789,9.41176471 L51.6763355,9.41176471 L51.6763355,3.05836397 L52.7394197,3.05836397 L52.9185262,4.1785386 L52.9878578,4.1785386 C53.1997054,3.79940068 53.476066,3.49877562 53.8169479,3.27665441 C54.1578299,3.0545332 54.5247058,2.94347426 54.9175867,2.94347426 Z M61.0707643,7.60225184 C61.0707643,8.22265935 60.843513,8.69848946 60.3890038,9.02975643 C59.9344945,9.36102341 59.2835545,9.52665441 58.4361643,9.52665441 C57.5849223,9.52665441 56.9012428,9.39836219 56.3851051,9.1417739 L56.3851051,7.97564338 C57.136201,8.32031422 57.8352874,8.49264706 58.4823854,8.49264706 C59.3182202,8.49264706 59.7361314,8.24180704 59.7361314,7.74011949 C59.7361314,7.57927309 59.6899108,7.44523644 59.5974682,7.33800551 C59.5050257,7.23077459 59.3528829,7.11971565 59.1410354,7.00482537 C58.9291878,6.88993509 58.6345315,6.75972806 58.2570577,6.61420037 C57.521369,6.33080434 57.0235347,6.04741257 56.76354,5.76401654 C56.5035453,5.48062052 56.3735499,5.11297714 56.3735499,4.66107537 C56.3735499,4.11726137 56.5940606,3.69504593 57.0350887,3.39441636 C57.4761168,3.09378679 58.0760215,2.94347426 58.8348209,2.94347426 C59.5859167,2.94347426 60.2965583,3.0947442 60.9667669,3.3972886 L60.5276669,4.4140625 C59.8381994,4.13066648 59.2585162,3.98897059 58.7885998,3.98897059 C58.0721699,3.98897059 57.7139604,4.19194037 57.7139604,4.59788603 C57.7139604,4.79702918 57.8073645,4.9655324 57.9941755,5.10340074 C58.1809865,5.24126907 58.5883055,5.43083519 59.2161446,5.67210478 C59.7438375,5.87507761 60.1270833,6.06081411 60.3658932,6.22931985 C60.6047032,6.3978256 60.7818821,6.59217874 60.8974353,6.81238511 C61.0129885,7.03259148 61.0707643,7.29587776 61.0707643,7.60225184 Z" id="Containers"/>
  </g>
</svg>