<?xml version="1.0" encoding="utf-8"?>
<svg viewBox="372.132 69.82 191.532 68" xmlns="http://www.w3.org/2000/svg">
  <g id="Or-use-built-in-tool" transform="matrix(1, 0, 0, 1, 55.15377, 67.819977)">
    <path d="M365.864524,6.6998731 C365.864524,8.05901695 365.522966,9.11547846 364.839839,9.86928934 C364.156713,10.6231002 363.189444,11 361.938002,11 C360.671253,11 359.698243,10.6259555 359.018944,9.87785533 C358.339645,9.12975514 358,8.06663126 358,6.68845178 C358,5.3102723 358.341558,4.25190725 359.024684,3.51332487 C359.707811,2.7747425 360.682734,2.40545685 361.949483,2.40545685 C363.197098,2.40545685 364.161497,2.7804531 364.84271,3.53045685 C365.523922,4.2804606 365.864524,5.33692212 365.864524,6.6998731 Z M359.458094,6.6998731 C359.458094,7.72779702 359.666665,8.5072943 360.083812,9.03838832 C360.500959,9.56948235 361.119016,9.83502538 361.938002,9.83502538 C362.753161,9.83502538 363.368348,9.57233765 363.783582,9.04695431 C364.198816,8.52157098 364.406429,7.73921839 364.406429,6.6998731 C364.406429,5.6757563 364.200729,4.89911432 363.789323,4.36992386 C363.377916,3.84073339 362.764642,3.57614213 361.949483,3.57614213 C361.12667,3.57614213 360.505743,3.84073339 360.086682,4.36992386 C359.667621,4.89911432 359.458094,5.6757563 359.458094,6.6998731 Z M370.743972,4.45558376 C371.015692,4.45558376 371.23957,4.4746191 371.415614,4.51269036 L371.283582,5.76332487 C371.09223,5.71763937 370.893227,5.69479695 370.686567,5.69479695 C370.146955,5.69479695 369.709722,5.86992211 369.374856,6.22017766 C369.039991,6.57043322 368.87256,7.02537791 368.87256,7.58502538 L368.87256,10.8857868 L367.523536,10.8857868 L367.523536,4.56979695 L368.579793,4.56979695 L368.75775,5.68337563 L368.826636,5.68337563 C369.037123,5.3064702 369.311709,5.00761532 369.650402,4.78680203 C369.989095,4.56598874 370.353615,4.45558376 370.743972,4.45558376 Z M380.123995,10.8857868 L379.934558,10.0577411 L379.865672,10.0577411 C379.678147,10.3508898 379.411215,10.5812174 379.064868,10.748731 C378.718521,10.9162445 378.323385,11 377.879449,11 C377.110214,11 376.536167,10.8096466 376.15729,10.428934 C375.778414,10.0482214 375.588978,9.47145056 375.588978,8.69860406 L375.588978,4.56979695 L376.949483,4.56979695 L376.949483,8.46446701 C376.949483,8.94797196 377.048985,9.31059524 377.247991,9.55234772 C377.446997,9.79410019 377.758896,9.91497462 378.183697,9.91497462 C378.750099,9.91497462 379.166283,9.74651184 379.432262,9.40958122 C379.698241,9.0726506 379.831228,8.50825269 379.831228,7.71637056 L379.831228,4.56979695 L381.185993,4.56979695 L381.185993,10.8857868 L380.123995,10.8857868 Z M387.374282,9.08692893 C387.374282,9.70368329 387.148491,10.1767116 386.6969,10.5060279 C386.24531,10.8353443 385.59855,11 384.756602,11 C383.910826,11 383.231537,10.8724632 382.718714,10.6173858 L382.718714,9.45812183 C383.464987,9.80076313 384.159583,9.97208122 384.802526,9.97208122 C385.632993,9.97208122 386.04822,9.72271823 386.04822,9.22398477 C386.04822,9.06408549 386.002297,8.9308381 385.910448,8.82423858 C385.818599,8.71763906 385.667433,8.60723407 385.456946,8.4930203 C385.246459,8.37880654 384.953695,8.24936621 384.578645,8.10469543 C383.847681,7.82296813 383.353044,7.54124506 383.094719,7.25951777 C382.836394,6.97779047 382.707233,6.61231189 382.707233,6.16307107 C382.707233,5.62245923 382.926328,5.20272992 383.364524,4.90387056 C383.802719,4.6050112 384.398772,4.45558376 385.152698,4.45558376 C385.89897,4.45558376 386.605048,4.60596296 387.270953,4.90672589 L386.834673,5.91751269 C386.149633,5.63578539 385.573672,5.49492386 385.106774,5.49492386 C384.394945,5.49492386 384.039036,5.69669849 384.039036,6.10025381 C384.039036,6.29822434 384.13184,6.46573536 384.317451,6.60279188 C384.503063,6.7398484 384.907766,6.92829829 385.531573,7.16814721 C386.055877,7.36992487 386.436662,7.55456769 386.673938,7.72208122 C386.911214,7.88959475 387.087255,8.08280347 387.202067,8.3017132 C387.316878,8.52062292 387.374282,8.78235888 387.374282,9.08692893 Z M391.605052,11 C390.617676,11 389.845583,10.7135181 389.288749,10.1405457 C388.731915,9.56757328 388.453502,8.77855832 388.453502,7.77347716 C388.453502,6.74174611 388.711823,5.93084051 389.228473,5.34073604 C389.745123,4.75063157 390.455028,4.45558376 391.358209,4.45558376 C392.19633,4.45558376 392.858398,4.70875381 393.344432,5.21510152 C393.830465,5.72144923 394.073479,6.41814277 394.073479,7.30520305 L394.073479,8.03045685 L389.84271,8.03045685 C389.861845,8.64340408 390.028318,9.11452881 390.342135,9.44384518 C390.655953,9.77316155 391.097969,9.93781726 391.668197,9.93781726 C392.043247,9.93781726 392.392459,9.90260187 392.715844,9.83217005 C393.039229,9.76173823 393.386527,9.64467087 393.75775,9.48096447 L393.75775,10.5717005 C393.428624,10.7277927 393.095677,10.8381976 392.758898,10.9029188 C392.422118,10.9676399 392.037507,11 391.605052,11 Z M391.358209,5.47208122 C390.929581,5.47208122 390.586109,5.60723215 390.327784,5.87753807 C390.069459,6.14784399 389.915423,6.54187558 389.865672,7.05964467 L392.747417,7.05964467 C392.739763,6.53806846 392.613472,6.1430851 392.368542,5.87468274 C392.123611,5.60628038 391.786837,5.47208122 391.358209,5.47208122 Z M401.903559,4.45558376 C402.695756,4.45558376 403.312857,4.7411139 403.754879,5.31218274 C404.196902,5.88325159 404.41791,6.68463951 404.41791,7.71637056 C404.41791,8.75190873 404.194032,9.55805549 403.746269,10.134835 C403.298505,10.7116146 402.676621,11 401.880597,11 C401.076919,11 400.453121,10.7125663 400.009185,10.1376904 L399.917336,10.1376904 L399.670494,10.8857868 L398.660161,10.8857868 L398.660161,2 L400.009185,2 L400.009185,4.11294416 C400.009185,4.26903631 400.001531,4.50126749 399.986223,4.80964467 C399.970915,5.11802185 399.959434,5.31408588 399.95178,5.39784264 L400.009185,5.39784264 C400.437813,4.76966691 401.069265,4.45558376 401.903559,4.45558376 Z M401.553387,5.55203046 C401.009948,5.55203046 400.618639,5.71097557 400.379449,6.02887056 C400.140259,6.34676555 400.016839,6.87880338 400.009185,7.625 L400.009185,7.71637056 C400.009185,8.48540994 400.131648,9.04219371 400.376579,9.38673858 C400.621509,9.73128345 401.021429,9.9035533 401.576349,9.9035533 C402.054729,9.9035533 402.417335,9.71510341 402.664179,9.33819797 C402.911023,8.96129253 403.034443,8.41688173 403.034443,7.70494924 C403.034443,6.26966287 402.540763,5.55203046 401.553387,5.55203046 Z M410.462687,10.8857868 L410.273249,10.0577411 L410.204363,10.0577411 C410.016838,10.3508898 409.749906,10.5812174 409.403559,10.748731 C409.057212,10.9162445 408.662076,11 408.21814,11 C407.448905,11 406.874858,10.8096466 406.495982,10.428934 C406.117105,10.0482214 405.927669,9.47145056 405.927669,8.69860406 L405.927669,4.56979695 L407.288175,4.56979695 L407.288175,8.46446701 C407.288175,8.94797196 407.387676,9.31059524 407.586682,9.55234772 C407.785688,9.79410019 408.097587,9.91497462 408.522388,9.91497462 C409.08879,9.91497462 409.504974,9.74651184 409.770953,9.40958122 C410.036932,9.0726506 410.16992,8.50825269 410.16992,7.71637056 L410.16992,4.56979695 L411.524684,4.56979695 L411.524684,10.8857868 L410.462687,10.8857868 Z M414.796785,10.8857868 L413.447761,10.8857868 L413.447761,4.56979695 L414.796785,4.56979695 L414.796785,10.8857868 Z M413.367394,2.8965736 C413.367394,2.65672469 413.433409,2.47208187 413.565442,2.34263959 C413.697475,2.21319732 413.885954,2.14847716 414.130884,2.14847716 C414.36816,2.14847716 414.552812,2.21319732 414.684845,2.34263959 C414.816878,2.47208187 414.882893,2.65672469 414.882893,2.8965736 C414.882893,3.12500114 414.816878,3.30488513 414.684845,3.43623096 C414.552812,3.5675768 414.36816,3.63324873 414.130884,3.63324873 C413.885954,3.63324873 413.697475,3.5675768 413.565442,3.43623096 C413.433409,3.30488513 413.367394,3.12500114 413.367394,2.8965736 Z M418.074627,10.8857868 L416.725603,10.8857868 L416.725603,2 L418.074627,2 L418.074627,10.8857868 Z M422.368542,9.91497462 C422.697667,9.91497462 423.026787,9.86357919 423.355913,9.7607868 L423.355913,10.7715736 C423.206658,10.8362947 423.014352,10.8905455 422.77899,10.9343274 C422.543627,10.9781094 422.299657,11 422.047072,11 C420.768842,11 420.129736,10.3299559 420.129736,8.98984772 L420.129736,5.58629442 L419.262916,5.58629442 L419.262916,4.99238579 L420.192882,4.50126904 L420.652124,3.16497462 L421.484501,3.16497462 L421.484501,4.56979695 L423.292767,4.56979695 L423.292767,5.58629442 L421.484501,5.58629442 L421.484501,8.96700508 C421.484501,9.29061076 421.565824,9.52950431 421.728473,9.68369289 C421.891122,9.83788148 422.104476,9.91497462 422.368542,9.91497462 Z M429.027555,10.8857868 L427.67853,10.8857868 L427.67853,4.56979695 L429.027555,4.56979695 L429.027555,10.8857868 Z M427.598163,2.8965736 C427.598163,2.65672469 427.664178,2.47208187 427.796211,2.34263959 C427.928244,2.21319732 428.116723,2.14847716 428.361653,2.14847716 C428.59893,2.14847716 428.783581,2.21319732 428.915614,2.34263959 C429.047647,2.47208187 429.113662,2.65672469 429.113662,2.8965736 C429.113662,3.12500114 429.047647,3.30488513 428.915614,3.43623096 C428.783581,3.5675768 428.59893,3.63324873 428.361653,3.63324873 C428.116723,3.63324873 427.928244,3.5675768 427.796211,3.43623096 C427.664178,3.30488513 427.598163,3.12500114 427.598163,2.8965736 Z M436.541906,10.8857868 L435.187141,10.8857868 L435.187141,7.00253807 C435.187141,6.51522599 435.088596,6.15165095 434.891504,5.91180203 C434.694412,5.67195312 434.381556,5.55203046 433.952928,5.55203046 C433.382699,5.55203046 432.965558,5.71954147 432.701493,6.05456853 C432.437427,6.38959558 432.305396,6.95113819 432.305396,7.7392132 L432.305396,10.8857868 L430.956372,10.8857868 L430.956372,4.56979695 L432.012629,4.56979695 L432.202067,5.39784264 L432.270953,5.39784264 C432.462305,5.09707971 432.73402,4.86484853 433.086108,4.70114213 C433.438195,4.53743573 433.828547,4.45558376 434.257176,4.45558376 C435.780337,4.45558376 436.541906,5.22651513 436.541906,6.76840102 L436.541906,10.8857868 Z M443.838117,9.91497462 C444.167242,9.91497462 444.496363,9.86357919 444.825488,9.7607868 L444.825488,10.7715736 C444.676233,10.8362947 444.483928,10.8905455 444.248565,10.9343274 C444.013202,10.9781094 443.769232,11 443.516648,11 C442.238417,11 441.599311,10.3299559 441.599311,8.98984772 L441.599311,5.58629442 L440.732491,5.58629442 L440.732491,4.99238579 L441.662457,4.50126904 L442.121699,3.16497462 L442.954076,3.16497462 L442.954076,4.56979695 L444.762342,4.56979695 L444.762342,5.58629442 L442.954076,5.58629442 L442.954076,8.96700508 C442.954076,9.29061076 443.035399,9.52950431 443.198048,9.68369289 C443.360697,9.83788148 443.574051,9.91497462 443.838117,9.91497462 Z M451.725603,7.71637056 C451.725603,8.74810161 451.459628,9.5532966 450.927669,10.1319797 C450.395711,10.7106628 449.65519,11 448.706085,11 C448.112894,11 447.588598,10.8667526 447.13318,10.6002538 C446.677763,10.333755 446.327594,9.95114463 446.082664,9.45241117 C445.837733,8.95367771 445.71527,8.37500329 445.71527,7.71637056 C445.71527,6.69225376 445.979331,5.89276937 446.507463,5.3178934 C447.035594,4.74301743 447.779942,4.45558376 448.740528,4.45558376 C449.659017,4.45558376 450.386144,4.7496798 450.921929,5.33788071 C451.457714,5.92608162 451.725603,6.71890364 451.725603,7.71637056 Z M447.104478,7.71637056 C447.104478,9.17449968 447.645995,9.9035533 448.729047,9.9035533 C449.800618,9.9035533 450.336395,9.17449968 450.336395,7.71637056 C450.336395,6.27346994 449.796791,5.55203046 448.717566,5.55203046 C448.151164,5.55203046 447.740721,5.73857681 447.486223,6.11167513 C447.231725,6.48477344 447.104478,7.01966657 447.104478,7.71637056 Z M458.907003,7.71637056 C458.907003,8.74810161 458.641028,9.5532966 458.10907,10.1319797 C457.577112,10.7106628 456.836591,11 455.887486,11 C455.294295,11 454.769998,10.8667526 454.314581,10.6002538 C453.859163,10.333755 453.508995,9.95114463 453.264064,9.45241117 C453.019134,8.95367771 452.89667,8.37500329 452.89667,7.71637056 C452.89667,6.69225376 453.160732,5.89276937 453.688863,5.3178934 C454.216995,4.74301743 454.961342,4.45558376 455.921929,4.45558376 C456.840418,4.45558376 457.567544,4.7496798 458.10333,5.33788071 C458.639115,5.92608162 458.907003,6.71890364 458.907003,7.71637056 Z M454.285878,7.71637056 C454.285878,9.17449968 454.827396,9.9035533 455.910448,9.9035533 C456.982018,9.9035533 457.517796,9.17449968 457.517796,7.71637056 C457.517796,6.27346994 456.978191,5.55203046 455.898967,5.55203046 C455.332565,5.55203046 454.922121,5.73857681 454.667623,6.11167513 C454.413125,6.48477344 454.285878,7.01966657 454.285878,7.71637056 Z M461.80597,10.8857868 L460.456946,10.8857868 L460.456946,2 L461.80597,2 L461.80597,10.8857868 Z M468,9.08692893 C468,9.70368329 467.774208,10.1767116 467.322618,10.5060279 C466.871027,10.8353443 466.224268,11 465.382319,11 C464.536544,11 463.857255,10.8724632 463.344432,10.6173858 L463.344432,9.45812183 C464.090704,9.80076313 464.785301,9.97208122 465.428243,9.97208122 C466.258711,9.97208122 466.673938,9.72271823 466.673938,9.22398477 C466.673938,9.06408549 466.628014,8.9308381 466.536165,8.82423858 C466.444316,8.71763906 466.293151,8.60723407 466.082664,8.4930203 C465.872177,8.37880654 465.579413,8.24936621 465.204363,8.10469543 C464.473399,7.82296813 463.978761,7.54124506 463.720436,7.25951777 C463.462111,6.97779047 463.332951,6.61231189 463.332951,6.16307107 C463.332951,5.62245923 463.552045,5.20272992 463.990241,4.90387056 C464.428437,4.6050112 465.024489,4.45558376 465.778416,4.45558376 C466.524688,4.45558376 467.230766,4.60596296 467.89667,4.90672589 L467.46039,5.91751269 C466.775351,5.63578539 466.19939,5.49492386 465.732491,5.49492386 C465.020662,5.49492386 464.664753,5.69669849 464.664753,6.10025381 C464.664753,6.29822434 464.757557,6.46573536 464.943169,6.60279188 C465.12878,6.7398484 465.533483,6.92829829 466.15729,7.16814721 C466.681595,7.36992487 467.062379,7.55456769 467.299656,7.72208122 C467.536932,7.88959475 467.712973,8.08280347 467.827784,8.3017132 C467.942595,8.52062292 468,8.78235888 468,9.08692893 Z" transform="matrix(1, 0, 0, 1, 0, 0)" fill="#000000"/>
    <path d="M365.864524,6.6998731 C365.864524,8.05901695 365.522966,9.11547846 364.839839,9.86928934 C364.156713,10.6231002 363.189444,11 361.938002,11 C360.671253,11 359.698243,10.6259555 359.018944,9.87785533 C358.339645,9.12975514 358,8.06663126 358,6.68845178 C358,5.3102723 358.341558,4.25190725 359.024684,3.51332487 C359.707811,2.7747425 360.682734,2.40545685 361.949483,2.40545685 C363.197098,2.40545685 364.161497,2.7804531 364.84271,3.53045685 C365.523922,4.2804606 365.864524,5.33692212 365.864524,6.6998731 Z M359.458094,6.6998731 C359.458094,7.72779702 359.666665,8.5072943 360.083812,9.03838832 C360.500959,9.56948235 361.119016,9.83502538 361.938002,9.83502538 C362.753161,9.83502538 363.368348,9.57233765 363.783582,9.04695431 C364.198816,8.52157098 364.406429,7.73921839 364.406429,6.6998731 C364.406429,5.6757563 364.200729,4.89911432 363.789323,4.36992386 C363.377916,3.84073339 362.764642,3.57614213 361.949483,3.57614213 C361.12667,3.57614213 360.505743,3.84073339 360.086682,4.36992386 C359.667621,4.89911432 359.458094,5.6757563 359.458094,6.6998731 Z M370.743972,4.45558376 C371.015692,4.45558376 371.23957,4.4746191 371.415614,4.51269036 L371.283582,5.76332487 C371.09223,5.71763937 370.893227,5.69479695 370.686567,5.69479695 C370.146955,5.69479695 369.709722,5.86992211 369.374856,6.22017766 C369.039991,6.57043322 368.87256,7.02537791 368.87256,7.58502538 L368.87256,10.8857868 L367.523536,10.8857868 L367.523536,4.56979695 L368.579793,4.56979695 L368.75775,5.68337563 L368.826636,5.68337563 C369.037123,5.3064702 369.311709,5.00761532 369.650402,4.78680203 C369.989095,4.56598874 370.353615,4.45558376 370.743972,4.45558376 Z M380.123995,10.8857868 L379.934558,10.0577411 L379.865672,10.0577411 C379.678147,10.3508898 379.411215,10.5812174 379.064868,10.748731 C378.718521,10.9162445 378.323385,11 377.879449,11 C377.110214,11 376.536167,10.8096466 376.15729,10.428934 C375.778414,10.0482214 375.588978,9.47145056 375.588978,8.69860406 L375.588978,4.56979695 L376.949483,4.56979695 L376.949483,8.46446701 C376.949483,8.94797196 377.048985,9.31059524 377.247991,9.55234772 C377.446997,9.79410019 377.758896,9.91497462 378.183697,9.91497462 C378.750099,9.91497462 379.166283,9.74651184 379.432262,9.40958122 C379.698241,9.0726506 379.831228,8.50825269 379.831228,7.71637056 L379.831228,4.56979695 L381.185993,4.56979695 L381.185993,10.8857868 L380.123995,10.8857868 Z M387.374282,9.08692893 C387.374282,9.70368329 387.148491,10.1767116 386.6969,10.5060279 C386.24531,10.8353443 385.59855,11 384.756602,11 C383.910826,11 383.231537,10.8724632 382.718714,10.6173858 L382.718714,9.45812183 C383.464987,9.80076313 384.159583,9.97208122 384.802526,9.97208122 C385.632993,9.97208122 386.04822,9.72271823 386.04822,9.22398477 C386.04822,9.06408549 386.002297,8.9308381 385.910448,8.82423858 C385.818599,8.71763906 385.667433,8.60723407 385.456946,8.4930203 C385.246459,8.37880654 384.953695,8.24936621 384.578645,8.10469543 C383.847681,7.82296813 383.353044,7.54124506 383.094719,7.25951777 C382.836394,6.97779047 382.707233,6.61231189 382.707233,6.16307107 C382.707233,5.62245923 382.926328,5.20272992 383.364524,4.90387056 C383.802719,4.6050112 384.398772,4.45558376 385.152698,4.45558376 C385.89897,4.45558376 386.605048,4.60596296 387.270953,4.90672589 L386.834673,5.91751269 C386.149633,5.63578539 385.573672,5.49492386 385.106774,5.49492386 C384.394945,5.49492386 384.039036,5.69669849 384.039036,6.10025381 C384.039036,6.29822434 384.13184,6.46573536 384.317451,6.60279188 C384.503063,6.7398484 384.907766,6.92829829 385.531573,7.16814721 C386.055877,7.36992487 386.436662,7.55456769 386.673938,7.72208122 C386.911214,7.88959475 387.087255,8.08280347 387.202067,8.3017132 C387.316878,8.52062292 387.374282,8.78235888 387.374282,9.08692893 Z M391.605052,11 C390.617676,11 389.845583,10.7135181 389.288749,10.1405457 C388.731915,9.56757328 388.453502,8.77855832 388.453502,7.77347716 C388.453502,6.74174611 388.711823,5.93084051 389.228473,5.34073604 C389.745123,4.75063157 390.455028,4.45558376 391.358209,4.45558376 C392.19633,4.45558376 392.858398,4.70875381 393.344432,5.21510152 C393.830465,5.72144923 394.073479,6.41814277 394.073479,7.30520305 L394.073479,8.03045685 L389.84271,8.03045685 C389.861845,8.64340408 390.028318,9.11452881 390.342135,9.44384518 C390.655953,9.77316155 391.097969,9.93781726 391.668197,9.93781726 C392.043247,9.93781726 392.392459,9.90260187 392.715844,9.83217005 C393.039229,9.76173823 393.386527,9.64467087 393.75775,9.48096447 L393.75775,10.5717005 C393.428624,10.7277927 393.095677,10.8381976 392.758898,10.9029188 C392.422118,10.9676399 392.037507,11 391.605052,11 Z M391.358209,5.47208122 C390.929581,5.47208122 390.586109,5.60723215 390.327784,5.87753807 C390.069459,6.14784399 389.915423,6.54187558 389.865672,7.05964467 L392.747417,7.05964467 C392.739763,6.53806846 392.613472,6.1430851 392.368542,5.87468274 C392.123611,5.60628038 391.786837,5.47208122 391.358209,5.47208122 Z M401.903559,4.45558376 C402.695756,4.45558376 403.312857,4.7411139 403.754879,5.31218274 C404.196902,5.88325159 404.41791,6.68463951 404.41791,7.71637056 C404.41791,8.75190873 404.194032,9.55805549 403.746269,10.134835 C403.298505,10.7116146 402.676621,11 401.880597,11 C401.076919,11 400.453121,10.7125663 400.009185,10.1376904 L399.917336,10.1376904 L399.670494,10.8857868 L398.660161,10.8857868 L398.660161,2 L400.009185,2 L400.009185,4.11294416 C400.009185,4.26903631 400.001531,4.50126749 399.986223,4.80964467 C399.970915,5.11802185 399.959434,5.31408588 399.95178,5.39784264 L400.009185,5.39784264 C400.437813,4.76966691 401.069265,4.45558376 401.903559,4.45558376 Z M401.553387,5.55203046 C401.009948,5.55203046 400.618639,5.71097557 400.379449,6.02887056 C400.140259,6.34676555 400.016839,6.87880338 400.009185,7.625 L400.009185,7.71637056 C400.009185,8.48540994 400.131648,9.04219371 400.376579,9.38673858 C400.621509,9.73128345 401.021429,9.9035533 401.576349,9.9035533 C402.054729,9.9035533 402.417335,9.71510341 402.664179,9.33819797 C402.911023,8.96129253 403.034443,8.41688173 403.034443,7.70494924 C403.034443,6.26966287 402.540763,5.55203046 401.553387,5.55203046 Z M410.462687,10.8857868 L410.273249,10.0577411 L410.204363,10.0577411 C410.016838,10.3508898 409.749906,10.5812174 409.403559,10.748731 C409.057212,10.9162445 408.662076,11 408.21814,11 C407.448905,11 406.874858,10.8096466 406.495982,10.428934 C406.117105,10.0482214 405.927669,9.47145056 405.927669,8.69860406 L405.927669,4.56979695 L407.288175,4.56979695 L407.288175,8.46446701 C407.288175,8.94797196 407.387676,9.31059524 407.586682,9.55234772 C407.785688,9.79410019 408.097587,9.91497462 408.522388,9.91497462 C409.08879,9.91497462 409.504974,9.74651184 409.770953,9.40958122 C410.036932,9.0726506 410.16992,8.50825269 410.16992,7.71637056 L410.16992,4.56979695 L411.524684,4.56979695 L411.524684,10.8857868 L410.462687,10.8857868 Z M414.796785,10.8857868 L413.447761,10.8857868 L413.447761,4.56979695 L414.796785,4.56979695 L414.796785,10.8857868 Z M413.367394,2.8965736 C413.367394,2.65672469 413.433409,2.47208187 413.565442,2.34263959 C413.697475,2.21319732 413.885954,2.14847716 414.130884,2.14847716 C414.36816,2.14847716 414.552812,2.21319732 414.684845,2.34263959 C414.816878,2.47208187 414.882893,2.65672469 414.882893,2.8965736 C414.882893,3.12500114 414.816878,3.30488513 414.684845,3.43623096 C414.552812,3.5675768 414.36816,3.63324873 414.130884,3.63324873 C413.885954,3.63324873 413.697475,3.5675768 413.565442,3.43623096 C413.433409,3.30488513 413.367394,3.12500114 413.367394,2.8965736 Z M418.074627,10.8857868 L416.725603,10.8857868 L416.725603,2 L418.074627,2 L418.074627,10.8857868 Z M422.368542,9.91497462 C422.697667,9.91497462 423.026787,9.86357919 423.355913,9.7607868 L423.355913,10.7715736 C423.206658,10.8362947 423.014352,10.8905455 422.77899,10.9343274 C422.543627,10.9781094 422.299657,11 422.047072,11 C420.768842,11 420.129736,10.3299559 420.129736,8.98984772 L420.129736,5.58629442 L419.262916,5.58629442 L419.262916,4.99238579 L420.192882,4.50126904 L420.652124,3.16497462 L421.484501,3.16497462 L421.484501,4.56979695 L423.292767,4.56979695 L423.292767,5.58629442 L421.484501,5.58629442 L421.484501,8.96700508 C421.484501,9.29061076 421.565824,9.52950431 421.728473,9.68369289 C421.891122,9.83788148 422.104476,9.91497462 422.368542,9.91497462 Z M429.027555,10.8857868 L427.67853,10.8857868 L427.67853,4.56979695 L429.027555,4.56979695 L429.027555,10.8857868 Z M427.598163,2.8965736 C427.598163,2.65672469 427.664178,2.47208187 427.796211,2.34263959 C427.928244,2.21319732 428.116723,2.14847716 428.361653,2.14847716 C428.59893,2.14847716 428.783581,2.21319732 428.915614,2.34263959 C429.047647,2.47208187 429.113662,2.65672469 429.113662,2.8965736 C429.113662,3.12500114 429.047647,3.30488513 428.915614,3.43623096 C428.783581,3.5675768 428.59893,3.63324873 428.361653,3.63324873 C428.116723,3.63324873 427.928244,3.5675768 427.796211,3.43623096 C427.664178,3.30488513 427.598163,3.12500114 427.598163,2.8965736 Z M436.541906,10.8857868 L435.187141,10.8857868 L435.187141,7.00253807 C435.187141,6.51522599 435.088596,6.15165095 434.891504,5.91180203 C434.694412,5.67195312 434.381556,5.55203046 433.952928,5.55203046 C433.382699,5.55203046 432.965558,5.71954147 432.701493,6.05456853 C432.437427,6.38959558 432.305396,6.95113819 432.305396,7.7392132 L432.305396,10.8857868 L430.956372,10.8857868 L430.956372,4.56979695 L432.012629,4.56979695 L432.202067,5.39784264 L432.270953,5.39784264 C432.462305,5.09707971 432.73402,4.86484853 433.086108,4.70114213 C433.438195,4.53743573 433.828547,4.45558376 434.257176,4.45558376 C435.780337,4.45558376 436.541906,5.22651513 436.541906,6.76840102 L436.541906,10.8857868 Z M443.838117,9.91497462 C444.167242,9.91497462 444.496363,9.86357919 444.825488,9.7607868 L444.825488,10.7715736 C444.676233,10.8362947 444.483928,10.8905455 444.248565,10.9343274 C444.013202,10.9781094 443.769232,11 443.516648,11 C442.238417,11 441.599311,10.3299559 441.599311,8.98984772 L441.599311,5.58629442 L440.732491,5.58629442 L440.732491,4.99238579 L441.662457,4.50126904 L442.121699,3.16497462 L442.954076,3.16497462 L442.954076,4.56979695 L444.762342,4.56979695 L444.762342,5.58629442 L442.954076,5.58629442 L442.954076,8.96700508 C442.954076,9.29061076 443.035399,9.52950431 443.198048,9.68369289 C443.360697,9.83788148 443.574051,9.91497462 443.838117,9.91497462 Z M451.725603,7.71637056 C451.725603,8.74810161 451.459628,9.5532966 450.927669,10.1319797 C450.395711,10.7106628 449.65519,11 448.706085,11 C448.112894,11 447.588598,10.8667526 447.13318,10.6002538 C446.677763,10.333755 446.327594,9.95114463 446.082664,9.45241117 C445.837733,8.95367771 445.71527,8.37500329 445.71527,7.71637056 C445.71527,6.69225376 445.979331,5.89276937 446.507463,5.3178934 C447.035594,4.74301743 447.779942,4.45558376 448.740528,4.45558376 C449.659017,4.45558376 450.386144,4.7496798 450.921929,5.33788071 C451.457714,5.92608162 451.725603,6.71890364 451.725603,7.71637056 Z M447.104478,7.71637056 C447.104478,9.17449968 447.645995,9.9035533 448.729047,9.9035533 C449.800618,9.9035533 450.336395,9.17449968 450.336395,7.71637056 C450.336395,6.27346994 449.796791,5.55203046 448.717566,5.55203046 C448.151164,5.55203046 447.740721,5.73857681 447.486223,6.11167513 C447.231725,6.48477344 447.104478,7.01966657 447.104478,7.71637056 Z M458.907003,7.71637056 C458.907003,8.74810161 458.641028,9.5532966 458.10907,10.1319797 C457.577112,10.7106628 456.836591,11 455.887486,11 C455.294295,11 454.769998,10.8667526 454.314581,10.6002538 C453.859163,10.333755 453.508995,9.95114463 453.264064,9.45241117 C453.019134,8.95367771 452.89667,8.37500329 452.89667,7.71637056 C452.89667,6.69225376 453.160732,5.89276937 453.688863,5.3178934 C454.216995,4.74301743 454.961342,4.45558376 455.921929,4.45558376 C456.840418,4.45558376 457.567544,4.7496798 458.10333,5.33788071 C458.639115,5.92608162 458.907003,6.71890364 458.907003,7.71637056 Z M454.285878,7.71637056 C454.285878,9.17449968 454.827396,9.9035533 455.910448,9.9035533 C456.982018,9.9035533 457.517796,9.17449968 457.517796,7.71637056 C457.517796,6.27346994 456.978191,5.55203046 455.898967,5.55203046 C455.332565,5.55203046 454.922121,5.73857681 454.667623,6.11167513 C454.413125,6.48477344 454.285878,7.01966657 454.285878,7.71637056 Z M461.80597,10.8857868 L460.456946,10.8857868 L460.456946,2 L461.80597,2 L461.80597,10.8857868 Z M468,9.08692893 C468,9.70368329 467.774208,10.1767116 467.322618,10.5060279 C466.871027,10.8353443 466.224268,11 465.382319,11 C464.536544,11 463.857255,10.8724632 463.344432,10.6173858 L463.344432,9.45812183 C464.090704,9.80076313 464.785301,9.97208122 465.428243,9.97208122 C466.258711,9.97208122 466.673938,9.72271823 466.673938,9.22398477 C466.673938,9.06408549 466.628014,8.9308381 466.536165,8.82423858 C466.444316,8.71763906 466.293151,8.60723407 466.082664,8.4930203 C465.872177,8.37880654 465.579413,8.24936621 465.204363,8.10469543 C464.473399,7.82296813 463.978761,7.54124506 463.720436,7.25951777 C463.462111,6.97779047 463.332951,6.61231189 463.332951,6.16307107 C463.332951,5.62245923 463.552045,5.20272992 463.990241,4.90387056 C464.428437,4.6050112 465.024489,4.45558376 465.778416,4.45558376 C466.524688,4.45558376 467.230766,4.60596296 467.89667,4.90672589 L467.46039,5.91751269 C466.775351,5.63578539 466.19939,5.49492386 465.732491,5.49492386 C465.020662,5.49492386 464.664753,5.69669849 464.664753,6.10025381 C464.664753,6.29822434 464.757557,6.46573536 464.943169,6.60279188 C465.12878,6.7398484 465.533483,6.92829829 466.15729,7.16814721 C466.681595,7.36992487 467.062379,7.55456769 467.299656,7.72208122 C467.536932,7.88959475 467.712973,8.08280347 467.827784,8.3017132 C467.942595,8.52062292 468,8.78235888 468,9.08692893 Z" transform="matrix(1, 0, 0, 1, 0, 0)" fill="#5E5E5E"/>
  </g>
  <g id="Group-4" transform="matrix(1, 0, 0, 1, 371.15377, 92.819977)">
    <rect id="Rectangle" stroke="#08497C" stroke-width="2" fill="#FFFFFF" fill-rule="nonzero" x="1" y="1" width="89" height="44" rx="4"/>
    <ellipse id="Oval" stroke="#08497C" fill="#FFFFFF" fill-rule="nonzero" cx="7.82795699" cy="6" rx="1.95698925" ry="2"/>
    <ellipse id="Oval" stroke="#08497C" fill="#FFFFFF" fill-rule="nonzero" cx="13.6989247" cy="6" rx="1.95698925" ry="2"/>
    <path d="M0.978494624,11 L90.5107527,11" id="Shape" stroke="#08497C"/>
    <g id="OpenStack-SDK">
      <path d="M13.5460349,27.0629883 C13.5460349,28.341315 13.2333307,29.3349574 12.6079128,30.0439453 C11.9824949,30.7529332 11.0969374,31.1074219 9.95121388,31.1074219 C8.79147536,31.1074219 7.90066238,30.7556188 7.27874821,30.052002 C6.65683405,29.3483852 6.34588164,28.3484765 6.34588164,27.0522461 C6.34588164,25.7560157 6.6585859,24.7605829 7.2840038,24.065918 C7.9094217,23.371253 8.80198653,23.0239258 9.96172505,23.0239258 C11.1039449,23.0239258 11.9868745,23.3766241 12.6105406,24.0820312 C13.2342066,24.7874384 13.5460349,25.7810808 13.5460349,27.0629883 Z M7.68080057,27.0629883 C7.68080057,28.02979 7.87175163,28.762937 8.25365948,29.2624512 C8.63556734,29.7619654 9.20141314,30.0117187 9.95121388,30.0117187 C10.6975109,30.0117187 11.2607289,29.7646509 11.6408849,29.2705078 C12.0210409,28.7763647 12.211116,28.0405322 12.211116,27.0629883 C12.211116,26.0997673 12.0227927,25.3693059 11.6461405,24.871582 C11.2694882,24.3738582 10.708022,24.125 9.96172505,24.125 C9.20842057,24.125 8.639947,24.3738582 8.25628728,24.871582 C7.87262755,25.3693059 7.68080057,26.0997673 7.68080057,27.0629883 Z M18.0132834,31.1074219 C17.2774976,31.1074219 16.7063962,30.8370795 16.2999622,30.2963867 L16.226384,30.2963867 C16.2754364,30.7976913 16.2999622,31.1020502 16.2999622,31.2094727 L16.2999622,33.6425781 L15.0648994,33.6425781 L15.0648994,25.0595703 L16.0634608,25.0595703 C16.0914907,25.1705735 16.1493016,25.4355448 16.2368952,25.8544922 L16.2999622,25.8544922 C16.6853738,25.2529267 17.2634825,24.9521484 18.0343057,24.9521484 C18.7595802,24.9521484 19.3245501,25.2207004 19.7292323,25.7578125 C20.1339145,26.2949246 20.3362525,27.0486605 20.3362525,28.019043 C20.3362525,28.9894254 20.1304108,29.7467421 19.7187211,30.2910156 C19.3070315,30.8352892 18.7385579,31.1074219 18.0132834,31.1074219 Z M17.7137149,25.9833984 C17.2231911,25.9833984 16.8649389,26.1302069 16.6389475,26.4238281 C16.4129562,26.7174494 16.2999622,27.1865202 16.2999622,27.8310547 L16.2999622,28.019043 C16.2999622,28.7423539 16.4120803,29.2660303 16.6363197,29.5900879 C16.8605592,29.9141455 17.2266947,30.0761719 17.7347373,30.0761719 C18.1621938,30.0761719 18.4915406,29.8971372 18.7227875,29.5390625 C18.9540345,29.1809878 19.0696562,28.670739 19.0696562,28.0083008 C19.0696562,27.3422818 18.9549104,26.8382992 18.7254153,26.4963379 C18.4959202,26.1543765 18.1586901,25.9833984 17.7137149,25.9833984 Z M24.3094758,31.1074219 C23.4055104,31.1074219 22.6986411,30.8379747 22.1888467,30.2990723 C21.6790523,29.7601698 21.4241589,29.0180711 21.4241589,28.0727539 C21.4241589,27.1023715 21.6606579,26.3396838 22.1336631,25.784668 C22.6066682,25.2296522 23.2566025,24.9521484 24.0834856,24.9521484 C24.850805,24.9521484 25.4569433,25.1902645 25.9019185,25.6665039 C26.3468937,26.1427433 26.5693779,26.7980102 26.5693779,27.6323242 L26.5693779,28.3144531 L22.6960108,28.3144531 C22.7135295,28.8909534 22.86594,29.3340642 23.1532468,29.6437988 C23.4405536,29.9535334 23.8452297,30.1083984 24.3672873,30.1083984 C24.7106539,30.1083984 25.0303656,30.075277 25.3264318,30.0090332 C25.6224979,29.9427894 25.9404577,29.8326831 26.2803207,29.6787109 L26.2803207,30.7045898 C25.9789989,30.8514005 25.6741779,30.9552406 25.3658487,31.0161133 C25.0575194,31.076986 24.7053986,31.1074219 24.3094758,31.1074219 Z M24.0834856,25.9082031 C23.6910665,25.9082031 23.3766104,26.0353177 23.1401078,26.2895508 C22.9036053,26.5437838 22.7625818,26.9143856 22.7170331,27.4013672 L25.3553375,27.4013672 C25.34833,26.9108048 25.2327083,26.5393079 25.0084688,26.2868652 C24.7842293,26.0344226 24.4759047,25.9082031 24.0834856,25.9082031 Z M33.086305,31 L31.8459866,31 L31.8459866,27.3476562 C31.8459866,26.8893206 31.7557666,26.5473644 31.5753239,26.3217773 C31.3948812,26.0961903 31.1084547,25.9833984 30.7160356,25.9833984 C30.1939781,25.9833984 29.8120759,26.1409489 29.5703178,26.4560547 C29.3285596,26.7711604 29.2076823,27.2993127 29.2076823,28.0405273 L29.2076823,31 L27.9726195,31 L27.9726195,25.0595703 L28.9396474,25.0595703 L29.1130817,25.8383789 L29.1761488,25.8383789 C29.3513359,25.5554999 29.6000978,25.3370776 29.922442,25.1831055 C30.2447863,25.0291333 30.6021626,24.9521484 30.9945817,24.9521484 C32.3890709,24.9521484 33.086305,25.6772388 33.086305,27.1274414 L33.086305,31 Z M39.3667307,28.8676758 C39.3667307,29.5659215 39.1197206,30.1137675 38.625693,30.5112305 C38.1316655,30.9086934 37.4501979,31.1074219 36.58127,31.1074219 C35.712342,31.1074219 35.0010931,30.9695652 34.4475019,30.6938477 L34.4475019,29.4799805 C34.7978761,29.6482756 35.170143,29.7807612 35.564314,29.8774414 C35.9584849,29.9741216 36.3254964,30.0224609 36.6653593,30.0224609 C37.1628907,30.0224609 37.5299021,29.9257822 37.7664047,29.7324219 C38.0029072,29.5390615 38.1211568,29.2794613 38.1211568,28.9536133 C38.1211568,28.659992 38.0125424,28.4111338 37.7953104,28.2070312 C37.5780784,28.0029287 37.1296062,27.7612319 36.4498803,27.4819336 C35.7491319,27.1918931 35.2551118,26.8606789 34.9678049,26.4882812 C34.6804981,26.1158836 34.5368469,25.6682969 34.5368469,25.1455078 C34.5368469,24.4902311 34.7645867,23.9746113 35.2200731,23.5986328 C35.6755595,23.2226544 36.2869533,23.034668 37.0542727,23.034668 C37.7900585,23.034668 38.5223295,23.1993799 39.2511078,23.5288086 L38.8516833,24.5761719 C38.1684536,24.2825506 37.5588117,24.1357422 37.0227392,24.1357422 C36.6163052,24.1357422 36.3079805,24.2261547 36.097756,24.4069824 C35.8875315,24.5878101 35.7824208,24.8268214 35.7824208,25.1240234 C35.7824208,25.328126 35.8244651,25.5026848 35.9085549,25.6477051 C35.9926447,25.7927253 36.1310404,25.9296869 36.3237462,26.0585937 C36.516452,26.1875006 36.8633172,26.3575836 37.3643523,26.5688477 C37.9284547,26.8087577 38.3418901,27.032551 38.6046707,27.2402344 C38.8674513,27.4479177 39.0601542,27.6824531 39.1827852,27.9438477 C39.3054162,28.2052422 39.3667307,28.5131818 39.3667307,28.8676758 Z M42.8879736,30.0869141 C43.1892954,30.0869141 43.4906126,30.0385747 43.7919344,29.9418945 L43.7919344,30.8925781 C43.6552885,30.9534508 43.4792281,31.0044757 43.263748,31.0456543 C43.0482679,31.0868329 42.8249077,31.1074219 42.5936607,31.1074219 C41.423411,31.1074219 40.8382949,30.4772198 40.8382949,29.2167969 L40.8382949,26.015625 L40.0447014,26.015625 L40.0447014,25.4570312 L40.8961064,24.9951172 L41.3165533,23.7382812 L42.0786133,23.7382812 L42.0786133,25.0595703 L43.734123,25.0595703 L43.734123,26.015625 L42.0786133,26.015625 L42.0786133,29.1953125 C42.0786133,29.499676 42.1530667,29.7243645 42.3019757,29.8693848 C42.4508847,30.014405 42.6462154,30.0869141 42.8879736,30.0869141 Z M48.5902848,31 L48.3432722,30.1728516 L48.3012275,30.1728516 C48.0209282,30.534507 47.7388812,30.7806797 47.4550781,30.911377 C47.171275,31.0420742 46.8068914,31.1074219 46.3619162,31.1074219 C45.7908063,31.1074219 45.3449618,30.9498714 45.0243694,30.6347656 C44.7037771,30.3196599 44.5434833,29.8738636 44.5434833,29.2973633 C44.5434833,28.6850555 44.7659675,28.2231461 45.2109428,27.9116211 C45.655918,27.6000961 46.3338818,27.4300132 47.2448547,27.4013672 L48.2486717,27.3691406 L48.2486717,27.0522461 C48.2486717,26.6726869 48.1619554,26.388917 47.9885201,26.2009277 C47.8150849,26.0129385 47.5461768,25.9189453 47.1817876,25.9189453 C46.8839696,25.9189453 46.5984189,25.963704 46.3251271,26.0532227 C46.0518352,26.1427413 45.7890585,26.2483718 45.5367891,26.3701172 L45.1373645,25.4677734 C45.4527013,25.2994783 45.7978147,25.1714685 46.1727151,25.0837402 C46.5476154,24.9960119 46.901488,24.9521484 47.2343435,24.9521484 C47.973633,24.9521484 48.5315955,25.1168603 48.9082478,25.4462891 C49.2849,25.7757178 49.4732233,26.293128 49.4732233,26.9985352 L49.4732233,31 L48.5902848,31 Z M46.7508296,30.140625 C47.1993085,30.140625 47.5593126,30.0126152 47.8308525,29.7565918 C48.1023925,29.5005684 48.2381605,29.1416039 48.2381605,28.6796875 L48.2381605,28.1640625 L47.4918672,28.1962891 C46.9102461,28.2177735 46.4871756,28.3171378 46.2226431,28.4943848 C45.9581106,28.6716317 45.8258464,28.9428693 45.8258464,29.3081055 C45.8258464,29.5730808 45.9029275,29.7780754 46.0570922,29.9230957 C46.2112568,30.068116 46.4425003,30.140625 46.7508296,30.140625 Z M53.5410471,31.1074219 C52.6616079,31.1074219 51.9932792,30.8451361 51.5360409,30.3205566 C51.0788026,29.7959772 50.8501869,29.0431364 50.8501869,28.0620117 C50.8501869,27.0629833 51.0893137,26.2949246 51.5675744,25.7578125 C52.0458352,25.2207004 52.7369379,24.9521484 53.6409033,24.9521484 C54.2540581,24.9521484 54.8058891,25.068521 55.296413,25.3012695 L54.9232663,26.3164062 C54.4012088,26.1087229 53.970255,26.0048828 53.6303921,26.0048828 C52.6248182,26.0048828 52.1220388,26.6870049 52.1220388,28.0512695 C52.1220388,28.7172885 52.2472957,29.2176904 52.4978132,29.5524902 C52.7483308,29.8872901 53.1153422,30.0546875 53.5988586,30.0546875 C54.148946,30.0546875 54.6692439,29.9150405 55.1597677,29.6357422 L55.1597677,30.7368164 C54.939032,30.869304 54.7034089,30.9641924 54.4528914,31.0214844 C54.2023738,31.0787763 53.8984288,31.1074219 53.5410471,31.1074219 Z M57.7192383,27.8632812 L58.4182313,26.9716797 L60.1735971,25.0595703 L61.597861,25.0595703 L59.2591251,27.6108398 L61.7450174,31 L60.2944756,31 L58.4287424,28.3950195 L57.7507718,28.9643555 L57.7507718,31 L56.5262202,31 L56.5262202,22.6425781 L57.7507718,22.6425781 L57.7507718,26.7192383 L57.6877048,27.8632812 L57.7192383,27.8632812 Z M70.0383327,28.8676758 C70.0383327,29.5659215 69.7913226,30.1137675 69.297295,30.5112305 C68.8032674,30.9086934 68.1217999,31.1074219 67.2528719,31.1074219 C66.383944,31.1074219 65.6726951,30.9695652 65.1191039,30.6938477 L65.1191039,29.4799805 C65.469478,29.6482756 65.841745,29.7807612 66.235916,29.8774414 C66.6300869,29.9741216 66.9970984,30.0224609 67.3369613,30.0224609 C67.8344926,30.0224609 68.2015041,29.9257822 68.4380067,29.7324219 C68.6745092,29.5390615 68.7927587,29.2794613 68.7927587,28.9536133 C68.7927587,28.659992 68.6841444,28.4111338 68.4669124,28.2070312 C68.2496804,28.0029287 67.8012082,27.7612319 67.1214823,27.4819336 C66.4207339,27.1918931 65.9267137,26.8606789 65.6394069,26.4882812 C65.3521001,26.1158836 65.2084488,25.6682969 65.2084488,25.1455078 C65.2084488,24.4902311 65.4361886,23.9746113 65.8916751,23.5986328 C66.3471615,23.2226544 66.9585553,23.034668 67.7258747,23.034668 C68.4616605,23.034668 69.1939315,23.1993799 69.9227098,23.5288086 L69.5232852,24.5761719 C68.8400556,24.2825506 68.2304137,24.1357422 67.6943412,24.1357422 C67.2879071,24.1357422 66.9795825,24.2261547 66.769358,24.4069824 C66.5591335,24.5878101 66.4540228,24.8268214 66.4540228,25.1240234 C66.4540228,25.328126 66.4960671,25.5026848 66.5801569,25.6477051 C66.6642467,25.7927253 66.8026424,25.9296869 66.9953482,26.0585937 C67.188054,26.1875006 67.5349192,26.3575836 68.0359543,26.5688477 C68.6000567,26.8087577 69.013492,27.032551 69.2762727,27.2402344 C69.5390533,27.4479177 69.7317562,27.6824531 69.8543872,27.9438477 C69.9770181,28.2052422 70.0383327,28.5131818 70.0383327,28.8676758 Z M77.7745558,26.9985352 C77.7745558,28.2947656 77.4224351,29.2857225 76.718183,29.9714355 C76.0139309,30.6571486 74.9996128,31 73.6751985,31 L71.5256636,31 L71.5256636,23.1474609 L73.9011887,23.1474609 C75.1239945,23.1474609 76.0752462,23.4840461 76.7549721,24.1572266 C77.434698,24.830407 77.7745558,25.7775004 77.7745558,26.9985352 Z M76.4501481,27.0415039 C76.4501481,25.1616117 75.5899924,24.2216797 73.8696552,24.2216797 L72.7817488,24.2216797 L72.7817488,29.9204102 L73.6751985,29.9204102 C75.5251741,29.9204102 76.4501481,28.9607843 76.4501481,27.0415039 Z M85.2900443,31 L83.8342469,31 L81.4219328,27.4443359 L80.6808951,28.0620117 L80.6808951,31 L79.4248099,31 L79.4248099,23.1474609 L80.6808951,23.1474609 L80.6808951,26.8964844 C81.0242618,26.4667947 81.3658715,26.0532246 81.7057344,25.6557617 L83.781691,23.1474609 L85.2112105,23.1474609 C83.8692774,24.7587971 82.9075147,25.9064093 82.3258936,26.590332 L85.2900443,31 Z" transform="matrix(1, 0, 0, 1, 0, 0)" fill="#000000"/>
      <path d="M13.5460349,27.0629883 C13.5460349,28.341315 13.2333307,29.3349574 12.6079128,30.0439453 C11.9824949,30.7529332 11.0969374,31.1074219 9.95121388,31.1074219 C8.79147536,31.1074219 7.90066238,30.7556188 7.27874821,30.052002 C6.65683405,29.3483852 6.34588164,28.3484765 6.34588164,27.0522461 C6.34588164,25.7560157 6.6585859,24.7605829 7.2840038,24.065918 C7.9094217,23.371253 8.80198653,23.0239258 9.96172505,23.0239258 C11.1039449,23.0239258 11.9868745,23.3766241 12.6105406,24.0820312 C13.2342066,24.7874384 13.5460349,25.7810808 13.5460349,27.0629883 Z M7.68080057,27.0629883 C7.68080057,28.02979 7.87175163,28.762937 8.25365948,29.2624512 C8.63556734,29.7619654 9.20141314,30.0117187 9.95121388,30.0117187 C10.6975109,30.0117187 11.2607289,29.7646509 11.6408849,29.2705078 C12.0210409,28.7763647 12.211116,28.0405322 12.211116,27.0629883 C12.211116,26.0997673 12.0227927,25.3693059 11.6461405,24.871582 C11.2694882,24.3738582 10.708022,24.125 9.96172505,24.125 C9.20842057,24.125 8.639947,24.3738582 8.25628728,24.871582 C7.87262755,25.3693059 7.68080057,26.0997673 7.68080057,27.0629883 Z M18.0132834,31.1074219 C17.2774976,31.1074219 16.7063962,30.8370795 16.2999622,30.2963867 L16.226384,30.2963867 C16.2754364,30.7976913 16.2999622,31.1020502 16.2999622,31.2094727 L16.2999622,33.6425781 L15.0648994,33.6425781 L15.0648994,25.0595703 L16.0634608,25.0595703 C16.0914907,25.1705735 16.1493016,25.4355448 16.2368952,25.8544922 L16.2999622,25.8544922 C16.6853738,25.2529267 17.2634825,24.9521484 18.0343057,24.9521484 C18.7595802,24.9521484 19.3245501,25.2207004 19.7292323,25.7578125 C20.1339145,26.2949246 20.3362525,27.0486605 20.3362525,28.019043 C20.3362525,28.9894254 20.1304108,29.7467421 19.7187211,30.2910156 C19.3070315,30.8352892 18.7385579,31.1074219 18.0132834,31.1074219 Z M17.7137149,25.9833984 C17.2231911,25.9833984 16.8649389,26.1302069 16.6389475,26.4238281 C16.4129562,26.7174494 16.2999622,27.1865202 16.2999622,27.8310547 L16.2999622,28.019043 C16.2999622,28.7423539 16.4120803,29.2660303 16.6363197,29.5900879 C16.8605592,29.9141455 17.2266947,30.0761719 17.7347373,30.0761719 C18.1621938,30.0761719 18.4915406,29.8971372 18.7227875,29.5390625 C18.9540345,29.1809878 19.0696562,28.670739 19.0696562,28.0083008 C19.0696562,27.3422818 18.9549104,26.8382992 18.7254153,26.4963379 C18.4959202,26.1543765 18.1586901,25.9833984 17.7137149,25.9833984 Z M24.3094758,31.1074219 C23.4055104,31.1074219 22.6986411,30.8379747 22.1888467,30.2990723 C21.6790523,29.7601698 21.4241589,29.0180711 21.4241589,28.0727539 C21.4241589,27.1023715 21.6606579,26.3396838 22.1336631,25.784668 C22.6066682,25.2296522 23.2566025,24.9521484 24.0834856,24.9521484 C24.850805,24.9521484 25.4569433,25.1902645 25.9019185,25.6665039 C26.3468937,26.1427433 26.5693779,26.7980102 26.5693779,27.6323242 L26.5693779,28.3144531 L22.6960108,28.3144531 C22.7135295,28.8909534 22.86594,29.3340642 23.1532468,29.6437988 C23.4405536,29.9535334 23.8452297,30.1083984 24.3672873,30.1083984 C24.7106539,30.1083984 25.0303656,30.075277 25.3264318,30.0090332 C25.6224979,29.9427894 25.9404577,29.8326831 26.2803207,29.6787109 L26.2803207,30.7045898 C25.9789989,30.8514005 25.6741779,30.9552406 25.3658487,31.0161133 C25.0575194,31.076986 24.7053986,31.1074219 24.3094758,31.1074219 Z M24.0834856,25.9082031 C23.6910665,25.9082031 23.3766104,26.0353177 23.1401078,26.2895508 C22.9036053,26.5437838 22.7625818,26.9143856 22.7170331,27.4013672 L25.3553375,27.4013672 C25.34833,26.9108048 25.2327083,26.5393079 25.0084688,26.2868652 C24.7842293,26.0344226 24.4759047,25.9082031 24.0834856,25.9082031 Z M33.086305,31 L31.8459866,31 L31.8459866,27.3476562 C31.8459866,26.8893206 31.7557666,26.5473644 31.5753239,26.3217773 C31.3948812,26.0961903 31.1084547,25.9833984 30.7160356,25.9833984 C30.1939781,25.9833984 29.8120759,26.1409489 29.5703178,26.4560547 C29.3285596,26.7711604 29.2076823,27.2993127 29.2076823,28.0405273 L29.2076823,31 L27.9726195,31 L27.9726195,25.0595703 L28.9396474,25.0595703 L29.1130817,25.8383789 L29.1761488,25.8383789 C29.3513359,25.5554999 29.6000978,25.3370776 29.922442,25.1831055 C30.2447863,25.0291333 30.6021626,24.9521484 30.9945817,24.9521484 C32.3890709,24.9521484 33.086305,25.6772388 33.086305,27.1274414 L33.086305,31 Z M39.3667307,28.8676758 C39.3667307,29.5659215 39.1197206,30.1137675 38.625693,30.5112305 C38.1316655,30.9086934 37.4501979,31.1074219 36.58127,31.1074219 C35.712342,31.1074219 35.0010931,30.9695652 34.4475019,30.6938477 L34.4475019,29.4799805 C34.7978761,29.6482756 35.170143,29.7807612 35.564314,29.8774414 C35.9584849,29.9741216 36.3254964,30.0224609 36.6653593,30.0224609 C37.1628907,30.0224609 37.5299021,29.9257822 37.7664047,29.7324219 C38.0029072,29.5390615 38.1211568,29.2794613 38.1211568,28.9536133 C38.1211568,28.659992 38.0125424,28.4111338 37.7953104,28.2070312 C37.5780784,28.0029287 37.1296062,27.7612319 36.4498803,27.4819336 C35.7491319,27.1918931 35.2551118,26.8606789 34.9678049,26.4882812 C34.6804981,26.1158836 34.5368469,25.6682969 34.5368469,25.1455078 C34.5368469,24.4902311 34.7645867,23.9746113 35.2200731,23.5986328 C35.6755595,23.2226544 36.2869533,23.034668 37.0542727,23.034668 C37.7900585,23.034668 38.5223295,23.1993799 39.2511078,23.5288086 L38.8516833,24.5761719 C38.1684536,24.2825506 37.5588117,24.1357422 37.0227392,24.1357422 C36.6163052,24.1357422 36.3079805,24.2261547 36.097756,24.4069824 C35.8875315,24.5878101 35.7824208,24.8268214 35.7824208,25.1240234 C35.7824208,25.328126 35.8244651,25.5026848 35.9085549,25.6477051 C35.9926447,25.7927253 36.1310404,25.9296869 36.3237462,26.0585937 C36.516452,26.1875006 36.8633172,26.3575836 37.3643523,26.5688477 C37.9284547,26.8087577 38.3418901,27.032551 38.6046707,27.2402344 C38.8674513,27.4479177 39.0601542,27.6824531 39.1827852,27.9438477 C39.3054162,28.2052422 39.3667307,28.5131818 39.3667307,28.8676758 Z M42.8879736,30.0869141 C43.1892954,30.0869141 43.4906126,30.0385747 43.7919344,29.9418945 L43.7919344,30.8925781 C43.6552885,30.9534508 43.4792281,31.0044757 43.263748,31.0456543 C43.0482679,31.0868329 42.8249077,31.1074219 42.5936607,31.1074219 C41.423411,31.1074219 40.8382949,30.4772198 40.8382949,29.2167969 L40.8382949,26.015625 L40.0447014,26.015625 L40.0447014,25.4570312 L40.8961064,24.9951172 L41.3165533,23.7382812 L42.0786133,23.7382812 L42.0786133,25.0595703 L43.734123,25.0595703 L43.734123,26.015625 L42.0786133,26.015625 L42.0786133,29.1953125 C42.0786133,29.499676 42.1530667,29.7243645 42.3019757,29.8693848 C42.4508847,30.014405 42.6462154,30.0869141 42.8879736,30.0869141 Z M48.5902848,31 L48.3432722,30.1728516 L48.3012275,30.1728516 C48.0209282,30.534507 47.7388812,30.7806797 47.4550781,30.911377 C47.171275,31.0420742 46.8068914,31.1074219 46.3619162,31.1074219 C45.7908063,31.1074219 45.3449618,30.9498714 45.0243694,30.6347656 C44.7037771,30.3196599 44.5434833,29.8738636 44.5434833,29.2973633 C44.5434833,28.6850555 44.7659675,28.2231461 45.2109428,27.9116211 C45.655918,27.6000961 46.3338818,27.4300132 47.2448547,27.4013672 L48.2486717,27.3691406 L48.2486717,27.0522461 C48.2486717,26.6726869 48.1619554,26.388917 47.9885201,26.2009277 C47.8150849,26.0129385 47.5461768,25.9189453 47.1817876,25.9189453 C46.8839696,25.9189453 46.5984189,25.963704 46.3251271,26.0532227 C46.0518352,26.1427413 45.7890585,26.2483718 45.5367891,26.3701172 L45.1373645,25.4677734 C45.4527013,25.2994783 45.7978147,25.1714685 46.1727151,25.0837402 C46.5476154,24.9960119 46.901488,24.9521484 47.2343435,24.9521484 C47.973633,24.9521484 48.5315955,25.1168603 48.9082478,25.4462891 C49.2849,25.7757178 49.4732233,26.293128 49.4732233,26.9985352 L49.4732233,31 L48.5902848,31 Z M46.7508296,30.140625 C47.1993085,30.140625 47.5593126,30.0126152 47.8308525,29.7565918 C48.1023925,29.5005684 48.2381605,29.1416039 48.2381605,28.6796875 L48.2381605,28.1640625 L47.4918672,28.1962891 C46.9102461,28.2177735 46.4871756,28.3171378 46.2226431,28.4943848 C45.9581106,28.6716317 45.8258464,28.9428693 45.8258464,29.3081055 C45.8258464,29.5730808 45.9029275,29.7780754 46.0570922,29.9230957 C46.2112568,30.068116 46.4425003,30.140625 46.7508296,30.140625 Z M53.5410471,31.1074219 C52.6616079,31.1074219 51.9932792,30.8451361 51.5360409,30.3205566 C51.0788026,29.7959772 50.8501869,29.0431364 50.8501869,28.0620117 C50.8501869,27.0629833 51.0893137,26.2949246 51.5675744,25.7578125 C52.0458352,25.2207004 52.7369379,24.9521484 53.6409033,24.9521484 C54.2540581,24.9521484 54.8058891,25.068521 55.296413,25.3012695 L54.9232663,26.3164062 C54.4012088,26.1087229 53.970255,26.0048828 53.6303921,26.0048828 C52.6248182,26.0048828 52.1220388,26.6870049 52.1220388,28.0512695 C52.1220388,28.7172885 52.2472957,29.2176904 52.4978132,29.5524902 C52.7483308,29.8872901 53.1153422,30.0546875 53.5988586,30.0546875 C54.148946,30.0546875 54.6692439,29.9150405 55.1597677,29.6357422 L55.1597677,30.7368164 C54.939032,30.869304 54.7034089,30.9641924 54.4528914,31.0214844 C54.2023738,31.0787763 53.8984288,31.1074219 53.5410471,31.1074219 Z M57.7192383,27.8632812 L58.4182313,26.9716797 L60.1735971,25.0595703 L61.597861,25.0595703 L59.2591251,27.6108398 L61.7450174,31 L60.2944756,31 L58.4287424,28.3950195 L57.7507718,28.9643555 L57.7507718,31 L56.5262202,31 L56.5262202,22.6425781 L57.7507718,22.6425781 L57.7507718,26.7192383 L57.6877048,27.8632812 L57.7192383,27.8632812 Z M70.0383327,28.8676758 C70.0383327,29.5659215 69.7913226,30.1137675 69.297295,30.5112305 C68.8032674,30.9086934 68.1217999,31.1074219 67.2528719,31.1074219 C66.383944,31.1074219 65.6726951,30.9695652 65.1191039,30.6938477 L65.1191039,29.4799805 C65.469478,29.6482756 65.841745,29.7807612 66.235916,29.8774414 C66.6300869,29.9741216 66.9970984,30.0224609 67.3369613,30.0224609 C67.8344926,30.0224609 68.2015041,29.9257822 68.4380067,29.7324219 C68.6745092,29.5390615 68.7927587,29.2794613 68.7927587,28.9536133 C68.7927587,28.659992 68.6841444,28.4111338 68.4669124,28.2070312 C68.2496804,28.0029287 67.8012082,27.7612319 67.1214823,27.4819336 C66.4207339,27.1918931 65.9267137,26.8606789 65.6394069,26.4882812 C65.3521001,26.1158836 65.2084488,25.6682969 65.2084488,25.1455078 C65.2084488,24.4902311 65.4361886,23.9746113 65.8916751,23.5986328 C66.3471615,23.2226544 66.9585553,23.034668 67.7258747,23.034668 C68.4616605,23.034668 69.1939315,23.1993799 69.9227098,23.5288086 L69.5232852,24.5761719 C68.8400556,24.2825506 68.2304137,24.1357422 67.6943412,24.1357422 C67.2879071,24.1357422 66.9795825,24.2261547 66.769358,24.4069824 C66.5591335,24.5878101 66.4540228,24.8268214 66.4540228,25.1240234 C66.4540228,25.328126 66.4960671,25.5026848 66.5801569,25.6477051 C66.6642467,25.7927253 66.8026424,25.9296869 66.9953482,26.0585937 C67.188054,26.1875006 67.5349192,26.3575836 68.0359543,26.5688477 C68.6000567,26.8087577 69.013492,27.032551 69.2762727,27.2402344 C69.5390533,27.4479177 69.7317562,27.6824531 69.8543872,27.9438477 C69.9770181,28.2052422 70.0383327,28.5131818 70.0383327,28.8676758 Z M77.7745558,26.9985352 C77.7745558,28.2947656 77.4224351,29.2857225 76.718183,29.9714355 C76.0139309,30.6571486 74.9996128,31 73.6751985,31 L71.5256636,31 L71.5256636,23.1474609 L73.9011887,23.1474609 C75.1239945,23.1474609 76.0752462,23.4840461 76.7549721,24.1572266 C77.434698,24.830407 77.7745558,25.7775004 77.7745558,26.9985352 Z M76.4501481,27.0415039 C76.4501481,25.1616117 75.5899924,24.2216797 73.8696552,24.2216797 L72.7817488,24.2216797 L72.7817488,29.9204102 L73.6751985,29.9204102 C75.5251741,29.9204102 76.4501481,28.9607843 76.4501481,27.0415039 Z M85.2900443,31 L83.8342469,31 L81.4219328,27.4443359 L80.6808951,28.0620117 L80.6808951,31 L79.4248099,31 L79.4248099,23.1474609 L80.6808951,23.1474609 L80.6808951,26.8964844 C81.0242618,26.4667947 81.3658715,26.0532246 81.7057344,25.6557617 L83.781691,23.1474609 L85.2112105,23.1474609 C83.8692774,24.7587971 82.9075147,25.9064093 82.3258936,26.590332 L85.2900443,31 Z" transform="matrix(1, 0, 0, 1, 0, 0)" fill="#35A2DE"/>
    </g>
  </g>
  <g id="Group-4" transform="matrix(1, 0, 0, 1, 473.15377, 92.819977)">
    <rect id="Rectangle" stroke="#08497C" stroke-width="2" fill="#FFFFFF" fill-rule="nonzero" x="1" y="1" width="89" height="44" rx="4"/>
    <ellipse id="Oval" stroke="#08497C" fill="#FFFFFF" fill-rule="nonzero" cx="7.82795699" cy="6" rx="1.95698925" ry="2"/>
    <ellipse id="Oval" stroke="#08497C" fill="#FFFFFF" fill-rule="nonzero" cx="13.6989247" cy="6" rx="1.95698925" ry="2"/>
    <path d="M0.978494624,11 L90.5107527,11" id="Shape" stroke="#08497C"/>
    <g id="Horizon-Web-UI" fill="#35A2DE">
      <path d="M12.2794386,31 L11.0180979,31 L11.0180979,27.4604492 L7.4758327,27.4604492 L7.4758327,31 L6.21974756,31 L6.21974756,23.1474609 L7.4758327,23.1474609 L7.4758327,26.359375 L11.0180979,26.359375 L11.0180979,23.1474609 L12.2794386,23.1474609 L12.2794386,31 Z M19.3271799,28.019043 C19.3271799,28.9894254 19.0836735,29.7467421 18.5966534,30.2910156 C18.1096333,30.8352892 17.4316695,31.1074219 16.5627415,31.1074219 C16.0196615,31.1074219 15.5396561,30.9820976 15.1227109,30.7314453 C14.7057656,30.480793 14.385178,30.1209333 14.1609386,29.6518555 C13.9366991,29.1827776 13.824581,28.6385122 13.824581,28.019043 C13.824581,27.055822 14.0663356,26.3038764 14.5498519,25.7631836 C15.0333683,25.2224908 15.7148359,24.9521484 16.594275,24.9521484 C17.4351731,24.9521484 18.100874,25.228757 18.5913978,25.7819824 C19.0819217,26.3352078 19.3271799,27.0808872 19.3271799,28.019043 Z M15.0964329,28.019043 C15.0964329,29.3904691 15.5922049,30.0761719 16.5837639,30.0761719 C17.5648116,30.0761719 18.055328,29.3904691 18.055328,28.019043 C18.055328,26.6619398 17.5613079,25.9833984 16.5732527,25.9833984 C16.0546989,25.9833984 15.6789282,26.1588524 15.4459294,26.5097656 C15.2129306,26.8606788 15.0964329,27.3637663 15.0964329,28.019043 Z M23.6945722,24.9521484 C23.9433379,24.9521484 24.1483037,24.9700519 24.3094758,25.0058594 L24.1885973,26.1821289 C24.0134102,26.1391599 23.8312184,26.1176758 23.6420163,26.1176758 C23.1479888,26.1176758 22.7476923,26.2823877 22.4411149,26.6118164 C22.1345375,26.9412451 21.9812511,27.369138 21.9812511,27.8955078 L21.9812511,31 L20.7461883,31 L20.7461883,25.0595703 L21.7132161,25.0595703 L21.8761393,26.1069336 L21.9392064,26.1069336 C22.1319122,25.7524396 22.3833019,25.4713552 22.693383,25.2636719 C23.0034641,25.0559885 23.3371905,24.9521484 23.6945722,24.9521484 Z M26.6219338,31 L25.386871,31 L25.386871,25.0595703 L26.6219338,25.0595703 L26.6219338,31 Z M25.3132928,23.4858398 C25.3132928,23.2602528 25.3737314,23.0865892 25.4946105,22.9648437 C25.6154896,22.8430983 25.7880463,22.7822266 26.0122858,22.7822266 C26.2295178,22.7822266 26.3985708,22.8430983 26.5194499,22.9648437 C26.640329,23.0865892 26.7007676,23.2602528 26.7007676,23.4858398 C26.7007676,23.7006847 26.640329,23.8698724 26.5194499,23.9934082 C26.3985708,24.116944 26.2295178,24.1787109 26.0122858,24.1787109 C25.7880463,24.1787109 25.6154896,24.116944 25.4946105,23.9934082 C25.3737314,23.8698724 25.3132928,23.7006847 25.3132928,23.4858398 Z M32.2716891,31 L27.8622522,31 L27.8622522,30.2211914 L30.800125,26.0263672 L28.0409421,26.0263672 L28.0409421,25.0595703 L32.1875998,25.0595703 L32.1875998,25.9404297 L29.312794,30.0332031 L32.2716891,30.0332031 L32.2716891,31 Z M38.6887601,28.019043 C38.6887601,28.9894254 38.4452537,29.7467421 37.9582336,30.2910156 C37.4712135,30.8352892 36.7932496,31.1074219 35.9243217,31.1074219 C35.3812417,31.1074219 34.9012363,30.9820976 34.484291,30.7314453 C34.0673457,30.480793 33.7467582,30.1209333 33.5225187,29.6518555 C33.2982792,29.1827776 33.1861612,28.6385122 33.1861612,28.019043 C33.1861612,27.055822 33.4279157,26.3038764 33.9114321,25.7631836 C34.3949484,25.2224908 35.076416,24.9521484 35.9558552,24.9521484 C36.7967532,24.9521484 37.4624541,25.228757 37.952978,25.7819824 C38.4435018,26.3352078 38.6887601,27.0808872 38.6887601,28.019043 Z M34.4580131,28.019043 C34.4580131,29.3904691 34.9537851,30.0761719 35.945344,30.0761719 C36.9263917,30.0761719 37.4169082,29.3904691 37.4169082,28.019043 C37.4169082,26.6619398 36.922888,25.9833984 35.9348328,25.9833984 C35.416279,25.9833984 35.0405084,26.1588524 34.8075096,26.5097656 C34.5745107,26.8606788 34.4580131,27.3637663 34.4580131,28.019043 Z M45.2214539,31 L43.9811355,31 L43.9811355,27.3476562 C43.9811355,26.8893206 43.8909155,26.5473644 43.7104728,26.3217773 C43.5300301,26.0961903 43.2436036,25.9833984 42.8511845,25.9833984 C42.329127,25.9833984 41.9472248,26.1409489 41.7054666,26.4560547 C41.4637085,26.7711604 41.3428312,27.2993127 41.3428312,28.0405273 L41.3428312,31 L40.1077684,31 L40.1077684,25.0595703 L41.0747963,25.0595703 L41.2482306,25.8383789 L41.3112977,25.8383789 C41.4864848,25.5554999 41.7352467,25.3370776 42.0575909,25.1831055 C42.3799352,25.0291333 42.7373115,24.9521484 43.1297306,24.9521484 C44.5242198,24.9521484 45.2214539,25.6772388 45.2214539,27.1274414 L45.2214539,31 Z M56.9571783,31 L55.5907258,31 L54.2873404,26.3164062 C54.2312805,26.1123037 54.1612067,25.8177916 54.0771169,25.4328613 C53.9930271,25.047931 53.9422236,24.7802742 53.9247049,24.6298828 C53.8896675,24.8590506 53.8327326,25.1562482 53.7538984,25.5214844 C53.6750642,25.8867206 53.60937,26.1588533 53.5568139,26.3378906 L52.284962,31 L50.9185095,31 L49.9252037,27.0683594 L48.9161311,23.1474609 L50.1984942,23.1474609 L51.2969118,27.7236328 C51.4685951,28.457686 51.5912242,29.1057915 51.6648028,29.6679687 C51.703344,29.3636052 51.7611548,29.0234394 51.8382371,28.6474609 C51.9153195,28.2714825 51.9853932,27.9671236 52.0484606,27.734375 L53.2992902,23.1474609 L54.5448641,23.1474609 L55.8272272,27.7558594 C55.9498582,28.1819683 56.0794947,28.8193317 56.2161406,29.6679687 C56.2686967,29.1559219 56.3948295,28.5042357 56.5945428,27.7128906 L57.6877048,23.1474609 L58.9595567,23.1474609 L56.9571783,31 Z M62.2390425,31.1074219 C61.3350772,31.1074219 60.6282079,30.8379747 60.1184135,30.2990723 C59.608619,29.7601698 59.3537256,29.0180711 59.3537256,28.0727539 C59.3537256,27.1023715 59.5902247,26.3396838 60.0632298,25.784668 C60.5362349,25.2296522 61.1861693,24.9521484 62.0130523,24.9521484 C62.7803718,24.9521484 63.38651,25.1902645 63.8314852,25.6665039 C64.2764604,26.1427433 64.4989447,26.7980102 64.4989447,27.6323242 L64.4989447,28.3144531 L60.6255775,28.3144531 C60.6430962,28.8909534 60.7955067,29.3340642 61.0828136,29.6437988 C61.3701204,29.9535334 61.7747965,30.1083984 62.296854,30.1083984 C62.6402207,30.1083984 62.9599323,30.075277 63.2559985,30.0090332 C63.5520647,29.9427894 63.8700245,29.8326831 64.2098874,29.6787109 L64.2098874,30.7045898 C63.9085656,30.8514005 63.6037447,30.9552406 63.2954154,31.0161133 C62.9870861,31.076986 62.6349654,31.1074219 62.2390425,31.1074219 Z M62.0130523,25.9082031 C61.6206333,25.9082031 61.3061772,26.0353177 61.0696746,26.2895508 C60.833172,26.5437838 60.6921485,26.9143856 60.6465999,27.4013672 L63.2849042,27.4013672 C63.2778968,26.9108048 63.162275,26.5393079 62.9380355,26.2868652 C62.7137961,26.0344226 62.4054714,25.9082031 62.0130523,25.9082031 Z M68.8715925,24.9521484 C69.5968671,24.9521484 70.161837,25.2207004 70.5665191,25.7578125 C70.9712013,26.2949246 71.1735394,27.0486605 71.1735394,28.019043 C71.1735394,28.9930062 70.9685735,29.751218 70.5586358,30.2937012 C70.148698,30.8361844 69.5793485,31.1074219 68.8505702,31.1074219 C68.1147844,31.1074219 67.5436831,30.8370795 67.137249,30.2963867 L67.0531597,30.2963867 L66.8271694,31 L65.9021862,31 L65.9021862,22.6425781 L67.137249,22.6425781 L67.137249,24.6298828 C67.137249,24.7766934 67.1302417,24.9951157 67.1162267,25.2851562 C67.1022117,25.5751968 67.0917007,25.7596025 67.0846932,25.8383789 L67.137249,25.8383789 C67.5296681,25.2475556 68.1077768,24.9521484 68.8715925,24.9521484 Z M68.5510018,25.9833984 C68.0534704,25.9833984 67.6952182,26.1328924 67.4762344,26.4318848 C67.2572505,26.7308771 67.1442565,27.231279 67.137249,27.9331055 L67.137249,28.019043 C67.137249,28.7423539 67.2493671,29.2660303 67.4736066,29.5900879 C67.697846,29.9141455 68.0639816,30.0761719 68.5720241,30.0761719 C69.0099918,30.0761719 69.3419664,29.8989276 69.5679577,29.5444336 C69.7939491,29.1899396 69.906943,28.6779005 69.906943,28.0083008 C69.906943,26.6583591 69.4549671,25.9833984 68.5510018,25.9833984 Z M81.558578,23.1474609 L81.558578,28.2285156 C81.558578,28.8085967 81.4368248,29.3161599 81.1933147,29.7512207 C80.9498047,30.1862815 80.5976839,30.5210763 80.1369419,30.7556152 C79.6761998,30.9901542 79.1252447,31.1074219 78.48406,31.1074219 C77.5310422,31.1074219 76.790012,30.849612 76.260947,30.3339844 C75.7318819,29.8183568 75.4673534,29.1093795 75.4673534,28.2070312 L75.4673534,23.1474609 L76.7286941,23.1474609 L76.7286941,28.1157227 C76.7286941,28.7638379 76.8758491,29.2418604 77.1701634,29.5498047 C77.4644777,29.8577489 77.9164536,30.0117187 78.5261047,30.0117187 C79.7103694,30.0117187 80.3024929,29.3761457 80.3024929,28.1049805 L80.3024929,23.1474609 L81.558578,23.1474609 Z M83.5241673,31 L83.5241673,23.1474609 L84.7802524,23.1474609 L84.7802524,31 L83.5241673,31 Z" transform="matrix(1, 0, 0, 1, 0, 0)"/>
      <path d="M12.2794386,31 L11.0180979,31 L11.0180979,27.4604492 L7.4758327,27.4604492 L7.4758327,31 L6.21974756,31 L6.21974756,23.1474609 L7.4758327,23.1474609 L7.4758327,26.359375 L11.0180979,26.359375 L11.0180979,23.1474609 L12.2794386,23.1474609 L12.2794386,31 Z M19.3271799,28.019043 C19.3271799,28.9894254 19.0836735,29.7467421 18.5966534,30.2910156 C18.1096333,30.8352892 17.4316695,31.1074219 16.5627415,31.1074219 C16.0196615,31.1074219 15.5396561,30.9820976 15.1227109,30.7314453 C14.7057656,30.480793 14.385178,30.1209333 14.1609386,29.6518555 C13.9366991,29.1827776 13.824581,28.6385122 13.824581,28.019043 C13.824581,27.055822 14.0663356,26.3038764 14.5498519,25.7631836 C15.0333683,25.2224908 15.7148359,24.9521484 16.594275,24.9521484 C17.4351731,24.9521484 18.100874,25.228757 18.5913978,25.7819824 C19.0819217,26.3352078 19.3271799,27.0808872 19.3271799,28.019043 Z M15.0964329,28.019043 C15.0964329,29.3904691 15.5922049,30.0761719 16.5837639,30.0761719 C17.5648116,30.0761719 18.055328,29.3904691 18.055328,28.019043 C18.055328,26.6619398 17.5613079,25.9833984 16.5732527,25.9833984 C16.0546989,25.9833984 15.6789282,26.1588524 15.4459294,26.5097656 C15.2129306,26.8606788 15.0964329,27.3637663 15.0964329,28.019043 Z M23.6945722,24.9521484 C23.9433379,24.9521484 24.1483037,24.9700519 24.3094758,25.0058594 L24.1885973,26.1821289 C24.0134102,26.1391599 23.8312184,26.1176758 23.6420163,26.1176758 C23.1479888,26.1176758 22.7476923,26.2823877 22.4411149,26.6118164 C22.1345375,26.9412451 21.9812511,27.369138 21.9812511,27.8955078 L21.9812511,31 L20.7461883,31 L20.7461883,25.0595703 L21.7132161,25.0595703 L21.8761393,26.1069336 L21.9392064,26.1069336 C22.1319122,25.7524396 22.3833019,25.4713552 22.693383,25.2636719 C23.0034641,25.0559885 23.3371905,24.9521484 23.6945722,24.9521484 Z M26.6219338,31 L25.386871,31 L25.386871,25.0595703 L26.6219338,25.0595703 L26.6219338,31 Z M25.3132928,23.4858398 C25.3132928,23.2602528 25.3737314,23.0865892 25.4946105,22.9648437 C25.6154896,22.8430983 25.7880463,22.7822266 26.0122858,22.7822266 C26.2295178,22.7822266 26.3985708,22.8430983 26.5194499,22.9648437 C26.640329,23.0865892 26.7007676,23.2602528 26.7007676,23.4858398 C26.7007676,23.7006847 26.640329,23.8698724 26.5194499,23.9934082 C26.3985708,24.116944 26.2295178,24.1787109 26.0122858,24.1787109 C25.7880463,24.1787109 25.6154896,24.116944 25.4946105,23.9934082 C25.3737314,23.8698724 25.3132928,23.7006847 25.3132928,23.4858398 Z M32.2716891,31 L27.8622522,31 L27.8622522,30.2211914 L30.800125,26.0263672 L28.0409421,26.0263672 L28.0409421,25.0595703 L32.1875998,25.0595703 L32.1875998,25.9404297 L29.312794,30.0332031 L32.2716891,30.0332031 L32.2716891,31 Z M38.6887601,28.019043 C38.6887601,28.9894254 38.4452537,29.7467421 37.9582336,30.2910156 C37.4712135,30.8352892 36.7932496,31.1074219 35.9243217,31.1074219 C35.3812417,31.1074219 34.9012363,30.9820976 34.484291,30.7314453 C34.0673457,30.480793 33.7467582,30.1209333 33.5225187,29.6518555 C33.2982792,29.1827776 33.1861612,28.6385122 33.1861612,28.019043 C33.1861612,27.055822 33.4279157,26.3038764 33.9114321,25.7631836 C34.3949484,25.2224908 35.076416,24.9521484 35.9558552,24.9521484 C36.7967532,24.9521484 37.4624541,25.228757 37.952978,25.7819824 C38.4435018,26.3352078 38.6887601,27.0808872 38.6887601,28.019043 Z M34.4580131,28.019043 C34.4580131,29.3904691 34.9537851,30.0761719 35.945344,30.0761719 C36.9263917,30.0761719 37.4169082,29.3904691 37.4169082,28.019043 C37.4169082,26.6619398 36.922888,25.9833984 35.9348328,25.9833984 C35.416279,25.9833984 35.0405084,26.1588524 34.8075096,26.5097656 C34.5745107,26.8606788 34.4580131,27.3637663 34.4580131,28.019043 Z M45.2214539,31 L43.9811355,31 L43.9811355,27.3476562 C43.9811355,26.8893206 43.8909155,26.5473644 43.7104728,26.3217773 C43.5300301,26.0961903 43.2436036,25.9833984 42.8511845,25.9833984 C42.329127,25.9833984 41.9472248,26.1409489 41.7054666,26.4560547 C41.4637085,26.7711604 41.3428312,27.2993127 41.3428312,28.0405273 L41.3428312,31 L40.1077684,31 L40.1077684,25.0595703 L41.0747963,25.0595703 L41.2482306,25.8383789 L41.3112977,25.8383789 C41.4864848,25.5554999 41.7352467,25.3370776 42.0575909,25.1831055 C42.3799352,25.0291333 42.7373115,24.9521484 43.1297306,24.9521484 C44.5242198,24.9521484 45.2214539,25.6772388 45.2214539,27.1274414 L45.2214539,31 Z M56.9571783,31 L55.5907258,31 L54.2873404,26.3164062 C54.2312805,26.1123037 54.1612067,25.8177916 54.0771169,25.4328613 C53.9930271,25.047931 53.9422236,24.7802742 53.9247049,24.6298828 C53.8896675,24.8590506 53.8327326,25.1562482 53.7538984,25.5214844 C53.6750642,25.8867206 53.60937,26.1588533 53.5568139,26.3378906 L52.284962,31 L50.9185095,31 L49.9252037,27.0683594 L48.9161311,23.1474609 L50.1984942,23.1474609 L51.2969118,27.7236328 C51.4685951,28.457686 51.5912242,29.1057915 51.6648028,29.6679687 C51.703344,29.3636052 51.7611548,29.0234394 51.8382371,28.6474609 C51.9153195,28.2714825 51.9853932,27.9671236 52.0484606,27.734375 L53.2992902,23.1474609 L54.5448641,23.1474609 L55.8272272,27.7558594 C55.9498582,28.1819683 56.0794947,28.8193317 56.2161406,29.6679687 C56.2686967,29.1559219 56.3948295,28.5042357 56.5945428,27.7128906 L57.6877048,23.1474609 L58.9595567,23.1474609 L56.9571783,31 Z M62.2390425,31.1074219 C61.3350772,31.1074219 60.6282079,30.8379747 60.1184135,30.2990723 C59.608619,29.7601698 59.3537256,29.0180711 59.3537256,28.0727539 C59.3537256,27.1023715 59.5902247,26.3396838 60.0632298,25.784668 C60.5362349,25.2296522 61.1861693,24.9521484 62.0130523,24.9521484 C62.7803718,24.9521484 63.38651,25.1902645 63.8314852,25.6665039 C64.2764604,26.1427433 64.4989447,26.7980102 64.4989447,27.6323242 L64.4989447,28.3144531 L60.6255775,28.3144531 C60.6430962,28.8909534 60.7955067,29.3340642 61.0828136,29.6437988 C61.3701204,29.9535334 61.7747965,30.1083984 62.296854,30.1083984 C62.6402207,30.1083984 62.9599323,30.075277 63.2559985,30.0090332 C63.5520647,29.9427894 63.8700245,29.8326831 64.2098874,29.6787109 L64.2098874,30.7045898 C63.9085656,30.8514005 63.6037447,30.9552406 63.2954154,31.0161133 C62.9870861,31.076986 62.6349654,31.1074219 62.2390425,31.1074219 Z M62.0130523,25.9082031 C61.6206333,25.9082031 61.3061772,26.0353177 61.0696746,26.2895508 C60.833172,26.5437838 60.6921485,26.9143856 60.6465999,27.4013672 L63.2849042,27.4013672 C63.2778968,26.9108048 63.162275,26.5393079 62.9380355,26.2868652 C62.7137961,26.0344226 62.4054714,25.9082031 62.0130523,25.9082031 Z M68.8715925,24.9521484 C69.5968671,24.9521484 70.161837,25.2207004 70.5665191,25.7578125 C70.9712013,26.2949246 71.1735394,27.0486605 71.1735394,28.019043 C71.1735394,28.9930062 70.9685735,29.751218 70.5586358,30.2937012 C70.148698,30.8361844 69.5793485,31.1074219 68.8505702,31.1074219 C68.1147844,31.1074219 67.5436831,30.8370795 67.137249,30.2963867 L67.0531597,30.2963867 L66.8271694,31 L65.9021862,31 L65.9021862,22.6425781 L67.137249,22.6425781 L67.137249,24.6298828 C67.137249,24.7766934 67.1302417,24.9951157 67.1162267,25.2851562 C67.1022117,25.5751968 67.0917007,25.7596025 67.0846932,25.8383789 L67.137249,25.8383789 C67.5296681,25.2475556 68.1077768,24.9521484 68.8715925,24.9521484 Z M68.5510018,25.9833984 C68.0534704,25.9833984 67.6952182,26.1328924 67.4762344,26.4318848 C67.2572505,26.7308771 67.1442565,27.231279 67.137249,27.9331055 L67.137249,28.019043 C67.137249,28.7423539 67.2493671,29.2660303 67.4736066,29.5900879 C67.697846,29.9141455 68.0639816,30.0761719 68.5720241,30.0761719 C69.0099918,30.0761719 69.3419664,29.8989276 69.5679577,29.5444336 C69.7939491,29.1899396 69.906943,28.6779005 69.906943,28.0083008 C69.906943,26.6583591 69.4549671,25.9833984 68.5510018,25.9833984 Z M81.558578,23.1474609 L81.558578,28.2285156 C81.558578,28.8085967 81.4368248,29.3161599 81.1933147,29.7512207 C80.9498047,30.1862815 80.5976839,30.5210763 80.1369419,30.7556152 C79.6761998,30.9901542 79.1252447,31.1074219 78.48406,31.1074219 C77.5310422,31.1074219 76.790012,30.849612 76.260947,30.3339844 C75.7318819,29.8183568 75.4673534,29.1093795 75.4673534,28.2070312 L75.4673534,23.1474609 L76.7286941,23.1474609 L76.7286941,28.1157227 C76.7286941,28.7638379 76.8758491,29.2418604 77.1701634,29.5498047 C77.4644777,29.8577489 77.9164536,30.0117187 78.5261047,30.0117187 C79.7103694,30.0117187 80.3024929,29.3761457 80.3024929,28.1049805 L80.3024929,23.1474609 L81.558578,23.1474609 Z M83.5241673,31 L83.5241673,23.1474609 L84.7802524,23.1474609 L84.7802524,31 L83.5241673,31 Z" transform="matrix(1, 0, 0, 1, 0, 0)"/>
    </g>
  </g>
</svg>